M48
; DRILL file {KiCad 7.0.11+dfsg-1build4} date Mon 13 Jul 2026 08:16:47 PM PDT
; FORMAT={-:-/ absolute / metric / decimal}
; #@! TF.CreationDate,2026-07-13T20:16:47-07:00
; #@! TF.GenerationSoftware,Kicad,Pcbnew,7.0.11+dfsg-1build4
; #@! TF.FileFunction,MixedPlating,1,4
FMAT,2
METRIC
; #@! TA.AperFunction,Plated,PTH,ViaDrill
T1C0.150
; #@! TA.AperFunction,Plated,PTH,ViaDrill
T2C0.200
; #@! TA.AperFunction,Plated,PTH,ViaDrill
T3C0.250
; #@! TA.AperFunction,Plated,PTH,ViaDrill
T4C0.290
; #@! TA.AperFunction,Plated,PTH,ViaDrill
T5C0.300
; #@! TA.AperFunction,Plated,PTH,ComponentDrill
T6C0.600
; #@! TA.AperFunction,Plated,PTH,ComponentDrill
T7C0.900
; #@! TA.AperFunction,Plated,PTH,ComponentDrill
T8C1.000
; #@! TA.AperFunction,Plated,PTH,ComponentDrill
T9C1.300
; #@! TA.AperFunction,Plated,PTH,ComponentDrill
T10C1.400
; #@! TA.AperFunction,Plated,PTH,ComponentDrill
T11C1.900
; #@! TA.AperFunction,Plated,PTH,ComponentDrill
T12C2.700
; #@! TA.AperFunction,NonPlated,NPTH,ComponentDrill
T13C0.650
; #@! TA.AperFunction,NonPlated,NPTH,ComponentDrill
T14C1.100
; #@! TA.AperFunction,NonPlated,NPTH,ComponentDrill
T15C2.400
; #@! TA.AperFunction,NonPlated,NPTH,ComponentDrill
T16C3.200
%
G90
G05
T1
X52.5Y-91.3
X52.61Y-90.25
X55.35Y-88.7
X55.39Y-89.25
X55.39Y-89.75
X62.45Y-101.85
X62.55Y-100.6
X63.6Y-99.8
X64.4Y-99.55
X65.4Y-100.173
X65.45Y-101.4
X76.2Y-68.0
X76.4Y-69.5
X77.5Y-86.3
X80.6Y-57.8
X80.6Y-58.8
X80.6Y-59.7
X80.6Y-92.7
X80.65Y-60.25
X80.65Y-90.75
X80.65Y-91.75
X80.65Y-93.25
X82.7Y-90.1
X82.7Y-93.8
X83.35Y-57.75
X83.35Y-59.75
X83.35Y-60.75
X83.35Y-93.25
X123.25Y-56.68
X126.25Y-56.68
T2
X60.587Y-81.0
X60.587Y-91.7
X97.413Y-56.0
X97.413Y-88.0
T3
X94.562Y-94.0
T4
X55.6Y-96.75
X64.25Y-104.05
X68.51Y-97.0
X86.51Y-98.0
X91.5Y-81.3
T5
X51.0Y-91.9
X51.5Y-97.0
X51.7Y-91.1
X52.1Y-96.1
X52.3Y-87.9
X53.5Y-102.7
X55.6Y-94.8
X55.6Y-104.8
X56.2Y-89.2
X56.3Y-90.0
X56.4Y-98.4
X56.9Y-95.5
X57.3Y-104.3
X57.4Y-105.8
X58.8Y-79.8
X58.8Y-82.0
X58.8Y-84.2
X58.8Y-89.8
X58.8Y-92.0
X58.8Y-94.2
X59.9Y-91.7
X59.9Y-97.8
X60.6Y-80.3
X60.9Y-105.3
X61.3Y-99.3
X61.9Y-103.3
X62.4Y-82.8
X62.4Y-84.4
X63.5Y-95.3
X63.5Y-100.5
X64.0Y-101.0
X64.4Y-106.2
X64.5Y-100.5
X64.5Y-101.5
X65.0Y-103.2
X65.5Y-99.5
X65.6Y-107.0
X66.0Y-95.2
X67.0Y-106.7
X67.6Y-95.1
X68.5Y-102.7
X68.6Y-106.8
X68.8Y-84.0
X69.1Y-97.6
X69.5Y-84.0
X69.5Y-99.0
X69.9Y-105.1
X70.0Y-68.3
X70.5Y-80.0
X70.5Y-80.9
X71.5Y-105.0
X71.6Y-96.9
X71.8Y-95.7
X72.1Y-91.6
X72.4Y-101.1
X72.6Y-67.7
X72.6Y-114.5
X72.9Y-62.0
X73.2Y-66.7
X73.3Y-69.5
X73.7Y-71.9
X74.4Y-68.2
X74.4Y-75.0
X74.5Y-86.4
X74.6Y-80.0
X75.0Y-64.0
X75.4Y-70.8
X75.6Y-86.5
X76.0Y-70.2
X76.4Y-87.3
X77.0Y-73.0
X77.6Y-81.5
X77.7Y-76.2
X77.7Y-77.6
X77.8Y-70.8
X78.0Y-80.0
X78.1Y-85.0
X78.3Y-106.7
X78.4Y-84.1
X78.5Y-80.5
X78.6Y-102.9
X79.1Y-73.2
X79.3Y-63.1
X79.6Y-113.4
X79.8Y-95.6
X79.9Y-62.5
X80.0Y-102.9
X80.6Y-61.8
X80.6Y-94.8
X80.6Y-100.2
X81.4Y-58.1
X81.4Y-59.9
X81.4Y-91.1
X81.4Y-92.9
X81.48Y-106.0
X81.6Y-59.1
X81.7Y-89.3
X81.9Y-95.4
X82.0Y-59.0
X82.0Y-92.0
X82.3Y-80.0
X82.4Y-97.4
X82.5Y-81.4
X82.6Y-58.1
X82.6Y-59.9
X82.6Y-64.2
X82.6Y-91.1
X82.6Y-92.9
X82.8Y-75.0
X83.1Y-98.3
X83.3Y-62.2
X83.3Y-77.8
X83.3Y-80.0
X83.4Y-95.4
X83.5Y-57.0
X83.8Y-97.4
X84.1Y-61.5
X84.1Y-72.2
X84.1Y-81.4
X84.1Y-83.0
X84.1Y-99.3
X84.2Y-57.8
X84.2Y-92.8
X84.3Y-60.7
X84.4Y-68.9
X84.4Y-70.7
X84.4Y-101.3
X84.6Y-74.9
X85.0Y-93.8
X85.1Y-63.1
X85.4Y-60.8
X85.5Y-106.0
X85.52Y-80.0
X85.8Y-54.7
X85.8Y-90.2
X86.6Y-85.6
X87.4Y-66.0
X87.7Y-92.1
X87.8Y-87.2
X88.0Y-59.4
X88.1Y-55.1
X88.8Y-62.8
X88.9Y-58.3
X88.9Y-67.1
X88.9Y-81.1
X88.9Y-88.3
X89.0Y-66.0
X89.1Y-106.0
X89.3Y-68.9
X89.4Y-82.3
X89.5Y-90.3
X89.6Y-79.7
X90.0Y-56.0
X90.0Y-61.0
X90.0Y-86.5
X90.0Y-96.5
X90.3Y-98.2
X90.4Y-81.3
X90.7Y-67.1
X90.7Y-91.5
X91.4Y-79.6
X91.4Y-103.0
X91.5Y-85.0
X91.8Y-103.7
X92.0Y-96.9
X92.1Y-93.8
X92.4Y-92.5
X92.5Y-65.3
X92.8Y-60.8
X92.8Y-63.0
X92.8Y-65.2
X92.8Y-92.8
X92.8Y-95.0
X92.8Y-97.2
X93.3Y-95.8
X93.3Y-96.9
X94.5Y-63.1
X94.5Y-68.0
X94.5Y-94.8
X94.8Y-102.9
X94.8Y-105.7
X95.0Y-100.4
X95.4Y-80.0
X95.615Y-54.2
X95.615Y-55.0
X95.615Y-55.8
X95.615Y-86.2
X95.615Y-87.0
X95.615Y-87.8
X95.9Y-66.4
X96.0Y-70.5
X96.2Y-110.5
X96.3Y-111.7
X96.4Y-63.0
X96.58Y-102.0
X97.0Y-105.65
X97.1Y-102.9
X97.2Y-80.0
X97.4Y-89.9
X97.5Y-68.0
X97.5Y-87.2
X97.5Y-101.8
X97.6Y-73.2
X98.2Y-108.5
X98.4Y-77.7
X98.6Y-72.1
X98.6Y-111.0
X99.1Y-76.7
X99.1Y-102.0
X99.5Y-83.7
X99.6Y-72.1
X99.8Y-59.0
X99.8Y-105.3
X100.8Y-78.4
X101.0Y-84.1
X101.0Y-85.5
X101.1Y-62.0
X101.1Y-66.9
X101.1Y-73.3
X101.3Y-75.5
X101.6Y-88.0
X101.8Y-80.7
X102.5Y-63.4
X102.5Y-65.5
X102.5Y-68.0
X102.6Y-56.4
X102.6Y-66.9
X102.8Y-77.7
X103.6Y-65.45
X103.6Y-68.0
X103.6Y-73.0
X103.8Y-64.1
X103.9Y-83.0
X103.9Y-85.0
X103.9Y-91.9
X104.0Y-74.6
X104.2Y-79.4
X104.3Y-68.5
X104.5Y-103.8
X104.8Y-74.2
X105.5Y-70.5
X105.9Y-101.7
X106.1Y-85.0
X106.3Y-90.6
X106.5Y-99.7
X106.7Y-73.9
X107.1Y-100.9
X107.2Y-102.0
X107.2Y-106.5
X107.4Y-66.0
X108.5Y-67.5
X108.7Y-87.6
X108.9Y-83.8
X109.3Y-82.7
X109.8Y-66.3
X110.1Y-65.5
X110.1Y-111.5
X110.3Y-68.0
X110.7Y-112.1
X111.4Y-68.7
X111.5Y-68.0
X112.1Y-86.4
X112.5Y-72.0
X112.8Y-80.6
X113.0Y-69.0
X113.0Y-70.6
X113.8Y-73.3
X113.9Y-97.6
X114.3Y-82.3
X114.3Y-101.4
X114.3Y-102.8
X114.5Y-61.9
X114.5Y-63.0
X114.5Y-67.0
X114.8Y-102.1
X115.7Y-68.2
X115.7Y-99.0
X115.8Y-90.0
X116.1Y-97.0
X116.1Y-103.7
X116.1Y-106.0
X116.2Y-64.3
X116.5Y-86.8
X117.1Y-99.2
X117.2Y-103.6
X117.6Y-88.9
X118.3Y-104.6
X118.4Y-59.0
X118.4Y-60.4
X118.5Y-106.4
X118.9Y-109.0
X119.0Y-82.0
X119.3Y-92.2
X119.3Y-94.1
X119.5Y-64.3
X119.5Y-65.0
X120.1Y-104.8
X121.2Y-101.3
X121.3Y-61.0
X121.6Y-92.9
X121.75Y-56.65
X122.0Y-57.9
X122.6Y-98.9
X123.1Y-63.4
X124.2Y-102.1
X125.0Y-57.9
X125.4Y-97.5
X126.2Y-57.7
X126.4Y-58.5
X126.8Y-55.6
X128.2Y-56.68
T8
X86.0Y-101.0
X88.54Y-101.0
X91.08Y-101.0
X93.62Y-101.0
X113.0Y-104.0
X113.0Y-106.54
X113.0Y-109.08
X113.0Y-111.62
X138.0Y-64.0
X138.0Y-75.0
T9
X99.0Y-113.0
X104.0Y-113.0
T10
X64.0Y-55.2
X64.0Y-58.7
X64.0Y-64.5
X64.0Y-68.0
X66.5Y-55.2
X66.5Y-58.7
X66.5Y-64.5
X66.5Y-68.0
T11
X128.0Y-67.0
X128.0Y-72.0
T12
X57.0Y-64.8
X57.0Y-72.0
T13
X122.11Y-55.605
X127.89Y-55.605
T14
X129.1Y-82.7
X129.1Y-87.3
X129.1Y-97.7
X129.1Y-102.3
T15
X65.25Y-61.6
T16
X55.0Y-55.0
X55.0Y-110.0
X135.0Y-55.0
X135.0Y-110.0
T6
X50.45Y-61.65G85X51.55Y-61.65
G05
X50.45Y-75.15G85X51.55Y-75.15
G05
X120.68Y-52.325G85X120.68Y-51.525
G05
X120.68Y-56.655G85X120.68Y-55.555
G05
X129.32Y-52.325G85X129.32Y-51.525
G05
X129.32Y-56.655G85X129.32Y-55.555
G05
T7
X128.3Y-79.3G85X129.9Y-79.3
G05
X128.3Y-90.7G85X129.9Y-90.7
G05
X128.3Y-94.3G85X129.9Y-94.3
G05
X128.3Y-105.7G85X129.9Y-105.7
G05
M30
