%TF.GenerationSoftware,KiCad,Pcbnew,10.0.4-10.0.4~ubuntu24.04.1*%
%TF.CreationDate,2026-07-14T15:12:42-07:00*%
%TF.ProjectId,power_board_v1,706f7765-725f-4626-9f61-72645f76312e,rev?*%
%TF.SameCoordinates,Original*%
%TF.FileFunction,Copper,L3,Inr*%
%TF.FilePolarity,Positive*%
%FSLAX46Y46*%
G04 Gerber Fmt 4.6, Leading zero omitted, Abs format (unit mm)*
G04 Created by KiCad (PCBNEW 10.0.4-10.0.4~ubuntu24.04.1) date 2026-07-14 15:12:42*
%MOMM*%
%LPD*%
G01*
G04 APERTURE LIST*
G04 Aperture macros list*
%AMRoundRect*
0 Rectangle with rounded corners*
0 $1 Rounding radius*
0 $2 $3 $4 $5 $6 $7 $8 $9 X,Y pos of 4 corners*
0 Add a 4 corners polygon primitive as box body*
4,1,4,$2,$3,$4,$5,$6,$7,$8,$9,$2,$3,0*
0 Add four circle primitives for the rounded corners*
1,1,$1+$1,$2,$3*
1,1,$1+$1,$4,$5*
1,1,$1+$1,$6,$7*
1,1,$1+$1,$8,$9*
0 Add four rect primitives between the rounded corners*
20,1,$1+$1,$2,$3,$4,$5,0*
20,1,$1+$1,$4,$5,$6,$7,0*
20,1,$1+$1,$6,$7,$8,$9,0*
20,1,$1+$1,$8,$9,$2,$3,0*%
G04 Aperture macros list end*
%TA.AperFunction,ComponentPad*%
%ADD10R,2.600000X2.600000*%
%TD*%
%TA.AperFunction,ComponentPad*%
%ADD11C,2.600000*%
%TD*%
%TA.AperFunction,ComponentPad*%
%ADD12R,1.700000X1.700000*%
%TD*%
%TA.AperFunction,ComponentPad*%
%ADD13O,1.700000X1.700000*%
%TD*%
%TA.AperFunction,ComponentPad*%
%ADD14O,3.500000X1.900000*%
%TD*%
%TA.AperFunction,ComponentPad*%
%ADD15R,2.000000X0.900000*%
%TD*%
%TA.AperFunction,ComponentPad*%
%ADD16RoundRect,1.025000X1.025000X-1.025000X1.025000X1.025000X-1.025000X1.025000X-1.025000X-1.025000X0*%
%TD*%
%TA.AperFunction,ComponentPad*%
%ADD17C,4.100000*%
%TD*%
%TA.AperFunction,ComponentPad*%
%ADD18C,2.200000*%
%TD*%
%TA.AperFunction,ComponentPad*%
%ADD19O,1.000000X2.100000*%
%TD*%
%TA.AperFunction,ComponentPad*%
%ADD20O,1.000000X1.800000*%
%TD*%
%TA.AperFunction,ViaPad*%
%ADD21C,0.600000*%
%TD*%
%TA.AperFunction,ViaPad*%
%ADD22C,0.250000*%
%TD*%
%TA.AperFunction,ViaPad*%
%ADD23C,0.450000*%
%TD*%
%TA.AperFunction,ViaPad*%
%ADD24C,0.560000*%
%TD*%
%TA.AperFunction,ViaPad*%
%ADD25C,0.500000*%
%TD*%
%TA.AperFunction,ViaPad*%
%ADD26C,0.350000*%
%TD*%
%TA.AperFunction,ViaPad*%
%ADD27C,0.540000*%
%TD*%
%TA.AperFunction,ViaPad*%
%ADD28C,0.300000*%
%TD*%
%ADD29C,0.300000*%
%ADD30C,0.150000*%
%ADD31C,0.200000*%
%ADD32C,0.250000*%
%ADD33C,0.290000*%
%ADD34C,0.350000*%
%ADD35O,2.500000X0.900000*%
%ADD36O,1.700000X0.600000*%
%ADD37O,0.600000X1.700000*%
%ADD38O,0.600000X1.400000*%
G04 APERTURE END LIST*
D10*
%TO.N,AUX_5V*%
%TO.C,J6*%
X99000000Y-113000000D03*
D11*
%TO.N,GND*%
X104000000Y-113000000D03*
%TD*%
D12*
%TO.N,5V_A*%
%TO.C,J12*%
X51500000Y-79225000D03*
D13*
%TO.N,GND*%
X51500000Y-81765000D03*
%TD*%
D12*
%TO.N,unconnected-(J14-P1-Pad1)*%
%TO.C,J14*%
X138000000Y-70000000D03*
D13*
%TO.N,D3_N*%
X140540000Y-70000000D03*
%TO.N,D3_P*%
X143080000Y-70000000D03*
%TO.N,GND*%
X145620000Y-70000000D03*
%TD*%
D12*
%TO.N,unconnected-(J9-P1-Pad1)*%
%TO.C,J9*%
X113000000Y-104000000D03*
D13*
%TO.N,D1_N*%
X113000000Y-106540000D03*
%TO.N,D1_P*%
X113000000Y-109080000D03*
%TO.N,GND*%
X113000000Y-111620000D03*
%TD*%
D12*
%TO.N,unconnected-(J10-P1-Pad1)*%
%TO.C,J10*%
X86000000Y-101000000D03*
D13*
%TO.N,D2_N*%
X88540000Y-101000000D03*
%TO.N,D2_P*%
X91080000Y-101000000D03*
%TO.N,GND*%
X93620000Y-101000000D03*
%TD*%
D14*
%TO.N,GND*%
%TO.C,J5*%
X139100000Y-99300000D03*
X139100000Y-110700000D03*
%TD*%
D15*
%TO.N,*%
%TO.C,J1*%
X51250000Y-75150000D03*
X51250000Y-61650000D03*
D16*
%TO.N,VBATT_RAW*%
X57250000Y-72000000D03*
D17*
%TO.N,GND*%
X57250000Y-64800000D03*
%TD*%
D18*
%TO.N,VBATT_RAW*%
%TO.C,F1*%
X64000000Y-68000000D03*
X66500000Y-68000000D03*
X64000000Y-64500000D03*
X66500000Y-64500000D03*
%TO.N,VBATT_F*%
X64000000Y-58700000D03*
X66500000Y-58700000D03*
X64000000Y-55200000D03*
X66500000Y-55200000D03*
%TD*%
D19*
%TO.N,GND*%
%TO.C,J3*%
X129320000Y-56105000D03*
D20*
X129320000Y-51925000D03*
D19*
X120680000Y-56105000D03*
D20*
X120680000Y-51925000D03*
%TD*%
D14*
%TO.N,GND*%
%TO.C,J4*%
X139100000Y-79300000D03*
X139100000Y-90700000D03*
%TD*%
%TO.N,GND*%
%TO.C,J13*%
X139100000Y-52300000D03*
X139100000Y-63700000D03*
%TD*%
D21*
%TO.N,VSW*%
X90000000Y-56400000D03*
X65500000Y-87000000D03*
X90000000Y-73300000D03*
D22*
X57000000Y-93000000D03*
D21*
X82600000Y-61600000D03*
D22*
X55390000Y-90250000D03*
D21*
X90000000Y-66000000D03*
X83700000Y-62700000D03*
X91600000Y-96500000D03*
X92300000Y-88600000D03*
X82400000Y-83400000D03*
X95600000Y-55000000D03*
X93200000Y-55000000D03*
X90000000Y-61000000D03*
X87400000Y-83900000D03*
X60500000Y-92100000D03*
X75600000Y-86300000D03*
X90000000Y-86500000D03*
X95600000Y-87000000D03*
D23*
X92500000Y-94300000D03*
D21*
X72800000Y-87400000D03*
D23*
%TO.N,EN_A*%
X81400000Y-61600000D03*
D22*
X81427550Y-60879591D03*
D23*
X66099999Y-96500000D03*
X72900000Y-89000000D03*
D21*
%TO.N,5VB_PRE*%
X114700000Y-101000000D03*
X116400000Y-86000000D03*
X93500000Y-105100000D03*
X114500000Y-84100000D03*
X80700000Y-102900000D03*
X113000000Y-92000000D03*
X116500000Y-88300000D03*
X111800000Y-102100000D03*
X116500000Y-91800000D03*
X91700000Y-103300000D03*
X114900000Y-97600000D03*
X79000000Y-100800000D03*
X116500000Y-94000000D03*
D23*
%TO.N,GND*%
X83400000Y-57200000D03*
X73000000Y-85800000D03*
D21*
X106800000Y-100300000D03*
X74700000Y-69500000D03*
D23*
X137710000Y-74160000D03*
D21*
X87400000Y-98900000D03*
D23*
X84900000Y-89100000D03*
D21*
X113000000Y-71000000D03*
D23*
X84300000Y-89900000D03*
D21*
X86800000Y-58000000D03*
X102200000Y-99500000D03*
D24*
X120984900Y-94584900D03*
D21*
X123200000Y-101700000D03*
X70850000Y-77150000D03*
D23*
X62800000Y-98000000D03*
D21*
X72100000Y-83900000D03*
X77600000Y-79900000D03*
X121750000Y-56650000D03*
X93700000Y-72900000D03*
X78500000Y-63400000D03*
X131199999Y-64900000D03*
X80900000Y-113000000D03*
D25*
X94560000Y-94030000D03*
D24*
X82150000Y-81600000D03*
D21*
X117500000Y-59300000D03*
X128000000Y-61100000D03*
D26*
X121750000Y-96750000D03*
D21*
X88300000Y-113300000D03*
X79800000Y-99400000D03*
X73100000Y-68600000D03*
D23*
X80700000Y-82400000D03*
D21*
X128800000Y-95500000D03*
X128199999Y-56680000D03*
D23*
X94587000Y-94900000D03*
X79200000Y-96000000D03*
D27*
X127123000Y-61421000D03*
D21*
X57200000Y-99200000D03*
D23*
X59100000Y-104800000D03*
D21*
X129500000Y-77200000D03*
X54400000Y-96200000D03*
D23*
X86500000Y-73700000D03*
D22*
X52700000Y-87500000D03*
D23*
X80100000Y-95100000D03*
D21*
X86400000Y-113800000D03*
X88400000Y-97500000D03*
X88900000Y-80300000D03*
X90900000Y-93200000D03*
D23*
X55200000Y-91300000D03*
D21*
X54700000Y-91800000D03*
X121400000Y-100500000D03*
X75700000Y-81100000D03*
X82300000Y-63400000D03*
X66599999Y-84500000D03*
D22*
X80650000Y-58750000D03*
D21*
X73500000Y-62300000D03*
X84100000Y-86700000D03*
X58000000Y-100600000D03*
D25*
X94560000Y-62030000D03*
D21*
X75000000Y-76500000D03*
D23*
X77398000Y-102100000D03*
D21*
X111200000Y-72400000D03*
X127500000Y-87500000D03*
X72400000Y-64700000D03*
X120700000Y-92200000D03*
X55800000Y-96200000D03*
X70800000Y-92800000D03*
X131500000Y-91500000D03*
D22*
X80650000Y-57750000D03*
D21*
X93700000Y-64400000D03*
D23*
X58800000Y-100400000D03*
D21*
X73600000Y-75100000D03*
D23*
X81000000Y-96200000D03*
D24*
X64700000Y-88500000D03*
D21*
X107000000Y-103700000D03*
D28*
X71800000Y-68000000D03*
D21*
X128100000Y-78600000D03*
X85000000Y-86700000D03*
D22*
X80650000Y-91750000D03*
D21*
X123500000Y-97700000D03*
D23*
X77000000Y-69500000D03*
D21*
X72000000Y-103600000D03*
X72500000Y-92400000D03*
X79800000Y-91400000D03*
X85400000Y-58000000D03*
X117500000Y-61600000D03*
D23*
X83600000Y-80500000D03*
D22*
X80650000Y-90750000D03*
D21*
X71500000Y-109200000D03*
D23*
X59800000Y-105500000D03*
D26*
X131735999Y-64551000D03*
D21*
X67400000Y-91100000D03*
X82000000Y-67500000D03*
D23*
X94587000Y-62800000D03*
D21*
X135700000Y-62000000D03*
D28*
X76200000Y-69500000D03*
D21*
X133400000Y-91900000D03*
X91200000Y-59200000D03*
X127100000Y-96000000D03*
X91100000Y-62800000D03*
D22*
%TO.N,COMP_B*%
X80650000Y-92750000D03*
D23*
X79000000Y-94000000D03*
D22*
%TO.N,FB_B*%
X80650000Y-92250000D03*
D23*
X78600000Y-98400000D03*
X80400000Y-97500000D03*
X80400000Y-96200000D03*
X79600000Y-92400000D03*
D21*
%TO.N,5V_B*%
X118400000Y-99400000D03*
X126700000Y-83400000D03*
X123900000Y-99500000D03*
X106500000Y-98000000D03*
X71600000Y-78700000D03*
X132600000Y-59900000D03*
D27*
X99000000Y-101000000D03*
D21*
X126700000Y-98700000D03*
X119800000Y-98000000D03*
X122200000Y-94900000D03*
X129900000Y-79900000D03*
X134100000Y-94500000D03*
X87900000Y-106000000D03*
X133100000Y-63000000D03*
X129699999Y-87300000D03*
X77400000Y-85500000D03*
X87500000Y-104800000D03*
X117900000Y-80400000D03*
X131400000Y-94500000D03*
X69800000Y-77700000D03*
X126600000Y-80400000D03*
D22*
%TO.N,FB_A*%
X80650000Y-59250000D03*
D23*
X83000000Y-67200000D03*
X79500000Y-59300000D03*
X82500000Y-66300000D03*
%TO.N,DG_FE*%
X59500000Y-83000000D03*
X58400000Y-81900000D03*
X54100000Y-87700000D03*
X55200000Y-85100000D03*
D21*
%TO.N,VBATT_S*%
X76500000Y-64700000D03*
X53900000Y-86100000D03*
X52300000Y-89500000D03*
D23*
X60587000Y-81700000D03*
D21*
X60400000Y-81000000D03*
D24*
X51612361Y-87318148D03*
D21*
X74300000Y-66900000D03*
D23*
%TO.N,FE_LAD*%
X58486000Y-92483000D03*
D22*
X52610000Y-90250000D03*
D23*
%TO.N,FE_OV*%
X59900000Y-95800000D03*
D22*
X52450000Y-90750000D03*
D21*
X55800000Y-93800000D03*
D23*
X60900000Y-95800000D03*
%TO.N,FE_EN*%
X64500000Y-97800000D03*
X59300000Y-93600000D03*
X63600000Y-96900000D03*
X61500000Y-94200000D03*
D21*
%TO.N,FE_MID*%
X62400000Y-90700000D03*
X61900000Y-98500000D03*
X63100000Y-95100000D03*
D22*
X55130000Y-89730000D03*
D21*
X57800000Y-88000000D03*
X56200000Y-88400000D03*
X62400000Y-87100000D03*
%TO.N,FE_CAP*%
X58400000Y-88600000D03*
D22*
X55440000Y-89200000D03*
D23*
%TO.N,COMP_A*%
X83500000Y-64900000D03*
X82500000Y-64700000D03*
D22*
X80650000Y-59750000D03*
D23*
X79800000Y-59800000D03*
D21*
%TO.N,5V_A*%
X67300000Y-74000000D03*
X62000000Y-105500000D03*
X123600000Y-59900000D03*
X58200000Y-106600000D03*
X78100000Y-70900000D03*
X123600000Y-62400000D03*
X78900000Y-65500000D03*
X79300000Y-71700000D03*
X79600000Y-72500000D03*
X123600000Y-63100000D03*
X79500000Y-64900000D03*
X75000000Y-74000000D03*
D23*
%TO.N,PGOOD_A*%
X75200000Y-100000000D03*
D22*
X81150000Y-94050000D03*
D23*
X77000000Y-101500000D03*
X76600000Y-103700000D03*
D21*
%TO.N,D2_N*%
X95500000Y-99500000D03*
X123900000Y-101000000D03*
X135600000Y-103100000D03*
X125300000Y-101000000D03*
X104500000Y-97200000D03*
X129000000Y-102300000D03*
X131150000Y-102100000D03*
%TO.N,D2_P*%
X132699999Y-106000000D03*
X94400000Y-104300000D03*
D23*
X131000000Y-104200000D03*
D21*
%TO.N,VBUS2*%
X131300000Y-103200000D03*
X134100000Y-103200000D03*
D23*
%TO.N,LO_B*%
X92500000Y-95500000D03*
X84000000Y-90700000D03*
%TO.N,SW_B*%
X97600000Y-93000000D03*
X85300000Y-93000000D03*
X98600000Y-93000000D03*
X84600000Y-93700000D03*
%TO.N,V5A_SENSE*%
X61200000Y-105500000D03*
X60500000Y-106200000D03*
%TO.N,SW_SENSE*%
X65000000Y-100400000D03*
X59900000Y-100100000D03*
D21*
%TO.N,LED_K*%
X69200000Y-105100000D03*
X67800000Y-105400000D03*
D23*
%TO.N,3V3_SW*%
X71900000Y-82400000D03*
X77900000Y-112800000D03*
X71700000Y-80500000D03*
X79000000Y-111300000D03*
X63700000Y-106300000D03*
X70600000Y-82900000D03*
X64400000Y-105600000D03*
%TO.N,SCL*%
X68400000Y-108000000D03*
X70400000Y-96900000D03*
X73500000Y-100000000D03*
X65000000Y-109500000D03*
%TO.N,VCC_B*%
X84900000Y-90500000D03*
X85600000Y-89800000D03*
D21*
%TO.N,CC1_A*%
X126200000Y-57700000D03*
D28*
X126250000Y-56680000D03*
D21*
%TO.N,EN_USB1*%
X93600000Y-86200000D03*
X75500000Y-93900000D03*
X77400000Y-86400000D03*
X78800000Y-86400000D03*
X77000000Y-89900000D03*
X95000000Y-84800000D03*
%TO.N,VBATT_F*%
X77300000Y-67700000D03*
X84700000Y-73200000D03*
X76700000Y-67099999D03*
D23*
%TO.N,MCU_3V3*%
X80400000Y-110500000D03*
X97700000Y-100000000D03*
X75900000Y-79100000D03*
X95600000Y-102100000D03*
X71000000Y-89500000D03*
X80400000Y-112300000D03*
X77800000Y-81400000D03*
X72300000Y-89500000D03*
%TO.N,FAULT_USB*%
X71000000Y-95600000D03*
X76600000Y-95800000D03*
%TO.N,SW_A*%
X86800000Y-61400000D03*
X96000000Y-60400000D03*
X96000000Y-59400000D03*
X86100000Y-62100000D03*
%TO.N,EN_USB2*%
X109200000Y-94900000D03*
X108200000Y-93900000D03*
D28*
%TO.N,CC2_A*%
X123250000Y-56680000D03*
D21*
X123200000Y-57800000D03*
D23*
%TO.N,VSENSE*%
X65300000Y-89100000D03*
X66200000Y-87300000D03*
%TO.N,NTC*%
X59900000Y-102900000D03*
X64400000Y-104400000D03*
%TO.N,AUX_CTL*%
X78400000Y-111400000D03*
X76400000Y-111400000D03*
%TO.N,SDA*%
X63600000Y-108400000D03*
X63600000Y-101900000D03*
X65400000Y-106600000D03*
X65000000Y-101900000D03*
D22*
%TO.N,PGOOD_B*%
X81427550Y-90120408D03*
D23*
X77400000Y-103200000D03*
X75900000Y-98700000D03*
X78400000Y-102200000D03*
X75800000Y-99800000D03*
X76100000Y-103200000D03*
D21*
%TO.N,VBUS1*%
X131300000Y-86200000D03*
X130300000Y-85200000D03*
%TO.N,CY_A*%
X80000000Y-69600000D03*
X80000000Y-71000000D03*
%TO.N,VBATT_FD*%
X80300000Y-78900000D03*
X80300000Y-81100000D03*
X79700000Y-81700000D03*
X82000000Y-80500000D03*
D23*
%TO.N,VBUS3*%
X140000000Y-74160000D03*
X134500000Y-56200000D03*
%TO.N,RT_B*%
X79600000Y-87600000D03*
X81800000Y-93800000D03*
X80500000Y-86700000D03*
X83400000Y-98700000D03*
D21*
%TO.N,D1_P*%
X135400000Y-87300000D03*
X132699999Y-90000000D03*
X132699999Y-91500000D03*
D23*
%TO.N,LO_A*%
X84000000Y-57700000D03*
X84700000Y-58400000D03*
D21*
%TO.N,CY_B*%
X96400000Y-84800000D03*
X113400000Y-90100000D03*
X94800000Y-84000000D03*
X82300000Y-84800000D03*
X112000000Y-88700000D03*
X82300000Y-86700000D03*
%TO.N,CX_B*%
X82000000Y-96000000D03*
X81900000Y-98500000D03*
%TO.N,PGOODA_RAW*%
X81300000Y-86700000D03*
X76400000Y-73000000D03*
X77800000Y-74000000D03*
D22*
X81427550Y-57120408D03*
D21*
X74800000Y-104000000D03*
X81300000Y-84800000D03*
X77200000Y-94500000D03*
%TO.N,RT_A*%
X78500000Y-59500000D03*
D22*
X80650000Y-60750000D03*
D23*
%TO.N,ILIM_A*%
X85400000Y-59000000D03*
X85100000Y-61300000D03*
%TD*%
%TA.AperFunction,Conductor*%
%TO.N,VSW*%
G36*
X96869947Y-50205577D02*
G01*
X96885417Y-50209722D01*
X96952212Y-50248285D01*
X96990776Y-50315076D01*
X96994922Y-50330547D01*
X97000000Y-50369116D01*
X97000000Y-84175319D01*
X96994923Y-84213883D01*
X96991333Y-84227281D01*
X96952769Y-84294076D01*
X96885974Y-84332640D01*
X96808853Y-84332642D01*
X96795456Y-84329053D01*
X96759513Y-84314166D01*
X96631790Y-84240425D01*
X96631779Y-84240421D01*
X96479060Y-84199500D01*
X96479057Y-84199500D01*
X96320943Y-84199500D01*
X96320939Y-84199500D01*
X96196599Y-84232817D01*
X96196593Y-84232819D01*
X96168216Y-84240423D01*
X96168214Y-84240423D01*
X96168214Y-84240424D01*
X96142768Y-84255114D01*
X96142763Y-84255117D01*
X96031282Y-84319480D01*
X95919480Y-84431282D01*
X95838141Y-84572167D01*
X95827314Y-84588371D01*
X95817273Y-84601457D01*
X95756083Y-84648410D01*
X95679615Y-84658479D01*
X95608392Y-84628990D01*
X95607292Y-84628145D01*
X95568926Y-84584410D01*
X95559575Y-84568214D01*
X95480520Y-84431284D01*
X95417675Y-84368439D01*
X95393995Y-84337579D01*
X95390504Y-84331533D01*
X95385200Y-84322346D01*
X95380960Y-84306517D01*
X95365240Y-84247848D01*
X95365240Y-84230265D01*
X95370317Y-84191700D01*
X95400500Y-84079057D01*
X95400500Y-83920943D01*
X95359577Y-83768216D01*
X95280520Y-83631284D01*
X95168716Y-83519480D01*
X95031784Y-83440423D01*
X94879057Y-83399500D01*
X94720939Y-83399500D01*
X94596599Y-83432817D01*
X94596593Y-83432819D01*
X94568216Y-83440423D01*
X94568214Y-83440423D01*
X94568214Y-83440424D01*
X94542768Y-83455114D01*
X94542763Y-83455117D01*
X94431282Y-83519480D01*
X94319479Y-83631283D01*
X94301610Y-83662234D01*
X94301607Y-83662239D01*
X94298157Y-83668216D01*
X94240423Y-83768216D01*
X94226295Y-83820943D01*
X94223026Y-83833140D01*
X94223025Y-83833144D01*
X94218239Y-83851007D01*
X94199500Y-83920941D01*
X94199500Y-83920943D01*
X94199500Y-84079057D01*
X94239216Y-84227281D01*
X94240424Y-84231787D01*
X94305171Y-84343933D01*
X94319480Y-84368716D01*
X94382322Y-84431558D01*
X94405998Y-84462412D01*
X94414793Y-84477644D01*
X94434758Y-84552143D01*
X94434758Y-84569735D01*
X94429681Y-84608299D01*
X94399500Y-84720933D01*
X94399500Y-84720937D01*
X94399500Y-84720943D01*
X94399500Y-84879057D01*
X94440423Y-85031784D01*
X94519480Y-85168716D01*
X94631284Y-85280520D01*
X94768216Y-85359577D01*
X94920943Y-85400500D01*
X95079057Y-85400500D01*
X95231784Y-85359577D01*
X95368716Y-85280520D01*
X95480520Y-85168716D01*
X95559577Y-85031784D01*
X95559577Y-85031783D01*
X95561855Y-85027838D01*
X95572679Y-85011638D01*
X95582723Y-84998547D01*
X95643910Y-84951591D01*
X95720378Y-84941520D01*
X95791633Y-84971029D01*
X95794597Y-84973303D01*
X95839450Y-85029654D01*
X95840410Y-85031758D01*
X95840423Y-85031785D01*
X95871797Y-85086126D01*
X95919480Y-85168716D01*
X96031284Y-85280520D01*
X96168216Y-85359577D01*
X96320943Y-85400500D01*
X96479057Y-85400500D01*
X96631784Y-85359577D01*
X96759518Y-85285830D01*
X96795451Y-85270946D01*
X96806782Y-85267910D01*
X96808850Y-85267357D01*
X96885979Y-85267359D01*
X96952772Y-85305925D01*
X96991333Y-85372717D01*
X96994923Y-85386115D01*
X97000000Y-85424679D01*
X97000000Y-85831383D01*
X96994922Y-85869952D01*
X96990776Y-85885423D01*
X96975098Y-85912575D01*
X96952218Y-85952208D01*
X96952211Y-85952211D01*
X96952209Y-85952216D01*
X96886126Y-85990370D01*
X96885425Y-85990775D01*
X96869955Y-85994921D01*
X96831384Y-86000000D01*
X94283569Y-86000000D01*
X94245006Y-85994923D01*
X94228015Y-85990370D01*
X94161222Y-85951807D01*
X94148784Y-85939369D01*
X94125109Y-85908516D01*
X94080520Y-85831284D01*
X93968716Y-85719480D01*
X93831784Y-85640423D01*
X93679057Y-85599500D01*
X93520939Y-85599500D01*
X93396599Y-85632817D01*
X93396593Y-85632819D01*
X93368216Y-85640423D01*
X93368214Y-85640423D01*
X93368214Y-85640424D01*
X93342768Y-85655114D01*
X93342763Y-85655117D01*
X93231282Y-85719480D01*
X93119482Y-85831280D01*
X93119477Y-85831287D01*
X93119422Y-85831383D01*
X93114203Y-85840424D01*
X93090821Y-85880922D01*
X93074894Y-85908510D01*
X93051215Y-85939369D01*
X93038777Y-85951807D01*
X93021788Y-85961615D01*
X93020356Y-85963048D01*
X93018399Y-85963572D01*
X92971985Y-85990370D01*
X92954998Y-85994922D01*
X92916431Y-86000000D01*
X79330570Y-86000000D01*
X79292006Y-85994923D01*
X79265210Y-85987743D01*
X79198415Y-85949179D01*
X79168715Y-85919479D01*
X79079923Y-85868216D01*
X79079921Y-85868214D01*
X79031787Y-85840424D01*
X79031784Y-85840423D01*
X78879057Y-85799500D01*
X78720939Y-85799500D01*
X78596599Y-85832817D01*
X78596593Y-85832819D01*
X78568216Y-85840423D01*
X78568214Y-85840423D01*
X78568214Y-85840424D01*
X78542768Y-85855114D01*
X78542763Y-85855117D01*
X78431282Y-85919480D01*
X78431281Y-85919481D01*
X78408278Y-85942485D01*
X78385486Y-85961157D01*
X78381517Y-85963798D01*
X78377417Y-85966166D01*
X78376332Y-85967250D01*
X78369677Y-85971681D01*
X78365001Y-85973259D01*
X78344140Y-85985304D01*
X78336054Y-85988654D01*
X78279024Y-86000000D01*
X78082414Y-86000000D01*
X78043850Y-85994923D01*
X78030463Y-85991335D01*
X78030462Y-85991335D01*
X78030460Y-85991335D01*
X78030452Y-85991333D01*
X77998141Y-85972678D01*
X77963664Y-85952776D01*
X77963661Y-85952771D01*
X77963657Y-85952769D01*
X77943757Y-85918301D01*
X77925096Y-85885984D01*
X77925095Y-85885979D01*
X77925093Y-85885974D01*
X77925090Y-85808856D01*
X77928682Y-85795449D01*
X77943570Y-85759508D01*
X77959575Y-85731788D01*
X77959576Y-85731785D01*
X77959577Y-85731784D01*
X78000500Y-85579057D01*
X78000500Y-85420943D01*
X77959577Y-85268216D01*
X77880520Y-85131284D01*
X77768716Y-85019480D01*
X77631784Y-84940423D01*
X77479057Y-84899500D01*
X77320939Y-84899500D01*
X77196599Y-84932817D01*
X77196593Y-84932819D01*
X77168216Y-84940423D01*
X77168214Y-84940423D01*
X77168214Y-84940424D01*
X77142768Y-84955114D01*
X77142763Y-84955117D01*
X77031282Y-85019480D01*
X76919479Y-85131283D01*
X76848287Y-85254595D01*
X76848286Y-85254597D01*
X76840424Y-85268212D01*
X76840423Y-85268216D01*
X76829143Y-85310313D01*
X76823717Y-85330563D01*
X76799500Y-85420939D01*
X76799500Y-85579063D01*
X76803114Y-85592548D01*
X76803117Y-85592557D01*
X76804351Y-85597162D01*
X76840423Y-85731784D01*
X76840424Y-85731785D01*
X76863829Y-85772324D01*
X76868561Y-85786335D01*
X76868747Y-85789248D01*
X76871320Y-85795460D01*
X76874909Y-85808859D01*
X76874903Y-85885987D01*
X76836333Y-85952778D01*
X76769550Y-85991332D01*
X76756153Y-85994922D01*
X76717586Y-86000000D01*
X73694116Y-86000000D01*
X73655549Y-85994922D01*
X73645627Y-85992263D01*
X73640076Y-85990776D01*
X73573283Y-85952209D01*
X73565870Y-85939369D01*
X73534721Y-85885414D01*
X73530576Y-85869943D01*
X73525500Y-85831383D01*
X73525500Y-85730817D01*
X73522823Y-85719480D01*
X73521595Y-85716244D01*
X73489688Y-85597164D01*
X73420505Y-85477335D01*
X73322665Y-85379495D01*
X73202836Y-85310312D01*
X73069183Y-85274500D01*
X72930813Y-85274500D01*
X72825545Y-85302707D01*
X72825542Y-85302708D01*
X72797164Y-85310312D01*
X72797162Y-85310312D01*
X72797162Y-85310313D01*
X72771718Y-85325002D01*
X72771713Y-85325005D01*
X72677333Y-85379495D01*
X72579495Y-85477333D01*
X72520766Y-85579057D01*
X72520765Y-85579056D01*
X72510314Y-85597160D01*
X72510309Y-85597168D01*
X72501325Y-85630700D01*
X72501323Y-85630708D01*
X72498721Y-85640423D01*
X72474500Y-85730815D01*
X72474500Y-85840855D01*
X72473301Y-85850249D01*
X72471407Y-85854871D01*
X72469422Y-85869952D01*
X72465276Y-85885423D01*
X72426709Y-85952216D01*
X72359925Y-85990775D01*
X72344455Y-85994921D01*
X72305884Y-86000000D01*
X66168616Y-86000000D01*
X66130049Y-85994922D01*
X66120127Y-85992263D01*
X66114576Y-85990776D01*
X66047783Y-85952209D01*
X66040370Y-85939369D01*
X66009221Y-85885414D01*
X66005076Y-85869943D01*
X66000000Y-85831383D01*
X66000000Y-85124680D01*
X66005074Y-85086126D01*
X66008665Y-85072723D01*
X66047223Y-85005930D01*
X66114015Y-84967362D01*
X66191143Y-84967356D01*
X66204547Y-84970947D01*
X66240481Y-84985830D01*
X66368215Y-85059577D01*
X66520942Y-85100500D01*
X66679056Y-85100500D01*
X66831783Y-85059577D01*
X66968715Y-84980520D01*
X67080519Y-84868716D01*
X67159576Y-84731784D01*
X67162481Y-84720941D01*
X80699500Y-84720941D01*
X80699500Y-84720943D01*
X80699500Y-84879057D01*
X80740423Y-85031784D01*
X80819480Y-85168716D01*
X80931284Y-85280520D01*
X81068216Y-85359577D01*
X81220943Y-85400500D01*
X81379057Y-85400500D01*
X81531784Y-85359577D01*
X81668716Y-85280520D01*
X81680770Y-85268465D01*
X81711624Y-85244789D01*
X81725501Y-85236777D01*
X81800000Y-85216816D01*
X81874498Y-85236777D01*
X81874503Y-85236780D01*
X81874504Y-85236781D01*
X81888375Y-85244790D01*
X81919230Y-85268466D01*
X81931284Y-85280520D01*
X82068216Y-85359577D01*
X82220943Y-85400500D01*
X82379057Y-85400500D01*
X82531784Y-85359577D01*
X82668716Y-85280520D01*
X82780520Y-85168716D01*
X82859577Y-85031784D01*
X82900500Y-84879057D01*
X82900500Y-84720943D01*
X82859577Y-84568216D01*
X82780520Y-84431284D01*
X82668716Y-84319480D01*
X82531784Y-84240423D01*
X82379057Y-84199500D01*
X82220939Y-84199500D01*
X82096599Y-84232817D01*
X82096593Y-84232819D01*
X82068216Y-84240423D01*
X82068214Y-84240423D01*
X82068214Y-84240424D01*
X82042766Y-84255115D01*
X82042759Y-84255119D01*
X81931286Y-84319477D01*
X81931283Y-84319479D01*
X81919229Y-84331534D01*
X81888371Y-84355212D01*
X81874501Y-84363220D01*
X81800001Y-84383183D01*
X81725501Y-84363221D01*
X81725500Y-84363221D01*
X81711628Y-84355212D01*
X81680769Y-84331533D01*
X81668715Y-84319479D01*
X81579923Y-84268216D01*
X81579921Y-84268214D01*
X81531787Y-84240424D01*
X81531784Y-84240423D01*
X81379057Y-84199500D01*
X81220939Y-84199500D01*
X81096599Y-84232817D01*
X81096593Y-84232819D01*
X81068216Y-84240423D01*
X81068214Y-84240423D01*
X81068214Y-84240424D01*
X81042768Y-84255114D01*
X81042763Y-84255117D01*
X80931282Y-84319480D01*
X80819482Y-84431280D01*
X80819480Y-84431282D01*
X80819480Y-84431283D01*
X80779519Y-84500499D01*
X80772749Y-84512225D01*
X80740423Y-84568214D01*
X80722239Y-84636080D01*
X80709652Y-84683056D01*
X80699500Y-84720941D01*
X67162481Y-84720941D01*
X67200499Y-84579057D01*
X67200499Y-84445779D01*
X67201516Y-84437120D01*
X67212659Y-84409114D01*
X67220461Y-84380000D01*
X67226745Y-84373715D01*
X67230032Y-84365457D01*
X67253685Y-84346775D01*
X67274999Y-84325462D01*
X67283584Y-84323161D01*
X67290559Y-84317653D01*
X67320384Y-84313301D01*
X67349499Y-84305500D01*
X71350500Y-84305500D01*
X71377626Y-84301929D01*
X71429555Y-84295093D01*
X71429559Y-84295092D01*
X71429568Y-84295091D01*
X71504068Y-84275129D01*
X71505594Y-84274590D01*
X71505877Y-84274569D01*
X71506814Y-84274279D01*
X71506879Y-84274491D01*
X71582492Y-84268637D01*
X71652064Y-84301929D01*
X71660507Y-84309743D01*
X71731284Y-84380520D01*
X71868216Y-84459577D01*
X72020943Y-84500500D01*
X72179057Y-84500500D01*
X72331784Y-84459577D01*
X72468716Y-84380520D01*
X72539494Y-84309741D01*
X72606287Y-84271178D01*
X72683415Y-84271178D01*
X72695321Y-84274965D01*
X72695930Y-84275128D01*
X72695932Y-84275129D01*
X72743121Y-84287773D01*
X72770424Y-84295089D01*
X72770426Y-84295089D01*
X72770432Y-84295091D01*
X72770437Y-84295091D01*
X72770444Y-84295093D01*
X72849492Y-84305499D01*
X72849500Y-84305500D01*
X79851000Y-84305500D01*
X79878126Y-84301929D01*
X79930055Y-84295093D01*
X79930059Y-84295092D01*
X79930068Y-84295091D01*
X80004568Y-84275129D01*
X80004573Y-84275126D01*
X80004587Y-84275123D01*
X80025726Y-84267673D01*
X80048898Y-84259508D01*
X80141521Y-84196059D01*
X80196059Y-84141521D01*
X80226639Y-84105828D01*
X80275129Y-84004568D01*
X80295091Y-83930068D01*
X80296293Y-83920943D01*
X80305499Y-83851007D01*
X80305500Y-83851000D01*
X80305500Y-83032511D01*
X80325462Y-82958011D01*
X80380000Y-82903473D01*
X80454500Y-82883511D01*
X80493066Y-82888588D01*
X80497157Y-82889684D01*
X80497164Y-82889688D01*
X80630817Y-82925500D01*
X80769183Y-82925500D01*
X80902836Y-82889688D01*
X81022665Y-82820505D01*
X81120505Y-82722665D01*
X81189688Y-82602836D01*
X81225500Y-82469183D01*
X81225500Y-82330817D01*
X81189688Y-82197164D01*
X81120505Y-82077335D01*
X81022665Y-81979495D01*
X80902836Y-81910312D01*
X80769183Y-81874500D01*
X80735219Y-81874500D01*
X80696642Y-81869419D01*
X80686834Y-81866790D01*
X80620043Y-81828220D01*
X80581485Y-81761422D01*
X80581492Y-81684294D01*
X80620050Y-81617514D01*
X80627235Y-81610329D01*
X80658093Y-81586653D01*
X80668716Y-81580520D01*
X80780520Y-81468716D01*
X80859577Y-81331784D01*
X80900500Y-81179057D01*
X80900500Y-81020943D01*
X80859577Y-80868216D01*
X80780520Y-80731284D01*
X80668716Y-80619480D01*
X80668715Y-80619479D01*
X80668714Y-80619478D01*
X80548776Y-80550233D01*
X80537232Y-80542840D01*
X80536681Y-80542450D01*
X80522647Y-80536637D01*
X80512836Y-80535346D01*
X80415935Y-80509381D01*
X80349141Y-80470816D01*
X80320344Y-80420938D01*
X81399500Y-80420938D01*
X81399500Y-80420941D01*
X81399500Y-80420943D01*
X81399500Y-80579057D01*
X81440423Y-80731784D01*
X81519480Y-80868716D01*
X81631284Y-80980520D01*
X81647164Y-80989688D01*
X81647256Y-80989741D01*
X81678115Y-81013420D01*
X81689440Y-81024745D01*
X81728004Y-81091540D01*
X81728005Y-81168665D01*
X81726488Y-81174327D01*
X81691123Y-81235585D01*
X81691427Y-81235818D01*
X81689659Y-81238121D01*
X81687929Y-81241119D01*
X81685481Y-81243566D01*
X81609061Y-81375931D01*
X81609060Y-81375935D01*
X81569500Y-81523574D01*
X81569500Y-81523576D01*
X81569500Y-81676424D01*
X81609060Y-81824065D01*
X81626654Y-81854538D01*
X81685481Y-81956431D01*
X81685482Y-81956432D01*
X81685484Y-81956435D01*
X81687045Y-81957996D01*
X81793564Y-82064515D01*
X81794394Y-82065114D01*
X81797430Y-82066748D01*
X81815765Y-82077334D01*
X81815766Y-82077334D01*
X81925935Y-82140940D01*
X82073576Y-82180500D01*
X82226424Y-82180500D01*
X82374065Y-82140940D01*
X82506435Y-82064516D01*
X82614516Y-81956435D01*
X82690940Y-81824065D01*
X82730500Y-81676424D01*
X82730500Y-81523576D01*
X82690940Y-81375935D01*
X82614516Y-81243565D01*
X82506435Y-81135484D01*
X82506432Y-81135482D01*
X82506428Y-81135479D01*
X82503421Y-81133743D01*
X82500852Y-81132117D01*
X82498199Y-81129239D01*
X82475171Y-81111568D01*
X82463845Y-81100242D01*
X82451073Y-81078119D01*
X82448575Y-81075409D01*
X82447979Y-81072758D01*
X82425284Y-81033446D01*
X82425287Y-80956320D01*
X82426810Y-80950641D01*
X82465370Y-80883865D01*
X82480520Y-80868716D01*
X82559577Y-80731784D01*
X82600500Y-80579057D01*
X82600500Y-80430815D01*
X83074500Y-80430815D01*
X83074500Y-80430817D01*
X83074500Y-80569183D01*
X83110312Y-80702836D01*
X83179495Y-80822665D01*
X83277335Y-80920505D01*
X83397164Y-80989688D01*
X83530817Y-81025500D01*
X83669183Y-81025500D01*
X83802836Y-80989688D01*
X83922665Y-80920505D01*
X84020505Y-80822665D01*
X84089688Y-80702836D01*
X84125500Y-80569183D01*
X84125500Y-80430817D01*
X84089688Y-80297164D01*
X84045681Y-80220941D01*
X88299500Y-80220941D01*
X88299500Y-80379058D01*
X88299892Y-80380520D01*
X88340423Y-80531784D01*
X88419480Y-80668716D01*
X88531284Y-80780520D01*
X88668216Y-80859577D01*
X88820943Y-80900500D01*
X88979057Y-80900500D01*
X89131784Y-80859577D01*
X89268716Y-80780520D01*
X89380520Y-80668716D01*
X89459577Y-80531784D01*
X89500500Y-80379057D01*
X89500500Y-80220943D01*
X89500499Y-80220941D01*
X89488815Y-80177333D01*
X89459577Y-80068216D01*
X89380520Y-79931284D01*
X89268716Y-79819480D01*
X89131784Y-79740423D01*
X88979057Y-79699500D01*
X88820939Y-79699500D01*
X88696599Y-79732817D01*
X88696593Y-79732819D01*
X88668216Y-79740423D01*
X88668214Y-79740423D01*
X88668214Y-79740424D01*
X88642768Y-79755114D01*
X88642763Y-79755117D01*
X88531282Y-79819480D01*
X88419479Y-79931283D01*
X88340424Y-80068212D01*
X88311184Y-80177335D01*
X88299500Y-80220941D01*
X84045681Y-80220941D01*
X84020505Y-80177335D01*
X83922665Y-80079495D01*
X83802836Y-80010312D01*
X83669183Y-79974500D01*
X83530813Y-79974500D01*
X83425545Y-80002707D01*
X83425542Y-80002708D01*
X83397164Y-80010312D01*
X83397162Y-80010312D01*
X83397162Y-80010313D01*
X83371718Y-80025002D01*
X83371713Y-80025005D01*
X83277333Y-80079495D01*
X83179495Y-80177333D01*
X83110313Y-80297162D01*
X83077147Y-80420938D01*
X83074500Y-80430815D01*
X82600500Y-80430815D01*
X82600500Y-80420943D01*
X82559577Y-80268216D01*
X82480520Y-80131284D01*
X82368716Y-80019480D01*
X82231784Y-79940423D01*
X82079057Y-79899500D01*
X81920939Y-79899500D01*
X81796599Y-79932817D01*
X81796593Y-79932819D01*
X81768216Y-79940423D01*
X81768214Y-79940423D01*
X81768214Y-79940424D01*
X81742768Y-79955114D01*
X81742763Y-79955117D01*
X81631282Y-80019480D01*
X81519479Y-80131283D01*
X81467717Y-80220940D01*
X81440424Y-80268212D01*
X81421431Y-80339095D01*
X81421430Y-80339094D01*
X81399500Y-80420938D01*
X80320344Y-80420938D01*
X80310577Y-80404021D01*
X80305500Y-80365458D01*
X80305500Y-79634541D01*
X80325462Y-79560041D01*
X80380000Y-79505503D01*
X80415933Y-79490618D01*
X80531784Y-79459577D01*
X80668716Y-79380520D01*
X80780520Y-79268716D01*
X80859577Y-79131784D01*
X80900500Y-78979057D01*
X80900500Y-78820943D01*
X80859577Y-78668216D01*
X80780520Y-78531284D01*
X80668716Y-78419480D01*
X80531785Y-78340423D01*
X80415935Y-78309381D01*
X80349140Y-78270816D01*
X80310577Y-78204021D01*
X80305500Y-78165458D01*
X80305500Y-73208698D01*
X80305500Y-73208683D01*
X80302887Y-73168810D01*
X80297860Y-73130623D01*
X80297862Y-73130606D01*
X80297855Y-73130585D01*
X80297810Y-73130243D01*
X80296807Y-73123251D01*
X80295992Y-73120938D01*
X84099500Y-73120938D01*
X84099500Y-73120941D01*
X84099500Y-73120943D01*
X84099500Y-73279057D01*
X84140423Y-73431784D01*
X84219480Y-73568716D01*
X84331284Y-73680520D01*
X84468216Y-73759577D01*
X84620943Y-73800500D01*
X84779057Y-73800500D01*
X84931784Y-73759577D01*
X85068716Y-73680520D01*
X85118421Y-73630815D01*
X85974500Y-73630815D01*
X85974500Y-73630817D01*
X85974500Y-73769183D01*
X86010312Y-73902836D01*
X86079495Y-74022665D01*
X86177335Y-74120505D01*
X86297164Y-74189688D01*
X86430817Y-74225500D01*
X86569183Y-74225500D01*
X86702836Y-74189688D01*
X86822665Y-74120505D01*
X86920505Y-74022665D01*
X86989688Y-73902836D01*
X87025500Y-73769183D01*
X87025500Y-73630817D01*
X86989688Y-73497164D01*
X86920505Y-73377335D01*
X86822665Y-73279495D01*
X86702836Y-73210312D01*
X86569183Y-73174500D01*
X86430813Y-73174500D01*
X86325545Y-73202707D01*
X86325542Y-73202708D01*
X86297164Y-73210312D01*
X86297162Y-73210312D01*
X86297162Y-73210313D01*
X86271718Y-73225002D01*
X86271713Y-73225005D01*
X86177333Y-73279495D01*
X86079495Y-73377333D01*
X86020176Y-73480079D01*
X86020175Y-73480078D01*
X86010313Y-73497160D01*
X86010312Y-73497164D01*
X85997079Y-73546551D01*
X85974500Y-73630815D01*
X85118421Y-73630815D01*
X85180520Y-73568716D01*
X85259577Y-73431784D01*
X85300500Y-73279057D01*
X85300500Y-73120943D01*
X85259577Y-72968216D01*
X85180520Y-72831284D01*
X85170177Y-72820941D01*
X93099500Y-72820941D01*
X93099500Y-72979058D01*
X93100326Y-72982139D01*
X93140423Y-73131784D01*
X93219480Y-73268716D01*
X93331284Y-73380520D01*
X93468216Y-73459577D01*
X93620943Y-73500500D01*
X93779057Y-73500500D01*
X93931784Y-73459577D01*
X94068716Y-73380520D01*
X94180520Y-73268716D01*
X94259577Y-73131784D01*
X94300500Y-72979057D01*
X94300500Y-72820943D01*
X94259577Y-72668216D01*
X94180520Y-72531284D01*
X94068716Y-72419480D01*
X93931784Y-72340423D01*
X93779057Y-72299500D01*
X93620939Y-72299500D01*
X93496599Y-72332817D01*
X93496593Y-72332819D01*
X93468216Y-72340423D01*
X93468214Y-72340423D01*
X93468214Y-72340424D01*
X93442768Y-72355114D01*
X93442763Y-72355117D01*
X93331282Y-72419480D01*
X93219479Y-72531283D01*
X93140424Y-72668212D01*
X93099802Y-72819812D01*
X93099802Y-72819813D01*
X93099500Y-72820941D01*
X85170177Y-72820941D01*
X85068716Y-72719480D01*
X84931784Y-72640423D01*
X84779057Y-72599500D01*
X84620939Y-72599500D01*
X84496599Y-72632817D01*
X84496593Y-72632819D01*
X84468216Y-72640423D01*
X84468214Y-72640423D01*
X84468214Y-72640424D01*
X84442768Y-72655114D01*
X84442763Y-72655117D01*
X84331282Y-72719480D01*
X84219479Y-72831283D01*
X84188076Y-72885677D01*
X84140424Y-72968212D01*
X84121431Y-73039095D01*
X84121430Y-73039094D01*
X84099500Y-73120938D01*
X80295992Y-73120938D01*
X80259491Y-73017363D01*
X80220926Y-72950569D01*
X80220921Y-72950561D01*
X80220917Y-72950555D01*
X80208623Y-72932610D01*
X80194363Y-72911793D01*
X80194359Y-72911789D01*
X80187838Y-72904524D01*
X80189089Y-72903400D01*
X80151926Y-72849146D01*
X80145994Y-72772247D01*
X80157387Y-72741450D01*
X80155839Y-72740809D01*
X80159575Y-72731788D01*
X80159575Y-72731786D01*
X80159577Y-72731784D01*
X80200500Y-72579057D01*
X80200500Y-72420943D01*
X80159577Y-72268216D01*
X80080520Y-72131284D01*
X80080519Y-72131283D01*
X80080517Y-72131279D01*
X79968724Y-72019487D01*
X79968712Y-72019477D01*
X79963480Y-72015827D01*
X79963552Y-72015722D01*
X79948535Y-72005204D01*
X79939161Y-71997333D01*
X79937513Y-71994978D01*
X79934530Y-71991995D01*
X79935057Y-71991467D01*
X79933601Y-71989387D01*
X79922359Y-71978262D01*
X79921118Y-71979313D01*
X79918528Y-71976252D01*
X79916594Y-71972556D01*
X79913463Y-71969457D01*
X79913353Y-71969302D01*
X79914475Y-71968505D01*
X79901100Y-71942939D01*
X79894943Y-71934139D01*
X79894632Y-71930574D01*
X79888349Y-71918564D01*
X79886779Y-71912703D01*
X79886779Y-71912701D01*
X79886065Y-71910036D01*
X79886066Y-71832920D01*
X79900500Y-71779057D01*
X79900500Y-71761726D01*
X79911544Y-71706515D01*
X79911489Y-71706495D01*
X79911623Y-71706120D01*
X79911966Y-71704409D01*
X79912922Y-71702113D01*
X79913587Y-71700658D01*
X79913691Y-71700269D01*
X79915380Y-71696217D01*
X79915952Y-71695474D01*
X79916164Y-71695011D01*
X79916271Y-71695060D01*
X79936727Y-71668520D01*
X79956676Y-71639783D01*
X79960132Y-71638154D01*
X79962464Y-71635129D01*
X79994803Y-71621815D01*
X80018319Y-71610732D01*
X80017850Y-71608979D01*
X80023839Y-71607374D01*
X80023842Y-71607374D01*
X80030555Y-71605575D01*
X80069113Y-71600500D01*
X80079057Y-71600500D01*
X80231784Y-71559577D01*
X80368716Y-71480520D01*
X80480520Y-71368716D01*
X80559577Y-71231784D01*
X80600500Y-71079057D01*
X80600500Y-70920943D01*
X80559577Y-70768216D01*
X80480520Y-70631284D01*
X80368716Y-70519480D01*
X80368715Y-70519479D01*
X80248774Y-70450232D01*
X80217914Y-70426553D01*
X80212586Y-70421225D01*
X80174022Y-70354430D01*
X80169161Y-70307849D01*
X80171015Y-70273488D01*
X80171014Y-70273484D01*
X80171053Y-70272764D01*
X80194999Y-70199447D01*
X80245336Y-70151752D01*
X80368716Y-70080520D01*
X80397572Y-70051662D01*
X80442770Y-70020707D01*
X80449180Y-70017877D01*
X80451630Y-70017062D01*
X80453579Y-70015936D01*
X80460947Y-70012685D01*
X80491346Y-70007971D01*
X80521107Y-70000000D01*
X84000000Y-70000000D01*
X84000000Y-65093733D01*
X84001274Y-65074290D01*
X84003801Y-65055090D01*
X84007604Y-65035969D01*
X84017108Y-65000500D01*
X84025500Y-64969183D01*
X84025500Y-64830817D01*
X84011631Y-64779057D01*
X84007602Y-64764022D01*
X84003803Y-64744925D01*
X84001273Y-64725706D01*
X84000000Y-64706268D01*
X84000000Y-64320941D01*
X93099500Y-64320941D01*
X93099500Y-64320943D01*
X93099500Y-64479057D01*
X93140423Y-64631784D01*
X93219480Y-64768716D01*
X93331284Y-64880520D01*
X93468216Y-64959577D01*
X93620943Y-65000500D01*
X93779057Y-65000500D01*
X93931784Y-64959577D01*
X94068716Y-64880520D01*
X94180520Y-64768716D01*
X94259577Y-64631784D01*
X94300500Y-64479057D01*
X94300500Y-64320943D01*
X94259577Y-64168216D01*
X94180520Y-64031284D01*
X94068716Y-63919480D01*
X93931784Y-63840423D01*
X93779057Y-63799500D01*
X93620939Y-63799500D01*
X93496599Y-63832817D01*
X93496593Y-63832819D01*
X93468216Y-63840423D01*
X93468214Y-63840423D01*
X93468214Y-63840424D01*
X93442768Y-63855114D01*
X93442763Y-63855117D01*
X93331282Y-63919480D01*
X93219479Y-64031283D01*
X93156469Y-64140423D01*
X93147204Y-64156470D01*
X93140422Y-64168217D01*
X93140420Y-64168220D01*
X93127061Y-64218079D01*
X93127043Y-64218147D01*
X93126687Y-64219480D01*
X93099500Y-64320941D01*
X84000000Y-64320941D01*
X84000000Y-62720941D01*
X90499500Y-62720941D01*
X90499500Y-62879058D01*
X90510331Y-62919480D01*
X90540423Y-63031784D01*
X90619480Y-63168716D01*
X90731284Y-63280520D01*
X90868216Y-63359577D01*
X91020943Y-63400500D01*
X91179057Y-63400500D01*
X91331784Y-63359577D01*
X91468716Y-63280520D01*
X91580520Y-63168716D01*
X91659577Y-63031784D01*
X91700500Y-62879057D01*
X91700500Y-62720943D01*
X91659577Y-62568216D01*
X91580520Y-62431284D01*
X91468716Y-62319480D01*
X91331784Y-62240423D01*
X91179057Y-62199500D01*
X91020939Y-62199500D01*
X90896599Y-62232817D01*
X90896593Y-62232819D01*
X90868216Y-62240423D01*
X90868214Y-62240423D01*
X90868214Y-62240424D01*
X90842768Y-62255114D01*
X90842763Y-62255117D01*
X90731282Y-62319480D01*
X90619479Y-62431283D01*
X90561457Y-62531783D01*
X90540424Y-62568211D01*
X90532667Y-62597160D01*
X90525074Y-62625499D01*
X90525074Y-62625500D01*
X90525073Y-62625499D01*
X90500256Y-62718117D01*
X90500256Y-62718119D01*
X90499500Y-62720941D01*
X84000000Y-62720941D01*
X84000000Y-61230815D01*
X84574500Y-61230815D01*
X84574500Y-61230817D01*
X84574500Y-61369183D01*
X84610312Y-61502836D01*
X84679495Y-61622665D01*
X84777335Y-61720505D01*
X84897164Y-61789688D01*
X85030817Y-61825500D01*
X85169183Y-61825500D01*
X85302836Y-61789688D01*
X85372143Y-61749672D01*
X85408073Y-61734790D01*
X85421479Y-61731198D01*
X85498606Y-61731200D01*
X85565399Y-61769766D01*
X85603959Y-61836556D01*
X85604921Y-61840146D01*
X85604923Y-61917274D01*
X85604922Y-61917276D01*
X85574500Y-62030812D01*
X85574500Y-62030813D01*
X85574500Y-62030817D01*
X85574500Y-62169183D01*
X85610312Y-62302836D01*
X85679495Y-62422665D01*
X85777335Y-62520505D01*
X85897164Y-62589688D01*
X86030817Y-62625500D01*
X86169183Y-62625500D01*
X86302836Y-62589688D01*
X86422665Y-62520505D01*
X86520505Y-62422665D01*
X86589688Y-62302836D01*
X86625500Y-62169183D01*
X86625500Y-62094116D01*
X86630576Y-62055556D01*
X86634721Y-62040085D01*
X86673283Y-61973289D01*
X86700591Y-61957521D01*
X94009500Y-61957521D01*
X94009500Y-61957523D01*
X94009500Y-62102476D01*
X94047015Y-62242485D01*
X94047017Y-62242490D01*
X94118237Y-62365845D01*
X94126855Y-62383318D01*
X94135956Y-62405286D01*
X94146028Y-62481749D01*
X94144607Y-62492550D01*
X94125918Y-62547614D01*
X94097314Y-62597156D01*
X94097313Y-62597159D01*
X94097313Y-62597160D01*
X94097312Y-62597164D01*
X94061500Y-62730813D01*
X94061500Y-62730815D01*
X94061500Y-62730817D01*
X94061500Y-62869183D01*
X94097312Y-63002836D01*
X94166495Y-63122665D01*
X94264335Y-63220505D01*
X94384164Y-63289688D01*
X94517817Y-63325500D01*
X94656183Y-63325500D01*
X94789836Y-63289688D01*
X94909665Y-63220505D01*
X95007505Y-63122665D01*
X95076688Y-63002836D01*
X95112500Y-62869183D01*
X95112500Y-62730817D01*
X95076688Y-62597164D01*
X95025265Y-62508098D01*
X95010383Y-62472167D01*
X95005831Y-62455176D01*
X95005831Y-62420907D01*
X95005830Y-62378058D01*
X95010383Y-62361063D01*
X95025263Y-62325138D01*
X95072984Y-62242485D01*
X95110500Y-62102475D01*
X95110500Y-61957525D01*
X95072984Y-61817515D01*
X95072983Y-61817514D01*
X95072983Y-61817512D01*
X95002738Y-61695846D01*
X95000950Y-61692522D01*
X95000667Y-61692142D01*
X94898017Y-61589493D01*
X94898007Y-61589485D01*
X94772491Y-61517017D01*
X94632475Y-61479500D01*
X94487525Y-61479500D01*
X94487521Y-61479500D01*
X94347508Y-61517017D01*
X94221994Y-61589483D01*
X94221990Y-61589486D01*
X94119486Y-61691990D01*
X94119483Y-61691994D01*
X94047017Y-61817508D01*
X94009500Y-61957521D01*
X86700591Y-61957521D01*
X86740075Y-61934723D01*
X86755556Y-61930576D01*
X86794116Y-61925500D01*
X86869183Y-61925500D01*
X87002836Y-61889688D01*
X87122665Y-61820505D01*
X87220505Y-61722665D01*
X87289688Y-61602836D01*
X87325500Y-61469183D01*
X87325500Y-61330817D01*
X87289688Y-61197164D01*
X87220505Y-61077335D01*
X87122665Y-60979495D01*
X87002836Y-60910312D01*
X86869183Y-60874500D01*
X86730813Y-60874500D01*
X86625545Y-60902707D01*
X86625542Y-60902708D01*
X86597164Y-60910312D01*
X86597162Y-60910312D01*
X86597162Y-60910313D01*
X86571718Y-60925002D01*
X86571713Y-60925005D01*
X86477333Y-60979495D01*
X86379494Y-61077334D01*
X86320513Y-61179493D01*
X86320514Y-61179494D01*
X86310311Y-61197164D01*
X86310309Y-61197169D01*
X86303490Y-61222622D01*
X86303489Y-61222628D01*
X86301295Y-61230817D01*
X86274500Y-61330815D01*
X86274500Y-61416936D01*
X86272869Y-61427869D01*
X86271055Y-61432041D01*
X86269422Y-61444452D01*
X86265276Y-61459923D01*
X86226709Y-61526716D01*
X86159925Y-61565275D01*
X86144455Y-61569421D01*
X86105884Y-61574500D01*
X86030811Y-61574500D01*
X85914853Y-61605570D01*
X85914843Y-61605574D01*
X85897164Y-61610312D01*
X85897163Y-61610312D01*
X85897161Y-61610313D01*
X85824852Y-61652059D01*
X85821741Y-61653667D01*
X85817606Y-61654569D01*
X85791920Y-61665209D01*
X85778520Y-61668799D01*
X85752450Y-61668798D01*
X85746389Y-61670122D01*
X85742236Y-61668798D01*
X85701392Y-61668797D01*
X85634598Y-61630230D01*
X85596037Y-61563434D01*
X85596034Y-61563424D01*
X85595073Y-61559836D01*
X85595077Y-61482722D01*
X85625500Y-61369183D01*
X85625500Y-61230817D01*
X85625500Y-61230815D01*
X85602908Y-61146503D01*
X85589688Y-61097164D01*
X85520505Y-60977335D01*
X85422665Y-60879495D01*
X85302836Y-60810312D01*
X85169183Y-60774500D01*
X85030813Y-60774500D01*
X84925545Y-60802707D01*
X84925542Y-60802708D01*
X84897164Y-60810312D01*
X84897162Y-60810312D01*
X84897162Y-60810313D01*
X84871718Y-60825002D01*
X84871713Y-60825005D01*
X84777333Y-60879495D01*
X84679494Y-60977334D01*
X84641105Y-61043828D01*
X84610312Y-61097162D01*
X84610309Y-61097169D01*
X84597092Y-61146501D01*
X84597092Y-61146502D01*
X84583516Y-61197169D01*
X84574500Y-61230815D01*
X84000000Y-61230815D01*
X84000000Y-58814256D01*
X84005077Y-58775693D01*
X84007705Y-58765885D01*
X84046269Y-58699090D01*
X84113063Y-58660525D01*
X84190191Y-58660525D01*
X84256986Y-58699089D01*
X84256987Y-58699089D01*
X84269067Y-58711169D01*
X84276681Y-58719851D01*
X84279495Y-58722665D01*
X84377335Y-58820505D01*
X84497164Y-58889688D01*
X84630817Y-58925500D01*
X84705884Y-58925500D01*
X84744447Y-58930577D01*
X84759917Y-58934722D01*
X84826712Y-58973285D01*
X84865277Y-59040079D01*
X84865277Y-59040081D01*
X84881869Y-59102005D01*
X84886819Y-59115161D01*
X84910312Y-59202836D01*
X84979495Y-59322665D01*
X85077335Y-59420505D01*
X85197164Y-59489688D01*
X85330817Y-59525500D01*
X85469183Y-59525500D01*
X85602836Y-59489688D01*
X85722665Y-59420505D01*
X85820505Y-59322665D01*
X85889688Y-59202836D01*
X85911632Y-59120941D01*
X90599500Y-59120941D01*
X90599500Y-59279058D01*
X90600419Y-59282487D01*
X90640423Y-59431784D01*
X90719480Y-59568716D01*
X90831284Y-59680520D01*
X90968216Y-59759577D01*
X91120943Y-59800500D01*
X91279057Y-59800500D01*
X91431784Y-59759577D01*
X91568716Y-59680520D01*
X91680520Y-59568716D01*
X91759577Y-59431784D01*
X91786632Y-59330815D01*
X95474500Y-59330815D01*
X95474500Y-59330817D01*
X95474500Y-59339470D01*
X95474500Y-59469186D01*
X95510311Y-59602835D01*
X95515984Y-59612660D01*
X95579495Y-59722665D01*
X95645567Y-59788737D01*
X95652245Y-59797811D01*
X95653874Y-59801979D01*
X95661278Y-59811628D01*
X95669287Y-59825500D01*
X95689249Y-59900000D01*
X95669287Y-59974500D01*
X95669286Y-59974501D01*
X95661278Y-59988371D01*
X95637600Y-60019229D01*
X95579496Y-60077332D01*
X95579495Y-60077333D01*
X95579494Y-60077335D01*
X95510313Y-60197162D01*
X95474500Y-60330815D01*
X95474500Y-60330817D01*
X95474500Y-60469183D01*
X95510312Y-60602836D01*
X95579495Y-60722665D01*
X95677335Y-60820505D01*
X95797164Y-60889688D01*
X95930817Y-60925500D01*
X96069183Y-60925500D01*
X96202836Y-60889688D01*
X96322665Y-60820505D01*
X96420505Y-60722665D01*
X96489688Y-60602836D01*
X96525500Y-60469183D01*
X96525500Y-60330817D01*
X96489688Y-60197164D01*
X96420505Y-60077335D01*
X96362399Y-60019229D01*
X96338724Y-59988375D01*
X96330715Y-59974504D01*
X96310750Y-59900005D01*
X96330710Y-59825504D01*
X96338723Y-59811624D01*
X96362403Y-59780767D01*
X96383595Y-59759575D01*
X96420505Y-59722665D01*
X96489688Y-59602836D01*
X96525500Y-59469183D01*
X96525500Y-59330817D01*
X96489688Y-59197164D01*
X96420505Y-59077335D01*
X96322665Y-58979495D01*
X96202836Y-58910312D01*
X96069183Y-58874500D01*
X95930813Y-58874500D01*
X95825545Y-58902707D01*
X95825542Y-58902708D01*
X95797164Y-58910312D01*
X95797162Y-58910312D01*
X95797162Y-58910313D01*
X95771718Y-58925002D01*
X95771713Y-58925005D01*
X95677333Y-58979495D01*
X95579494Y-59077334D01*
X95534244Y-59155712D01*
X95510312Y-59197162D01*
X95510311Y-59197165D01*
X95509091Y-59201720D01*
X95508792Y-59202837D01*
X95474500Y-59330815D01*
X91786632Y-59330815D01*
X91800500Y-59279057D01*
X91800500Y-59120943D01*
X91759577Y-58968216D01*
X91680520Y-58831284D01*
X91568716Y-58719480D01*
X91431784Y-58640423D01*
X91279057Y-58599500D01*
X91120939Y-58599500D01*
X90996599Y-58632817D01*
X90996593Y-58632819D01*
X90968216Y-58640423D01*
X90968214Y-58640423D01*
X90968214Y-58640424D01*
X90942768Y-58655114D01*
X90942763Y-58655117D01*
X90831282Y-58719480D01*
X90719479Y-58831283D01*
X90640424Y-58968212D01*
X90621167Y-59040079D01*
X90599500Y-59120941D01*
X85911632Y-59120941D01*
X85925500Y-59069183D01*
X85925500Y-58930817D01*
X85889688Y-58797164D01*
X85820505Y-58677335D01*
X85815433Y-58672263D01*
X85791757Y-58641408D01*
X85783748Y-58627537D01*
X85763783Y-58553038D01*
X85783743Y-58478537D01*
X85791756Y-58464657D01*
X85815431Y-58433804D01*
X85839721Y-58409515D01*
X85880520Y-58368716D01*
X85959577Y-58231784D01*
X85959577Y-58231783D01*
X85961855Y-58227838D01*
X85972679Y-58211638D01*
X85982723Y-58198547D01*
X86043910Y-58151591D01*
X86120378Y-58141520D01*
X86191633Y-58171029D01*
X86194597Y-58173303D01*
X86239450Y-58229654D01*
X86240410Y-58231758D01*
X86240423Y-58231785D01*
X86319479Y-58368715D01*
X86319480Y-58368716D01*
X86431284Y-58480520D01*
X86568216Y-58559577D01*
X86720943Y-58600500D01*
X86879057Y-58600500D01*
X87031784Y-58559577D01*
X87168716Y-58480520D01*
X87280520Y-58368716D01*
X87359577Y-58231784D01*
X87400500Y-58079057D01*
X87400500Y-57920943D01*
X87359577Y-57768216D01*
X87280520Y-57631284D01*
X87168716Y-57519480D01*
X87031784Y-57440423D01*
X86879057Y-57399500D01*
X86720939Y-57399500D01*
X86596599Y-57432817D01*
X86596593Y-57432819D01*
X86568216Y-57440423D01*
X86568214Y-57440423D01*
X86568214Y-57440424D01*
X86542768Y-57455114D01*
X86542763Y-57455117D01*
X86431282Y-57519480D01*
X86319480Y-57631282D01*
X86238141Y-57772167D01*
X86227314Y-57788371D01*
X86217273Y-57801457D01*
X86156083Y-57848410D01*
X86079615Y-57858479D01*
X86008392Y-57828990D01*
X86007292Y-57828145D01*
X85968926Y-57784410D01*
X85959575Y-57768214D01*
X85880520Y-57631284D01*
X85768716Y-57519480D01*
X85631784Y-57440423D01*
X85479057Y-57399500D01*
X85320939Y-57399500D01*
X85196599Y-57432817D01*
X85196593Y-57432819D01*
X85168216Y-57440423D01*
X85168214Y-57440423D01*
X85168214Y-57440424D01*
X85142768Y-57455114D01*
X85142763Y-57455117D01*
X85031282Y-57519480D01*
X84919480Y-57631282D01*
X84864102Y-57727201D01*
X84859763Y-57732491D01*
X84834461Y-57776315D01*
X84831729Y-57781047D01*
X84831728Y-57781049D01*
X84826846Y-57789506D01*
X84825376Y-57788657D01*
X84785363Y-57840788D01*
X84751720Y-57860212D01*
X84747198Y-57862086D01*
X84670731Y-57872167D01*
X84651588Y-57868360D01*
X84640079Y-57865276D01*
X84573285Y-57826711D01*
X84534722Y-57759916D01*
X84534721Y-57759914D01*
X84530576Y-57744443D01*
X84529686Y-57737686D01*
X84528382Y-57735045D01*
X84528697Y-57730176D01*
X84525500Y-57705883D01*
X84525500Y-57630817D01*
X84522823Y-57619479D01*
X84521593Y-57616237D01*
X84489690Y-57497170D01*
X84489688Y-57497165D01*
X84489688Y-57497164D01*
X84420505Y-57377335D01*
X84322665Y-57279495D01*
X84322664Y-57279494D01*
X84304803Y-57269182D01*
X84202841Y-57210313D01*
X84181481Y-57204589D01*
X84129380Y-57190629D01*
X84093441Y-57175741D01*
X84078211Y-57166947D01*
X84023679Y-57112413D01*
X84019962Y-57105975D01*
X84000000Y-57031475D01*
X84000000Y-50369116D01*
X84005076Y-50330556D01*
X84009221Y-50315085D01*
X84047783Y-50248289D01*
X84114575Y-50209723D01*
X84130056Y-50205576D01*
X84168616Y-50200500D01*
X96831384Y-50200500D01*
X96869947Y-50205577D01*
G37*
%TD.AperFunction*%
%TD*%
%TA.AperFunction,Conductor*%
%TO.N,5V_A*%
G36*
X142925500Y-50220462D02*
G01*
X142980038Y-50275000D01*
X143000000Y-50349500D01*
X143000000Y-65851000D01*
X142980038Y-65925500D01*
X142925500Y-65980038D01*
X142851000Y-66000000D01*
X108149000Y-66000000D01*
X108074500Y-65980038D01*
X108019962Y-65925500D01*
X108000000Y-65851000D01*
X108000000Y-64820941D01*
X130599499Y-64820941D01*
X130599499Y-64820943D01*
X130599499Y-64979057D01*
X130640422Y-65131784D01*
X130719479Y-65268716D01*
X130831283Y-65380520D01*
X130968215Y-65459577D01*
X131120942Y-65500500D01*
X131279056Y-65500500D01*
X131431783Y-65459577D01*
X131568715Y-65380520D01*
X131680519Y-65268716D01*
X131759576Y-65131784D01*
X131764685Y-65112715D01*
X131803248Y-65045920D01*
X131870039Y-65007357D01*
X131919535Y-64994095D01*
X132027963Y-64931495D01*
X132116494Y-64842964D01*
X132179094Y-64734536D01*
X132211499Y-64613601D01*
X132211499Y-64488399D01*
X132179094Y-64367464D01*
X132116494Y-64259036D01*
X132027963Y-64170505D01*
X132027962Y-64170504D01*
X131919537Y-64107906D01*
X131919536Y-64107905D01*
X131919535Y-64107905D01*
X131798600Y-64075500D01*
X131673398Y-64075500D01*
X131552463Y-64107905D01*
X131552462Y-64107905D01*
X131552460Y-64107906D01*
X131444033Y-64170505D01*
X131358682Y-64255858D01*
X131291888Y-64294423D01*
X131253323Y-64299500D01*
X131120942Y-64299500D01*
X130968215Y-64340423D01*
X130968213Y-64340423D01*
X130968213Y-64340424D01*
X130831282Y-64419480D01*
X130719479Y-64531283D01*
X130640423Y-64668214D01*
X130599499Y-64820941D01*
X108000000Y-64820941D01*
X108000000Y-63601583D01*
X137049500Y-63601583D01*
X137049500Y-63798417D01*
X137080291Y-63992826D01*
X137141116Y-64180025D01*
X137141119Y-64180030D01*
X137141121Y-64180036D01*
X137181374Y-64259036D01*
X137230476Y-64355405D01*
X137346172Y-64514646D01*
X137485354Y-64653828D01*
X137644595Y-64769524D01*
X137819975Y-64858884D01*
X138007174Y-64919709D01*
X138201583Y-64950500D01*
X138201588Y-64950500D01*
X139998412Y-64950500D01*
X139998417Y-64950500D01*
X140192826Y-64919709D01*
X140380025Y-64858884D01*
X140555405Y-64769524D01*
X140714646Y-64653828D01*
X140853828Y-64514646D01*
X140969524Y-64355405D01*
X141058884Y-64180025D01*
X141119709Y-63992826D01*
X141150500Y-63798417D01*
X141150500Y-63601583D01*
X141119709Y-63407174D01*
X141058884Y-63219975D01*
X140969524Y-63044595D01*
X140853828Y-62885354D01*
X140714646Y-62746172D01*
X140555405Y-62630476D01*
X140545010Y-62625179D01*
X140380036Y-62541121D01*
X140380030Y-62541119D01*
X140380025Y-62541116D01*
X140192826Y-62480291D01*
X139998417Y-62449500D01*
X138201583Y-62449500D01*
X138007174Y-62480291D01*
X137819975Y-62541116D01*
X137819972Y-62541117D01*
X137819963Y-62541121D01*
X137644598Y-62630474D01*
X137644593Y-62630477D01*
X137485363Y-62746165D01*
X137485352Y-62746174D01*
X137346174Y-62885352D01*
X137346165Y-62885363D01*
X137230477Y-63044593D01*
X137230474Y-63044598D01*
X137141121Y-63219963D01*
X137141117Y-63219972D01*
X137141116Y-63219975D01*
X137080291Y-63407174D01*
X137049500Y-63601583D01*
X108000000Y-63601583D01*
X108000000Y-62920941D01*
X132499500Y-62920941D01*
X132499500Y-62920943D01*
X132499500Y-63079057D01*
X132540423Y-63231784D01*
X132619480Y-63368716D01*
X132731284Y-63480520D01*
X132868216Y-63559577D01*
X133020943Y-63600500D01*
X133179057Y-63600500D01*
X133331784Y-63559577D01*
X133468716Y-63480520D01*
X133580520Y-63368716D01*
X133659577Y-63231784D01*
X133700500Y-63079057D01*
X133700500Y-62920943D01*
X133659577Y-62768216D01*
X133580520Y-62631284D01*
X133468716Y-62519480D01*
X133331784Y-62440423D01*
X133179057Y-62399500D01*
X133020943Y-62399500D01*
X132868216Y-62440423D01*
X132868214Y-62440423D01*
X132868214Y-62440424D01*
X132731283Y-62519480D01*
X132619480Y-62631283D01*
X132540424Y-62768214D01*
X132499500Y-62920941D01*
X108000000Y-62920941D01*
X108000000Y-61520941D01*
X116899500Y-61520941D01*
X116899500Y-61679058D01*
X116908719Y-61713464D01*
X116940423Y-61831784D01*
X117019480Y-61968716D01*
X117131284Y-62080520D01*
X117268216Y-62159577D01*
X117420943Y-62200500D01*
X117579057Y-62200500D01*
X117731784Y-62159577D01*
X117868716Y-62080520D01*
X117980520Y-61968716D01*
X118059577Y-61831784D01*
X118100500Y-61679057D01*
X118100500Y-61520943D01*
X118059577Y-61368216D01*
X118046687Y-61345889D01*
X126552500Y-61345889D01*
X126552500Y-61496110D01*
X126558762Y-61519480D01*
X126588719Y-61631283D01*
X126591379Y-61641207D01*
X126666483Y-61771291D01*
X126666484Y-61771292D01*
X126666486Y-61771295D01*
X126772705Y-61877514D01*
X126902795Y-61952622D01*
X127047892Y-61991500D01*
X127047894Y-61991500D01*
X127198106Y-61991500D01*
X127198108Y-61991500D01*
X127343205Y-61952622D01*
X127398078Y-61920941D01*
X135099500Y-61920941D01*
X135099500Y-62079058D01*
X135099892Y-62080520D01*
X135140423Y-62231784D01*
X135219480Y-62368716D01*
X135331284Y-62480520D01*
X135468216Y-62559577D01*
X135620943Y-62600500D01*
X135779057Y-62600500D01*
X135931784Y-62559577D01*
X136068716Y-62480520D01*
X136180520Y-62368716D01*
X136259577Y-62231784D01*
X136300500Y-62079057D01*
X136300500Y-61920943D01*
X136259577Y-61768216D01*
X136180520Y-61631284D01*
X136068716Y-61519480D01*
X135931784Y-61440423D01*
X135779057Y-61399500D01*
X135620943Y-61399500D01*
X135468216Y-61440423D01*
X135468214Y-61440423D01*
X135468214Y-61440424D01*
X135331283Y-61519480D01*
X135219480Y-61631283D01*
X135140424Y-61768214D01*
X135140423Y-61768216D01*
X135139598Y-61771295D01*
X135099500Y-61920941D01*
X127398078Y-61920941D01*
X127473295Y-61877514D01*
X127579514Y-61771295D01*
X127608406Y-61721251D01*
X127614393Y-61713464D01*
X127637470Y-61695786D01*
X127658024Y-61675233D01*
X127667682Y-61672644D01*
X127675622Y-61666563D01*
X127704446Y-61662792D01*
X127732523Y-61655269D01*
X127747198Y-61657200D01*
X127752099Y-61656560D01*
X127756633Y-61658442D01*
X127771081Y-61660344D01*
X127920943Y-61700500D01*
X128079057Y-61700500D01*
X128231784Y-61659577D01*
X128368716Y-61580520D01*
X128480520Y-61468716D01*
X128559577Y-61331784D01*
X128600500Y-61179057D01*
X128600500Y-61020943D01*
X128559577Y-60868216D01*
X128480520Y-60731284D01*
X128368716Y-60619480D01*
X128231784Y-60540423D01*
X128079057Y-60499500D01*
X127920943Y-60499500D01*
X127768216Y-60540423D01*
X127768214Y-60540423D01*
X127768214Y-60540424D01*
X127631283Y-60619480D01*
X127519479Y-60731284D01*
X127473981Y-60810089D01*
X127419443Y-60864626D01*
X127344943Y-60884588D01*
X127306380Y-60879511D01*
X127198111Y-60850500D01*
X127198108Y-60850500D01*
X127047892Y-60850500D01*
X127047889Y-60850500D01*
X126939620Y-60879511D01*
X126902795Y-60889378D01*
X126902794Y-60889378D01*
X126902792Y-60889379D01*
X126772708Y-60964483D01*
X126666483Y-61070708D01*
X126591379Y-61200792D01*
X126552500Y-61345889D01*
X118046687Y-61345889D01*
X117980520Y-61231284D01*
X117868716Y-61119480D01*
X117731784Y-61040423D01*
X117579057Y-60999500D01*
X117420943Y-60999500D01*
X117268216Y-61040423D01*
X117268214Y-61040423D01*
X117268214Y-61040424D01*
X117131283Y-61119480D01*
X117019480Y-61231283D01*
X116940425Y-61368213D01*
X116940423Y-61368216D01*
X116921431Y-61439095D01*
X116899500Y-61520941D01*
X108000000Y-61520941D01*
X108000000Y-59220941D01*
X116899500Y-59220941D01*
X116899500Y-59220943D01*
X116899500Y-59379057D01*
X116940423Y-59531784D01*
X117019480Y-59668716D01*
X117131284Y-59780520D01*
X117268216Y-59859577D01*
X117420943Y-59900500D01*
X117579057Y-59900500D01*
X117731784Y-59859577D01*
X117798704Y-59820941D01*
X131999500Y-59820941D01*
X131999500Y-59820943D01*
X131999500Y-59979057D01*
X132040423Y-60131784D01*
X132119480Y-60268716D01*
X132231284Y-60380520D01*
X132368216Y-60459577D01*
X132520943Y-60500500D01*
X132679057Y-60500500D01*
X132831784Y-60459577D01*
X132968716Y-60380520D01*
X133080520Y-60268716D01*
X133099451Y-60235927D01*
X138449500Y-60235927D01*
X138449500Y-60364072D01*
X138474498Y-60489743D01*
X138474499Y-60489745D01*
X138523531Y-60608119D01*
X138523533Y-60608123D01*
X138523535Y-60608127D01*
X138594724Y-60714669D01*
X138685331Y-60805276D01*
X138791873Y-60876465D01*
X138791879Y-60876467D01*
X138791880Y-60876468D01*
X138823048Y-60889378D01*
X138910256Y-60925501D01*
X139035931Y-60950500D01*
X139035935Y-60950500D01*
X139164065Y-60950500D01*
X139164069Y-60950500D01*
X139289744Y-60925501D01*
X139408127Y-60876465D01*
X139514669Y-60805276D01*
X139605276Y-60714669D01*
X139676465Y-60608127D01*
X139725501Y-60489744D01*
X139750500Y-60364069D01*
X139750500Y-60235931D01*
X139725501Y-60110256D01*
X139676465Y-59991873D01*
X139605276Y-59885331D01*
X139514669Y-59794724D01*
X139408127Y-59723535D01*
X139408123Y-59723533D01*
X139408119Y-59723531D01*
X139289745Y-59674499D01*
X139289743Y-59674498D01*
X139164072Y-59649500D01*
X139164069Y-59649500D01*
X139035931Y-59649500D01*
X139035927Y-59649500D01*
X138910256Y-59674498D01*
X138910254Y-59674499D01*
X138791880Y-59723531D01*
X138791873Y-59723535D01*
X138706591Y-59780519D01*
X138685327Y-59794727D01*
X138594727Y-59885327D01*
X138594724Y-59885330D01*
X138594724Y-59885331D01*
X138532099Y-59979056D01*
X138523535Y-59991873D01*
X138523531Y-59991880D01*
X138474499Y-60110254D01*
X138474498Y-60110256D01*
X138449500Y-60235927D01*
X133099451Y-60235927D01*
X133159577Y-60131784D01*
X133200500Y-59979057D01*
X133200500Y-59820943D01*
X133159577Y-59668216D01*
X133080520Y-59531284D01*
X132968716Y-59419480D01*
X132831784Y-59340423D01*
X132679057Y-59299500D01*
X132520943Y-59299500D01*
X132368216Y-59340423D01*
X132368214Y-59340423D01*
X132368214Y-59340424D01*
X132231283Y-59419480D01*
X132119480Y-59531283D01*
X132040424Y-59668214D01*
X132040423Y-59668216D01*
X132025600Y-59723535D01*
X131999500Y-59820941D01*
X117798704Y-59820941D01*
X117868716Y-59780520D01*
X117980520Y-59668716D01*
X118059577Y-59531784D01*
X118100500Y-59379057D01*
X118100500Y-59220943D01*
X118059577Y-59068216D01*
X117980520Y-58931284D01*
X117868716Y-58819480D01*
X117731784Y-58740423D01*
X117579057Y-58699500D01*
X117420943Y-58699500D01*
X117268216Y-58740423D01*
X117268214Y-58740423D01*
X117268214Y-58740424D01*
X117131283Y-58819480D01*
X117019480Y-58931283D01*
X116940424Y-59068214D01*
X116899500Y-59220941D01*
X108000000Y-59220941D01*
X108000000Y-57720941D01*
X122599500Y-57720941D01*
X122599500Y-57720943D01*
X122599500Y-57879057D01*
X122640423Y-58031784D01*
X122719480Y-58168716D01*
X122831284Y-58280520D01*
X122968216Y-58359577D01*
X123120943Y-58400500D01*
X123279057Y-58400500D01*
X123431784Y-58359577D01*
X123568716Y-58280520D01*
X123680520Y-58168716D01*
X123759577Y-58031784D01*
X123800500Y-57879057D01*
X123800500Y-57720943D01*
X123800499Y-57720939D01*
X123781422Y-57649741D01*
X123773705Y-57620941D01*
X125599500Y-57620941D01*
X125599500Y-57620943D01*
X125599500Y-57779057D01*
X125640423Y-57931784D01*
X125719480Y-58068716D01*
X125831284Y-58180520D01*
X125968216Y-58259577D01*
X126120943Y-58300500D01*
X126279057Y-58300500D01*
X126431784Y-58259577D01*
X126568716Y-58180520D01*
X126680520Y-58068716D01*
X126759577Y-57931784D01*
X126800500Y-57779057D01*
X126800500Y-57620943D01*
X126759577Y-57468216D01*
X126680520Y-57331284D01*
X126568716Y-57219480D01*
X126563527Y-57214291D01*
X126524963Y-57147496D01*
X126524963Y-57070368D01*
X126563524Y-57003577D01*
X126610489Y-56956613D01*
X126669799Y-56853886D01*
X126700500Y-56739309D01*
X126700500Y-56620691D01*
X126669799Y-56506114D01*
X126669797Y-56506110D01*
X126610493Y-56403393D01*
X126610490Y-56403389D01*
X126610489Y-56403387D01*
X126526613Y-56319511D01*
X126526610Y-56319509D01*
X126526606Y-56319506D01*
X126423889Y-56260202D01*
X126423886Y-56260201D01*
X126309309Y-56229500D01*
X126190691Y-56229500D01*
X126076110Y-56260202D01*
X125973393Y-56319506D01*
X125973389Y-56319509D01*
X125889509Y-56403389D01*
X125889506Y-56403393D01*
X125830202Y-56506110D01*
X125799500Y-56620689D01*
X125799500Y-56739310D01*
X125830202Y-56853889D01*
X125889506Y-56956606D01*
X125889509Y-56956610D01*
X125889511Y-56956613D01*
X125897544Y-56964646D01*
X125936107Y-57031439D01*
X125936107Y-57108567D01*
X125897543Y-57175362D01*
X125866687Y-57199039D01*
X125831284Y-57219479D01*
X125719480Y-57331283D01*
X125640424Y-57468214D01*
X125599500Y-57620941D01*
X123773705Y-57620941D01*
X123759576Y-57568214D01*
X123738394Y-57531525D01*
X123680520Y-57431284D01*
X123568716Y-57319480D01*
X123568715Y-57319479D01*
X123529550Y-57296867D01*
X123475013Y-57242329D01*
X123455051Y-57167829D01*
X123475014Y-57093329D01*
X123520181Y-57048162D01*
X123518859Y-57046439D01*
X123526606Y-57040492D01*
X123526613Y-57040489D01*
X123610489Y-56956613D01*
X123669799Y-56853886D01*
X123700500Y-56739309D01*
X123700500Y-56620691D01*
X123669799Y-56506114D01*
X123669797Y-56506110D01*
X123610493Y-56403393D01*
X123610490Y-56403389D01*
X123610489Y-56403387D01*
X123526613Y-56319511D01*
X123526610Y-56319509D01*
X123526606Y-56319506D01*
X123423889Y-56260202D01*
X123423886Y-56260201D01*
X123309309Y-56229500D01*
X123190691Y-56229500D01*
X123076110Y-56260202D01*
X122973393Y-56319506D01*
X122973389Y-56319509D01*
X122889509Y-56403389D01*
X122889506Y-56403393D01*
X122830202Y-56506110D01*
X122799500Y-56620689D01*
X122799500Y-56739310D01*
X122830202Y-56853889D01*
X122889506Y-56956606D01*
X122889509Y-56956610D01*
X122889511Y-56956613D01*
X122960942Y-57028044D01*
X122999505Y-57094837D01*
X122999505Y-57171965D01*
X122960941Y-57238760D01*
X122930082Y-57262439D01*
X122831283Y-57319480D01*
X122719480Y-57431283D01*
X122698157Y-57468216D01*
X122640423Y-57568216D01*
X122626295Y-57620943D01*
X122599500Y-57720941D01*
X108000000Y-57720941D01*
X108000000Y-55476157D01*
X119879500Y-55476157D01*
X119879500Y-56733842D01*
X119910262Y-56888494D01*
X119910263Y-56888498D01*
X119970604Y-57034176D01*
X119970605Y-57034178D01*
X119970606Y-57034179D01*
X120058211Y-57165289D01*
X120169711Y-57276789D01*
X120300821Y-57364394D01*
X120446503Y-57424737D01*
X120601158Y-57455500D01*
X120758842Y-57455500D01*
X120913497Y-57424737D01*
X121059179Y-57364394D01*
X121190289Y-57276789D01*
X121272085Y-57194992D01*
X121338878Y-57156429D01*
X121416006Y-57156429D01*
X121451939Y-57171312D01*
X121518216Y-57209577D01*
X121670943Y-57250500D01*
X121829057Y-57250500D01*
X121981784Y-57209577D01*
X122118716Y-57130520D01*
X122230520Y-57018716D01*
X122309577Y-56881784D01*
X122350500Y-56729057D01*
X122350500Y-56570943D01*
X122309577Y-56418216D01*
X122230520Y-56281284D01*
X122201588Y-56252352D01*
X122163024Y-56185557D01*
X122163024Y-56108429D01*
X122201588Y-56041634D01*
X122268377Y-56003072D01*
X122274237Y-56001503D01*
X122371263Y-55945485D01*
X122450485Y-55866263D01*
X122506503Y-55769237D01*
X122535500Y-55661018D01*
X122535500Y-55548982D01*
X122535499Y-55548980D01*
X127464500Y-55548980D01*
X127464500Y-55548982D01*
X127464500Y-55661018D01*
X127493497Y-55769237D01*
X127514763Y-55806072D01*
X127549512Y-55866259D01*
X127549513Y-55866260D01*
X127549515Y-55866263D01*
X127628737Y-55945485D01*
X127725763Y-56001503D01*
X127725768Y-56001504D01*
X127734341Y-56005055D01*
X127795533Y-56052004D01*
X127825052Y-56123260D01*
X127814989Y-56199729D01*
X127782688Y-56248074D01*
X127719480Y-56311282D01*
X127640423Y-56448214D01*
X127599499Y-56600941D01*
X127599499Y-56600943D01*
X127599499Y-56759057D01*
X127640422Y-56911784D01*
X127719479Y-57048716D01*
X127831283Y-57160520D01*
X127968215Y-57239577D01*
X128120942Y-57280500D01*
X128279056Y-57280500D01*
X128431783Y-57239577D01*
X128548776Y-57172031D01*
X128623274Y-57152070D01*
X128697774Y-57172032D01*
X128728633Y-57195711D01*
X128809711Y-57276789D01*
X128940821Y-57364394D01*
X129086503Y-57424737D01*
X129241158Y-57455500D01*
X129398842Y-57455500D01*
X129553497Y-57424737D01*
X129699179Y-57364394D01*
X129830289Y-57276789D01*
X129941789Y-57165289D01*
X130029394Y-57034179D01*
X130089737Y-56888497D01*
X130120500Y-56733842D01*
X130120500Y-56130815D01*
X133974500Y-56130815D01*
X133974500Y-56130817D01*
X133974500Y-56269183D01*
X134010312Y-56402836D01*
X134079495Y-56522665D01*
X134177335Y-56620505D01*
X134297164Y-56689688D01*
X134430817Y-56725500D01*
X134569183Y-56725500D01*
X134702836Y-56689688D01*
X134822665Y-56620505D01*
X134920505Y-56522665D01*
X134989688Y-56402836D01*
X135025500Y-56269183D01*
X135025500Y-56130817D01*
X134989688Y-55997164D01*
X134920505Y-55877335D01*
X134822665Y-55779495D01*
X134702836Y-55710312D01*
X134569183Y-55674500D01*
X134430817Y-55674500D01*
X134297164Y-55710312D01*
X134297162Y-55710312D01*
X134297162Y-55710313D01*
X134177334Y-55779495D01*
X134079495Y-55877334D01*
X134010313Y-55997162D01*
X134010312Y-55997164D01*
X133996289Y-56049500D01*
X133974500Y-56130815D01*
X130120500Y-56130815D01*
X130120500Y-55635927D01*
X138449500Y-55635927D01*
X138449500Y-55764072D01*
X138474498Y-55889743D01*
X138474499Y-55889745D01*
X138523531Y-56008119D01*
X138523533Y-56008123D01*
X138523535Y-56008127D01*
X138594724Y-56114669D01*
X138685331Y-56205276D01*
X138791873Y-56276465D01*
X138791879Y-56276467D01*
X138791880Y-56276468D01*
X138803507Y-56281284D01*
X138910256Y-56325501D01*
X139035931Y-56350500D01*
X139035935Y-56350500D01*
X139164065Y-56350500D01*
X139164069Y-56350500D01*
X139289744Y-56325501D01*
X139408127Y-56276465D01*
X139514669Y-56205276D01*
X139605276Y-56114669D01*
X139676465Y-56008127D01*
X139725501Y-55889744D01*
X139750500Y-55764069D01*
X139750500Y-55635931D01*
X139725501Y-55510256D01*
X139676465Y-55391873D01*
X139605276Y-55285331D01*
X139514669Y-55194724D01*
X139408127Y-55123535D01*
X139408123Y-55123533D01*
X139408119Y-55123531D01*
X139289745Y-55074499D01*
X139289743Y-55074498D01*
X139164072Y-55049500D01*
X139164069Y-55049500D01*
X139035931Y-55049500D01*
X139035927Y-55049500D01*
X138910256Y-55074498D01*
X138910254Y-55074499D01*
X138791880Y-55123531D01*
X138791873Y-55123535D01*
X138708116Y-55179500D01*
X138685327Y-55194727D01*
X138594727Y-55285327D01*
X138594724Y-55285330D01*
X138594724Y-55285331D01*
X138543691Y-55361707D01*
X138523535Y-55391873D01*
X138523531Y-55391880D01*
X138474499Y-55510254D01*
X138474498Y-55510256D01*
X138449500Y-55635927D01*
X130120500Y-55635927D01*
X130120500Y-55476158D01*
X130120017Y-55473732D01*
X130103736Y-55391880D01*
X130089737Y-55321503D01*
X130029394Y-55175821D01*
X129941789Y-55044711D01*
X129830289Y-54933211D01*
X129699179Y-54845606D01*
X129699178Y-54845605D01*
X129699176Y-54845604D01*
X129553498Y-54785263D01*
X129553494Y-54785262D01*
X129398842Y-54754500D01*
X129241158Y-54754500D01*
X129086505Y-54785262D01*
X129086501Y-54785263D01*
X128940823Y-54845604D01*
X128809707Y-54933214D01*
X128698214Y-55044707D01*
X128610604Y-55175823D01*
X128550263Y-55321501D01*
X128542265Y-55361710D01*
X128508151Y-55430883D01*
X128444020Y-55473732D01*
X128367057Y-55478776D01*
X128297884Y-55444662D01*
X128267090Y-55407138D01*
X128230489Y-55343743D01*
X128230486Y-55343739D01*
X128230485Y-55343737D01*
X128151263Y-55264515D01*
X128151260Y-55264513D01*
X128151259Y-55264512D01*
X128091072Y-55229763D01*
X128054237Y-55208497D01*
X127946018Y-55179500D01*
X127833982Y-55179500D01*
X127725763Y-55208497D01*
X127725761Y-55208497D01*
X127725761Y-55208498D01*
X127628740Y-55264512D01*
X127549512Y-55343740D01*
X127512910Y-55407138D01*
X127493497Y-55440763D01*
X127487893Y-55461677D01*
X127464500Y-55548980D01*
X122535499Y-55548980D01*
X122506503Y-55440763D01*
X122460860Y-55361707D01*
X122450487Y-55343740D01*
X122450486Y-55343739D01*
X122450485Y-55343737D01*
X122371263Y-55264515D01*
X122371260Y-55264513D01*
X122371259Y-55264512D01*
X122311072Y-55229763D01*
X122274237Y-55208497D01*
X122166018Y-55179500D01*
X122053982Y-55179500D01*
X121945763Y-55208497D01*
X121945761Y-55208497D01*
X121945761Y-55208498D01*
X121848740Y-55264512D01*
X121769513Y-55343739D01*
X121769510Y-55343743D01*
X121732908Y-55407140D01*
X121678370Y-55461677D01*
X121603870Y-55481639D01*
X121529370Y-55461676D01*
X121474833Y-55407138D01*
X121457734Y-55361707D01*
X121454160Y-55343739D01*
X121449737Y-55321503D01*
X121389394Y-55175821D01*
X121301789Y-55044711D01*
X121190289Y-54933211D01*
X121059179Y-54845606D01*
X121059178Y-54845605D01*
X121059176Y-54845604D01*
X120913498Y-54785263D01*
X120913494Y-54785262D01*
X120758842Y-54754500D01*
X120601158Y-54754500D01*
X120446505Y-54785262D01*
X120446501Y-54785263D01*
X120300823Y-54845604D01*
X120169707Y-54933214D01*
X120058214Y-55044707D01*
X119970604Y-55175823D01*
X119910263Y-55321501D01*
X119910262Y-55321505D01*
X119879500Y-55476157D01*
X108000000Y-55476157D01*
X108000000Y-51446157D01*
X119879500Y-51446157D01*
X119879500Y-52403842D01*
X119910262Y-52558494D01*
X119910263Y-52558498D01*
X119970604Y-52704176D01*
X119970605Y-52704178D01*
X119970606Y-52704179D01*
X120058211Y-52835289D01*
X120169711Y-52946789D01*
X120300821Y-53034394D01*
X120446503Y-53094737D01*
X120601158Y-53125500D01*
X120758842Y-53125500D01*
X120913497Y-53094737D01*
X121059179Y-53034394D01*
X121190289Y-52946789D01*
X121301789Y-52835289D01*
X121389394Y-52704179D01*
X121449737Y-52558497D01*
X121480500Y-52403842D01*
X121480500Y-51446158D01*
X121480500Y-51446157D01*
X128519500Y-51446157D01*
X128519500Y-52403842D01*
X128550262Y-52558494D01*
X128550263Y-52558498D01*
X128610604Y-52704176D01*
X128610605Y-52704178D01*
X128610606Y-52704179D01*
X128698211Y-52835289D01*
X128809711Y-52946789D01*
X128940821Y-53034394D01*
X129086503Y-53094737D01*
X129241158Y-53125500D01*
X129398842Y-53125500D01*
X129553497Y-53094737D01*
X129699179Y-53034394D01*
X129830289Y-52946789D01*
X129941789Y-52835289D01*
X130029394Y-52704179D01*
X130089737Y-52558497D01*
X130120500Y-52403842D01*
X130120500Y-52201583D01*
X137049500Y-52201583D01*
X137049500Y-52398417D01*
X137080291Y-52592826D01*
X137141116Y-52780025D01*
X137141119Y-52780030D01*
X137141121Y-52780036D01*
X137225179Y-52945010D01*
X137230476Y-52955405D01*
X137346172Y-53114646D01*
X137485354Y-53253828D01*
X137644595Y-53369524D01*
X137819975Y-53458884D01*
X138007174Y-53519709D01*
X138201583Y-53550500D01*
X138201588Y-53550500D01*
X139998412Y-53550500D01*
X139998417Y-53550500D01*
X140192826Y-53519709D01*
X140380025Y-53458884D01*
X140555405Y-53369524D01*
X140714646Y-53253828D01*
X140853828Y-53114646D01*
X140969524Y-52955405D01*
X141058884Y-52780025D01*
X141119709Y-52592826D01*
X141150500Y-52398417D01*
X141150500Y-52201583D01*
X141119709Y-52007174D01*
X141058884Y-51819975D01*
X140969524Y-51644595D01*
X140853828Y-51485354D01*
X140714646Y-51346172D01*
X140555405Y-51230476D01*
X140545010Y-51225179D01*
X140380036Y-51141121D01*
X140380030Y-51141119D01*
X140380025Y-51141116D01*
X140192826Y-51080291D01*
X139998417Y-51049500D01*
X138201583Y-51049500D01*
X138007174Y-51080291D01*
X137819975Y-51141116D01*
X137819972Y-51141117D01*
X137819963Y-51141121D01*
X137644598Y-51230474D01*
X137644593Y-51230477D01*
X137485363Y-51346165D01*
X137485352Y-51346174D01*
X137346174Y-51485352D01*
X137346165Y-51485363D01*
X137230477Y-51644593D01*
X137230474Y-51644598D01*
X137141121Y-51819963D01*
X137141117Y-51819972D01*
X137141116Y-51819975D01*
X137080291Y-52007174D01*
X137049500Y-52201583D01*
X130120500Y-52201583D01*
X130120500Y-51446158D01*
X130089737Y-51291503D01*
X130029394Y-51145821D01*
X129941789Y-51014711D01*
X129830289Y-50903211D01*
X129699179Y-50815606D01*
X129699178Y-50815605D01*
X129699176Y-50815604D01*
X129553498Y-50755263D01*
X129553494Y-50755262D01*
X129398842Y-50724500D01*
X129241158Y-50724500D01*
X129086505Y-50755262D01*
X129086501Y-50755263D01*
X128940823Y-50815604D01*
X128809707Y-50903214D01*
X128698214Y-51014707D01*
X128610604Y-51145823D01*
X128550263Y-51291501D01*
X128550262Y-51291505D01*
X128519500Y-51446157D01*
X121480500Y-51446157D01*
X121449737Y-51291503D01*
X121389394Y-51145821D01*
X121301789Y-51014711D01*
X121190289Y-50903211D01*
X121059179Y-50815606D01*
X121059178Y-50815605D01*
X121059176Y-50815604D01*
X120913498Y-50755263D01*
X120913494Y-50755262D01*
X120758842Y-50724500D01*
X120601158Y-50724500D01*
X120446505Y-50755262D01*
X120446501Y-50755263D01*
X120300823Y-50815604D01*
X120169707Y-50903214D01*
X120058214Y-51014707D01*
X119970604Y-51145823D01*
X119910263Y-51291501D01*
X119910262Y-51291505D01*
X119879500Y-51446157D01*
X108000000Y-51446157D01*
X108000000Y-50349500D01*
X108019962Y-50275000D01*
X108074500Y-50220462D01*
X108149000Y-50200500D01*
X142851000Y-50200500D01*
X142925500Y-50220462D01*
G37*
%TD.AperFunction*%
%TD*%
%TA.AperFunction,Conductor*%
%TO.N,5V_B*%
G36*
X145359576Y-76019962D02*
G01*
X145375781Y-76030790D01*
X145376374Y-76031245D01*
X145376376Y-76031247D01*
X145432745Y-76074500D01*
X145553229Y-76166950D01*
X145746266Y-76278401D01*
X145746269Y-76278402D01*
X145746274Y-76278405D01*
X145911030Y-76346649D01*
X145952221Y-76363711D01*
X146059878Y-76392557D01*
X146167537Y-76421404D01*
X146388543Y-76450500D01*
X146611457Y-76450500D01*
X146832463Y-76421404D01*
X147047777Y-76363711D01*
X147047778Y-76363711D01*
X147047779Y-76363710D01*
X147047781Y-76363710D01*
X147253726Y-76278405D01*
X147446774Y-76166948D01*
X147623624Y-76031247D01*
X147623625Y-76031245D01*
X147624219Y-76030790D01*
X147633397Y-76026988D01*
X147640424Y-76019962D01*
X147668564Y-76012421D01*
X147695476Y-76001275D01*
X147714924Y-76000000D01*
X147851000Y-76000000D01*
X147925500Y-76019962D01*
X147980038Y-76074500D01*
X148000000Y-76149000D01*
X148000000Y-113851000D01*
X147980038Y-113925500D01*
X147925500Y-113980038D01*
X147851000Y-114000000D01*
X105529903Y-114000000D01*
X105455403Y-113980038D01*
X105400865Y-113925500D01*
X105380903Y-113851000D01*
X105397142Y-113783356D01*
X105483241Y-113614379D01*
X105561090Y-113374785D01*
X105600500Y-113125962D01*
X105600500Y-112874038D01*
X105561090Y-112625215D01*
X105483241Y-112385621D01*
X105368870Y-112161155D01*
X105220793Y-111957344D01*
X105042656Y-111779207D01*
X104838845Y-111631130D01*
X104614379Y-111516759D01*
X104374785Y-111438910D01*
X104125962Y-111399500D01*
X103874038Y-111399500D01*
X103666685Y-111432341D01*
X103625214Y-111438910D01*
X103392155Y-111514636D01*
X103385621Y-111516759D01*
X103385615Y-111516761D01*
X103385615Y-111516762D01*
X103161153Y-111631131D01*
X103161152Y-111631131D01*
X102957345Y-111779206D01*
X102957342Y-111779208D01*
X102779208Y-111957342D01*
X102779206Y-111957345D01*
X102631131Y-112161152D01*
X102631131Y-112161153D01*
X102516762Y-112385615D01*
X102516757Y-112385627D01*
X102480391Y-112497551D01*
X102438910Y-112625215D01*
X102399500Y-112874038D01*
X102399500Y-113125962D01*
X102438910Y-113374785D01*
X102516757Y-113614372D01*
X102516761Y-113614384D01*
X102560403Y-113700036D01*
X102602857Y-113783356D01*
X102618893Y-113858798D01*
X102595059Y-113932151D01*
X102537742Y-113983760D01*
X102470097Y-114000000D01*
X100749500Y-114000000D01*
X100675000Y-113980038D01*
X100620462Y-113925500D01*
X100600500Y-113851000D01*
X100600499Y-111655133D01*
X100597585Y-111630010D01*
X100597584Y-111630007D01*
X100552206Y-111527235D01*
X100472764Y-111447793D01*
X100369994Y-111402416D01*
X100369991Y-111402415D01*
X100344865Y-111399500D01*
X100344859Y-111399500D01*
X100149000Y-111399500D01*
X100074500Y-111379538D01*
X100019962Y-111325000D01*
X100000000Y-111250500D01*
X100000000Y-103620941D01*
X106399500Y-103620941D01*
X106399500Y-103779058D01*
X106409731Y-103817240D01*
X106440423Y-103931784D01*
X106519480Y-104068716D01*
X106631284Y-104180520D01*
X106768216Y-104259577D01*
X106920943Y-104300500D01*
X107079057Y-104300500D01*
X107231784Y-104259577D01*
X107368716Y-104180520D01*
X107480520Y-104068716D01*
X107559577Y-103931784D01*
X107600500Y-103779057D01*
X107600500Y-103620943D01*
X107559577Y-103468216D01*
X107480520Y-103331284D01*
X107368716Y-103219480D01*
X107231784Y-103140423D01*
X107079057Y-103099500D01*
X106920943Y-103099500D01*
X106768216Y-103140423D01*
X106768214Y-103140423D01*
X106768214Y-103140424D01*
X106631283Y-103219480D01*
X106519480Y-103331283D01*
X106440424Y-103468214D01*
X106399500Y-103620941D01*
X100000000Y-103620941D01*
X100000000Y-102020941D01*
X111199500Y-102020941D01*
X111199500Y-102179058D01*
X111199892Y-102180520D01*
X111240423Y-102331784D01*
X111319480Y-102468716D01*
X111431284Y-102580520D01*
X111568216Y-102659577D01*
X111720943Y-102700500D01*
X111814811Y-102700500D01*
X111889311Y-102720462D01*
X111943849Y-102775000D01*
X111963811Y-102849500D01*
X111943849Y-102924000D01*
X111920170Y-102954859D01*
X111897793Y-102977235D01*
X111852416Y-103080005D01*
X111852415Y-103080008D01*
X111852415Y-103080009D01*
X111849500Y-103105135D01*
X111849500Y-103105136D01*
X111849500Y-103105140D01*
X111849500Y-104894866D01*
X111852414Y-104919989D01*
X111852415Y-104919992D01*
X111897793Y-105022764D01*
X111897794Y-105022765D01*
X111977235Y-105102206D01*
X112080009Y-105147585D01*
X112105135Y-105150500D01*
X112612596Y-105150499D01*
X112687094Y-105170461D01*
X112741632Y-105224999D01*
X112761594Y-105299499D01*
X112741632Y-105373999D01*
X112687094Y-105428537D01*
X112658638Y-105441206D01*
X112558364Y-105473786D01*
X112558363Y-105473787D01*
X112397004Y-105556005D01*
X112397003Y-105556005D01*
X112250500Y-105662446D01*
X112250497Y-105662448D01*
X112122448Y-105790497D01*
X112122446Y-105790500D01*
X112016005Y-105937003D01*
X112016005Y-105937004D01*
X111933789Y-106098360D01*
X111933789Y-106098361D01*
X111877829Y-106270591D01*
X111849500Y-106449454D01*
X111849500Y-106630546D01*
X111877829Y-106809409D01*
X111933789Y-106981639D01*
X112016004Y-107142994D01*
X112122447Y-107289501D01*
X112250499Y-107417553D01*
X112397006Y-107523996D01*
X112558361Y-107606211D01*
X112730591Y-107662171D01*
X112730592Y-107662171D01*
X112730595Y-107662172D01*
X112734779Y-107662835D01*
X112805238Y-107694206D01*
X112850573Y-107756604D01*
X112858634Y-107833310D01*
X112827263Y-107903769D01*
X112764865Y-107949104D01*
X112734779Y-107957165D01*
X112730595Y-107957827D01*
X112558360Y-108013789D01*
X112397004Y-108096005D01*
X112397003Y-108096005D01*
X112250500Y-108202446D01*
X112250497Y-108202448D01*
X112122448Y-108330497D01*
X112122446Y-108330500D01*
X112016005Y-108477003D01*
X112016005Y-108477004D01*
X111933789Y-108638360D01*
X111933789Y-108638361D01*
X111877829Y-108810591D01*
X111849500Y-108989454D01*
X111849500Y-109170546D01*
X111877829Y-109349409D01*
X111933789Y-109521639D01*
X112016004Y-109682994D01*
X112122447Y-109829501D01*
X112250499Y-109957553D01*
X112397006Y-110063996D01*
X112558361Y-110146211D01*
X112730591Y-110202171D01*
X112730592Y-110202171D01*
X112730595Y-110202172D01*
X112734779Y-110202835D01*
X112805238Y-110234206D01*
X112850573Y-110296604D01*
X112858634Y-110373310D01*
X112827263Y-110443769D01*
X112764865Y-110489104D01*
X112734779Y-110497165D01*
X112730595Y-110497827D01*
X112558360Y-110553789D01*
X112397004Y-110636005D01*
X112397003Y-110636005D01*
X112250500Y-110742446D01*
X112250497Y-110742448D01*
X112122448Y-110870497D01*
X112122446Y-110870500D01*
X112016005Y-111017003D01*
X112016005Y-111017004D01*
X111933789Y-111178360D01*
X111900360Y-111281247D01*
X111877829Y-111350591D01*
X111849500Y-111529454D01*
X111849500Y-111710546D01*
X111877829Y-111889409D01*
X111933789Y-112061639D01*
X112016004Y-112222994D01*
X112122447Y-112369501D01*
X112250499Y-112497553D01*
X112397006Y-112603996D01*
X112558361Y-112686211D01*
X112730591Y-112742171D01*
X112909454Y-112770500D01*
X112909458Y-112770500D01*
X113090542Y-112770500D01*
X113090546Y-112770500D01*
X113269409Y-112742171D01*
X113441639Y-112686211D01*
X113602994Y-112603996D01*
X113749501Y-112497553D01*
X113877553Y-112369501D01*
X113983996Y-112222994D01*
X114066211Y-112061639D01*
X114122171Y-111889409D01*
X114150500Y-111710546D01*
X114150500Y-111529454D01*
X114122171Y-111350591D01*
X114066211Y-111178361D01*
X113983996Y-111017006D01*
X113877553Y-110870499D01*
X113749501Y-110742447D01*
X113602994Y-110636004D01*
X113441639Y-110553789D01*
X113423136Y-110547777D01*
X113269408Y-110497828D01*
X113265223Y-110497166D01*
X113194762Y-110465796D01*
X113149427Y-110403398D01*
X113141364Y-110326693D01*
X113172734Y-110256232D01*
X113235132Y-110210897D01*
X113265223Y-110202834D01*
X113265362Y-110202811D01*
X113269409Y-110202171D01*
X113441639Y-110146211D01*
X113602994Y-110063996D01*
X113749501Y-109957553D01*
X113818517Y-109888537D01*
X129799500Y-109888537D01*
X129799500Y-110111462D01*
X129828593Y-110332447D01*
X129828596Y-110332464D01*
X129886288Y-110547777D01*
X129886288Y-110547778D01*
X129971598Y-110753733D01*
X130083049Y-110946770D01*
X130083051Y-110946773D01*
X130083052Y-110946774D01*
X130218753Y-111123624D01*
X130376376Y-111281247D01*
X130553226Y-111416948D01*
X130553229Y-111416950D01*
X130746266Y-111528401D01*
X130746269Y-111528402D01*
X130746274Y-111528405D01*
X130911030Y-111596649D01*
X130952221Y-111613711D01*
X131017235Y-111631131D01*
X131167537Y-111671404D01*
X131388543Y-111700500D01*
X131611457Y-111700500D01*
X131832463Y-111671404D01*
X132047777Y-111613711D01*
X132047778Y-111613711D01*
X132047779Y-111613710D01*
X132047781Y-111613710D01*
X132253726Y-111528405D01*
X132255753Y-111527235D01*
X132408735Y-111438910D01*
X132446774Y-111416948D01*
X132623624Y-111281247D01*
X132781247Y-111123624D01*
X132916948Y-110946774D01*
X133028405Y-110753726D01*
X133091425Y-110601583D01*
X137049500Y-110601583D01*
X137049500Y-110798417D01*
X137080291Y-110992826D01*
X137141116Y-111180025D01*
X137141119Y-111180030D01*
X137141121Y-111180036D01*
X137192690Y-111281245D01*
X137230476Y-111355405D01*
X137346172Y-111514646D01*
X137485354Y-111653828D01*
X137644595Y-111769524D01*
X137819975Y-111858884D01*
X138007174Y-111919709D01*
X138201583Y-111950500D01*
X138201588Y-111950500D01*
X139998412Y-111950500D01*
X139998417Y-111950500D01*
X140192826Y-111919709D01*
X140380025Y-111858884D01*
X140555405Y-111769524D01*
X140714646Y-111653828D01*
X140853828Y-111514646D01*
X140969524Y-111355405D01*
X141058884Y-111180025D01*
X141119709Y-110992826D01*
X141150500Y-110798417D01*
X141150500Y-110601583D01*
X141119709Y-110407174D01*
X141058884Y-110219975D01*
X141049812Y-110202171D01*
X141042995Y-110188791D01*
X140969524Y-110044595D01*
X140853828Y-109885354D01*
X140714646Y-109746172D01*
X140555405Y-109630476D01*
X140545010Y-109625179D01*
X140380036Y-109541121D01*
X140380030Y-109541119D01*
X140380025Y-109541116D01*
X140192826Y-109480291D01*
X139998417Y-109449500D01*
X138201583Y-109449500D01*
X138007174Y-109480291D01*
X137819975Y-109541116D01*
X137819972Y-109541117D01*
X137819963Y-109541121D01*
X137644598Y-109630474D01*
X137644593Y-109630477D01*
X137485363Y-109746165D01*
X137485352Y-109746174D01*
X137346174Y-109885352D01*
X137346165Y-109885363D01*
X137230477Y-110044593D01*
X137230474Y-110044598D01*
X137141121Y-110219963D01*
X137141117Y-110219972D01*
X137141116Y-110219975D01*
X137080291Y-110407174D01*
X137049500Y-110601583D01*
X133091425Y-110601583D01*
X133113710Y-110547781D01*
X133171404Y-110332463D01*
X133200500Y-110111457D01*
X133200500Y-109888543D01*
X133171404Y-109667537D01*
X133113710Y-109452219D01*
X133028405Y-109246274D01*
X133028402Y-109246269D01*
X133028401Y-109246266D01*
X132916950Y-109053229D01*
X132916948Y-109053226D01*
X132781247Y-108876376D01*
X132623624Y-108718753D01*
X132446774Y-108583052D01*
X132446773Y-108583051D01*
X132446770Y-108583049D01*
X132253733Y-108471598D01*
X132047778Y-108386288D01*
X131832464Y-108328596D01*
X131832447Y-108328593D01*
X131611462Y-108299500D01*
X131611457Y-108299500D01*
X131388543Y-108299500D01*
X131388537Y-108299500D01*
X131167552Y-108328593D01*
X131167535Y-108328596D01*
X130952222Y-108386288D01*
X130952221Y-108386288D01*
X130746266Y-108471598D01*
X130553229Y-108583049D01*
X130376374Y-108718754D01*
X130218754Y-108876374D01*
X130083049Y-109053229D01*
X129971598Y-109246266D01*
X129886288Y-109452221D01*
X129886288Y-109452222D01*
X129828596Y-109667535D01*
X129828593Y-109667552D01*
X129799500Y-109888537D01*
X113818517Y-109888537D01*
X113877553Y-109829501D01*
X113983996Y-109682994D01*
X114066211Y-109521639D01*
X114122171Y-109349409D01*
X114150500Y-109170546D01*
X114150500Y-108989454D01*
X114122171Y-108810591D01*
X114066211Y-108638361D01*
X113983996Y-108477006D01*
X113877553Y-108330499D01*
X113749501Y-108202447D01*
X113602994Y-108096004D01*
X113441639Y-108013789D01*
X113269408Y-107957828D01*
X113265223Y-107957166D01*
X113194762Y-107925796D01*
X113149427Y-107863398D01*
X113141364Y-107786693D01*
X113172734Y-107716232D01*
X113235132Y-107670897D01*
X113265223Y-107662834D01*
X113265362Y-107662811D01*
X113269409Y-107662171D01*
X113441639Y-107606211D01*
X113602994Y-107523996D01*
X113749501Y-107417553D01*
X113877553Y-107289501D01*
X113916477Y-107235927D01*
X138449500Y-107235927D01*
X138449500Y-107364072D01*
X138474498Y-107489743D01*
X138474499Y-107489745D01*
X138523531Y-107608119D01*
X138523533Y-107608123D01*
X138523535Y-107608127D01*
X138594724Y-107714669D01*
X138685331Y-107805276D01*
X138791873Y-107876465D01*
X138910256Y-107925501D01*
X139035931Y-107950500D01*
X139035935Y-107950500D01*
X139164065Y-107950500D01*
X139164069Y-107950500D01*
X139289744Y-107925501D01*
X139408127Y-107876465D01*
X139514669Y-107805276D01*
X139605276Y-107714669D01*
X139676465Y-107608127D01*
X139725501Y-107489744D01*
X139750500Y-107364069D01*
X139750500Y-107235931D01*
X139725501Y-107110256D01*
X139676465Y-106991873D01*
X139605276Y-106885331D01*
X139514669Y-106794724D01*
X139408127Y-106723535D01*
X139408123Y-106723533D01*
X139408119Y-106723531D01*
X139289745Y-106674499D01*
X139289743Y-106674498D01*
X139164072Y-106649500D01*
X139164069Y-106649500D01*
X139035931Y-106649500D01*
X139035927Y-106649500D01*
X138910256Y-106674498D01*
X138910254Y-106674499D01*
X138791880Y-106723531D01*
X138791873Y-106723535D01*
X138685327Y-106794727D01*
X138594727Y-106885327D01*
X138523535Y-106991873D01*
X138523531Y-106991880D01*
X138474499Y-107110254D01*
X138474498Y-107110256D01*
X138449500Y-107235927D01*
X113916477Y-107235927D01*
X113983996Y-107142994D01*
X114066211Y-106981639D01*
X114122171Y-106809409D01*
X114150500Y-106630546D01*
X114150500Y-106449454D01*
X114122171Y-106270591D01*
X114066211Y-106098361D01*
X113983996Y-105937006D01*
X113972324Y-105920941D01*
X132099499Y-105920941D01*
X132099499Y-105920943D01*
X132099499Y-106079057D01*
X132140422Y-106231784D01*
X132219479Y-106368716D01*
X132331283Y-106480520D01*
X132468215Y-106559577D01*
X132620942Y-106600500D01*
X132779056Y-106600500D01*
X132931783Y-106559577D01*
X133068715Y-106480520D01*
X133180519Y-106368716D01*
X133259576Y-106231784D01*
X133300499Y-106079057D01*
X133300499Y-105920943D01*
X133259576Y-105768216D01*
X133180519Y-105631284D01*
X133068715Y-105519480D01*
X132931783Y-105440423D01*
X132779056Y-105399500D01*
X132620942Y-105399500D01*
X132468215Y-105440423D01*
X132468213Y-105440423D01*
X132468213Y-105440424D01*
X132331282Y-105519480D01*
X132219479Y-105631283D01*
X132140423Y-105768214D01*
X132140422Y-105768216D01*
X132134451Y-105790500D01*
X132099499Y-105920941D01*
X113972324Y-105920941D01*
X113877553Y-105790499D01*
X113749501Y-105662447D01*
X113602994Y-105556004D01*
X113441639Y-105473789D01*
X113441630Y-105473786D01*
X113341361Y-105441207D01*
X113276676Y-105399200D01*
X113241660Y-105330478D01*
X113245696Y-105253456D01*
X113287703Y-105188771D01*
X113356425Y-105153755D01*
X113387401Y-105150499D01*
X113894864Y-105150499D01*
X113894867Y-105150499D01*
X113909940Y-105148750D01*
X113919991Y-105147585D01*
X114022765Y-105102206D01*
X114102206Y-105022765D01*
X114147585Y-104919991D01*
X114150500Y-104894865D01*
X114150499Y-104130815D01*
X130474500Y-104130815D01*
X130474500Y-104130817D01*
X130474500Y-104269183D01*
X130510312Y-104402836D01*
X130579495Y-104522665D01*
X130677335Y-104620505D01*
X130797164Y-104689688D01*
X130930817Y-104725500D01*
X131069183Y-104725500D01*
X131202836Y-104689688D01*
X131322665Y-104620505D01*
X131420505Y-104522665D01*
X131489688Y-104402836D01*
X131525500Y-104269183D01*
X131525500Y-104130817D01*
X131489688Y-103997164D01*
X131471833Y-103966239D01*
X131451871Y-103891740D01*
X131471833Y-103817240D01*
X131526370Y-103762702D01*
X131526372Y-103762701D01*
X131531782Y-103759577D01*
X131531784Y-103759577D01*
X131668716Y-103680520D01*
X131780520Y-103568716D01*
X131859577Y-103431784D01*
X131900500Y-103279057D01*
X131900500Y-103120943D01*
X131900499Y-103120941D01*
X133499500Y-103120941D01*
X133499500Y-103120943D01*
X133499500Y-103279057D01*
X133540423Y-103431784D01*
X133619480Y-103568716D01*
X133731284Y-103680520D01*
X133868216Y-103759577D01*
X134020943Y-103800500D01*
X134179057Y-103800500D01*
X134331784Y-103759577D01*
X134468716Y-103680520D01*
X134580520Y-103568716D01*
X134659577Y-103431784D01*
X134700500Y-103279057D01*
X134700500Y-103120943D01*
X134700499Y-103120939D01*
X134681422Y-103049741D01*
X134673705Y-103020941D01*
X134999500Y-103020941D01*
X134999500Y-103020943D01*
X134999500Y-103179057D01*
X135040423Y-103331784D01*
X135119480Y-103468716D01*
X135231284Y-103580520D01*
X135368216Y-103659577D01*
X135520943Y-103700500D01*
X135679057Y-103700500D01*
X135831784Y-103659577D01*
X135968716Y-103580520D01*
X136080520Y-103468716D01*
X136159577Y-103331784D01*
X136200500Y-103179057D01*
X136200500Y-103020943D01*
X136159577Y-102868216D01*
X136080520Y-102731284D01*
X135985163Y-102635927D01*
X138449500Y-102635927D01*
X138449500Y-102764072D01*
X138474498Y-102889743D01*
X138474499Y-102889745D01*
X138523531Y-103008119D01*
X138523533Y-103008123D01*
X138523535Y-103008127D01*
X138594724Y-103114669D01*
X138685331Y-103205276D01*
X138791873Y-103276465D01*
X138791879Y-103276467D01*
X138791880Y-103276468D01*
X138798133Y-103279058D01*
X138910256Y-103325501D01*
X139035931Y-103350500D01*
X139035935Y-103350500D01*
X139164065Y-103350500D01*
X139164069Y-103350500D01*
X139289744Y-103325501D01*
X139408127Y-103276465D01*
X139514669Y-103205276D01*
X139605276Y-103114669D01*
X139676465Y-103008127D01*
X139725501Y-102889744D01*
X139750500Y-102764069D01*
X139750500Y-102635931D01*
X139725501Y-102510256D01*
X139676465Y-102391873D01*
X139605276Y-102285331D01*
X139514669Y-102194724D01*
X139408127Y-102123535D01*
X139408123Y-102123533D01*
X139408119Y-102123531D01*
X139289745Y-102074499D01*
X139289743Y-102074498D01*
X139164072Y-102049500D01*
X139164069Y-102049500D01*
X139035931Y-102049500D01*
X139035927Y-102049500D01*
X138910256Y-102074498D01*
X138910254Y-102074499D01*
X138791880Y-102123531D01*
X138791873Y-102123535D01*
X138706591Y-102180519D01*
X138685327Y-102194727D01*
X138594727Y-102285327D01*
X138594724Y-102285330D01*
X138594724Y-102285331D01*
X138532099Y-102379056D01*
X138523535Y-102391873D01*
X138523531Y-102391880D01*
X138474499Y-102510254D01*
X138474498Y-102510256D01*
X138449500Y-102635927D01*
X135985163Y-102635927D01*
X135968716Y-102619480D01*
X135831784Y-102540423D01*
X135679057Y-102499500D01*
X135520943Y-102499500D01*
X135368216Y-102540423D01*
X135368214Y-102540423D01*
X135368214Y-102540424D01*
X135231283Y-102619480D01*
X135119480Y-102731283D01*
X135049545Y-102852416D01*
X135040423Y-102868216D01*
X135032498Y-102897793D01*
X134999500Y-103020941D01*
X134673705Y-103020941D01*
X134670269Y-103008119D01*
X134659577Y-102968216D01*
X134651865Y-102954859D01*
X134634049Y-102924000D01*
X134580520Y-102831284D01*
X134468716Y-102719480D01*
X134331784Y-102640423D01*
X134179057Y-102599500D01*
X134020943Y-102599500D01*
X133868216Y-102640423D01*
X133868214Y-102640423D01*
X133868214Y-102640424D01*
X133731283Y-102719480D01*
X133619480Y-102831283D01*
X133540424Y-102968214D01*
X133540423Y-102968216D01*
X133526295Y-103020943D01*
X133499500Y-103120941D01*
X131900499Y-103120941D01*
X131859577Y-102968216D01*
X131780520Y-102831284D01*
X131668716Y-102719480D01*
X131668715Y-102719479D01*
X131653690Y-102710805D01*
X131599151Y-102656269D01*
X131579187Y-102581769D01*
X131599148Y-102507269D01*
X131622828Y-102476407D01*
X131630520Y-102468716D01*
X131709577Y-102331784D01*
X131750500Y-102179057D01*
X131750500Y-102020943D01*
X131709577Y-101868216D01*
X131630520Y-101731284D01*
X131518716Y-101619480D01*
X131381784Y-101540423D01*
X131229057Y-101499500D01*
X131070943Y-101499500D01*
X130918216Y-101540423D01*
X130918214Y-101540423D01*
X130918214Y-101540424D01*
X130781283Y-101619480D01*
X130669480Y-101731283D01*
X130590424Y-101868214D01*
X130549500Y-102020941D01*
X130549500Y-102179058D01*
X130549892Y-102180520D01*
X130590423Y-102331784D01*
X130669480Y-102468716D01*
X130781284Y-102580520D01*
X130796310Y-102589195D01*
X130850847Y-102643729D01*
X130870812Y-102718228D01*
X130850852Y-102792729D01*
X130827175Y-102823588D01*
X130819481Y-102831281D01*
X130740424Y-102968214D01*
X130740423Y-102968216D01*
X130726295Y-103020943D01*
X130699500Y-103120941D01*
X130699500Y-103120943D01*
X130699500Y-103279057D01*
X130740423Y-103431784D01*
X130800714Y-103536212D01*
X130820676Y-103610711D01*
X130800714Y-103685211D01*
X130746177Y-103739748D01*
X130677335Y-103779494D01*
X130579495Y-103877334D01*
X130510313Y-103997162D01*
X130474500Y-104130815D01*
X114150499Y-104130815D01*
X114150499Y-103997164D01*
X114150499Y-103105133D01*
X114147585Y-103080010D01*
X114147584Y-103080008D01*
X114102206Y-102977235D01*
X114022765Y-102897794D01*
X114022764Y-102897793D01*
X113919994Y-102852416D01*
X113919991Y-102852415D01*
X113894865Y-102849500D01*
X113894859Y-102849500D01*
X112257113Y-102849500D01*
X112182613Y-102829538D01*
X112128075Y-102775000D01*
X112108113Y-102700500D01*
X112128075Y-102626000D01*
X112161861Y-102587477D01*
X112161810Y-102587426D01*
X112162593Y-102586642D01*
X112166417Y-102582283D01*
X112168707Y-102580525D01*
X112168716Y-102580520D01*
X112280520Y-102468716D01*
X112359577Y-102331784D01*
X112400500Y-102179057D01*
X112400500Y-102020943D01*
X112359577Y-101868216D01*
X112280520Y-101731284D01*
X112170177Y-101620941D01*
X122599500Y-101620941D01*
X122599500Y-101620943D01*
X122599500Y-101779057D01*
X122640423Y-101931784D01*
X122719480Y-102068716D01*
X122831284Y-102180520D01*
X122968216Y-102259577D01*
X123120943Y-102300500D01*
X123279057Y-102300500D01*
X123431784Y-102259577D01*
X123498704Y-102220941D01*
X128399500Y-102220941D01*
X128399500Y-102220943D01*
X128399500Y-102379057D01*
X128440423Y-102531784D01*
X128519480Y-102668716D01*
X128631284Y-102780520D01*
X128768216Y-102859577D01*
X128920943Y-102900500D01*
X129079057Y-102900500D01*
X129231784Y-102859577D01*
X129368716Y-102780520D01*
X129480520Y-102668716D01*
X129559577Y-102531784D01*
X129600500Y-102379057D01*
X129600500Y-102220943D01*
X129559577Y-102068216D01*
X129480520Y-101931284D01*
X129368716Y-101819480D01*
X129231784Y-101740423D01*
X129079057Y-101699500D01*
X128920943Y-101699500D01*
X128768216Y-101740423D01*
X128768214Y-101740423D01*
X128768214Y-101740424D01*
X128631283Y-101819480D01*
X128519480Y-101931283D01*
X128440424Y-102068214D01*
X128440423Y-102068216D01*
X128425600Y-102123535D01*
X128399500Y-102220941D01*
X123498704Y-102220941D01*
X123568716Y-102180520D01*
X123680520Y-102068716D01*
X123759577Y-101931784D01*
X123800500Y-101779057D01*
X123800500Y-101749500D01*
X123820462Y-101675000D01*
X123875000Y-101620462D01*
X123949500Y-101600500D01*
X123979057Y-101600500D01*
X124131784Y-101559577D01*
X124268716Y-101480520D01*
X124380520Y-101368716D01*
X124459577Y-101231784D01*
X124459578Y-101231778D01*
X124462340Y-101225113D01*
X124509290Y-101163921D01*
X124580546Y-101134402D01*
X124657014Y-101144467D01*
X124718206Y-101191417D01*
X124737660Y-101225113D01*
X124740422Y-101231782D01*
X124740423Y-101231784D01*
X124819480Y-101368716D01*
X124931284Y-101480520D01*
X125068216Y-101559577D01*
X125220943Y-101600500D01*
X125379057Y-101600500D01*
X125531784Y-101559577D01*
X125668716Y-101480520D01*
X125780520Y-101368716D01*
X125859577Y-101231784D01*
X125900500Y-101079057D01*
X125900500Y-100920943D01*
X125859577Y-100768216D01*
X125780520Y-100631284D01*
X125668716Y-100519480D01*
X125531784Y-100440423D01*
X125379057Y-100399500D01*
X125220943Y-100399500D01*
X125068216Y-100440423D01*
X125068214Y-100440423D01*
X125068214Y-100440424D01*
X124931283Y-100519480D01*
X124819480Y-100631283D01*
X124740422Y-100768217D01*
X124737659Y-100774889D01*
X124690708Y-100836080D01*
X124619451Y-100865597D01*
X124542983Y-100855531D01*
X124481792Y-100808580D01*
X124462341Y-100774889D01*
X124459577Y-100768217D01*
X124459577Y-100768216D01*
X124380520Y-100631284D01*
X124268716Y-100519480D01*
X124131784Y-100440423D01*
X123979057Y-100399500D01*
X123820943Y-100399500D01*
X123668216Y-100440423D01*
X123668214Y-100440423D01*
X123668214Y-100440424D01*
X123531283Y-100519480D01*
X123419480Y-100631283D01*
X123361457Y-100731784D01*
X123340423Y-100768216D01*
X123329608Y-100808580D01*
X123299500Y-100920941D01*
X123299500Y-100950500D01*
X123279538Y-101025000D01*
X123225000Y-101079538D01*
X123150500Y-101099500D01*
X123120943Y-101099500D01*
X122968216Y-101140423D01*
X122968214Y-101140423D01*
X122968214Y-101140424D01*
X122831283Y-101219480D01*
X122719480Y-101331283D01*
X122640424Y-101468214D01*
X122640423Y-101468216D01*
X122621431Y-101539095D01*
X122599500Y-101620941D01*
X112170177Y-101620941D01*
X112168716Y-101619480D01*
X112031784Y-101540423D01*
X111879057Y-101499500D01*
X111720943Y-101499500D01*
X111568216Y-101540423D01*
X111568214Y-101540423D01*
X111568214Y-101540424D01*
X111431283Y-101619480D01*
X111319480Y-101731283D01*
X111240424Y-101868214D01*
X111199500Y-102020941D01*
X100000000Y-102020941D01*
X100000000Y-100920941D01*
X114099500Y-100920941D01*
X114099500Y-101079058D01*
X114106982Y-101106982D01*
X114140423Y-101231784D01*
X114219480Y-101368716D01*
X114331284Y-101480520D01*
X114468216Y-101559577D01*
X114620943Y-101600500D01*
X114779057Y-101600500D01*
X114931784Y-101559577D01*
X115068716Y-101480520D01*
X115180520Y-101368716D01*
X115259577Y-101231784D01*
X115300500Y-101079057D01*
X115300500Y-100920943D01*
X115259577Y-100768216D01*
X115180520Y-100631284D01*
X115068716Y-100519480D01*
X114931784Y-100440423D01*
X114859076Y-100420941D01*
X120799500Y-100420941D01*
X120799500Y-100420943D01*
X120799500Y-100579057D01*
X120840423Y-100731784D01*
X120919480Y-100868716D01*
X121031284Y-100980520D01*
X121168216Y-101059577D01*
X121320943Y-101100500D01*
X121479057Y-101100500D01*
X121631784Y-101059577D01*
X121768716Y-100980520D01*
X121880520Y-100868716D01*
X121959577Y-100731784D01*
X122000500Y-100579057D01*
X122000500Y-100420943D01*
X121959577Y-100268216D01*
X121880520Y-100131284D01*
X121768716Y-100019480D01*
X121631784Y-99940423D01*
X121479057Y-99899500D01*
X121320943Y-99899500D01*
X121168216Y-99940423D01*
X121168214Y-99940423D01*
X121168214Y-99940424D01*
X121031283Y-100019480D01*
X120919480Y-100131283D01*
X120840424Y-100268214D01*
X120799500Y-100420941D01*
X114859076Y-100420941D01*
X114779057Y-100399500D01*
X114620943Y-100399500D01*
X114468216Y-100440423D01*
X114468214Y-100440423D01*
X114468214Y-100440424D01*
X114331283Y-100519480D01*
X114219480Y-100631283D01*
X114161457Y-100731784D01*
X114140423Y-100768216D01*
X114129608Y-100808580D01*
X114099500Y-100920941D01*
X100000000Y-100920941D01*
X100000000Y-100220941D01*
X106199500Y-100220941D01*
X106199500Y-100220943D01*
X106199500Y-100379057D01*
X106240423Y-100531784D01*
X106319480Y-100668716D01*
X106431284Y-100780520D01*
X106568216Y-100859577D01*
X106720943Y-100900500D01*
X106879057Y-100900500D01*
X107031784Y-100859577D01*
X107168716Y-100780520D01*
X107280520Y-100668716D01*
X107359577Y-100531784D01*
X107400500Y-100379057D01*
X107400500Y-100220943D01*
X107359577Y-100068216D01*
X107280520Y-99931284D01*
X107168716Y-99819480D01*
X107031784Y-99740423D01*
X106879057Y-99699500D01*
X106720943Y-99699500D01*
X106568216Y-99740423D01*
X106568214Y-99740423D01*
X106568214Y-99740424D01*
X106431283Y-99819480D01*
X106319480Y-99931283D01*
X106240424Y-100068214D01*
X106199500Y-100220941D01*
X100000000Y-100220941D01*
X100000000Y-99420941D01*
X101599500Y-99420941D01*
X101599500Y-99420943D01*
X101599500Y-99579057D01*
X101640423Y-99731784D01*
X101719480Y-99868716D01*
X101831284Y-99980520D01*
X101968216Y-100059577D01*
X102120943Y-100100500D01*
X102279057Y-100100500D01*
X102431784Y-100059577D01*
X102568716Y-99980520D01*
X102680520Y-99868716D01*
X102759577Y-99731784D01*
X102800500Y-99579057D01*
X102800500Y-99420943D01*
X102759577Y-99268216D01*
X102721107Y-99201583D01*
X137049500Y-99201583D01*
X137049500Y-99398417D01*
X137080291Y-99592826D01*
X137141116Y-99780025D01*
X137141119Y-99780030D01*
X137141121Y-99780036D01*
X137161219Y-99819480D01*
X137230476Y-99955405D01*
X137346172Y-100114646D01*
X137485354Y-100253828D01*
X137644595Y-100369524D01*
X137819975Y-100458884D01*
X138007174Y-100519709D01*
X138201583Y-100550500D01*
X138201588Y-100550500D01*
X139998412Y-100550500D01*
X139998417Y-100550500D01*
X140192826Y-100519709D01*
X140380025Y-100458884D01*
X140555405Y-100369524D01*
X140714646Y-100253828D01*
X140853828Y-100114646D01*
X140969524Y-99955405D01*
X141058884Y-99780025D01*
X141119709Y-99592826D01*
X141150500Y-99398417D01*
X141150500Y-99201583D01*
X141119709Y-99007174D01*
X141058884Y-98819975D01*
X140969524Y-98644595D01*
X140853828Y-98485354D01*
X140714646Y-98346172D01*
X140555405Y-98230476D01*
X140545010Y-98225179D01*
X140380036Y-98141121D01*
X140380030Y-98141119D01*
X140380025Y-98141116D01*
X140192826Y-98080291D01*
X139998417Y-98049500D01*
X138201583Y-98049500D01*
X138007174Y-98080291D01*
X137819975Y-98141116D01*
X137819972Y-98141117D01*
X137819963Y-98141121D01*
X137644598Y-98230474D01*
X137644593Y-98230477D01*
X137485363Y-98346165D01*
X137485352Y-98346174D01*
X137346174Y-98485352D01*
X137346165Y-98485363D01*
X137230477Y-98644593D01*
X137230474Y-98644598D01*
X137141121Y-98819963D01*
X137141114Y-98819981D01*
X137080291Y-99007174D01*
X137049500Y-99201583D01*
X102721107Y-99201583D01*
X102680520Y-99131284D01*
X102568716Y-99019480D01*
X102431784Y-98940423D01*
X102279057Y-98899500D01*
X102120943Y-98899500D01*
X101968216Y-98940423D01*
X101968214Y-98940423D01*
X101968214Y-98940424D01*
X101831283Y-99019480D01*
X101719480Y-99131283D01*
X101640424Y-99268214D01*
X101599500Y-99420941D01*
X100000000Y-99420941D01*
X100000000Y-97120941D01*
X103899500Y-97120941D01*
X103899500Y-97120943D01*
X103899500Y-97279057D01*
X103940423Y-97431784D01*
X104019480Y-97568716D01*
X104131284Y-97680520D01*
X104268216Y-97759577D01*
X104420943Y-97800500D01*
X104579057Y-97800500D01*
X104731784Y-97759577D01*
X104868716Y-97680520D01*
X104980520Y-97568716D01*
X105008103Y-97520941D01*
X114299500Y-97520941D01*
X114299500Y-97679058D01*
X114299892Y-97680520D01*
X114340423Y-97831784D01*
X114419480Y-97968716D01*
X114531284Y-98080520D01*
X114668216Y-98159577D01*
X114820943Y-98200500D01*
X114979057Y-98200500D01*
X115131784Y-98159577D01*
X115268716Y-98080520D01*
X115380520Y-97968716D01*
X115459577Y-97831784D01*
X115500500Y-97679057D01*
X115500500Y-97620941D01*
X122899500Y-97620941D01*
X122899500Y-97779058D01*
X122910465Y-97819981D01*
X122940423Y-97931784D01*
X123019480Y-98068716D01*
X123131284Y-98180520D01*
X123268216Y-98259577D01*
X123420943Y-98300500D01*
X123579057Y-98300500D01*
X123731784Y-98259577D01*
X123868716Y-98180520D01*
X123980520Y-98068716D01*
X124059577Y-97931784D01*
X124100500Y-97779057D01*
X124100500Y-97620943D01*
X124059577Y-97468216D01*
X123980520Y-97331284D01*
X123868716Y-97219480D01*
X123731784Y-97140423D01*
X123579057Y-97099500D01*
X123420943Y-97099500D01*
X123268216Y-97140423D01*
X123268214Y-97140423D01*
X123268214Y-97140424D01*
X123131283Y-97219480D01*
X123019480Y-97331283D01*
X122998157Y-97368216D01*
X122940423Y-97468216D01*
X122926295Y-97520943D01*
X122899500Y-97620941D01*
X115500500Y-97620941D01*
X115500500Y-97520943D01*
X115459577Y-97368216D01*
X115380520Y-97231284D01*
X115268716Y-97119480D01*
X115131784Y-97040423D01*
X114979057Y-96999500D01*
X114820943Y-96999500D01*
X114668216Y-97040423D01*
X114668214Y-97040423D01*
X114668214Y-97040424D01*
X114531283Y-97119480D01*
X114419480Y-97231283D01*
X114340424Y-97368214D01*
X114299500Y-97520941D01*
X105008103Y-97520941D01*
X105059577Y-97431784D01*
X105100500Y-97279057D01*
X105100500Y-97120943D01*
X105059577Y-96968216D01*
X104980520Y-96831284D01*
X104868716Y-96719480D01*
X104813150Y-96687399D01*
X121274500Y-96687399D01*
X121274500Y-96812600D01*
X121306906Y-96933538D01*
X121368615Y-97040424D01*
X121369505Y-97041964D01*
X121458036Y-97130495D01*
X121566464Y-97193095D01*
X121687399Y-97225500D01*
X121687404Y-97225500D01*
X121812596Y-97225500D01*
X121812601Y-97225500D01*
X121933536Y-97193095D01*
X122041964Y-97130495D01*
X122130495Y-97041964D01*
X122193095Y-96933536D01*
X122225500Y-96812601D01*
X122225500Y-96687399D01*
X122193095Y-96566464D01*
X122130495Y-96458036D01*
X122041964Y-96369505D01*
X122041963Y-96369504D01*
X121933538Y-96306906D01*
X121933537Y-96306905D01*
X121933536Y-96306905D01*
X121812601Y-96274500D01*
X121687399Y-96274500D01*
X121566464Y-96306905D01*
X121566463Y-96306905D01*
X121566461Y-96306906D01*
X121458036Y-96369504D01*
X121369504Y-96458036D01*
X121306906Y-96566461D01*
X121274500Y-96687399D01*
X104813150Y-96687399D01*
X104731784Y-96640423D01*
X104579057Y-96599500D01*
X104420943Y-96599500D01*
X104268216Y-96640423D01*
X104268214Y-96640423D01*
X104268214Y-96640424D01*
X104131283Y-96719480D01*
X104019480Y-96831283D01*
X103960445Y-96933536D01*
X103940423Y-96968216D01*
X103921431Y-97039095D01*
X103899500Y-97120941D01*
X100000000Y-97120941D01*
X100000000Y-95920941D01*
X126499500Y-95920941D01*
X126499500Y-96079058D01*
X126510465Y-96119981D01*
X126540423Y-96231784D01*
X126619480Y-96368716D01*
X126731284Y-96480520D01*
X126868216Y-96559577D01*
X127020943Y-96600500D01*
X127179057Y-96600500D01*
X127331784Y-96559577D01*
X127468716Y-96480520D01*
X127580520Y-96368716D01*
X127659577Y-96231784D01*
X127700500Y-96079057D01*
X127700500Y-95920943D01*
X127659577Y-95768216D01*
X127580520Y-95631284D01*
X127468716Y-95519480D01*
X127331784Y-95440423D01*
X127259076Y-95420941D01*
X128199500Y-95420941D01*
X128199500Y-95420943D01*
X128199500Y-95579057D01*
X128240423Y-95731784D01*
X128319480Y-95868716D01*
X128431284Y-95980520D01*
X128568216Y-96059577D01*
X128720943Y-96100500D01*
X128879057Y-96100500D01*
X129031784Y-96059577D01*
X129168716Y-95980520D01*
X129280520Y-95868716D01*
X129359577Y-95731784D01*
X129400500Y-95579057D01*
X129400500Y-95420943D01*
X129359577Y-95268216D01*
X129280520Y-95131284D01*
X129168716Y-95019480D01*
X129031784Y-94940423D01*
X128879057Y-94899500D01*
X128720943Y-94899500D01*
X128568216Y-94940423D01*
X128568214Y-94940423D01*
X128568214Y-94940424D01*
X128431283Y-95019480D01*
X128319480Y-95131283D01*
X128240424Y-95268214D01*
X128240423Y-95268216D01*
X128226412Y-95320505D01*
X128199500Y-95420941D01*
X127259076Y-95420941D01*
X127179057Y-95399500D01*
X127020943Y-95399500D01*
X126868216Y-95440423D01*
X126868214Y-95440423D01*
X126868214Y-95440424D01*
X126731283Y-95519480D01*
X126619480Y-95631283D01*
X126540424Y-95768214D01*
X126499500Y-95920941D01*
X100000000Y-95920941D01*
X100000000Y-94830815D01*
X108674500Y-94830815D01*
X108674500Y-94830817D01*
X108674500Y-94969183D01*
X108710312Y-95102836D01*
X108779495Y-95222665D01*
X108877335Y-95320505D01*
X108997164Y-95389688D01*
X109130817Y-95425500D01*
X109269183Y-95425500D01*
X109402836Y-95389688D01*
X109522665Y-95320505D01*
X109620505Y-95222665D01*
X109689688Y-95102836D01*
X109725500Y-94969183D01*
X109725500Y-94830817D01*
X109689688Y-94697164D01*
X109620505Y-94577335D01*
X109522665Y-94479495D01*
X109402836Y-94410312D01*
X109269183Y-94374500D01*
X109130817Y-94374500D01*
X108997164Y-94410312D01*
X108997162Y-94410312D01*
X108997162Y-94410313D01*
X108877334Y-94479495D01*
X108779495Y-94577334D01*
X108710313Y-94697162D01*
X108674500Y-94830815D01*
X100000000Y-94830815D01*
X100000000Y-93830815D01*
X107674500Y-93830815D01*
X107674500Y-93830817D01*
X107674500Y-93969183D01*
X107710312Y-94102836D01*
X107779495Y-94222665D01*
X107877335Y-94320505D01*
X107997164Y-94389688D01*
X108130817Y-94425500D01*
X108269183Y-94425500D01*
X108402836Y-94389688D01*
X108522665Y-94320505D01*
X108620505Y-94222665D01*
X108689688Y-94102836D01*
X108725500Y-93969183D01*
X108725500Y-93920941D01*
X115899500Y-93920941D01*
X115899500Y-94079058D01*
X115905872Y-94102837D01*
X115940423Y-94231784D01*
X116019480Y-94368716D01*
X116131284Y-94480520D01*
X116268216Y-94559577D01*
X116420943Y-94600500D01*
X116579057Y-94600500D01*
X116731784Y-94559577D01*
X116820298Y-94508474D01*
X120404400Y-94508474D01*
X120404400Y-94508476D01*
X120404400Y-94661324D01*
X120443960Y-94808965D01*
X120472974Y-94859219D01*
X120520381Y-94941331D01*
X120520382Y-94941332D01*
X120520384Y-94941335D01*
X120628465Y-95049416D01*
X120760835Y-95125840D01*
X120908476Y-95165400D01*
X121061324Y-95165400D01*
X121208965Y-95125840D01*
X121341335Y-95049416D01*
X121449416Y-94941335D01*
X121525840Y-94808965D01*
X121565400Y-94661324D01*
X121565400Y-94508476D01*
X121525840Y-94360835D01*
X121449416Y-94228465D01*
X121341335Y-94120384D01*
X121341332Y-94120382D01*
X121341331Y-94120381D01*
X121259219Y-94072974D01*
X121208965Y-94043960D01*
X121100885Y-94015000D01*
X121061325Y-94004400D01*
X121061324Y-94004400D01*
X120908476Y-94004400D01*
X120908474Y-94004400D01*
X120829354Y-94025600D01*
X120760835Y-94043960D01*
X120760833Y-94043960D01*
X120760833Y-94043961D01*
X120628468Y-94120381D01*
X120520381Y-94228468D01*
X120443961Y-94360833D01*
X120443960Y-94360835D01*
X120430703Y-94410312D01*
X120404400Y-94508474D01*
X116820298Y-94508474D01*
X116868716Y-94480520D01*
X116980520Y-94368716D01*
X117059577Y-94231784D01*
X117100500Y-94079057D01*
X117100500Y-93920943D01*
X117059577Y-93768216D01*
X116980520Y-93631284D01*
X116868716Y-93519480D01*
X116731784Y-93440423D01*
X116579057Y-93399500D01*
X116420943Y-93399500D01*
X116268216Y-93440423D01*
X116268214Y-93440423D01*
X116268214Y-93440424D01*
X116131283Y-93519480D01*
X116019480Y-93631283D01*
X115940424Y-93768214D01*
X115899500Y-93920941D01*
X108725500Y-93920941D01*
X108725500Y-93830817D01*
X108689688Y-93697164D01*
X108620505Y-93577335D01*
X108522665Y-93479495D01*
X108402836Y-93410312D01*
X108269183Y-93374500D01*
X108130817Y-93374500D01*
X107997164Y-93410312D01*
X107997162Y-93410312D01*
X107997162Y-93410313D01*
X107877334Y-93479495D01*
X107779495Y-93577334D01*
X107710313Y-93697162D01*
X107674500Y-93830815D01*
X100000000Y-93830815D01*
X100000000Y-91920941D01*
X112399500Y-91920941D01*
X112399500Y-92079058D01*
X112410465Y-92119981D01*
X112440423Y-92231784D01*
X112519480Y-92368716D01*
X112631284Y-92480520D01*
X112768216Y-92559577D01*
X112920943Y-92600500D01*
X113079057Y-92600500D01*
X113231784Y-92559577D01*
X113368716Y-92480520D01*
X113480520Y-92368716D01*
X113559577Y-92231784D01*
X113600500Y-92079057D01*
X113600500Y-91920943D01*
X113559577Y-91768216D01*
X113532283Y-91720941D01*
X115899500Y-91720941D01*
X115899500Y-91720943D01*
X115899500Y-91879057D01*
X115940423Y-92031784D01*
X116019480Y-92168716D01*
X116131284Y-92280520D01*
X116268216Y-92359577D01*
X116420943Y-92400500D01*
X116579057Y-92400500D01*
X116731784Y-92359577D01*
X116868716Y-92280520D01*
X116980520Y-92168716D01*
X117008103Y-92120941D01*
X120099500Y-92120941D01*
X120099500Y-92279058D01*
X120099892Y-92280520D01*
X120140423Y-92431784D01*
X120219480Y-92568716D01*
X120331284Y-92680520D01*
X120468216Y-92759577D01*
X120620943Y-92800500D01*
X120779057Y-92800500D01*
X120931784Y-92759577D01*
X121068716Y-92680520D01*
X121180520Y-92568716D01*
X121259577Y-92431784D01*
X121300500Y-92279057D01*
X121300500Y-92120943D01*
X121259577Y-91968216D01*
X121180520Y-91831284D01*
X121068716Y-91719480D01*
X120931784Y-91640423D01*
X120779057Y-91599500D01*
X120620943Y-91599500D01*
X120468216Y-91640423D01*
X120468214Y-91640423D01*
X120468214Y-91640424D01*
X120331283Y-91719480D01*
X120219480Y-91831283D01*
X120168429Y-91919708D01*
X120140423Y-91968216D01*
X120123390Y-92031784D01*
X120099500Y-92120941D01*
X117008103Y-92120941D01*
X117059577Y-92031784D01*
X117100500Y-91879057D01*
X117100500Y-91720943D01*
X117059577Y-91568216D01*
X116980520Y-91431284D01*
X116970177Y-91420941D01*
X130899500Y-91420941D01*
X130899500Y-91420943D01*
X130899500Y-91579057D01*
X130940423Y-91731784D01*
X131019480Y-91868716D01*
X131131284Y-91980520D01*
X131268216Y-92059577D01*
X131420943Y-92100500D01*
X131579057Y-92100500D01*
X131731784Y-92059577D01*
X131868716Y-91980520D01*
X131980520Y-91868716D01*
X131980525Y-91868707D01*
X131981782Y-91867070D01*
X131983433Y-91865802D01*
X131987426Y-91861810D01*
X131987951Y-91862335D01*
X132042968Y-91820112D01*
X132119436Y-91810039D01*
X132190695Y-91839549D01*
X132218210Y-91867062D01*
X132219479Y-91868716D01*
X132331283Y-91980520D01*
X132468215Y-92059577D01*
X132620942Y-92100500D01*
X132736336Y-92100500D01*
X132810836Y-92120462D01*
X132865372Y-92174998D01*
X132919480Y-92268716D01*
X133031284Y-92380520D01*
X133168216Y-92459577D01*
X133320943Y-92500500D01*
X133479057Y-92500500D01*
X133631784Y-92459577D01*
X133768716Y-92380520D01*
X133880520Y-92268716D01*
X133959577Y-92131784D01*
X134000500Y-91979057D01*
X134000500Y-91820943D01*
X133959577Y-91668216D01*
X133880520Y-91531284D01*
X133768716Y-91419480D01*
X133631784Y-91340423D01*
X133479057Y-91299500D01*
X133363663Y-91299500D01*
X133289163Y-91279538D01*
X133234625Y-91225000D01*
X133234625Y-91224999D01*
X133180519Y-91131284D01*
X133068715Y-91019480D01*
X133022547Y-90992825D01*
X132931783Y-90940423D01*
X132779056Y-90899500D01*
X132620942Y-90899500D01*
X132468215Y-90940423D01*
X132468213Y-90940423D01*
X132468213Y-90940424D01*
X132331282Y-91019480D01*
X132219475Y-91131287D01*
X132218205Y-91132943D01*
X132216550Y-91134212D01*
X132212573Y-91138190D01*
X132212049Y-91137666D01*
X132157013Y-91179893D01*
X132080545Y-91189958D01*
X132009289Y-91160439D01*
X131981787Y-91132935D01*
X131980520Y-91131284D01*
X131868716Y-91019480D01*
X131822548Y-90992825D01*
X131731784Y-90940423D01*
X131579057Y-90899500D01*
X131420943Y-90899500D01*
X131268216Y-90940423D01*
X131268214Y-90940423D01*
X131268214Y-90940424D01*
X131131283Y-91019480D01*
X131019480Y-91131283D01*
X130940424Y-91268214D01*
X130940423Y-91268216D01*
X130928491Y-91312746D01*
X130899500Y-91420941D01*
X116970177Y-91420941D01*
X116868716Y-91319480D01*
X116731784Y-91240423D01*
X116579057Y-91199500D01*
X116420943Y-91199500D01*
X116268216Y-91240423D01*
X116268214Y-91240423D01*
X116268214Y-91240424D01*
X116131283Y-91319480D01*
X116019480Y-91431283D01*
X115940424Y-91568214D01*
X115940423Y-91568216D01*
X115923524Y-91631283D01*
X115899500Y-91720941D01*
X113532283Y-91720941D01*
X113480520Y-91631284D01*
X113368716Y-91519480D01*
X113231784Y-91440423D01*
X113079057Y-91399500D01*
X112920943Y-91399500D01*
X112768216Y-91440423D01*
X112768214Y-91440423D01*
X112768214Y-91440424D01*
X112631283Y-91519480D01*
X112519480Y-91631283D01*
X112498157Y-91668216D01*
X112440423Y-91768216D01*
X112426295Y-91820943D01*
X112399500Y-91920941D01*
X100000000Y-91920941D01*
X100000000Y-90020941D01*
X112799500Y-90020941D01*
X112799500Y-90020943D01*
X112799500Y-90179057D01*
X112840423Y-90331784D01*
X112919480Y-90468716D01*
X113031284Y-90580520D01*
X113168216Y-90659577D01*
X113320943Y-90700500D01*
X113479057Y-90700500D01*
X113631784Y-90659577D01*
X113732233Y-90601583D01*
X137049500Y-90601583D01*
X137049500Y-90798417D01*
X137080291Y-90992826D01*
X137141116Y-91180025D01*
X137141119Y-91180030D01*
X137141121Y-91180036D01*
X137186050Y-91268214D01*
X137230476Y-91355405D01*
X137346172Y-91514646D01*
X137485354Y-91653828D01*
X137644595Y-91769524D01*
X137819975Y-91858884D01*
X138007174Y-91919709D01*
X138201583Y-91950500D01*
X138201588Y-91950500D01*
X139998412Y-91950500D01*
X139998417Y-91950500D01*
X140192826Y-91919709D01*
X140380025Y-91858884D01*
X140555405Y-91769524D01*
X140714646Y-91653828D01*
X140853828Y-91514646D01*
X140969524Y-91355405D01*
X141058884Y-91180025D01*
X141119709Y-90992826D01*
X141150500Y-90798417D01*
X141150500Y-90601583D01*
X141119709Y-90407174D01*
X141058884Y-90219975D01*
X140969524Y-90044595D01*
X140853828Y-89885354D01*
X140714646Y-89746172D01*
X140555405Y-89630476D01*
X140533824Y-89619480D01*
X140380036Y-89541121D01*
X140380030Y-89541119D01*
X140380025Y-89541116D01*
X140192826Y-89480291D01*
X139998417Y-89449500D01*
X138201583Y-89449500D01*
X138007174Y-89480291D01*
X137819975Y-89541116D01*
X137819972Y-89541117D01*
X137819963Y-89541121D01*
X137644598Y-89630474D01*
X137644593Y-89630477D01*
X137485363Y-89746165D01*
X137485352Y-89746174D01*
X137346174Y-89885352D01*
X137346165Y-89885363D01*
X137230477Y-90044593D01*
X137230474Y-90044598D01*
X137141121Y-90219963D01*
X137141114Y-90219981D01*
X137092787Y-90368716D01*
X137080291Y-90407174D01*
X137049500Y-90601583D01*
X113732233Y-90601583D01*
X113768716Y-90580520D01*
X113880520Y-90468716D01*
X113959577Y-90331784D01*
X114000500Y-90179057D01*
X114000500Y-90020943D01*
X114000499Y-90020939D01*
X113981422Y-89949741D01*
X113973705Y-89920941D01*
X132099499Y-89920941D01*
X132099499Y-89920943D01*
X132099499Y-90079057D01*
X132140422Y-90231784D01*
X132219479Y-90368716D01*
X132331283Y-90480520D01*
X132468215Y-90559577D01*
X132620942Y-90600500D01*
X132779056Y-90600500D01*
X132931783Y-90559577D01*
X133068715Y-90480520D01*
X133180519Y-90368716D01*
X133259576Y-90231784D01*
X133300499Y-90079057D01*
X133300499Y-89920943D01*
X133259576Y-89768216D01*
X133180519Y-89631284D01*
X133068715Y-89519480D01*
X132931783Y-89440423D01*
X132779056Y-89399500D01*
X132620942Y-89399500D01*
X132468215Y-89440423D01*
X132468213Y-89440423D01*
X132468213Y-89440424D01*
X132331282Y-89519480D01*
X132219479Y-89631283D01*
X132140423Y-89768214D01*
X132099499Y-89920941D01*
X113973705Y-89920941D01*
X113970283Y-89908171D01*
X113959577Y-89868216D01*
X113880520Y-89731284D01*
X113768716Y-89619480D01*
X113631784Y-89540423D01*
X113479057Y-89499500D01*
X113320943Y-89499500D01*
X113168216Y-89540423D01*
X113168214Y-89540423D01*
X113168214Y-89540424D01*
X113031283Y-89619480D01*
X112919480Y-89731283D01*
X112898157Y-89768216D01*
X112840423Y-89868216D01*
X112826295Y-89920943D01*
X112799500Y-90020941D01*
X100000000Y-90020941D01*
X100000000Y-88620941D01*
X111399500Y-88620941D01*
X111399500Y-88779058D01*
X111399892Y-88780520D01*
X111440423Y-88931784D01*
X111519480Y-89068716D01*
X111631284Y-89180520D01*
X111768216Y-89259577D01*
X111920943Y-89300500D01*
X112079057Y-89300500D01*
X112231784Y-89259577D01*
X112368716Y-89180520D01*
X112480520Y-89068716D01*
X112559577Y-88931784D01*
X112600500Y-88779057D01*
X112600500Y-88620943D01*
X112559577Y-88468216D01*
X112480520Y-88331284D01*
X112370177Y-88220941D01*
X115899500Y-88220941D01*
X115899500Y-88220943D01*
X115899500Y-88379057D01*
X115940423Y-88531784D01*
X116019480Y-88668716D01*
X116131284Y-88780520D01*
X116268216Y-88859577D01*
X116420943Y-88900500D01*
X116579057Y-88900500D01*
X116731784Y-88859577D01*
X116868716Y-88780520D01*
X116980520Y-88668716D01*
X117059577Y-88531784D01*
X117100500Y-88379057D01*
X117100500Y-88220943D01*
X117059577Y-88068216D01*
X116980520Y-87931284D01*
X116868716Y-87819480D01*
X116731784Y-87740423D01*
X116579057Y-87699500D01*
X116420943Y-87699500D01*
X116268216Y-87740423D01*
X116268214Y-87740423D01*
X116268214Y-87740424D01*
X116131283Y-87819480D01*
X116019480Y-87931283D01*
X115945412Y-88059575D01*
X115940423Y-88068216D01*
X115931773Y-88100499D01*
X115899500Y-88220941D01*
X112370177Y-88220941D01*
X112368716Y-88219480D01*
X112231784Y-88140423D01*
X112079057Y-88099500D01*
X111920943Y-88099500D01*
X111768216Y-88140423D01*
X111768214Y-88140423D01*
X111768214Y-88140424D01*
X111631283Y-88219480D01*
X111519480Y-88331283D01*
X111440424Y-88468214D01*
X111399500Y-88620941D01*
X100000000Y-88620941D01*
X100000000Y-87420941D01*
X126899500Y-87420941D01*
X126899500Y-87420943D01*
X126899500Y-87579057D01*
X126940423Y-87731784D01*
X127019480Y-87868716D01*
X127131284Y-87980520D01*
X127268216Y-88059577D01*
X127420943Y-88100500D01*
X127579057Y-88100500D01*
X127731784Y-88059577D01*
X127868716Y-87980520D01*
X127980520Y-87868716D01*
X128059577Y-87731784D01*
X128100500Y-87579057D01*
X128100500Y-87420943D01*
X128059577Y-87268216D01*
X128032283Y-87220941D01*
X134799500Y-87220941D01*
X134799500Y-87220943D01*
X134799500Y-87379057D01*
X134840423Y-87531784D01*
X134919480Y-87668716D01*
X135031284Y-87780520D01*
X135168216Y-87859577D01*
X135320943Y-87900500D01*
X135479057Y-87900500D01*
X135631784Y-87859577D01*
X135768716Y-87780520D01*
X135880520Y-87668716D01*
X135959577Y-87531784D01*
X136000500Y-87379057D01*
X136000500Y-87235927D01*
X138449500Y-87235927D01*
X138449500Y-87364072D01*
X138474498Y-87489743D01*
X138474499Y-87489745D01*
X138523531Y-87608119D01*
X138523533Y-87608123D01*
X138523535Y-87608127D01*
X138594724Y-87714669D01*
X138685331Y-87805276D01*
X138791873Y-87876465D01*
X138910256Y-87925501D01*
X139035931Y-87950500D01*
X139035935Y-87950500D01*
X139164065Y-87950500D01*
X139164069Y-87950500D01*
X139289744Y-87925501D01*
X139408127Y-87876465D01*
X139514669Y-87805276D01*
X139605276Y-87714669D01*
X139676465Y-87608127D01*
X139725501Y-87489744D01*
X139750500Y-87364069D01*
X139750500Y-87235931D01*
X139725501Y-87110256D01*
X139676465Y-86991873D01*
X139605276Y-86885331D01*
X139514669Y-86794724D01*
X139408127Y-86723535D01*
X139408123Y-86723533D01*
X139408119Y-86723531D01*
X139289745Y-86674499D01*
X139289743Y-86674498D01*
X139164072Y-86649500D01*
X139164069Y-86649500D01*
X139035931Y-86649500D01*
X139035927Y-86649500D01*
X138910256Y-86674498D01*
X138910254Y-86674499D01*
X138791880Y-86723531D01*
X138791873Y-86723535D01*
X138737933Y-86759577D01*
X138685327Y-86794727D01*
X138594727Y-86885327D01*
X138523535Y-86991873D01*
X138523531Y-86991880D01*
X138474499Y-87110254D01*
X138474498Y-87110256D01*
X138449500Y-87235927D01*
X136000500Y-87235927D01*
X136000500Y-87220943D01*
X135959577Y-87068216D01*
X135880520Y-86931284D01*
X135768716Y-86819480D01*
X135631784Y-86740423D01*
X135479057Y-86699500D01*
X135320943Y-86699500D01*
X135168216Y-86740423D01*
X135168214Y-86740423D01*
X135168214Y-86740424D01*
X135031283Y-86819480D01*
X134919480Y-86931283D01*
X134914203Y-86940424D01*
X134840423Y-87068216D01*
X134823524Y-87131283D01*
X134799500Y-87220941D01*
X128032283Y-87220941D01*
X127980520Y-87131284D01*
X127868716Y-87019480D01*
X127731784Y-86940423D01*
X127579057Y-86899500D01*
X127420943Y-86899500D01*
X127268216Y-86940423D01*
X127268214Y-86940423D01*
X127268214Y-86940424D01*
X127131283Y-87019480D01*
X127019480Y-87131283D01*
X126940424Y-87268214D01*
X126899500Y-87420941D01*
X100000000Y-87420941D01*
X100000000Y-85920941D01*
X115799500Y-85920941D01*
X115799500Y-85920943D01*
X115799500Y-86079057D01*
X115840423Y-86231784D01*
X115919480Y-86368716D01*
X116031284Y-86480520D01*
X116168216Y-86559577D01*
X116320943Y-86600500D01*
X116479057Y-86600500D01*
X116631784Y-86559577D01*
X116768716Y-86480520D01*
X116880520Y-86368716D01*
X116959577Y-86231784D01*
X117000500Y-86079057D01*
X117000500Y-85920943D01*
X116959577Y-85768216D01*
X116880520Y-85631284D01*
X116768716Y-85519480D01*
X116631784Y-85440423D01*
X116479057Y-85399500D01*
X116320943Y-85399500D01*
X116168216Y-85440423D01*
X116168214Y-85440423D01*
X116168214Y-85440424D01*
X116031283Y-85519480D01*
X115919480Y-85631283D01*
X115840424Y-85768214D01*
X115799500Y-85920941D01*
X100000000Y-85920941D01*
X100000000Y-85120941D01*
X129699500Y-85120941D01*
X129699500Y-85120943D01*
X129699500Y-85279057D01*
X129740423Y-85431784D01*
X129819480Y-85568716D01*
X129931284Y-85680520D01*
X130068216Y-85759577D01*
X130220943Y-85800500D01*
X130379057Y-85800500D01*
X130531784Y-85759577D01*
X130543852Y-85752609D01*
X130618349Y-85732646D01*
X130692850Y-85752606D01*
X130747389Y-85807143D01*
X130767353Y-85881642D01*
X130747393Y-85956142D01*
X130740424Y-85968212D01*
X130699500Y-86120941D01*
X130699500Y-86120943D01*
X130699500Y-86279057D01*
X130740423Y-86431784D01*
X130819480Y-86568716D01*
X130931284Y-86680520D01*
X131068216Y-86759577D01*
X131220943Y-86800500D01*
X131379057Y-86800500D01*
X131531784Y-86759577D01*
X131668716Y-86680520D01*
X131780520Y-86568716D01*
X131859577Y-86431784D01*
X131900500Y-86279057D01*
X131900500Y-86120943D01*
X131859577Y-85968216D01*
X131780520Y-85831284D01*
X131668716Y-85719480D01*
X131531784Y-85640423D01*
X131379057Y-85599500D01*
X131220943Y-85599500D01*
X131068212Y-85640424D01*
X131056142Y-85647393D01*
X130981641Y-85667353D01*
X130907142Y-85647388D01*
X130852606Y-85592849D01*
X130832646Y-85518348D01*
X130852609Y-85443852D01*
X130859577Y-85431784D01*
X130900500Y-85279057D01*
X130900500Y-85120943D01*
X130859577Y-84968216D01*
X130780520Y-84831284D01*
X130668716Y-84719480D01*
X130531784Y-84640423D01*
X130379057Y-84599500D01*
X130220943Y-84599500D01*
X130068216Y-84640423D01*
X130068214Y-84640423D01*
X130068214Y-84640424D01*
X129931283Y-84719480D01*
X129819480Y-84831283D01*
X129740424Y-84968214D01*
X129699500Y-85120941D01*
X100000000Y-85120941D01*
X100000000Y-84020941D01*
X113899500Y-84020941D01*
X113899500Y-84020943D01*
X113899500Y-84179057D01*
X113940423Y-84331784D01*
X114019480Y-84468716D01*
X114131284Y-84580520D01*
X114268216Y-84659577D01*
X114420943Y-84700500D01*
X114579057Y-84700500D01*
X114731784Y-84659577D01*
X114868716Y-84580520D01*
X114980520Y-84468716D01*
X115059577Y-84331784D01*
X115100500Y-84179057D01*
X115100500Y-84020943D01*
X115059577Y-83868216D01*
X114980520Y-83731284D01*
X114868716Y-83619480D01*
X114731784Y-83540423D01*
X114579057Y-83499500D01*
X114420943Y-83499500D01*
X114268216Y-83540423D01*
X114268214Y-83540423D01*
X114268214Y-83540424D01*
X114131283Y-83619480D01*
X114019480Y-83731283D01*
X113940424Y-83868214D01*
X113899500Y-84020941D01*
X100000000Y-84020941D01*
X100000000Y-82635927D01*
X138449500Y-82635927D01*
X138449500Y-82764072D01*
X138474498Y-82889743D01*
X138474499Y-82889745D01*
X138523531Y-83008119D01*
X138523533Y-83008123D01*
X138523535Y-83008127D01*
X138594724Y-83114669D01*
X138685331Y-83205276D01*
X138791873Y-83276465D01*
X138910256Y-83325501D01*
X139035931Y-83350500D01*
X139035935Y-83350500D01*
X139164065Y-83350500D01*
X139164069Y-83350500D01*
X139289744Y-83325501D01*
X139408127Y-83276465D01*
X139514669Y-83205276D01*
X139605276Y-83114669D01*
X139676465Y-83008127D01*
X139725501Y-82889744D01*
X139750500Y-82764069D01*
X139750500Y-82635931D01*
X139725501Y-82510256D01*
X139676465Y-82391873D01*
X139605276Y-82285331D01*
X139514669Y-82194724D01*
X139408127Y-82123535D01*
X139408123Y-82123533D01*
X139408119Y-82123531D01*
X139289745Y-82074499D01*
X139289743Y-82074498D01*
X139164072Y-82049500D01*
X139164069Y-82049500D01*
X139035931Y-82049500D01*
X139035927Y-82049500D01*
X138910256Y-82074498D01*
X138910254Y-82074499D01*
X138791880Y-82123531D01*
X138791873Y-82123535D01*
X138685327Y-82194727D01*
X138594727Y-82285327D01*
X138523535Y-82391873D01*
X138523531Y-82391880D01*
X138474499Y-82510254D01*
X138474498Y-82510256D01*
X138449500Y-82635927D01*
X100000000Y-82635927D01*
X100000000Y-79201583D01*
X137049500Y-79201583D01*
X137049500Y-79398417D01*
X137080291Y-79592826D01*
X137141116Y-79780025D01*
X137141119Y-79780030D01*
X137141121Y-79780036D01*
X137225179Y-79945010D01*
X137230476Y-79955405D01*
X137346172Y-80114646D01*
X137485354Y-80253828D01*
X137644595Y-80369524D01*
X137819975Y-80458884D01*
X138007174Y-80519709D01*
X138201583Y-80550500D01*
X138201588Y-80550500D01*
X139998412Y-80550500D01*
X139998417Y-80550500D01*
X140192826Y-80519709D01*
X140380025Y-80458884D01*
X140555405Y-80369524D01*
X140714646Y-80253828D01*
X140853828Y-80114646D01*
X140969524Y-79955405D01*
X141058884Y-79780025D01*
X141119709Y-79592826D01*
X141150500Y-79398417D01*
X141150500Y-79201583D01*
X141119709Y-79007174D01*
X141058884Y-78819975D01*
X140969524Y-78644595D01*
X140853828Y-78485354D01*
X140714646Y-78346172D01*
X140555405Y-78230476D01*
X140545010Y-78225179D01*
X140380036Y-78141121D01*
X140380030Y-78141119D01*
X140380025Y-78141116D01*
X140192826Y-78080291D01*
X139998417Y-78049500D01*
X138201583Y-78049500D01*
X138007174Y-78080291D01*
X137819975Y-78141116D01*
X137819972Y-78141117D01*
X137819963Y-78141121D01*
X137644598Y-78230474D01*
X137644593Y-78230477D01*
X137485363Y-78346165D01*
X137485352Y-78346174D01*
X137346174Y-78485352D01*
X137346165Y-78485363D01*
X137230477Y-78644593D01*
X137230474Y-78644598D01*
X137141121Y-78819963D01*
X137141117Y-78819972D01*
X137141116Y-78819975D01*
X137080291Y-79007174D01*
X137049500Y-79201583D01*
X100000000Y-79201583D01*
X100000000Y-78520941D01*
X127499500Y-78520941D01*
X127499500Y-78520943D01*
X127499500Y-78679057D01*
X127540423Y-78831784D01*
X127619480Y-78968716D01*
X127731284Y-79080520D01*
X127868216Y-79159577D01*
X128020943Y-79200500D01*
X128179057Y-79200500D01*
X128331784Y-79159577D01*
X128468716Y-79080520D01*
X128580520Y-78968716D01*
X128659577Y-78831784D01*
X128700500Y-78679057D01*
X128700500Y-78520943D01*
X128659577Y-78368216D01*
X128580520Y-78231284D01*
X128468716Y-78119480D01*
X128331784Y-78040423D01*
X128179057Y-77999500D01*
X128020943Y-77999500D01*
X127868216Y-78040423D01*
X127868214Y-78040423D01*
X127868214Y-78040424D01*
X127731283Y-78119480D01*
X127619480Y-78231283D01*
X127540424Y-78368214D01*
X127499500Y-78520941D01*
X100000000Y-78520941D01*
X100000000Y-77120941D01*
X128899500Y-77120941D01*
X128899500Y-77120943D01*
X128899500Y-77279057D01*
X128940423Y-77431784D01*
X129019480Y-77568716D01*
X129131284Y-77680520D01*
X129268216Y-77759577D01*
X129420943Y-77800500D01*
X129579057Y-77800500D01*
X129731784Y-77759577D01*
X129868716Y-77680520D01*
X129980520Y-77568716D01*
X130059577Y-77431784D01*
X130100500Y-77279057D01*
X130100500Y-77120943D01*
X130059577Y-76968216D01*
X129980520Y-76831284D01*
X129868716Y-76719480D01*
X129731784Y-76640423D01*
X129579057Y-76599500D01*
X129420943Y-76599500D01*
X129268216Y-76640423D01*
X129268214Y-76640423D01*
X129268214Y-76640424D01*
X129131283Y-76719480D01*
X129019480Y-76831283D01*
X128940424Y-76968214D01*
X128899500Y-77120941D01*
X100000000Y-77120941D01*
X100000000Y-76149000D01*
X100019962Y-76074500D01*
X100074500Y-76019962D01*
X100149000Y-76000000D01*
X145285076Y-76000000D01*
X145359576Y-76019962D01*
G37*
%TD.AperFunction*%
%TD*%
%TA.AperFunction,Conductor*%
%TO.N,VBATT_S*%
G36*
X62624290Y-58019962D02*
G01*
X62678828Y-58074500D01*
X62698790Y-58149000D01*
X62691497Y-58195044D01*
X62633985Y-58372045D01*
X62628051Y-58409515D01*
X62599500Y-58589778D01*
X62599500Y-58810222D01*
X62609412Y-58872804D01*
X62633985Y-59027956D01*
X62702105Y-59237606D01*
X62802185Y-59434023D01*
X62802186Y-59434024D01*
X62866971Y-59523193D01*
X62931758Y-59612365D01*
X63087635Y-59768242D01*
X63176228Y-59832608D01*
X63265975Y-59897813D01*
X63265976Y-59897814D01*
X63265978Y-59897815D01*
X63462394Y-59997895D01*
X63549512Y-60026201D01*
X63672043Y-60066014D01*
X63672048Y-60066014D01*
X63672049Y-60066015D01*
X63889778Y-60100500D01*
X63889782Y-60100500D01*
X64110218Y-60100500D01*
X64110222Y-60100500D01*
X64327951Y-60066015D01*
X64327952Y-60066014D01*
X64327956Y-60066014D01*
X64408556Y-60039825D01*
X64537606Y-59997895D01*
X64734022Y-59897815D01*
X64912365Y-59768242D01*
X65068242Y-59612365D01*
X65129456Y-59528111D01*
X65189395Y-59479572D01*
X65265574Y-59467506D01*
X65337579Y-59495146D01*
X65370544Y-59528111D01*
X65431752Y-59612358D01*
X65431757Y-59612364D01*
X65431758Y-59612365D01*
X65587635Y-59768242D01*
X65676228Y-59832608D01*
X65765975Y-59897813D01*
X65765976Y-59897814D01*
X65765978Y-59897815D01*
X65962394Y-59997895D01*
X66049512Y-60026201D01*
X66172043Y-60066014D01*
X66172048Y-60066014D01*
X66172049Y-60066015D01*
X66389778Y-60100500D01*
X66389782Y-60100500D01*
X66610218Y-60100500D01*
X66610222Y-60100500D01*
X66827951Y-60066015D01*
X66827952Y-60066014D01*
X66827956Y-60066014D01*
X66908556Y-60039825D01*
X67037606Y-59997895D01*
X67234022Y-59897815D01*
X67412365Y-59768242D01*
X67568242Y-59612365D01*
X67697815Y-59434022D01*
X67797895Y-59237606D01*
X67860156Y-59045984D01*
X67866014Y-59027956D01*
X67866800Y-59022992D01*
X67900500Y-58810222D01*
X67900500Y-58589778D01*
X67866015Y-58372049D01*
X67808502Y-58195042D01*
X67804466Y-58118021D01*
X67839481Y-58049300D01*
X67904166Y-58007293D01*
X67950210Y-58000000D01*
X79851000Y-58000000D01*
X79925500Y-58019962D01*
X79980038Y-58074500D01*
X80000000Y-58149000D01*
X80000000Y-58723804D01*
X79980038Y-58798304D01*
X79925500Y-58852842D01*
X79851000Y-58872804D01*
X79776500Y-58852842D01*
X79702836Y-58810312D01*
X79569183Y-58774500D01*
X79430817Y-58774500D01*
X79297164Y-58810312D01*
X79297162Y-58810312D01*
X79297162Y-58810313D01*
X79177334Y-58879495D01*
X79079492Y-58977337D01*
X79073551Y-58985081D01*
X79071134Y-58983226D01*
X79028319Y-59026031D01*
X78953817Y-59045984D01*
X78879319Y-59026013D01*
X78874798Y-59022992D01*
X78868717Y-59019481D01*
X78868716Y-59019480D01*
X78731784Y-58940423D01*
X78579057Y-58899500D01*
X78420943Y-58899500D01*
X78268216Y-58940423D01*
X78268214Y-58940423D01*
X78268214Y-58940424D01*
X78131283Y-59019480D01*
X78019480Y-59131283D01*
X77940424Y-59268214D01*
X77899500Y-59420941D01*
X77899500Y-59420943D01*
X77899500Y-59579057D01*
X77940423Y-59731784D01*
X78019480Y-59868716D01*
X78131284Y-59980520D01*
X78268216Y-60059577D01*
X78420943Y-60100500D01*
X78579057Y-60100500D01*
X78731784Y-60059577D01*
X78868716Y-59980520D01*
X78980520Y-59868716D01*
X79001367Y-59832606D01*
X79055903Y-59778069D01*
X79130403Y-59758106D01*
X79204903Y-59778067D01*
X79259442Y-59832604D01*
X79274328Y-59868542D01*
X79282172Y-59897815D01*
X79310312Y-60002836D01*
X79379495Y-60122665D01*
X79477335Y-60220505D01*
X79597164Y-60289688D01*
X79730817Y-60325500D01*
X79851000Y-60325500D01*
X79925500Y-60345462D01*
X79980038Y-60400000D01*
X80000000Y-60474500D01*
X80000000Y-64237201D01*
X79980038Y-64311701D01*
X79925500Y-64366239D01*
X79851000Y-64386201D01*
X79776502Y-64366240D01*
X79731786Y-64340424D01*
X79731785Y-64340423D01*
X79731784Y-64340423D01*
X79579057Y-64299500D01*
X79420943Y-64299500D01*
X79268216Y-64340423D01*
X79268214Y-64340423D01*
X79268214Y-64340424D01*
X79131283Y-64419480D01*
X79019480Y-64531283D01*
X78940424Y-64668213D01*
X78905163Y-64799806D01*
X78866598Y-64866600D01*
X78799806Y-64905163D01*
X78699399Y-64932067D01*
X78668216Y-64940423D01*
X78668215Y-64940423D01*
X78668213Y-64940424D01*
X78531283Y-65019480D01*
X78419480Y-65131283D01*
X78345438Y-65259529D01*
X78340423Y-65268216D01*
X78333207Y-65295146D01*
X78299500Y-65420941D01*
X78299500Y-65420943D01*
X78299500Y-65579057D01*
X78340423Y-65731784D01*
X78419480Y-65868716D01*
X78531284Y-65980520D01*
X78668216Y-66059577D01*
X78820943Y-66100500D01*
X78979057Y-66100500D01*
X79131784Y-66059577D01*
X79268716Y-65980520D01*
X79380520Y-65868716D01*
X79459577Y-65731784D01*
X79494836Y-65600194D01*
X79511169Y-65571904D01*
X79525134Y-65542372D01*
X79529998Y-65539291D01*
X79533400Y-65533400D01*
X79588551Y-65498473D01*
X79594297Y-65496416D01*
X79731784Y-65459577D01*
X79788139Y-65427040D01*
X79800792Y-65422512D01*
X79826288Y-65420419D01*
X79851000Y-65413798D01*
X79864122Y-65417314D01*
X79877661Y-65416203D01*
X79900787Y-65427138D01*
X79925500Y-65433760D01*
X79935105Y-65443365D01*
X79947387Y-65449173D01*
X79961948Y-65470208D01*
X79980038Y-65488298D01*
X79983554Y-65501420D01*
X79991286Y-65512590D01*
X79993378Y-65538086D01*
X80000000Y-65562798D01*
X80000000Y-68863984D01*
X79980038Y-68938484D01*
X79925500Y-68993022D01*
X79889565Y-69007907D01*
X79768214Y-69040423D01*
X79631283Y-69119480D01*
X79519480Y-69231283D01*
X79464730Y-69326114D01*
X79440423Y-69368216D01*
X79426295Y-69420943D01*
X79399500Y-69520941D01*
X79399500Y-69679058D01*
X79405872Y-69702837D01*
X79440423Y-69831784D01*
X79519480Y-69968716D01*
X79631284Y-70080520D01*
X79768216Y-70159577D01*
X79768218Y-70159577D01*
X79774889Y-70162341D01*
X79836080Y-70209292D01*
X79865597Y-70280549D01*
X79855531Y-70357017D01*
X79808580Y-70418208D01*
X79774889Y-70437659D01*
X79768217Y-70440422D01*
X79631283Y-70519480D01*
X79519480Y-70631283D01*
X79498157Y-70668216D01*
X79440423Y-70768216D01*
X79426295Y-70820943D01*
X79399500Y-70920941D01*
X79399500Y-70950500D01*
X79379538Y-71025000D01*
X79325000Y-71079538D01*
X79250500Y-71099500D01*
X79220943Y-71099500D01*
X79068216Y-71140423D01*
X79068214Y-71140423D01*
X79068214Y-71140424D01*
X78931282Y-71219481D01*
X78921228Y-71229535D01*
X78854432Y-71268097D01*
X78777304Y-71268095D01*
X78710510Y-71229529D01*
X78671948Y-71162733D01*
X78671948Y-71085610D01*
X78700500Y-70979057D01*
X78700500Y-70820943D01*
X78659577Y-70668216D01*
X78580520Y-70531284D01*
X78468716Y-70419480D01*
X78331784Y-70340423D01*
X78179057Y-70299500D01*
X78020943Y-70299500D01*
X77868216Y-70340423D01*
X77868214Y-70340423D01*
X77868214Y-70340424D01*
X77731283Y-70419480D01*
X77619480Y-70531283D01*
X77540424Y-70668214D01*
X77499500Y-70820941D01*
X77499500Y-70820943D01*
X77499500Y-70979057D01*
X77540423Y-71131784D01*
X77619480Y-71268716D01*
X77731284Y-71380520D01*
X77868216Y-71459577D01*
X78020943Y-71500500D01*
X78179057Y-71500500D01*
X78331784Y-71459577D01*
X78468716Y-71380520D01*
X78478767Y-71370468D01*
X78545559Y-71331904D01*
X78622687Y-71331902D01*
X78689483Y-71370464D01*
X78728049Y-71437258D01*
X78728051Y-71514386D01*
X78728050Y-71514390D01*
X78699500Y-71620939D01*
X78699500Y-71620943D01*
X78699500Y-71779057D01*
X78740423Y-71931784D01*
X78791054Y-72019480D01*
X78819480Y-72068716D01*
X78931284Y-72180520D01*
X78947137Y-72189673D01*
X79001674Y-72244211D01*
X79021636Y-72318711D01*
X79016559Y-72357273D01*
X78999500Y-72420936D01*
X78999500Y-72420943D01*
X78999500Y-72579057D01*
X79040423Y-72731784D01*
X79119480Y-72868716D01*
X79231284Y-72980520D01*
X79368216Y-73059577D01*
X79520943Y-73100500D01*
X79679056Y-73100500D01*
X79679057Y-73100500D01*
X79812441Y-73064760D01*
X79889562Y-73064760D01*
X79956358Y-73103323D01*
X79994923Y-73170117D01*
X80000000Y-73208683D01*
X80000000Y-78293781D01*
X79980038Y-78368281D01*
X79937189Y-78411137D01*
X79939030Y-78413536D01*
X79931286Y-78419477D01*
X79819480Y-78531283D01*
X79740424Y-78668214D01*
X79699500Y-78820941D01*
X79699500Y-78820943D01*
X79699500Y-78979057D01*
X79740423Y-79131784D01*
X79814204Y-79259577D01*
X79819480Y-79268716D01*
X79931283Y-79380519D01*
X79939032Y-79386465D01*
X79937185Y-79388871D01*
X79980024Y-79431693D01*
X80000000Y-79506190D01*
X80000000Y-80493781D01*
X79980038Y-80568281D01*
X79937189Y-80611137D01*
X79939030Y-80613536D01*
X79931286Y-80619477D01*
X79819480Y-80731283D01*
X79740424Y-80868213D01*
X79705163Y-80999806D01*
X79666598Y-81066600D01*
X79599806Y-81105163D01*
X79499399Y-81132067D01*
X79468216Y-81140423D01*
X79468215Y-81140423D01*
X79468213Y-81140424D01*
X79331283Y-81219480D01*
X79219480Y-81331283D01*
X79173853Y-81410313D01*
X79140423Y-81468216D01*
X79140164Y-81469183D01*
X79099500Y-81620941D01*
X79099500Y-81620943D01*
X79099500Y-81779057D01*
X79140423Y-81931784D01*
X79219480Y-82068716D01*
X79331284Y-82180520D01*
X79468216Y-82259577D01*
X79620943Y-82300500D01*
X79779057Y-82300500D01*
X79779062Y-82300499D01*
X79812434Y-82291557D01*
X79889562Y-82291556D01*
X79956358Y-82330119D01*
X79994922Y-82396913D01*
X80000000Y-82435479D01*
X80000000Y-83851000D01*
X79980038Y-83925500D01*
X79925500Y-83980038D01*
X79851000Y-84000000D01*
X72849500Y-84000000D01*
X72775000Y-83980038D01*
X72720462Y-83925500D01*
X72700500Y-83851000D01*
X72700500Y-83820943D01*
X72700499Y-83820941D01*
X72659577Y-83668216D01*
X72580520Y-83531284D01*
X72468716Y-83419480D01*
X72331784Y-83340423D01*
X72179057Y-83299500D01*
X72020943Y-83299500D01*
X71868216Y-83340423D01*
X71868214Y-83340423D01*
X71868214Y-83340424D01*
X71731283Y-83419480D01*
X71619480Y-83531283D01*
X71540424Y-83668214D01*
X71499500Y-83820941D01*
X71499500Y-83851000D01*
X71479538Y-83925500D01*
X71425000Y-83980038D01*
X71350500Y-84000000D01*
X66974898Y-84000000D01*
X66900399Y-83980038D01*
X66831783Y-83940423D01*
X66679056Y-83899500D01*
X66520942Y-83899500D01*
X66368215Y-83940423D01*
X66299598Y-83980038D01*
X66225100Y-84000000D01*
X53149000Y-84000000D01*
X53074500Y-83980038D01*
X53019962Y-83925500D01*
X53000000Y-83851000D01*
X53000000Y-82930815D01*
X58974500Y-82930815D01*
X58974500Y-83069184D01*
X58984096Y-83104996D01*
X59010312Y-83202836D01*
X59079495Y-83322665D01*
X59177335Y-83420505D01*
X59297164Y-83489688D01*
X59430817Y-83525500D01*
X59569183Y-83525500D01*
X59702836Y-83489688D01*
X59822665Y-83420505D01*
X59920505Y-83322665D01*
X59989688Y-83202836D01*
X60025500Y-83069183D01*
X60025500Y-82930817D01*
X60025499Y-82930813D01*
X60006422Y-82859615D01*
X59998705Y-82830815D01*
X70074500Y-82830815D01*
X70074500Y-82830817D01*
X70074500Y-82969183D01*
X70110312Y-83102836D01*
X70179495Y-83222665D01*
X70277335Y-83320505D01*
X70397164Y-83389688D01*
X70530817Y-83425500D01*
X70669183Y-83425500D01*
X70802836Y-83389688D01*
X70922665Y-83320505D01*
X71020505Y-83222665D01*
X71089688Y-83102836D01*
X71125500Y-82969183D01*
X71125500Y-82830817D01*
X71089688Y-82697164D01*
X71020505Y-82577335D01*
X70922665Y-82479495D01*
X70802836Y-82410312D01*
X70669183Y-82374500D01*
X70530817Y-82374500D01*
X70397164Y-82410312D01*
X70397162Y-82410312D01*
X70397162Y-82410313D01*
X70277334Y-82479495D01*
X70179495Y-82577334D01*
X70110313Y-82697162D01*
X70074500Y-82830815D01*
X59998705Y-82830815D01*
X59989687Y-82797162D01*
X59920504Y-82677334D01*
X59822665Y-82579495D01*
X59818922Y-82577334D01*
X59702836Y-82510312D01*
X59569183Y-82474500D01*
X59430817Y-82474500D01*
X59297164Y-82510312D01*
X59297162Y-82510312D01*
X59297162Y-82510313D01*
X59177334Y-82579495D01*
X59079495Y-82677334D01*
X59010313Y-82797162D01*
X59010312Y-82797164D01*
X59001295Y-82830817D01*
X58974500Y-82930815D01*
X53000000Y-82930815D01*
X53000000Y-81830815D01*
X57874500Y-81830815D01*
X57874500Y-81830817D01*
X57874500Y-81969183D01*
X57910312Y-82102836D01*
X57979495Y-82222665D01*
X58077335Y-82320505D01*
X58197164Y-82389688D01*
X58330817Y-82425500D01*
X58469183Y-82425500D01*
X58602836Y-82389688D01*
X58704807Y-82330815D01*
X71374500Y-82330815D01*
X71374500Y-82469184D01*
X71377263Y-82479495D01*
X71410312Y-82602836D01*
X71479495Y-82722665D01*
X71577335Y-82820505D01*
X71697164Y-82889688D01*
X71830817Y-82925500D01*
X71969183Y-82925500D01*
X72102836Y-82889688D01*
X72222665Y-82820505D01*
X72320505Y-82722665D01*
X72389688Y-82602836D01*
X72425500Y-82469183D01*
X72425500Y-82330817D01*
X72389688Y-82197164D01*
X72320505Y-82077335D01*
X72222665Y-81979495D01*
X72102836Y-81910312D01*
X71969183Y-81874500D01*
X71830817Y-81874500D01*
X71697164Y-81910312D01*
X71697162Y-81910312D01*
X71697162Y-81910313D01*
X71577334Y-81979495D01*
X71479495Y-82077334D01*
X71464772Y-82102836D01*
X71410312Y-82197164D01*
X71403479Y-82222665D01*
X71374500Y-82330815D01*
X58704807Y-82330815D01*
X58722665Y-82320505D01*
X58820505Y-82222665D01*
X58889688Y-82102836D01*
X58925500Y-81969183D01*
X58925500Y-81830817D01*
X58889688Y-81697164D01*
X58820505Y-81577335D01*
X58722665Y-81479495D01*
X58602836Y-81410312D01*
X58469183Y-81374500D01*
X58330817Y-81374500D01*
X58197164Y-81410312D01*
X58197162Y-81410312D01*
X58197162Y-81410313D01*
X58077334Y-81479495D01*
X57979495Y-81577334D01*
X57910313Y-81697162D01*
X57910312Y-81697164D01*
X57903479Y-81722665D01*
X57874500Y-81830815D01*
X53000000Y-81830815D01*
X53000000Y-80430815D01*
X71174500Y-80430815D01*
X71174500Y-80430817D01*
X71174500Y-80569183D01*
X71210312Y-80702836D01*
X71279495Y-80822665D01*
X71377335Y-80920505D01*
X71497164Y-80989688D01*
X71630817Y-81025500D01*
X71769183Y-81025500D01*
X71786198Y-81020941D01*
X75099500Y-81020941D01*
X75099500Y-81020943D01*
X75099500Y-81179057D01*
X75140423Y-81331784D01*
X75219480Y-81468716D01*
X75331284Y-81580520D01*
X75468216Y-81659577D01*
X75620943Y-81700500D01*
X75779057Y-81700500D01*
X75931784Y-81659577D01*
X76068716Y-81580520D01*
X76180520Y-81468716D01*
X76259577Y-81331784D01*
X76259837Y-81330815D01*
X77274500Y-81330815D01*
X77274500Y-81330817D01*
X77274500Y-81469183D01*
X77310312Y-81602836D01*
X77379495Y-81722665D01*
X77477335Y-81820505D01*
X77597164Y-81889688D01*
X77730817Y-81925500D01*
X77869183Y-81925500D01*
X78002836Y-81889688D01*
X78122665Y-81820505D01*
X78220505Y-81722665D01*
X78289688Y-81602836D01*
X78325500Y-81469183D01*
X78325500Y-81330817D01*
X78289688Y-81197164D01*
X78220505Y-81077335D01*
X78122665Y-80979495D01*
X78002836Y-80910312D01*
X77869183Y-80874500D01*
X77730817Y-80874500D01*
X77597164Y-80910312D01*
X77597162Y-80910312D01*
X77597162Y-80910313D01*
X77477334Y-80979495D01*
X77379495Y-81077334D01*
X77320766Y-81179057D01*
X77310312Y-81197164D01*
X77293692Y-81259191D01*
X77274500Y-81330815D01*
X76259837Y-81330815D01*
X76300500Y-81179057D01*
X76300500Y-81020943D01*
X76259577Y-80868216D01*
X76180520Y-80731284D01*
X76068716Y-80619480D01*
X75931784Y-80540423D01*
X75779057Y-80499500D01*
X75620943Y-80499500D01*
X75468216Y-80540423D01*
X75468214Y-80540423D01*
X75468214Y-80540424D01*
X75331283Y-80619480D01*
X75219480Y-80731283D01*
X75140425Y-80868213D01*
X75140423Y-80868216D01*
X75126412Y-80920505D01*
X75099500Y-81020941D01*
X71786198Y-81020941D01*
X71902836Y-80989688D01*
X72022665Y-80920505D01*
X72120505Y-80822665D01*
X72189688Y-80702836D01*
X72225500Y-80569183D01*
X72225500Y-80430817D01*
X72189688Y-80297164D01*
X72120505Y-80177335D01*
X72022665Y-80079495D01*
X71902836Y-80010312D01*
X71769183Y-79974500D01*
X71630817Y-79974500D01*
X71497164Y-80010312D01*
X71497162Y-80010312D01*
X71497162Y-80010313D01*
X71377334Y-80079495D01*
X71279495Y-80177334D01*
X71238832Y-80247765D01*
X71210312Y-80297164D01*
X71193692Y-80359191D01*
X71174500Y-80430815D01*
X53000000Y-80430815D01*
X53000000Y-79820941D01*
X76999500Y-79820941D01*
X76999500Y-79820943D01*
X76999500Y-79979057D01*
X77040423Y-80131784D01*
X77119480Y-80268716D01*
X77231284Y-80380520D01*
X77368216Y-80459577D01*
X77520943Y-80500500D01*
X77679057Y-80500500D01*
X77831784Y-80459577D01*
X77968716Y-80380520D01*
X78080520Y-80268716D01*
X78159577Y-80131784D01*
X78200500Y-79979057D01*
X78200500Y-79820943D01*
X78159577Y-79668216D01*
X78080520Y-79531284D01*
X77968716Y-79419480D01*
X77831784Y-79340423D01*
X77679057Y-79299500D01*
X77520943Y-79299500D01*
X77368216Y-79340423D01*
X77368214Y-79340423D01*
X77368214Y-79340424D01*
X77231283Y-79419480D01*
X77119480Y-79531283D01*
X77040424Y-79668214D01*
X76999500Y-79820941D01*
X53000000Y-79820941D01*
X53000000Y-78620941D01*
X70999500Y-78620941D01*
X70999500Y-78620943D01*
X70999500Y-78779057D01*
X71040423Y-78931784D01*
X71119480Y-79068716D01*
X71231284Y-79180520D01*
X71368216Y-79259577D01*
X71520943Y-79300500D01*
X71679057Y-79300500D01*
X71831784Y-79259577D01*
X71968716Y-79180520D01*
X72080520Y-79068716D01*
X72102402Y-79030815D01*
X75374500Y-79030815D01*
X75374500Y-79030817D01*
X75374500Y-79169183D01*
X75410312Y-79302836D01*
X75479495Y-79422665D01*
X75577335Y-79520505D01*
X75697164Y-79589688D01*
X75830817Y-79625500D01*
X75969183Y-79625500D01*
X76102836Y-79589688D01*
X76222665Y-79520505D01*
X76320505Y-79422665D01*
X76389688Y-79302836D01*
X76425500Y-79169183D01*
X76425500Y-79030817D01*
X76389688Y-78897164D01*
X76320505Y-78777335D01*
X76222665Y-78679495D01*
X76102836Y-78610312D01*
X75969183Y-78574500D01*
X75830817Y-78574500D01*
X75697164Y-78610312D01*
X75697162Y-78610312D01*
X75697162Y-78610313D01*
X75577334Y-78679495D01*
X75479495Y-78777334D01*
X75478500Y-78779058D01*
X75410312Y-78897164D01*
X75397079Y-78946551D01*
X75374500Y-79030815D01*
X72102402Y-79030815D01*
X72159577Y-78931784D01*
X72200500Y-78779057D01*
X72200500Y-78620943D01*
X72159577Y-78468216D01*
X72080520Y-78331284D01*
X71968716Y-78219480D01*
X71831784Y-78140423D01*
X71679057Y-78099500D01*
X71520943Y-78099500D01*
X71368216Y-78140423D01*
X71368214Y-78140423D01*
X71368214Y-78140424D01*
X71231283Y-78219480D01*
X71119480Y-78331283D01*
X71040424Y-78468214D01*
X70999500Y-78620941D01*
X53000000Y-78620941D01*
X53000000Y-77620941D01*
X69199500Y-77620941D01*
X69199500Y-77620943D01*
X69199500Y-77779057D01*
X69240423Y-77931784D01*
X69319480Y-78068716D01*
X69431284Y-78180520D01*
X69568216Y-78259577D01*
X69720943Y-78300500D01*
X69879057Y-78300500D01*
X70031784Y-78259577D01*
X70168716Y-78180520D01*
X70280520Y-78068716D01*
X70359577Y-77931784D01*
X70395534Y-77797588D01*
X70434097Y-77730796D01*
X70500892Y-77692232D01*
X70578020Y-77692232D01*
X70613953Y-77707116D01*
X70618216Y-77709577D01*
X70770943Y-77750500D01*
X70929057Y-77750500D01*
X71081784Y-77709577D01*
X71218716Y-77630520D01*
X71330520Y-77518716D01*
X71409577Y-77381784D01*
X71450500Y-77229057D01*
X71450500Y-77070943D01*
X71409577Y-76918216D01*
X71330520Y-76781284D01*
X71218716Y-76669480D01*
X71081784Y-76590423D01*
X70949957Y-76555100D01*
X70949956Y-76555099D01*
X70929060Y-76549500D01*
X70929057Y-76549500D01*
X70770943Y-76549500D01*
X70618216Y-76590423D01*
X70618214Y-76590423D01*
X70618214Y-76590424D01*
X70481283Y-76669480D01*
X70369480Y-76781283D01*
X70290424Y-76918214D01*
X70254466Y-77052409D01*
X70215901Y-77119203D01*
X70149106Y-77157767D01*
X70071978Y-77157767D01*
X70036047Y-77142884D01*
X70031784Y-77140423D01*
X69879057Y-77099500D01*
X69720943Y-77099500D01*
X69568216Y-77140423D01*
X69568214Y-77140423D01*
X69568214Y-77140424D01*
X69431283Y-77219480D01*
X69319480Y-77331283D01*
X69240424Y-77468214D01*
X69199500Y-77620941D01*
X53000000Y-77620941D01*
X53000000Y-76420941D01*
X74399500Y-76420941D01*
X74399500Y-76579058D01*
X74402546Y-76590424D01*
X74440423Y-76731784D01*
X74519480Y-76868716D01*
X74631284Y-76980520D01*
X74768216Y-77059577D01*
X74920943Y-77100500D01*
X75079057Y-77100500D01*
X75231784Y-77059577D01*
X75368716Y-76980520D01*
X75480520Y-76868716D01*
X75559577Y-76731784D01*
X75600500Y-76579057D01*
X75600500Y-76420943D01*
X75559577Y-76268216D01*
X75480520Y-76131284D01*
X75368716Y-76019480D01*
X75231784Y-75940423D01*
X75079057Y-75899500D01*
X74920943Y-75899500D01*
X74768216Y-75940423D01*
X74768214Y-75940423D01*
X74768214Y-75940424D01*
X74631283Y-76019480D01*
X74519480Y-76131283D01*
X74440424Y-76268214D01*
X74399500Y-76420941D01*
X53000000Y-76420941D01*
X53000000Y-75020941D01*
X72999500Y-75020941D01*
X72999500Y-75020943D01*
X72999500Y-75179057D01*
X73040423Y-75331784D01*
X73119480Y-75468716D01*
X73231284Y-75580520D01*
X73368216Y-75659577D01*
X73520943Y-75700500D01*
X73679057Y-75700500D01*
X73831784Y-75659577D01*
X73968716Y-75580520D01*
X74080520Y-75468716D01*
X74159577Y-75331784D01*
X74200500Y-75179057D01*
X74200500Y-75020943D01*
X74159577Y-74868216D01*
X74080520Y-74731284D01*
X73968716Y-74619480D01*
X73831784Y-74540423D01*
X73679057Y-74499500D01*
X73520943Y-74499500D01*
X73368216Y-74540423D01*
X73368214Y-74540423D01*
X73368214Y-74540424D01*
X73231283Y-74619480D01*
X73119480Y-74731283D01*
X73040424Y-74868214D01*
X72999500Y-75020941D01*
X53000000Y-75020941D01*
X53000000Y-70917128D01*
X54899500Y-70917128D01*
X54899500Y-73082860D01*
X54899501Y-73082873D01*
X54914651Y-73256049D01*
X54974680Y-73480079D01*
X55072696Y-73690276D01*
X55072703Y-73690289D01*
X55205728Y-73880267D01*
X55369732Y-74044271D01*
X55559710Y-74177296D01*
X55559713Y-74177298D01*
X55559718Y-74177301D01*
X55769921Y-74275320D01*
X55993950Y-74335349D01*
X56167129Y-74350500D01*
X58332870Y-74350499D01*
X58506050Y-74335349D01*
X58730079Y-74275320D01*
X58940282Y-74177301D01*
X59130269Y-74044270D01*
X59253598Y-73920941D01*
X66699500Y-73920941D01*
X66699500Y-73920943D01*
X66699500Y-74079057D01*
X66740423Y-74231784D01*
X66819480Y-74368716D01*
X66931284Y-74480520D01*
X67068216Y-74559577D01*
X67220943Y-74600500D01*
X67379057Y-74600500D01*
X67531784Y-74559577D01*
X67668716Y-74480520D01*
X67780520Y-74368716D01*
X67859577Y-74231784D01*
X67900500Y-74079057D01*
X67900500Y-73920943D01*
X67900499Y-73920941D01*
X74399500Y-73920941D01*
X74399500Y-73920943D01*
X74399500Y-74079057D01*
X74440423Y-74231784D01*
X74519480Y-74368716D01*
X74631284Y-74480520D01*
X74768216Y-74559577D01*
X74920943Y-74600500D01*
X75079057Y-74600500D01*
X75231784Y-74559577D01*
X75368716Y-74480520D01*
X75480520Y-74368716D01*
X75559577Y-74231784D01*
X75600500Y-74079057D01*
X75600500Y-73920943D01*
X75600499Y-73920941D01*
X77199500Y-73920941D01*
X77199500Y-73920943D01*
X77199500Y-74079057D01*
X77240423Y-74231784D01*
X77319480Y-74368716D01*
X77431284Y-74480520D01*
X77568216Y-74559577D01*
X77720943Y-74600500D01*
X77879057Y-74600500D01*
X78031784Y-74559577D01*
X78168716Y-74480520D01*
X78280520Y-74368716D01*
X78359577Y-74231784D01*
X78400500Y-74079057D01*
X78400500Y-73920943D01*
X78359577Y-73768216D01*
X78280520Y-73631284D01*
X78168716Y-73519480D01*
X78031784Y-73440423D01*
X77879057Y-73399500D01*
X77720943Y-73399500D01*
X77568216Y-73440423D01*
X77568214Y-73440423D01*
X77568214Y-73440424D01*
X77431283Y-73519480D01*
X77319480Y-73631283D01*
X77240424Y-73768214D01*
X77240423Y-73768216D01*
X77221431Y-73839095D01*
X77199500Y-73920941D01*
X75600499Y-73920941D01*
X75559577Y-73768216D01*
X75480520Y-73631284D01*
X75368716Y-73519480D01*
X75231784Y-73440423D01*
X75079057Y-73399500D01*
X74920943Y-73399500D01*
X74768216Y-73440423D01*
X74768214Y-73440423D01*
X74768214Y-73440424D01*
X74631283Y-73519480D01*
X74519480Y-73631283D01*
X74440424Y-73768214D01*
X74440423Y-73768216D01*
X74421431Y-73839095D01*
X74399500Y-73920941D01*
X67900499Y-73920941D01*
X67859577Y-73768216D01*
X67780520Y-73631284D01*
X67668716Y-73519480D01*
X67531784Y-73440423D01*
X67379057Y-73399500D01*
X67220943Y-73399500D01*
X67068216Y-73440423D01*
X67068214Y-73440423D01*
X67068214Y-73440424D01*
X66931283Y-73519480D01*
X66819480Y-73631283D01*
X66740424Y-73768214D01*
X66740423Y-73768216D01*
X66721431Y-73839095D01*
X66699500Y-73920941D01*
X59253598Y-73920941D01*
X59294270Y-73880269D01*
X59427301Y-73690282D01*
X59525320Y-73480079D01*
X59585349Y-73256050D01*
X59600500Y-73082871D01*
X59600500Y-72920941D01*
X75799500Y-72920941D01*
X75799500Y-73079058D01*
X75806002Y-73103323D01*
X75840423Y-73231784D01*
X75919480Y-73368716D01*
X76031284Y-73480520D01*
X76168216Y-73559577D01*
X76320943Y-73600500D01*
X76479057Y-73600500D01*
X76631784Y-73559577D01*
X76768716Y-73480520D01*
X76880520Y-73368716D01*
X76959577Y-73231784D01*
X77000500Y-73079057D01*
X77000500Y-72920943D01*
X76959577Y-72768216D01*
X76880520Y-72631284D01*
X76768716Y-72519480D01*
X76631784Y-72440423D01*
X76479057Y-72399500D01*
X76320943Y-72399500D01*
X76168216Y-72440423D01*
X76168214Y-72440423D01*
X76168214Y-72440424D01*
X76031283Y-72519480D01*
X75919480Y-72631283D01*
X75840424Y-72768214D01*
X75799500Y-72920941D01*
X59600500Y-72920941D01*
X59600499Y-71950297D01*
X59600499Y-70917139D01*
X59600499Y-70917130D01*
X59585349Y-70743950D01*
X59525320Y-70519921D01*
X59427301Y-70309718D01*
X59427298Y-70309713D01*
X59427296Y-70309710D01*
X59294271Y-70119732D01*
X59130267Y-69955728D01*
X58940289Y-69822703D01*
X58940276Y-69822696D01*
X58730079Y-69724680D01*
X58506049Y-69664650D01*
X58388984Y-69654409D01*
X58332871Y-69649500D01*
X58332866Y-69649500D01*
X56167139Y-69649500D01*
X56167126Y-69649501D01*
X55993950Y-69664651D01*
X55769920Y-69724680D01*
X55559723Y-69822696D01*
X55559710Y-69822703D01*
X55369732Y-69955728D01*
X55205728Y-70119732D01*
X55072703Y-70309710D01*
X55072696Y-70309723D01*
X54974680Y-70519920D01*
X54914650Y-70743950D01*
X54899500Y-70917128D01*
X53000000Y-70917128D01*
X53000000Y-69420941D01*
X74099500Y-69420941D01*
X74099500Y-69420943D01*
X74099500Y-69579057D01*
X74140423Y-69731784D01*
X74219480Y-69868716D01*
X74331284Y-69980520D01*
X74468216Y-70059577D01*
X74620943Y-70100500D01*
X74779057Y-70100500D01*
X74931784Y-70059577D01*
X75068716Y-69980520D01*
X75180520Y-69868716D01*
X75259577Y-69731784D01*
X75300500Y-69579057D01*
X75300500Y-69440689D01*
X75749500Y-69440689D01*
X75749500Y-69440691D01*
X75749500Y-69559309D01*
X75777726Y-69664651D01*
X75780202Y-69673889D01*
X75839506Y-69776606D01*
X75839509Y-69776610D01*
X75839511Y-69776613D01*
X75923387Y-69860489D01*
X75923389Y-69860490D01*
X75923393Y-69860493D01*
X76026110Y-69919797D01*
X76026111Y-69919797D01*
X76026114Y-69919799D01*
X76140691Y-69950500D01*
X76259309Y-69950500D01*
X76373886Y-69919799D01*
X76466805Y-69866151D01*
X76541299Y-69846190D01*
X76615800Y-69866151D01*
X76646661Y-69889831D01*
X76677335Y-69920505D01*
X76797164Y-69989688D01*
X76930817Y-70025500D01*
X77069183Y-70025500D01*
X77202836Y-69989688D01*
X77322665Y-69920505D01*
X77420505Y-69822665D01*
X77489688Y-69702836D01*
X77525500Y-69569183D01*
X77525500Y-69430817D01*
X77489688Y-69297164D01*
X77420505Y-69177335D01*
X77322665Y-69079495D01*
X77202836Y-69010312D01*
X77069183Y-68974500D01*
X76930817Y-68974500D01*
X76797164Y-69010312D01*
X76797162Y-69010312D01*
X76797162Y-69010313D01*
X76677334Y-69079495D01*
X76646662Y-69110168D01*
X76579867Y-69148732D01*
X76502739Y-69148732D01*
X76466802Y-69133846D01*
X76373889Y-69080202D01*
X76373886Y-69080201D01*
X76259309Y-69049500D01*
X76140691Y-69049500D01*
X76026110Y-69080202D01*
X75923393Y-69139506D01*
X75923389Y-69139509D01*
X75839509Y-69223389D01*
X75839506Y-69223393D01*
X75780202Y-69326110D01*
X75749500Y-69440689D01*
X75300500Y-69440689D01*
X75300500Y-69420943D01*
X75259577Y-69268216D01*
X75180520Y-69131284D01*
X75068716Y-69019480D01*
X74931784Y-68940423D01*
X74779057Y-68899500D01*
X74620943Y-68899500D01*
X74468216Y-68940423D01*
X74468214Y-68940423D01*
X74468214Y-68940424D01*
X74331283Y-69019480D01*
X74219480Y-69131283D01*
X74140424Y-69268214D01*
X74140423Y-69268216D01*
X74132471Y-69297894D01*
X74099500Y-69420941D01*
X53000000Y-69420941D01*
X53000000Y-67889778D01*
X62599500Y-67889778D01*
X62599500Y-68110222D01*
X62609584Y-68173889D01*
X62633985Y-68327956D01*
X62702105Y-68537606D01*
X62802185Y-68734023D01*
X62802186Y-68734024D01*
X62931758Y-68912365D01*
X63087635Y-69068242D01*
X63185729Y-69139511D01*
X63265975Y-69197813D01*
X63265976Y-69197814D01*
X63265978Y-69197815D01*
X63462394Y-69297895D01*
X63549232Y-69326110D01*
X63672043Y-69366014D01*
X63672048Y-69366014D01*
X63672049Y-69366015D01*
X63889778Y-69400500D01*
X63889782Y-69400500D01*
X64110218Y-69400500D01*
X64110222Y-69400500D01*
X64327951Y-69366015D01*
X64327952Y-69366014D01*
X64327956Y-69366014D01*
X64408556Y-69339825D01*
X64537606Y-69297895D01*
X64734022Y-69197815D01*
X64912365Y-69068242D01*
X65068242Y-68912365D01*
X65103393Y-68863984D01*
X65129456Y-68828111D01*
X65189395Y-68779572D01*
X65265574Y-68767506D01*
X65337579Y-68795146D01*
X65370544Y-68828111D01*
X65431752Y-68912358D01*
X65431757Y-68912364D01*
X65431758Y-68912365D01*
X65587635Y-69068242D01*
X65685729Y-69139511D01*
X65765975Y-69197813D01*
X65765976Y-69197814D01*
X65765978Y-69197815D01*
X65962394Y-69297895D01*
X66049232Y-69326110D01*
X66172043Y-69366014D01*
X66172048Y-69366014D01*
X66172049Y-69366015D01*
X66389778Y-69400500D01*
X66389782Y-69400500D01*
X66610218Y-69400500D01*
X66610222Y-69400500D01*
X66827951Y-69366015D01*
X66827952Y-69366014D01*
X66827956Y-69366014D01*
X66908556Y-69339825D01*
X67037606Y-69297895D01*
X67066068Y-69283392D01*
X67075834Y-69278417D01*
X67075835Y-69278416D01*
X67234022Y-69197815D01*
X67412365Y-69068242D01*
X67568242Y-68912365D01*
X67697815Y-68734022D01*
X67797895Y-68537606D01*
X67803310Y-68520941D01*
X72499500Y-68520941D01*
X72499500Y-68520943D01*
X72499500Y-68679057D01*
X72540423Y-68831784D01*
X72619480Y-68968716D01*
X72731284Y-69080520D01*
X72868216Y-69159577D01*
X73020943Y-69200500D01*
X73179057Y-69200500D01*
X73331784Y-69159577D01*
X73468716Y-69080520D01*
X73580520Y-68968716D01*
X73659577Y-68831784D01*
X73700500Y-68679057D01*
X73700500Y-68520943D01*
X73659577Y-68368216D01*
X73580520Y-68231284D01*
X73468716Y-68119480D01*
X73331784Y-68040423D01*
X73179057Y-67999500D01*
X73020943Y-67999500D01*
X72868216Y-68040423D01*
X72868214Y-68040423D01*
X72868214Y-68040424D01*
X72731283Y-68119480D01*
X72619480Y-68231283D01*
X72544882Y-68360493D01*
X72540423Y-68368216D01*
X72521431Y-68439095D01*
X72499500Y-68520941D01*
X67803310Y-68520941D01*
X67848409Y-68382138D01*
X67866014Y-68327956D01*
X67874146Y-68276613D01*
X67900500Y-68110222D01*
X67900500Y-67940689D01*
X71349500Y-67940689D01*
X71349500Y-68059310D01*
X71380202Y-68173889D01*
X71439506Y-68276606D01*
X71439509Y-68276610D01*
X71439511Y-68276613D01*
X71523387Y-68360489D01*
X71523389Y-68360490D01*
X71523393Y-68360493D01*
X71626110Y-68419797D01*
X71626111Y-68419797D01*
X71626114Y-68419799D01*
X71740691Y-68450500D01*
X71859309Y-68450500D01*
X71973886Y-68419799D01*
X71973888Y-68419798D01*
X72039115Y-68382139D01*
X72039116Y-68382138D01*
X72063230Y-68368216D01*
X72076613Y-68360489D01*
X72160489Y-68276613D01*
X72219799Y-68173886D01*
X72250500Y-68059309D01*
X72250500Y-67940691D01*
X72219799Y-67826114D01*
X72219797Y-67826110D01*
X72160493Y-67723393D01*
X72160490Y-67723389D01*
X72160489Y-67723387D01*
X72076613Y-67639511D01*
X72076610Y-67639509D01*
X72076606Y-67639506D01*
X71973889Y-67580202D01*
X71973886Y-67580201D01*
X71859309Y-67549500D01*
X71740691Y-67549500D01*
X71626110Y-67580202D01*
X71523393Y-67639506D01*
X71523389Y-67639509D01*
X71439509Y-67723389D01*
X71439506Y-67723393D01*
X71380202Y-67826110D01*
X71349500Y-67940689D01*
X67900500Y-67940689D01*
X67900500Y-67889778D01*
X67866015Y-67672049D01*
X67866014Y-67672048D01*
X67866014Y-67672043D01*
X67826197Y-67549500D01*
X67797895Y-67462394D01*
X67697815Y-67265978D01*
X67664720Y-67220427D01*
X67576322Y-67098756D01*
X67576321Y-67098755D01*
X67568245Y-67087639D01*
X67568240Y-67087633D01*
X67501547Y-67020940D01*
X76099500Y-67020940D01*
X76099500Y-67020942D01*
X76099500Y-67179056D01*
X76140423Y-67331783D01*
X76219480Y-67468715D01*
X76331284Y-67580519D01*
X76468216Y-67659576D01*
X76599805Y-67694835D01*
X76666599Y-67733399D01*
X76705163Y-67800193D01*
X76740423Y-67931784D01*
X76819480Y-68068716D01*
X76931284Y-68180520D01*
X77068216Y-68259577D01*
X77220943Y-68300500D01*
X77379057Y-68300500D01*
X77531784Y-68259577D01*
X77668716Y-68180520D01*
X77780520Y-68068716D01*
X77859577Y-67931784D01*
X77900500Y-67779057D01*
X77900500Y-67620943D01*
X77859577Y-67468216D01*
X77780520Y-67331284D01*
X77668716Y-67219480D01*
X77598699Y-67179056D01*
X77531785Y-67140423D01*
X77400194Y-67105163D01*
X77333399Y-67066598D01*
X77294836Y-66999804D01*
X77259577Y-66868215D01*
X77180520Y-66731283D01*
X77068716Y-66619479D01*
X76931784Y-66540422D01*
X76779057Y-66499499D01*
X76620943Y-66499499D01*
X76468216Y-66540422D01*
X76468214Y-66540422D01*
X76468214Y-66540423D01*
X76331283Y-66619479D01*
X76219480Y-66731282D01*
X76140424Y-66868213D01*
X76140423Y-66868215D01*
X76121431Y-66939094D01*
X76099500Y-67020940D01*
X67501547Y-67020940D01*
X67412366Y-66931759D01*
X67412365Y-66931758D01*
X67323193Y-66866971D01*
X67234024Y-66802186D01*
X67234023Y-66802185D01*
X67037606Y-66702105D01*
X66827956Y-66633985D01*
X66706990Y-66614826D01*
X66610222Y-66599500D01*
X66389778Y-66599500D01*
X66302686Y-66613294D01*
X66172043Y-66633985D01*
X65962393Y-66702105D01*
X65765976Y-66802185D01*
X65765975Y-66802186D01*
X65587636Y-66931757D01*
X65587633Y-66931759D01*
X65431759Y-67087633D01*
X65431757Y-67087636D01*
X65370544Y-67171889D01*
X65310604Y-67220427D01*
X65234425Y-67232493D01*
X65162420Y-67204853D01*
X65129456Y-67171889D01*
X65084697Y-67110284D01*
X65068242Y-67087635D01*
X64912365Y-66931758D01*
X64823193Y-66866971D01*
X64734024Y-66802186D01*
X64734023Y-66802185D01*
X64537606Y-66702105D01*
X64327956Y-66633985D01*
X64206990Y-66614826D01*
X64110222Y-66599500D01*
X63889778Y-66599500D01*
X63802686Y-66613294D01*
X63672043Y-66633985D01*
X63462393Y-66702105D01*
X63265976Y-66802185D01*
X63265975Y-66802186D01*
X63087636Y-66931757D01*
X63087633Y-66931759D01*
X62931759Y-67087633D01*
X62931757Y-67087636D01*
X62802186Y-67265975D01*
X62802185Y-67265976D01*
X62702105Y-67462393D01*
X62633985Y-67672043D01*
X62617036Y-67779058D01*
X62599500Y-67889778D01*
X53000000Y-67889778D01*
X53000000Y-64645934D01*
X54899500Y-64645934D01*
X54899500Y-64954065D01*
X54939715Y-65259529D01*
X54939717Y-65259542D01*
X55019466Y-65557168D01*
X55019467Y-65557172D01*
X55112960Y-65782879D01*
X55119179Y-65797895D01*
X55137380Y-65841834D01*
X55291439Y-66108672D01*
X55291440Y-66108674D01*
X55479009Y-66353117D01*
X55696882Y-66570990D01*
X55941325Y-66758559D01*
X55941328Y-66758560D01*
X55941330Y-66758562D01*
X56208170Y-66912622D01*
X56367761Y-66978727D01*
X56492827Y-67030532D01*
X56492831Y-67030533D01*
X56492836Y-67030535D01*
X56790456Y-67110282D01*
X56790462Y-67110282D01*
X56790470Y-67110284D01*
X56921046Y-67127474D01*
X57095940Y-67150500D01*
X57404060Y-67150500D01*
X57709544Y-67110282D01*
X58007164Y-67030535D01*
X58007170Y-67030532D01*
X58007172Y-67030532D01*
X58081355Y-66999804D01*
X58291830Y-66912622D01*
X58558670Y-66758562D01*
X58803117Y-66570991D01*
X59020991Y-66353117D01*
X59208562Y-66108670D01*
X59362622Y-65841830D01*
X59471467Y-65579057D01*
X59480532Y-65557172D01*
X59480533Y-65557168D01*
X59480535Y-65557164D01*
X59560282Y-65259544D01*
X59600500Y-64954060D01*
X59600500Y-64645940D01*
X59585405Y-64531283D01*
X59568566Y-64403372D01*
X59566776Y-64389778D01*
X62599500Y-64389778D01*
X62599500Y-64610222D01*
X62614826Y-64706990D01*
X62633985Y-64827956D01*
X62702105Y-65037606D01*
X62802185Y-65234023D01*
X62802186Y-65234024D01*
X62835279Y-65279572D01*
X62931758Y-65412365D01*
X63087635Y-65568242D01*
X63131615Y-65600195D01*
X63265975Y-65697813D01*
X63265976Y-65697814D01*
X63265978Y-65697815D01*
X63462394Y-65797895D01*
X63549512Y-65826201D01*
X63672043Y-65866014D01*
X63672048Y-65866014D01*
X63672049Y-65866015D01*
X63889778Y-65900500D01*
X63889782Y-65900500D01*
X64110218Y-65900500D01*
X64110222Y-65900500D01*
X64327951Y-65866015D01*
X64327952Y-65866014D01*
X64327956Y-65866014D01*
X64408556Y-65839825D01*
X64537606Y-65797895D01*
X64734022Y-65697815D01*
X64912365Y-65568242D01*
X65068242Y-65412365D01*
X65129456Y-65328111D01*
X65189395Y-65279572D01*
X65265574Y-65267506D01*
X65337579Y-65295146D01*
X65370544Y-65328111D01*
X65431752Y-65412358D01*
X65431757Y-65412364D01*
X65431758Y-65412365D01*
X65587635Y-65568242D01*
X65631615Y-65600195D01*
X65765975Y-65697813D01*
X65765976Y-65697814D01*
X65765978Y-65697815D01*
X65962394Y-65797895D01*
X66049512Y-65826201D01*
X66172043Y-65866014D01*
X66172048Y-65866014D01*
X66172049Y-65866015D01*
X66389778Y-65900500D01*
X66389782Y-65900500D01*
X66610218Y-65900500D01*
X66610222Y-65900500D01*
X66827951Y-65866015D01*
X66827952Y-65866014D01*
X66827956Y-65866014D01*
X66908556Y-65839825D01*
X67037606Y-65797895D01*
X67234022Y-65697815D01*
X67412365Y-65568242D01*
X67568242Y-65412365D01*
X67697815Y-65234022D01*
X67797895Y-65037606D01*
X67842768Y-64899500D01*
X67866014Y-64827956D01*
X67867125Y-64820943D01*
X67898802Y-64620941D01*
X71799500Y-64620941D01*
X71799500Y-64620943D01*
X71799500Y-64779057D01*
X71840423Y-64931784D01*
X71919480Y-65068716D01*
X72031284Y-65180520D01*
X72168216Y-65259577D01*
X72320943Y-65300500D01*
X72479057Y-65300500D01*
X72631784Y-65259577D01*
X72768716Y-65180520D01*
X72880520Y-65068716D01*
X72959577Y-64931784D01*
X73000500Y-64779057D01*
X73000500Y-64620943D01*
X72959577Y-64468216D01*
X72880520Y-64331284D01*
X72768716Y-64219480D01*
X72631784Y-64140423D01*
X72479057Y-64099500D01*
X72320943Y-64099500D01*
X72168216Y-64140423D01*
X72168214Y-64140423D01*
X72168214Y-64140424D01*
X72031283Y-64219480D01*
X71919480Y-64331283D01*
X71840424Y-64468214D01*
X71799500Y-64620941D01*
X67898802Y-64620941D01*
X67900500Y-64610222D01*
X67900500Y-64389778D01*
X67866015Y-64172049D01*
X67866014Y-64172048D01*
X67866014Y-64172043D01*
X67810276Y-64000500D01*
X67797895Y-63962394D01*
X67697815Y-63765978D01*
X67568242Y-63587635D01*
X67412365Y-63431758D01*
X67412364Y-63431757D01*
X67412361Y-63431754D01*
X67412313Y-63431720D01*
X67259838Y-63320941D01*
X77899500Y-63320941D01*
X77899500Y-63479058D01*
X77910465Y-63519981D01*
X77940423Y-63631784D01*
X78019480Y-63768716D01*
X78131284Y-63880520D01*
X78268216Y-63959577D01*
X78420943Y-64000500D01*
X78579057Y-64000500D01*
X78731784Y-63959577D01*
X78868716Y-63880520D01*
X78980520Y-63768716D01*
X79059577Y-63631784D01*
X79100500Y-63479057D01*
X79100500Y-63320943D01*
X79059577Y-63168216D01*
X78980520Y-63031284D01*
X78868716Y-62919480D01*
X78731784Y-62840423D01*
X78579057Y-62799500D01*
X78420943Y-62799500D01*
X78268216Y-62840423D01*
X78268214Y-62840423D01*
X78268214Y-62840424D01*
X78131283Y-62919480D01*
X78019480Y-63031283D01*
X77960186Y-63133985D01*
X77940423Y-63168216D01*
X77921431Y-63239095D01*
X77899500Y-63320941D01*
X67259838Y-63320941D01*
X67234024Y-63302186D01*
X67234023Y-63302185D01*
X67037606Y-63202105D01*
X66827956Y-63133985D01*
X66706990Y-63114826D01*
X66610222Y-63099500D01*
X66389778Y-63099500D01*
X66302686Y-63113294D01*
X66172043Y-63133985D01*
X65962393Y-63202105D01*
X65765976Y-63302185D01*
X65765975Y-63302186D01*
X65587636Y-63431757D01*
X65587633Y-63431759D01*
X65431759Y-63587633D01*
X65431757Y-63587636D01*
X65370544Y-63671889D01*
X65310604Y-63720427D01*
X65234425Y-63732493D01*
X65162420Y-63704853D01*
X65129456Y-63671889D01*
X65113713Y-63650221D01*
X65068242Y-63587635D01*
X64912365Y-63431758D01*
X64823193Y-63366971D01*
X64734024Y-63302186D01*
X64734023Y-63302185D01*
X64537606Y-63202105D01*
X64327956Y-63133985D01*
X64206990Y-63114826D01*
X64110222Y-63099500D01*
X63889778Y-63099500D01*
X63802686Y-63113294D01*
X63672043Y-63133985D01*
X63462393Y-63202105D01*
X63265976Y-63302185D01*
X63265975Y-63302186D01*
X63087636Y-63431757D01*
X63087633Y-63431759D01*
X62931759Y-63587633D01*
X62931757Y-63587636D01*
X62802186Y-63765975D01*
X62802185Y-63765976D01*
X62702105Y-63962393D01*
X62633985Y-64172043D01*
X62613799Y-64299500D01*
X62599500Y-64389778D01*
X59566776Y-64389778D01*
X59560284Y-64340468D01*
X59560282Y-64340457D01*
X59532615Y-64237201D01*
X59480535Y-64042836D01*
X59480533Y-64042831D01*
X59480532Y-64042827D01*
X59408279Y-63868395D01*
X59362622Y-63758170D01*
X59208562Y-63491330D01*
X59208560Y-63491327D01*
X59208559Y-63491325D01*
X59020990Y-63246882D01*
X58803117Y-63029009D01*
X58558674Y-62841440D01*
X58558672Y-62841439D01*
X58291834Y-62687380D01*
X58291832Y-62687379D01*
X58291830Y-62687378D01*
X58232879Y-62662960D01*
X58007172Y-62569467D01*
X58007168Y-62569466D01*
X57709542Y-62489717D01*
X57709529Y-62489715D01*
X57404065Y-62449500D01*
X57404060Y-62449500D01*
X57095940Y-62449500D01*
X57095934Y-62449500D01*
X56790470Y-62489715D01*
X56790457Y-62489717D01*
X56492831Y-62569466D01*
X56492827Y-62569467D01*
X56208165Y-62687380D01*
X55941327Y-62841439D01*
X55941325Y-62841440D01*
X55696882Y-63029009D01*
X55479009Y-63246882D01*
X55291440Y-63491325D01*
X55291439Y-63491327D01*
X55137380Y-63758165D01*
X55019467Y-64042827D01*
X55019466Y-64042831D01*
X54939717Y-64340457D01*
X54939715Y-64340470D01*
X54899500Y-64645934D01*
X53000000Y-64645934D01*
X53000000Y-61497648D01*
X63949500Y-61497648D01*
X63949500Y-61702352D01*
X63968052Y-61819480D01*
X63981523Y-61904534D01*
X64044778Y-62099212D01*
X64044782Y-62099224D01*
X64137714Y-62281612D01*
X64258028Y-62447212D01*
X64258035Y-62447220D01*
X64402779Y-62591964D01*
X64402787Y-62591971D01*
X64508419Y-62668716D01*
X64568390Y-62712287D01*
X64750781Y-62805220D01*
X64945466Y-62868477D01*
X65147648Y-62900500D01*
X65147653Y-62900500D01*
X65352347Y-62900500D01*
X65352352Y-62900500D01*
X65554534Y-62868477D01*
X65749219Y-62805220D01*
X65931610Y-62712287D01*
X66097219Y-62591966D01*
X66241966Y-62447219D01*
X66362287Y-62281610D01*
X66393199Y-62220941D01*
X72899500Y-62220941D01*
X72899500Y-62220943D01*
X72899500Y-62379057D01*
X72940423Y-62531784D01*
X73019480Y-62668716D01*
X73131284Y-62780520D01*
X73268216Y-62859577D01*
X73420943Y-62900500D01*
X73579057Y-62900500D01*
X73731784Y-62859577D01*
X73868716Y-62780520D01*
X73980520Y-62668716D01*
X74059577Y-62531784D01*
X74100500Y-62379057D01*
X74100500Y-62220943D01*
X74059577Y-62068216D01*
X73980520Y-61931284D01*
X73868716Y-61819480D01*
X73731784Y-61740423D01*
X73579057Y-61699500D01*
X73420943Y-61699500D01*
X73268216Y-61740423D01*
X73268214Y-61740423D01*
X73268214Y-61740424D01*
X73131283Y-61819480D01*
X73019480Y-61931283D01*
X72940424Y-62068214D01*
X72940423Y-62068216D01*
X72931773Y-62100500D01*
X72899500Y-62220941D01*
X66393199Y-62220941D01*
X66455220Y-62099219D01*
X66518477Y-61904534D01*
X66550500Y-61702352D01*
X66550500Y-61497648D01*
X66518477Y-61295466D01*
X66455220Y-61100781D01*
X66362287Y-60918390D01*
X66280645Y-60806018D01*
X66241971Y-60752787D01*
X66241964Y-60752779D01*
X66097220Y-60608035D01*
X66097212Y-60608028D01*
X65931612Y-60487714D01*
X65749224Y-60394782D01*
X65749220Y-60394780D01*
X65749219Y-60394780D01*
X65554534Y-60331523D01*
X65352352Y-60299500D01*
X65147648Y-60299500D01*
X64983493Y-60325500D01*
X64945465Y-60331523D01*
X64750787Y-60394778D01*
X64750775Y-60394782D01*
X64568387Y-60487714D01*
X64402787Y-60608028D01*
X64402779Y-60608035D01*
X64258035Y-60752779D01*
X64258028Y-60752787D01*
X64137714Y-60918387D01*
X64044782Y-61100775D01*
X64044780Y-61100781D01*
X63981523Y-61295466D01*
X63949500Y-61497648D01*
X53000000Y-61497648D01*
X53000000Y-58149000D01*
X53019962Y-58074500D01*
X53074500Y-58019962D01*
X53149000Y-58000000D01*
X62549790Y-58000000D01*
X62624290Y-58019962D01*
G37*
%TD.AperFunction*%
%TD*%
D29*
X90000000Y-56400000D03*
X65500000Y-87000000D03*
X90000000Y-73300000D03*
D30*
X57000000Y-93000000D03*
D29*
X82600000Y-61600000D03*
D30*
X55390000Y-90250000D03*
D29*
X90000000Y-66000000D03*
X83700000Y-62700000D03*
X91600000Y-96500000D03*
X92300000Y-88600000D03*
X82400000Y-83400000D03*
X95600000Y-55000000D03*
X93200000Y-55000000D03*
X90000000Y-61000000D03*
X87400000Y-83900000D03*
X60500000Y-92100000D03*
X75600000Y-86300000D03*
X90000000Y-86500000D03*
X95600000Y-87000000D03*
D31*
X92500000Y-94300000D03*
D29*
X72800000Y-87400000D03*
D31*
X81400000Y-61600000D03*
D30*
X81427550Y-60879591D03*
D31*
X66099999Y-96500000D03*
X72900000Y-89000000D03*
D29*
X114700000Y-101000000D03*
X116400000Y-86000000D03*
X93500000Y-105100000D03*
X114500000Y-84100000D03*
X80700000Y-102900000D03*
X113000000Y-92000000D03*
X116500000Y-88300000D03*
X111800000Y-102100000D03*
X116500000Y-91800000D03*
X91700000Y-103300000D03*
X114900000Y-97600000D03*
X79000000Y-100800000D03*
X116500000Y-94000000D03*
D31*
X83400000Y-57200000D03*
X73000000Y-85800000D03*
D29*
X106800000Y-100300000D03*
X74700000Y-69500000D03*
D31*
X137710000Y-74160000D03*
D29*
X87400000Y-98900000D03*
D31*
X84900000Y-89100000D03*
D29*
X113000000Y-71000000D03*
D31*
X84300000Y-89900000D03*
D29*
X86800000Y-58000000D03*
X102200000Y-99500000D03*
X120984900Y-94584900D03*
X123200000Y-101700000D03*
X70850000Y-77150000D03*
D31*
X62800000Y-98000000D03*
D29*
X72100000Y-83900000D03*
X77600000Y-79900000D03*
X121750000Y-56650000D03*
X93700000Y-72900000D03*
X78500000Y-63400000D03*
X131199999Y-64900000D03*
X80900000Y-113000000D03*
D32*
X94560000Y-94030000D03*
D29*
X82150000Y-81600000D03*
X117500000Y-59300000D03*
X128000000Y-61100000D03*
D31*
X121750000Y-96750000D03*
D29*
X88300000Y-113300000D03*
X79800000Y-99400000D03*
X73100000Y-68600000D03*
D31*
X80700000Y-82400000D03*
D29*
X128800000Y-95500000D03*
X128199999Y-56680000D03*
D31*
X94587000Y-94900000D03*
X79200000Y-96000000D03*
D33*
X127123000Y-61421000D03*
D29*
X57200000Y-99200000D03*
D31*
X59100000Y-104800000D03*
D29*
X129500000Y-77200000D03*
X54400000Y-96200000D03*
D31*
X86500000Y-73700000D03*
D30*
X52700000Y-87500000D03*
D31*
X80100000Y-95100000D03*
D29*
X86400000Y-113800000D03*
X88400000Y-97500000D03*
X88900000Y-80300000D03*
X90900000Y-93200000D03*
D31*
X55200000Y-91300000D03*
D29*
X54700000Y-91800000D03*
X121400000Y-100500000D03*
X75700000Y-81100000D03*
X82300000Y-63400000D03*
X66599999Y-84500000D03*
D30*
X80650000Y-58750000D03*
D29*
X73500000Y-62300000D03*
X84100000Y-86700000D03*
X58000000Y-100600000D03*
D32*
X94560000Y-62030000D03*
D29*
X75000000Y-76500000D03*
D31*
X77398000Y-102100000D03*
D29*
X111200000Y-72400000D03*
X127500000Y-87500000D03*
X72400000Y-64700000D03*
X120700000Y-92200000D03*
X55800000Y-96200000D03*
X70800000Y-92800000D03*
X131500000Y-91500000D03*
D30*
X80650000Y-57750000D03*
D29*
X93700000Y-64400000D03*
D31*
X58800000Y-100400000D03*
D29*
X73600000Y-75100000D03*
D31*
X81000000Y-96200000D03*
D29*
X64700000Y-88500000D03*
X107000000Y-103700000D03*
D30*
X71800000Y-68000000D03*
D29*
X128100000Y-78600000D03*
X85000000Y-86700000D03*
D30*
X80650000Y-91750000D03*
D29*
X123500000Y-97700000D03*
D31*
X77000000Y-69500000D03*
D29*
X72000000Y-103600000D03*
X72500000Y-92400000D03*
X79800000Y-91400000D03*
X85400000Y-58000000D03*
X117500000Y-61600000D03*
D31*
X83600000Y-80500000D03*
D30*
X80650000Y-90750000D03*
D29*
X71500000Y-109200000D03*
D31*
X59800000Y-105500000D03*
X131735999Y-64551000D03*
D29*
X67400000Y-91100000D03*
X82000000Y-67500000D03*
D31*
X94587000Y-62800000D03*
D29*
X135700000Y-62000000D03*
D30*
X76200000Y-69500000D03*
D29*
X133400000Y-91900000D03*
X91200000Y-59200000D03*
X127100000Y-96000000D03*
X91100000Y-62800000D03*
D30*
X80650000Y-92750000D03*
D31*
X79000000Y-94000000D03*
D30*
X80650000Y-92250000D03*
D31*
X78600000Y-98400000D03*
X80400000Y-97500000D03*
X80400000Y-96200000D03*
X79600000Y-92400000D03*
D29*
X118400000Y-99400000D03*
X126700000Y-83400000D03*
X123900000Y-99500000D03*
X106500000Y-98000000D03*
X71600000Y-78700000D03*
X132600000Y-59900000D03*
D33*
X99000000Y-101000000D03*
D29*
X126700000Y-98700000D03*
X119800000Y-98000000D03*
X122200000Y-94900000D03*
X129900000Y-79900000D03*
X134100000Y-94500000D03*
X87900000Y-106000000D03*
X133100000Y-63000000D03*
X129699999Y-87300000D03*
X77400000Y-85500000D03*
X87500000Y-104800000D03*
X117900000Y-80400000D03*
X131400000Y-94500000D03*
X69800000Y-77700000D03*
X126600000Y-80400000D03*
D30*
X80650000Y-59250000D03*
D31*
X83000000Y-67200000D03*
X79500000Y-59300000D03*
X82500000Y-66300000D03*
X59500000Y-83000000D03*
X58400000Y-81900000D03*
X54100000Y-87700000D03*
X55200000Y-85100000D03*
D29*
X76500000Y-64700000D03*
X53900000Y-86100000D03*
X52300000Y-89500000D03*
D31*
X60587000Y-81700000D03*
D29*
X60400000Y-81000000D03*
X51612361Y-87318148D03*
X74300000Y-66900000D03*
D31*
X58486000Y-92483000D03*
D30*
X52610000Y-90250000D03*
D31*
X59900000Y-95800000D03*
D30*
X52450000Y-90750000D03*
D29*
X55800000Y-93800000D03*
D31*
X60900000Y-95800000D03*
X64500000Y-97800000D03*
X59300000Y-93600000D03*
X63600000Y-96900000D03*
X61500000Y-94200000D03*
D29*
X62400000Y-90700000D03*
X61900000Y-98500000D03*
X63100000Y-95100000D03*
D30*
X55130000Y-89730000D03*
D29*
X57800000Y-88000000D03*
X56200000Y-88400000D03*
X62400000Y-87100000D03*
X58400000Y-88600000D03*
D30*
X55440000Y-89200000D03*
D31*
X83500000Y-64900000D03*
X82500000Y-64700000D03*
D30*
X80650000Y-59750000D03*
D31*
X79800000Y-59800000D03*
D29*
X67300000Y-74000000D03*
X62000000Y-105500000D03*
X123600000Y-59900000D03*
X58200000Y-106600000D03*
X78100000Y-70900000D03*
X123600000Y-62400000D03*
X78900000Y-65500000D03*
X79300000Y-71700000D03*
X79600000Y-72500000D03*
X123600000Y-63100000D03*
X79500000Y-64900000D03*
X75000000Y-74000000D03*
D31*
X75200000Y-100000000D03*
D30*
X81150000Y-94050000D03*
D31*
X77000000Y-101500000D03*
X76600000Y-103700000D03*
D29*
X95500000Y-99500000D03*
X123900000Y-101000000D03*
X135600000Y-103100000D03*
X125300000Y-101000000D03*
X104500000Y-97200000D03*
X129000000Y-102300000D03*
X131150000Y-102100000D03*
X132699999Y-106000000D03*
X94400000Y-104300000D03*
D31*
X131000000Y-104200000D03*
D29*
X131300000Y-103200000D03*
X134100000Y-103200000D03*
D31*
X92500000Y-95500000D03*
X84000000Y-90700000D03*
X97600000Y-93000000D03*
X85300000Y-93000000D03*
X98600000Y-93000000D03*
X84600000Y-93700000D03*
X61200000Y-105500000D03*
X60500000Y-106200000D03*
X65000000Y-100400000D03*
X59900000Y-100100000D03*
D29*
X69200000Y-105100000D03*
X67800000Y-105400000D03*
D31*
X71900000Y-82400000D03*
X77900000Y-112800000D03*
X71700000Y-80500000D03*
X79000000Y-111300000D03*
X63700000Y-106300000D03*
X70600000Y-82900000D03*
X64400000Y-105600000D03*
X68400000Y-108000000D03*
X70400000Y-96900000D03*
X73500000Y-100000000D03*
X65000000Y-109500000D03*
X84900000Y-90500000D03*
X85600000Y-89800000D03*
D29*
X126200000Y-57700000D03*
D30*
X126250000Y-56680000D03*
D29*
X93600000Y-86200000D03*
X75500000Y-93900000D03*
X77400000Y-86400000D03*
X78800000Y-86400000D03*
X77000000Y-89900000D03*
X95000000Y-84800000D03*
X77300000Y-67700000D03*
X84700000Y-73200000D03*
X76700000Y-67099999D03*
D31*
X80400000Y-110500000D03*
X97700000Y-100000000D03*
X75900000Y-79100000D03*
X95600000Y-102100000D03*
X71000000Y-89500000D03*
X80400000Y-112300000D03*
X77800000Y-81400000D03*
X72300000Y-89500000D03*
X71000000Y-95600000D03*
X76600000Y-95800000D03*
X86800000Y-61400000D03*
X96000000Y-60400000D03*
X96000000Y-59400000D03*
X86100000Y-62100000D03*
X109200000Y-94900000D03*
X108200000Y-93900000D03*
D30*
X123250000Y-56680000D03*
D29*
X123200000Y-57800000D03*
D31*
X65300000Y-89100000D03*
X66200000Y-87300000D03*
X59900000Y-102900000D03*
X64400000Y-104400000D03*
X78400000Y-111400000D03*
X76400000Y-111400000D03*
X63600000Y-108400000D03*
X63600000Y-101900000D03*
X65400000Y-106600000D03*
X65000000Y-101900000D03*
D30*
X81427550Y-90120408D03*
D31*
X77400000Y-103200000D03*
X75900000Y-98700000D03*
X78400000Y-102200000D03*
X75800000Y-99800000D03*
X76100000Y-103200000D03*
D29*
X131300000Y-86200000D03*
X130300000Y-85200000D03*
X80000000Y-69600000D03*
X80000000Y-71000000D03*
X80300000Y-78900000D03*
X80300000Y-81100000D03*
X79700000Y-81700000D03*
X82000000Y-80500000D03*
D31*
X140000000Y-74160000D03*
X134500000Y-56200000D03*
X79600000Y-87600000D03*
X81800000Y-93800000D03*
X80500000Y-86700000D03*
X83400000Y-98700000D03*
D29*
X135400000Y-87300000D03*
X132699999Y-90000000D03*
X132699999Y-91500000D03*
D31*
X84000000Y-57700000D03*
X84700000Y-58400000D03*
D29*
X96400000Y-84800000D03*
X113400000Y-90100000D03*
X94800000Y-84000000D03*
X82300000Y-84800000D03*
X112000000Y-88700000D03*
X82300000Y-86700000D03*
X82000000Y-96000000D03*
X81900000Y-98500000D03*
X81300000Y-86700000D03*
X76400000Y-73000000D03*
X77800000Y-74000000D03*
D30*
X81427550Y-57120408D03*
D29*
X74800000Y-104000000D03*
X81300000Y-84800000D03*
X77200000Y-94500000D03*
X78500000Y-59500000D03*
D30*
X80650000Y-60750000D03*
D31*
X85400000Y-59000000D03*
X85100000Y-61300000D03*
D34*
X99000000Y-113000000D03*
X104000000Y-113000000D03*
X55000000Y-55000000D03*
X51500000Y-79225000D03*
X51500000Y-81765000D03*
X138000000Y-70000000D03*
X140540000Y-70000000D03*
X143080000Y-70000000D03*
X145620000Y-70000000D03*
X113000000Y-104000000D03*
X113000000Y-106540000D03*
X113000000Y-109080000D03*
X113000000Y-111620000D03*
X86000000Y-101000000D03*
X88540000Y-101000000D03*
X91080000Y-101000000D03*
X93620000Y-101000000D03*
X55000000Y-110000000D03*
X139100000Y-102700000D03*
X139100000Y-107300000D03*
D35*
X139100000Y-99300000D03*
X139100000Y-110700000D03*
D36*
X51250000Y-75150000D03*
X51250000Y-61650000D03*
D34*
X57250000Y-72000000D03*
X57250000Y-64800000D03*
X65250000Y-61600000D03*
X64000000Y-68000000D03*
X66500000Y-68000000D03*
X64000000Y-64500000D03*
X66500000Y-64500000D03*
X64000000Y-58700000D03*
X66500000Y-58700000D03*
X64000000Y-55200000D03*
X66500000Y-55200000D03*
X146500000Y-74750000D03*
X127890000Y-55605000D03*
X122110000Y-55605000D03*
D37*
X129320000Y-56105000D03*
D38*
X129320000Y-51925000D03*
D37*
X120680000Y-56105000D03*
D38*
X120680000Y-51925000D03*
D34*
X139100000Y-82700000D03*
X139100000Y-87300000D03*
D35*
X139100000Y-79300000D03*
X139100000Y-90700000D03*
D34*
X131500000Y-110000000D03*
X139100000Y-55700000D03*
X139100000Y-60300000D03*
D35*
X139100000Y-52300000D03*
X139100000Y-63700000D03*
M02*
