M48
; DRILL file {KiCad 7.0.11+dfsg-1build4} date Tue Jul 14 08:55:21 2026
; FORMAT={-:-/ absolute / metric / decimal}
; #@! TF.CreationDate,2026-07-14T08:55:21-07:00
; #@! TF.GenerationSoftware,Kicad,Pcbnew,7.0.11+dfsg-1build4
; #@! TF.FileFunction,Plated,1,4,PTH
FMAT,2
METRIC
; #@! TA.AperFunction,Plated,PTH,ViaDrill
T1C0.150
; #@! TA.AperFunction,Plated,PTH,ViaDrill
T2C0.200
; #@! TA.AperFunction,Plated,PTH,ViaDrill
T3C0.250
; #@! TA.AperFunction,Plated,PTH,ViaDrill
T4C0.290
; #@! TA.AperFunction,Plated,PTH,ViaDrill
T5C0.300
; #@! TA.AperFunction,Plated,PTH,ComponentDrill
T6C0.600
; #@! TA.AperFunction,Plated,PTH,ComponentDrill
T7C0.900
; #@! TA.AperFunction,Plated,PTH,ComponentDrill
T8C1.000
; #@! TA.AperFunction,Plated,PTH,ComponentDrill
T9C1.300
; #@! TA.AperFunction,Plated,PTH,ComponentDrill
T10C1.400
; #@! TA.AperFunction,Plated,PTH,ComponentDrill
T11C2.700
%
G90
G05
T1
X52.45Y-90.75
X52.61Y-90.25
X52.7Y-87.5
X55.13Y-89.73
X55.39Y-90.25
X55.44Y-89.2
X57.0Y-93.0
X71.8Y-68.0
X76.2Y-69.5
X80.65Y-57.75
X80.65Y-58.75
X80.65Y-59.25
X80.65Y-59.75
X80.65Y-60.75
X80.65Y-90.75
X80.65Y-91.75
X80.65Y-92.25
X80.65Y-92.75
X81.15Y-94.05
X81.428Y-57.12
X81.428Y-60.88
X81.428Y-90.12
X123.25Y-56.68
X126.25Y-56.68
T2
X54.1Y-87.7
X55.2Y-85.1
X55.2Y-91.3
X58.4Y-81.9
X58.486Y-92.483
X58.8Y-100.4
X59.1Y-104.8
X59.3Y-93.6
X59.5Y-83.0
X59.8Y-105.5
X59.9Y-95.8
X59.9Y-100.1
X59.9Y-102.9
X60.5Y-106.2
X60.587Y-81.7
X60.9Y-95.8
X61.2Y-105.5
X61.5Y-94.2
X62.8Y-98.0
X63.6Y-96.9
X63.6Y-101.9
X63.6Y-108.4
X63.7Y-106.3
X64.4Y-104.4
X64.4Y-105.6
X64.5Y-97.8
X65.0Y-100.4
X65.0Y-101.9
X65.0Y-109.5
X65.3Y-89.1
X65.4Y-106.6
X66.1Y-96.5
X66.2Y-87.3
X68.4Y-108.0
X70.4Y-96.9
X70.6Y-82.9
X71.0Y-89.5
X71.0Y-95.6
X71.7Y-80.5
X71.9Y-82.4
X72.3Y-89.5
X72.9Y-89.0
X73.0Y-85.8
X73.5Y-100.0
X75.2Y-100.0
X75.8Y-99.8
X75.9Y-79.1
X75.9Y-98.7
X76.1Y-103.2
X76.4Y-111.4
X76.6Y-95.8
X76.6Y-103.7
X77.0Y-69.5
X77.0Y-101.5
X77.398Y-102.1
X77.4Y-103.2
X77.8Y-81.4
X77.9Y-112.8
X78.4Y-102.2
X78.4Y-111.4
X78.6Y-98.4
X79.0Y-94.0
X79.0Y-111.3
X79.2Y-96.0
X79.5Y-59.3
X79.6Y-87.6
X79.6Y-92.4
X79.8Y-59.8
X80.1Y-95.1
X80.4Y-96.2
X80.4Y-97.5
X80.4Y-110.5
X80.4Y-112.3
X80.5Y-86.7
X80.7Y-82.4
X81.0Y-96.2
X81.4Y-61.6
X81.8Y-93.8
X82.5Y-64.7
X82.5Y-66.3
X83.0Y-67.2
X83.4Y-57.2
X83.4Y-98.7
X83.5Y-64.9
X83.6Y-80.5
X84.0Y-57.7
X84.0Y-90.7
X84.3Y-89.9
X84.6Y-93.7
X84.7Y-58.4
X84.9Y-89.1
X84.9Y-90.5
X85.1Y-61.3
X85.3Y-93.0
X85.4Y-59.0
X85.6Y-89.8
X86.1Y-62.1
X86.5Y-73.7
X86.8Y-61.4
X92.5Y-94.3
X92.5Y-95.5
X94.587Y-62.8
X94.587Y-94.9
X95.6Y-102.1
X96.0Y-59.4
X96.0Y-60.4
X97.6Y-93.0
X97.7Y-100.0
X98.6Y-93.0
X108.2Y-93.9
X109.2Y-94.9
X121.75Y-96.75
X131.0Y-104.2
X131.736Y-64.551
T3
X94.56Y-62.03
X94.56Y-94.03
T4
X99.0Y-101.0
X127.123Y-61.421
T5
X51.612Y-87.318
X52.3Y-89.5
X53.9Y-86.1
X54.4Y-96.2
X54.7Y-91.8
X55.8Y-93.8
X55.8Y-96.2
X56.2Y-88.4
X57.2Y-99.2
X57.8Y-88.0
X58.0Y-100.6
X58.2Y-106.6
X58.4Y-88.6
X60.4Y-81.0
X60.5Y-92.1
X61.9Y-98.5
X62.0Y-105.5
X62.4Y-87.1
X62.4Y-90.7
X63.1Y-95.1
X64.7Y-88.5
X65.5Y-87.0
X66.6Y-84.5
X67.3Y-74.0
X67.4Y-91.1
X67.8Y-105.4
X69.2Y-105.1
X69.8Y-77.7
X70.8Y-92.8
X70.85Y-77.15
X71.5Y-109.2
X71.6Y-78.7
X72.0Y-103.6
X72.1Y-83.9
X72.4Y-64.7
X72.5Y-92.4
X72.8Y-87.4
X73.1Y-68.6
X73.5Y-62.3
X73.6Y-75.1
X74.3Y-66.9
X74.7Y-69.5
X74.8Y-104.0
X75.0Y-74.0
X75.0Y-76.5
X75.5Y-93.9
X75.6Y-86.3
X75.7Y-81.1
X76.4Y-73.0
X76.5Y-64.7
X76.7Y-67.1
X77.0Y-89.9
X77.2Y-94.5
X77.3Y-67.7
X77.4Y-85.5
X77.4Y-86.4
X77.6Y-79.9
X77.8Y-74.0
X78.1Y-70.9
X78.5Y-59.5
X78.5Y-63.4
X78.8Y-86.4
X78.9Y-65.5
X79.0Y-100.8
X79.3Y-71.7
X79.5Y-64.9
X79.6Y-72.5
X79.7Y-81.7
X79.8Y-91.4
X79.8Y-99.4
X80.0Y-69.6
X80.0Y-71.0
X80.3Y-78.9
X80.3Y-81.1
X80.7Y-102.9
X80.9Y-113.0
X81.3Y-84.8
X81.3Y-86.7
X81.9Y-98.5
X82.0Y-67.5
X82.0Y-80.5
X82.0Y-96.0
X82.15Y-81.6
X82.3Y-63.4
X82.3Y-84.8
X82.3Y-86.7
X82.4Y-83.4
X82.6Y-61.6
X83.7Y-62.7
X84.1Y-86.7
X84.7Y-73.2
X85.0Y-86.7
X85.4Y-58.0
X86.4Y-113.8
X86.8Y-58.0
X87.4Y-83.9
X87.4Y-98.9
X87.5Y-104.8
X87.9Y-106.0
X88.3Y-113.3
X88.4Y-97.5
X88.9Y-80.3
X90.0Y-56.4
X90.0Y-61.0
X90.0Y-66.0
X90.0Y-73.3
X90.0Y-86.5
X90.9Y-93.2
X91.1Y-62.8
X91.2Y-59.2
X91.6Y-96.5
X91.7Y-103.3
X92.3Y-88.6
X93.2Y-55.0
X93.5Y-105.1
X93.6Y-86.2
X93.7Y-64.4
X93.7Y-72.9
X94.4Y-104.3
X94.8Y-84.0
X95.0Y-84.8
X95.5Y-99.5
X95.6Y-55.0
X95.6Y-87.0
X96.4Y-84.8
X102.2Y-99.5
X104.5Y-97.2
X106.5Y-98.0
X106.8Y-100.3
X107.0Y-103.7
X111.2Y-72.4
X111.8Y-102.1
X112.0Y-88.7
X113.0Y-71.0
X113.0Y-92.0
X113.4Y-90.1
X114.5Y-84.1
X114.7Y-101.0
X114.9Y-97.6
X116.4Y-86.0
X116.5Y-88.3
X116.5Y-91.8
X116.5Y-94.0
X117.5Y-59.3
X117.5Y-61.6
X117.9Y-80.4
X118.4Y-99.4
X119.8Y-98.0
X120.7Y-92.2
X120.985Y-94.585
X121.4Y-100.5
X121.75Y-56.65
X122.2Y-94.9
X123.2Y-57.8
X123.2Y-101.7
X123.5Y-97.7
X123.6Y-59.9
X123.6Y-62.4
X123.6Y-63.1
X123.9Y-99.5
X123.9Y-101.0
X125.3Y-101.0
X126.2Y-57.7
X126.6Y-80.4
X126.7Y-83.4
X126.7Y-98.7
X127.1Y-96.0
X127.5Y-87.5
X128.0Y-61.1
X128.1Y-78.6
X128.2Y-56.68
X128.8Y-95.5
X129.0Y-102.3
X129.5Y-77.2
X129.7Y-87.3
X129.9Y-79.9
X130.3Y-85.2
X131.15Y-102.1
X131.2Y-64.9
X131.3Y-86.2
X131.3Y-103.2
X131.4Y-94.5
X131.5Y-91.5
X132.6Y-59.9
X132.7Y-90.0
X132.7Y-91.5
X132.7Y-106.0
X133.1Y-63.0
X133.4Y-91.9
X134.1Y-94.5
X134.1Y-103.2
X135.4Y-87.3
X135.6Y-103.1
X135.7Y-62.0
T8
X51.5Y-79.225
X51.5Y-81.765
X86.0Y-101.0
X88.54Y-101.0
X91.08Y-101.0
X93.62Y-101.0
X113.0Y-104.0
X113.0Y-106.54
X113.0Y-109.08
X113.0Y-111.62
X138.0Y-70.0
X140.54Y-70.0
X143.08Y-70.0
X145.62Y-70.0
T9
X99.0Y-113.0
X104.0Y-113.0
T10
X64.0Y-55.2
X64.0Y-58.7
X64.0Y-64.5
X64.0Y-68.0
X66.5Y-55.2
X66.5Y-58.7
X66.5Y-64.5
X66.5Y-68.0
T11
X57.25Y-64.8
X57.25Y-72.0
T6
G00X50.7Y-61.65
M15
G01X51.8Y-61.65
M16
G05
G00X50.7Y-75.15
M15
G01X51.8Y-75.15
M16
G05
G00X120.68Y-52.325
M15
G01X120.68Y-51.525
M16
G05
G00X120.68Y-56.655
M15
G01X120.68Y-55.555
M16
G05
G00X129.32Y-52.325
M15
G01X129.32Y-51.525
M16
G05
G00X129.32Y-56.655
M15
G01X129.32Y-55.555
M16
G05
T7
G00X138.3Y-52.3
M15
G01X139.9Y-52.3
M16
G05
G00X138.3Y-63.7
M15
G01X139.9Y-63.7
M16
G05
G00X138.3Y-79.3
M15
G01X139.9Y-79.3
M16
G05
G00X138.3Y-90.7
M15
G01X139.9Y-90.7
M16
G05
G00X138.3Y-99.3
M15
G01X139.9Y-99.3
M16
G05
G00X138.3Y-110.7
M15
G01X139.9Y-110.7
M16
G05
M30
