%TF.GenerationSoftware,KiCad,Pcbnew,7.0.11+dfsg-1build4*%
%TF.CreationDate,2026-07-13T20:16:47-07:00*%
%TF.ProjectId,power_board_v1,706f7765-725f-4626-9f61-72645f76312e,rev?*%
%TF.SameCoordinates,Original*%
%TF.FileFunction,OtherDrawing,Comment*%
%FSLAX46Y46*%
G04 Gerber Fmt 4.6, Leading zero omitted, Abs format (unit mm)*
G04 Created by KiCad (PCBNEW 7.0.11+dfsg-1build4) date 2026-07-13 20:16:47*
%MOMM*%
%LPD*%
G01*
G04 APERTURE LIST*
%ADD10C,0.090000*%
%ADD11C,0.100000*%
G04 APERTURE END LIST*
D10*
X131722891Y-102007142D02*
X131122891Y-102007142D01*
X131122891Y-102007142D02*
X131122891Y-101778571D01*
X131122891Y-101778571D02*
X131151462Y-101721428D01*
X131151462Y-101721428D02*
X131180034Y-101692857D01*
X131180034Y-101692857D02*
X131237177Y-101664285D01*
X131237177Y-101664285D02*
X131322891Y-101664285D01*
X131322891Y-101664285D02*
X131380034Y-101692857D01*
X131380034Y-101692857D02*
X131408605Y-101721428D01*
X131408605Y-101721428D02*
X131437177Y-101778571D01*
X131437177Y-101778571D02*
X131437177Y-102007142D01*
X131665748Y-101064285D02*
X131694320Y-101092857D01*
X131694320Y-101092857D02*
X131722891Y-101178571D01*
X131722891Y-101178571D02*
X131722891Y-101235714D01*
X131722891Y-101235714D02*
X131694320Y-101321428D01*
X131694320Y-101321428D02*
X131637177Y-101378571D01*
X131637177Y-101378571D02*
X131580034Y-101407142D01*
X131580034Y-101407142D02*
X131465748Y-101435714D01*
X131465748Y-101435714D02*
X131380034Y-101435714D01*
X131380034Y-101435714D02*
X131265748Y-101407142D01*
X131265748Y-101407142D02*
X131208605Y-101378571D01*
X131208605Y-101378571D02*
X131151462Y-101321428D01*
X131151462Y-101321428D02*
X131122891Y-101235714D01*
X131122891Y-101235714D02*
X131122891Y-101178571D01*
X131122891Y-101178571D02*
X131151462Y-101092857D01*
X131151462Y-101092857D02*
X131180034Y-101064285D01*
X131408605Y-100607142D02*
X131437177Y-100521428D01*
X131437177Y-100521428D02*
X131465748Y-100492857D01*
X131465748Y-100492857D02*
X131522891Y-100464285D01*
X131522891Y-100464285D02*
X131608605Y-100464285D01*
X131608605Y-100464285D02*
X131665748Y-100492857D01*
X131665748Y-100492857D02*
X131694320Y-100521428D01*
X131694320Y-100521428D02*
X131722891Y-100578571D01*
X131722891Y-100578571D02*
X131722891Y-100807142D01*
X131722891Y-100807142D02*
X131122891Y-100807142D01*
X131122891Y-100807142D02*
X131122891Y-100607142D01*
X131122891Y-100607142D02*
X131151462Y-100550000D01*
X131151462Y-100550000D02*
X131180034Y-100521428D01*
X131180034Y-100521428D02*
X131237177Y-100492857D01*
X131237177Y-100492857D02*
X131294320Y-100492857D01*
X131294320Y-100492857D02*
X131351462Y-100521428D01*
X131351462Y-100521428D02*
X131380034Y-100550000D01*
X131380034Y-100550000D02*
X131408605Y-100607142D01*
X131408605Y-100607142D02*
X131408605Y-100807142D01*
X131408605Y-99749999D02*
X131408605Y-99549999D01*
X131722891Y-99464285D02*
X131722891Y-99749999D01*
X131722891Y-99749999D02*
X131122891Y-99749999D01*
X131122891Y-99749999D02*
X131122891Y-99464285D01*
X131722891Y-98950000D02*
X131122891Y-98950000D01*
X131694320Y-98950000D02*
X131722891Y-99007142D01*
X131722891Y-99007142D02*
X131722891Y-99121428D01*
X131722891Y-99121428D02*
X131694320Y-99178571D01*
X131694320Y-99178571D02*
X131665748Y-99207142D01*
X131665748Y-99207142D02*
X131608605Y-99235714D01*
X131608605Y-99235714D02*
X131437177Y-99235714D01*
X131437177Y-99235714D02*
X131380034Y-99207142D01*
X131380034Y-99207142D02*
X131351462Y-99178571D01*
X131351462Y-99178571D02*
X131322891Y-99121428D01*
X131322891Y-99121428D02*
X131322891Y-99007142D01*
X131322891Y-99007142D02*
X131351462Y-98950000D01*
X131322891Y-98407143D02*
X131808605Y-98407143D01*
X131808605Y-98407143D02*
X131865748Y-98435714D01*
X131865748Y-98435714D02*
X131894320Y-98464285D01*
X131894320Y-98464285D02*
X131922891Y-98521428D01*
X131922891Y-98521428D02*
X131922891Y-98607143D01*
X131922891Y-98607143D02*
X131894320Y-98664285D01*
X131694320Y-98407143D02*
X131722891Y-98464285D01*
X131722891Y-98464285D02*
X131722891Y-98578571D01*
X131722891Y-98578571D02*
X131694320Y-98635714D01*
X131694320Y-98635714D02*
X131665748Y-98664285D01*
X131665748Y-98664285D02*
X131608605Y-98692857D01*
X131608605Y-98692857D02*
X131437177Y-98692857D01*
X131437177Y-98692857D02*
X131380034Y-98664285D01*
X131380034Y-98664285D02*
X131351462Y-98635714D01*
X131351462Y-98635714D02*
X131322891Y-98578571D01*
X131322891Y-98578571D02*
X131322891Y-98464285D01*
X131322891Y-98464285D02*
X131351462Y-98407143D01*
X131694320Y-97892857D02*
X131722891Y-97950000D01*
X131722891Y-97950000D02*
X131722891Y-98064286D01*
X131722891Y-98064286D02*
X131694320Y-98121428D01*
X131694320Y-98121428D02*
X131637177Y-98150000D01*
X131637177Y-98150000D02*
X131408605Y-98150000D01*
X131408605Y-98150000D02*
X131351462Y-98121428D01*
X131351462Y-98121428D02*
X131322891Y-98064286D01*
X131322891Y-98064286D02*
X131322891Y-97950000D01*
X131322891Y-97950000D02*
X131351462Y-97892857D01*
X131351462Y-97892857D02*
X131408605Y-97864286D01*
X131408605Y-97864286D02*
X131465748Y-97864286D01*
X131465748Y-97864286D02*
X131522891Y-98150000D01*
D11*
X126714285Y-49673890D02*
X126714285Y-50173890D01*
X126714285Y-50173890D02*
X126523809Y-50173890D01*
X126523809Y-50173890D02*
X126476190Y-50150080D01*
X126476190Y-50150080D02*
X126452380Y-50126271D01*
X126452380Y-50126271D02*
X126428571Y-50078652D01*
X126428571Y-50078652D02*
X126428571Y-50007223D01*
X126428571Y-50007223D02*
X126452380Y-49959604D01*
X126452380Y-49959604D02*
X126476190Y-49935795D01*
X126476190Y-49935795D02*
X126523809Y-49911985D01*
X126523809Y-49911985D02*
X126714285Y-49911985D01*
X125928571Y-49721509D02*
X125952380Y-49697700D01*
X125952380Y-49697700D02*
X126023809Y-49673890D01*
X126023809Y-49673890D02*
X126071428Y-49673890D01*
X126071428Y-49673890D02*
X126142856Y-49697700D01*
X126142856Y-49697700D02*
X126190475Y-49745319D01*
X126190475Y-49745319D02*
X126214285Y-49792938D01*
X126214285Y-49792938D02*
X126238094Y-49888176D01*
X126238094Y-49888176D02*
X126238094Y-49959604D01*
X126238094Y-49959604D02*
X126214285Y-50054842D01*
X126214285Y-50054842D02*
X126190475Y-50102461D01*
X126190475Y-50102461D02*
X126142856Y-50150080D01*
X126142856Y-50150080D02*
X126071428Y-50173890D01*
X126071428Y-50173890D02*
X126023809Y-50173890D01*
X126023809Y-50173890D02*
X125952380Y-50150080D01*
X125952380Y-50150080D02*
X125928571Y-50126271D01*
X125547618Y-49935795D02*
X125476190Y-49911985D01*
X125476190Y-49911985D02*
X125452380Y-49888176D01*
X125452380Y-49888176D02*
X125428571Y-49840557D01*
X125428571Y-49840557D02*
X125428571Y-49769128D01*
X125428571Y-49769128D02*
X125452380Y-49721509D01*
X125452380Y-49721509D02*
X125476190Y-49697700D01*
X125476190Y-49697700D02*
X125523809Y-49673890D01*
X125523809Y-49673890D02*
X125714285Y-49673890D01*
X125714285Y-49673890D02*
X125714285Y-50173890D01*
X125714285Y-50173890D02*
X125547618Y-50173890D01*
X125547618Y-50173890D02*
X125499999Y-50150080D01*
X125499999Y-50150080D02*
X125476190Y-50126271D01*
X125476190Y-50126271D02*
X125452380Y-50078652D01*
X125452380Y-50078652D02*
X125452380Y-50031033D01*
X125452380Y-50031033D02*
X125476190Y-49983414D01*
X125476190Y-49983414D02*
X125499999Y-49959604D01*
X125499999Y-49959604D02*
X125547618Y-49935795D01*
X125547618Y-49935795D02*
X125714285Y-49935795D01*
X124833333Y-49935795D02*
X124666666Y-49935795D01*
X124595238Y-49673890D02*
X124833333Y-49673890D01*
X124833333Y-49673890D02*
X124833333Y-50173890D01*
X124833333Y-50173890D02*
X124595238Y-50173890D01*
X124166666Y-49673890D02*
X124166666Y-50173890D01*
X124166666Y-49697700D02*
X124214285Y-49673890D01*
X124214285Y-49673890D02*
X124309523Y-49673890D01*
X124309523Y-49673890D02*
X124357142Y-49697700D01*
X124357142Y-49697700D02*
X124380952Y-49721509D01*
X124380952Y-49721509D02*
X124404761Y-49769128D01*
X124404761Y-49769128D02*
X124404761Y-49911985D01*
X124404761Y-49911985D02*
X124380952Y-49959604D01*
X124380952Y-49959604D02*
X124357142Y-49983414D01*
X124357142Y-49983414D02*
X124309523Y-50007223D01*
X124309523Y-50007223D02*
X124214285Y-50007223D01*
X124214285Y-50007223D02*
X124166666Y-49983414D01*
X123714285Y-50007223D02*
X123714285Y-49602461D01*
X123714285Y-49602461D02*
X123738095Y-49554842D01*
X123738095Y-49554842D02*
X123761904Y-49531033D01*
X123761904Y-49531033D02*
X123809523Y-49507223D01*
X123809523Y-49507223D02*
X123880952Y-49507223D01*
X123880952Y-49507223D02*
X123928571Y-49531033D01*
X123714285Y-49697700D02*
X123761904Y-49673890D01*
X123761904Y-49673890D02*
X123857142Y-49673890D01*
X123857142Y-49673890D02*
X123904761Y-49697700D01*
X123904761Y-49697700D02*
X123928571Y-49721509D01*
X123928571Y-49721509D02*
X123952380Y-49769128D01*
X123952380Y-49769128D02*
X123952380Y-49911985D01*
X123952380Y-49911985D02*
X123928571Y-49959604D01*
X123928571Y-49959604D02*
X123904761Y-49983414D01*
X123904761Y-49983414D02*
X123857142Y-50007223D01*
X123857142Y-50007223D02*
X123761904Y-50007223D01*
X123761904Y-50007223D02*
X123714285Y-49983414D01*
X123285714Y-49697700D02*
X123333333Y-49673890D01*
X123333333Y-49673890D02*
X123428571Y-49673890D01*
X123428571Y-49673890D02*
X123476190Y-49697700D01*
X123476190Y-49697700D02*
X123499999Y-49745319D01*
X123499999Y-49745319D02*
X123499999Y-49935795D01*
X123499999Y-49935795D02*
X123476190Y-49983414D01*
X123476190Y-49983414D02*
X123428571Y-50007223D01*
X123428571Y-50007223D02*
X123333333Y-50007223D01*
X123333333Y-50007223D02*
X123285714Y-49983414D01*
X123285714Y-49983414D02*
X123261904Y-49935795D01*
X123261904Y-49935795D02*
X123261904Y-49888176D01*
X123261904Y-49888176D02*
X123499999Y-49840557D01*
D10*
X131722891Y-87007142D02*
X131122891Y-87007142D01*
X131122891Y-87007142D02*
X131122891Y-86778571D01*
X131122891Y-86778571D02*
X131151462Y-86721428D01*
X131151462Y-86721428D02*
X131180034Y-86692857D01*
X131180034Y-86692857D02*
X131237177Y-86664285D01*
X131237177Y-86664285D02*
X131322891Y-86664285D01*
X131322891Y-86664285D02*
X131380034Y-86692857D01*
X131380034Y-86692857D02*
X131408605Y-86721428D01*
X131408605Y-86721428D02*
X131437177Y-86778571D01*
X131437177Y-86778571D02*
X131437177Y-87007142D01*
X131665748Y-86064285D02*
X131694320Y-86092857D01*
X131694320Y-86092857D02*
X131722891Y-86178571D01*
X131722891Y-86178571D02*
X131722891Y-86235714D01*
X131722891Y-86235714D02*
X131694320Y-86321428D01*
X131694320Y-86321428D02*
X131637177Y-86378571D01*
X131637177Y-86378571D02*
X131580034Y-86407142D01*
X131580034Y-86407142D02*
X131465748Y-86435714D01*
X131465748Y-86435714D02*
X131380034Y-86435714D01*
X131380034Y-86435714D02*
X131265748Y-86407142D01*
X131265748Y-86407142D02*
X131208605Y-86378571D01*
X131208605Y-86378571D02*
X131151462Y-86321428D01*
X131151462Y-86321428D02*
X131122891Y-86235714D01*
X131122891Y-86235714D02*
X131122891Y-86178571D01*
X131122891Y-86178571D02*
X131151462Y-86092857D01*
X131151462Y-86092857D02*
X131180034Y-86064285D01*
X131408605Y-85607142D02*
X131437177Y-85521428D01*
X131437177Y-85521428D02*
X131465748Y-85492857D01*
X131465748Y-85492857D02*
X131522891Y-85464285D01*
X131522891Y-85464285D02*
X131608605Y-85464285D01*
X131608605Y-85464285D02*
X131665748Y-85492857D01*
X131665748Y-85492857D02*
X131694320Y-85521428D01*
X131694320Y-85521428D02*
X131722891Y-85578571D01*
X131722891Y-85578571D02*
X131722891Y-85807142D01*
X131722891Y-85807142D02*
X131122891Y-85807142D01*
X131122891Y-85807142D02*
X131122891Y-85607142D01*
X131122891Y-85607142D02*
X131151462Y-85550000D01*
X131151462Y-85550000D02*
X131180034Y-85521428D01*
X131180034Y-85521428D02*
X131237177Y-85492857D01*
X131237177Y-85492857D02*
X131294320Y-85492857D01*
X131294320Y-85492857D02*
X131351462Y-85521428D01*
X131351462Y-85521428D02*
X131380034Y-85550000D01*
X131380034Y-85550000D02*
X131408605Y-85607142D01*
X131408605Y-85607142D02*
X131408605Y-85807142D01*
X131408605Y-84749999D02*
X131408605Y-84549999D01*
X131722891Y-84464285D02*
X131722891Y-84749999D01*
X131722891Y-84749999D02*
X131122891Y-84749999D01*
X131122891Y-84749999D02*
X131122891Y-84464285D01*
X131722891Y-83950000D02*
X131122891Y-83950000D01*
X131694320Y-83950000D02*
X131722891Y-84007142D01*
X131722891Y-84007142D02*
X131722891Y-84121428D01*
X131722891Y-84121428D02*
X131694320Y-84178571D01*
X131694320Y-84178571D02*
X131665748Y-84207142D01*
X131665748Y-84207142D02*
X131608605Y-84235714D01*
X131608605Y-84235714D02*
X131437177Y-84235714D01*
X131437177Y-84235714D02*
X131380034Y-84207142D01*
X131380034Y-84207142D02*
X131351462Y-84178571D01*
X131351462Y-84178571D02*
X131322891Y-84121428D01*
X131322891Y-84121428D02*
X131322891Y-84007142D01*
X131322891Y-84007142D02*
X131351462Y-83950000D01*
X131322891Y-83407143D02*
X131808605Y-83407143D01*
X131808605Y-83407143D02*
X131865748Y-83435714D01*
X131865748Y-83435714D02*
X131894320Y-83464285D01*
X131894320Y-83464285D02*
X131922891Y-83521428D01*
X131922891Y-83521428D02*
X131922891Y-83607143D01*
X131922891Y-83607143D02*
X131894320Y-83664285D01*
X131694320Y-83407143D02*
X131722891Y-83464285D01*
X131722891Y-83464285D02*
X131722891Y-83578571D01*
X131722891Y-83578571D02*
X131694320Y-83635714D01*
X131694320Y-83635714D02*
X131665748Y-83664285D01*
X131665748Y-83664285D02*
X131608605Y-83692857D01*
X131608605Y-83692857D02*
X131437177Y-83692857D01*
X131437177Y-83692857D02*
X131380034Y-83664285D01*
X131380034Y-83664285D02*
X131351462Y-83635714D01*
X131351462Y-83635714D02*
X131322891Y-83578571D01*
X131322891Y-83578571D02*
X131322891Y-83464285D01*
X131322891Y-83464285D02*
X131351462Y-83407143D01*
X131694320Y-82892857D02*
X131722891Y-82950000D01*
X131722891Y-82950000D02*
X131722891Y-83064286D01*
X131722891Y-83064286D02*
X131694320Y-83121428D01*
X131694320Y-83121428D02*
X131637177Y-83150000D01*
X131637177Y-83150000D02*
X131408605Y-83150000D01*
X131408605Y-83150000D02*
X131351462Y-83121428D01*
X131351462Y-83121428D02*
X131322891Y-83064286D01*
X131322891Y-83064286D02*
X131322891Y-82950000D01*
X131322891Y-82950000D02*
X131351462Y-82892857D01*
X131351462Y-82892857D02*
X131408605Y-82864286D01*
X131408605Y-82864286D02*
X131465748Y-82864286D01*
X131465748Y-82864286D02*
X131522891Y-83150000D01*
D11*
%TO.C,J5*%
X132200000Y-106025000D02*
X132200000Y-93975000D01*
%TO.C,J3*%
X120000000Y-49325000D02*
X130000000Y-49325000D01*
%TO.C,J4*%
X132200000Y-91025000D02*
X132200000Y-78975000D01*
%TD*%
M02*
