%TF.GenerationSoftware,KiCad,Pcbnew,7.0.11+dfsg-1build4*%
%TF.CreationDate,2026-07-13T20:16:47-07:00*%
%TF.ProjectId,power_board_v1,706f7765-725f-4626-9f61-72645f76312e,rev?*%
%TF.SameCoordinates,Original*%
%TF.FileFunction,Copper,L3,Inr*%
%TF.FilePolarity,Positive*%
%FSLAX46Y46*%
G04 Gerber Fmt 4.6, Leading zero omitted, Abs format (unit mm)*
G04 Created by KiCad (PCBNEW 7.0.11+dfsg-1build4) date 2026-07-13 20:16:47*
%MOMM*%
%LPD*%
G01*
G04 APERTURE LIST*
G04 Aperture macros list*
%AMRoundRect*
0 Rectangle with rounded corners*
0 $1 Rounding radius*
0 $2 $3 $4 $5 $6 $7 $8 $9 X,Y pos of 4 corners*
0 Add a 4 corners polygon primitive as box body*
4,1,4,$2,$3,$4,$5,$6,$7,$8,$9,$2,$3,0*
0 Add four circle primitives for the rounded corners*
1,1,$1+$1,$2,$3*
1,1,$1+$1,$4,$5*
1,1,$1+$1,$6,$7*
1,1,$1+$1,$8,$9*
0 Add four rect primitives between the rounded corners*
20,1,$1+$1,$2,$3,$4,$5,0*
20,1,$1+$1,$4,$5,$6,$7,0*
20,1,$1+$1,$6,$7,$8,$9,0*
20,1,$1+$1,$8,$9,$2,$3,0*%
G04 Aperture macros list end*
%TA.AperFunction,ComponentPad*%
%ADD10R,2.600000X2.600000*%
%TD*%
%TA.AperFunction,ComponentPad*%
%ADD11C,2.600000*%
%TD*%
%TA.AperFunction,ComponentPad*%
%ADD12O,3.500000X1.900000*%
%TD*%
%TA.AperFunction,ComponentPad*%
%ADD13O,1.000000X2.100000*%
%TD*%
%TA.AperFunction,ComponentPad*%
%ADD14O,1.000000X1.800000*%
%TD*%
%TA.AperFunction,ComponentPad*%
%ADD15C,1.400000*%
%TD*%
%TA.AperFunction,ComponentPad*%
%ADD16R,3.500000X3.500000*%
%TD*%
%TA.AperFunction,ComponentPad*%
%ADD17C,3.500000*%
%TD*%
%TA.AperFunction,ComponentPad*%
%ADD18R,1.700000X1.700000*%
%TD*%
%TA.AperFunction,ComponentPad*%
%ADD19O,1.700000X1.700000*%
%TD*%
%TA.AperFunction,ComponentPad*%
%ADD20R,2.000000X0.900000*%
%TD*%
%TA.AperFunction,ComponentPad*%
%ADD21RoundRect,1.025000X1.025000X-1.025000X1.025000X1.025000X-1.025000X1.025000X-1.025000X-1.025000X0*%
%TD*%
%TA.AperFunction,ComponentPad*%
%ADD22C,4.100000*%
%TD*%
%TA.AperFunction,ComponentPad*%
%ADD23C,2.200000*%
%TD*%
%TA.AperFunction,ViaPad*%
%ADD24C,0.600000*%
%TD*%
%TA.AperFunction,ViaPad*%
%ADD25C,0.560000*%
%TD*%
%TA.AperFunction,ViaPad*%
%ADD26C,0.250000*%
%TD*%
%TA.AperFunction,ViaPad*%
%ADD27C,0.300000*%
%TD*%
%TA.AperFunction,ViaPad*%
%ADD28C,0.540000*%
%TD*%
%TA.AperFunction,ViaPad*%
%ADD29C,0.500000*%
%TD*%
%TA.AperFunction,ViaPad*%
%ADD30C,0.450000*%
%TD*%
G04 APERTURE END LIST*
D10*
%TO.N,AUX_5V*%
%TO.C,J6*%
X99000000Y-113000000D03*
D11*
%TO.N,GND*%
X104000000Y-113000000D03*
%TD*%
D12*
%TO.N,GND*%
%TO.C,J5*%
X129100000Y-94300000D03*
X129100000Y-105700000D03*
%TD*%
D13*
%TO.N,GND*%
%TO.C,J3*%
X129320000Y-56105000D03*
D14*
X129320000Y-51925000D03*
D13*
X120680000Y-56105000D03*
D14*
X120680000Y-51925000D03*
%TD*%
D12*
%TO.N,GND*%
%TO.C,J4*%
X129100000Y-79300000D03*
X129100000Y-90700000D03*
%TD*%
D15*
%TO.N,*%
%TO.C,J12*%
X138000000Y-64000000D03*
X138000000Y-75000000D03*
D16*
%TO.N,5V_A*%
X128000000Y-72000000D03*
D17*
%TO.N,GND*%
X128000000Y-67000000D03*
%TD*%
D18*
%TO.N,unconnected-(J9-P1-Pad1)*%
%TO.C,J9*%
X113000000Y-104000000D03*
D19*
%TO.N,D1_N*%
X113000000Y-106540000D03*
%TO.N,D1_P*%
X113000000Y-109080000D03*
%TO.N,GND*%
X113000000Y-111620000D03*
%TD*%
D20*
%TO.N,*%
%TO.C,J1*%
X51000000Y-75150000D03*
X51000000Y-61650000D03*
D21*
%TO.N,VBATT_RAW*%
X57000000Y-72000000D03*
D22*
%TO.N,GND*%
X57000000Y-64800000D03*
%TD*%
D18*
%TO.N,unconnected-(J10-P1-Pad1)*%
%TO.C,J10*%
X86000000Y-101000000D03*
D19*
%TO.N,D2_N*%
X88540000Y-101000000D03*
%TO.N,D2_P*%
X91080000Y-101000000D03*
%TO.N,GND*%
X93620000Y-101000000D03*
%TD*%
D23*
%TO.N,VBATT_RAW*%
%TO.C,F1*%
X64000000Y-68000000D03*
X66500000Y-68000000D03*
X64000000Y-64500000D03*
X66500000Y-64500000D03*
%TO.N,VBATT_F*%
X64000000Y-58700000D03*
X66500000Y-58700000D03*
X64000000Y-55200000D03*
X66500000Y-55200000D03*
%TD*%
D24*
%TO.N,3V3_SW*%
X76000000Y-70200000D03*
X72100000Y-91600000D03*
X74400000Y-68200000D03*
X107400000Y-66000000D03*
X71600000Y-96900000D03*
X77600000Y-81500000D03*
X109800000Y-66300000D03*
X75600000Y-86500000D03*
X78100000Y-85000000D03*
X69500000Y-99000000D03*
%TO.N,5VB_PRE*%
X89100000Y-106000000D03*
X104500000Y-103800000D03*
X106500000Y-99700000D03*
X116500000Y-86800000D03*
X85500000Y-106000000D03*
X112800000Y-80600000D03*
X115800000Y-90000000D03*
X99800000Y-105300000D03*
X117100000Y-99200000D03*
X113900000Y-97600000D03*
X116100000Y-97000000D03*
X114300000Y-82300000D03*
%TO.N,5V_A*%
X84100000Y-81400000D03*
X113000000Y-70600000D03*
X114500000Y-61900000D03*
X101600000Y-88000000D03*
X98400000Y-77700000D03*
X94500000Y-68000000D03*
X84100000Y-72200000D03*
X114500000Y-67000000D03*
X113800000Y-73300000D03*
X119500000Y-65000000D03*
X112500000Y-72000000D03*
X101100000Y-66900000D03*
X125000000Y-57900000D03*
D25*
X85520000Y-80000000D03*
D24*
X119500000Y-64300000D03*
X105500000Y-70500000D03*
X102600000Y-66900000D03*
X126400000Y-58500000D03*
X114500000Y-63000000D03*
%TO.N,5V_B*%
X122600000Y-98900000D03*
X98600000Y-72100000D03*
X97500000Y-68000000D03*
X74500000Y-86400000D03*
X121600000Y-92900000D03*
X84400000Y-101300000D03*
X109300000Y-82700000D03*
X117600000Y-88900000D03*
X106700000Y-73900000D03*
X91500000Y-85000000D03*
X103900000Y-83000000D03*
X99500000Y-83700000D03*
X102500000Y-68000000D03*
X111500000Y-68000000D03*
X118900000Y-109000000D03*
X101800000Y-80700000D03*
X76400000Y-87300000D03*
X100800000Y-78400000D03*
X111400000Y-68700000D03*
D26*
%TO.N,BST_A*%
X83350000Y-59750000D03*
D24*
X84300000Y-60700000D03*
D27*
%TO.N,CC1_A*%
X126250000Y-56680000D03*
D24*
X126200000Y-57700000D03*
%TO.N,CC2_A*%
X122000000Y-57900000D03*
D27*
X123250000Y-56680000D03*
D24*
%TO.N,COMP_A*%
X82500000Y-81400000D03*
D26*
X80600000Y-59700000D03*
D24*
X79900000Y-62500000D03*
D25*
X82300000Y-80000000D03*
D24*
X77000000Y-73000000D03*
X84100000Y-83000000D03*
%TO.N,COMP_B*%
X93300000Y-95800000D03*
X79800000Y-95600000D03*
D26*
X80600000Y-92700000D03*
D24*
X92100000Y-93800000D03*
X89500000Y-90300000D03*
%TO.N,CX_A*%
X79100000Y-73200000D03*
X97600000Y-73200000D03*
%TO.N,D1_N*%
X115700000Y-99000000D03*
%TO.N,D1_P*%
X96300000Y-111700000D03*
X116100000Y-106000000D03*
X98600000Y-111000000D03*
X116100000Y-103700000D03*
X110100000Y-111500000D03*
%TO.N,D2_N*%
X94800000Y-102900000D03*
X114300000Y-102800000D03*
X97100000Y-102900000D03*
X117200000Y-103600000D03*
%TO.N,D2_P*%
X105900000Y-101700000D03*
X114300000Y-101400000D03*
X121200000Y-101300000D03*
X99100000Y-102000000D03*
X94800000Y-105700000D03*
X91400000Y-103000000D03*
X107100000Y-100900000D03*
X97000000Y-105650000D03*
%TO.N,EN_A*%
X84100000Y-61500000D03*
X95400000Y-80000000D03*
D28*
X91500000Y-81300000D03*
D24*
X85400000Y-60800000D03*
X96000000Y-70500000D03*
%TO.N,EN_USB1*%
X108900000Y-83800000D03*
X112100000Y-86400000D03*
X103900000Y-85000000D03*
X113000000Y-69000000D03*
%TO.N,EN_USB2*%
X104000000Y-74600000D03*
X99600000Y-72100000D03*
X107200000Y-106500000D03*
X107200000Y-102000000D03*
%TO.N,FAULT_USB*%
X114800000Y-102100000D03*
X118300000Y-104600000D03*
X108700000Y-87600000D03*
X106100000Y-85000000D03*
D25*
%TO.N,FB_A*%
X83300000Y-80000000D03*
D24*
X77700000Y-77600000D03*
X77700000Y-76200000D03*
X73700000Y-71900000D03*
X83300000Y-77800000D03*
X73200000Y-66700000D03*
X73300000Y-69500000D03*
X88900000Y-67099999D03*
D28*
%TO.N,FB_B*%
X86510000Y-98000000D03*
D25*
X81480000Y-106000000D03*
D24*
X78300000Y-106700000D03*
X90300000Y-98200000D03*
D26*
%TO.N,FE_CAP*%
X55390000Y-89250000D03*
D24*
X56200000Y-89200000D03*
%TO.N,FE_EN*%
X51000000Y-91900000D03*
X66000000Y-95200000D03*
X61900000Y-103300000D03*
D26*
X52500000Y-91300000D03*
D24*
X65000000Y-103200000D03*
%TO.N,FE_LAD*%
X51700000Y-91100000D03*
D26*
X52610000Y-90250000D03*
D24*
%TO.N,FE_MID*%
X56300000Y-90000000D03*
X69500000Y-84000000D03*
D26*
X55390000Y-89750000D03*
D24*
X70500000Y-80000000D03*
X70500000Y-80900000D03*
X62400000Y-84400000D03*
D26*
X55350000Y-88700000D03*
D24*
X68800000Y-84000000D03*
X62400000Y-82800000D03*
%TO.N,GND*%
X82000000Y-92000000D03*
X103800000Y-64099999D03*
X118400000Y-59000000D03*
X64400000Y-106200000D03*
D25*
X103600000Y-65450000D03*
D24*
X58800000Y-92000000D03*
X87700000Y-92100000D03*
X53500000Y-102700000D03*
D26*
X80650000Y-90750000D03*
D24*
X119300000Y-92200000D03*
X75400000Y-70800000D03*
X97200000Y-80000000D03*
X88100000Y-55100000D03*
D28*
X68510000Y-97000000D03*
D24*
X55600000Y-104800000D03*
X88000000Y-59400000D03*
X123100000Y-63400000D03*
X92800000Y-65200000D03*
X110300000Y-68000000D03*
X82600000Y-91100000D03*
X81400000Y-91100000D03*
X90700000Y-67099999D03*
X92800000Y-63000000D03*
X74600000Y-80000000D03*
X92400000Y-92500000D03*
X88900000Y-58300000D03*
X85800000Y-90200000D03*
X119300000Y-94100000D03*
X82600000Y-92900000D03*
X80000000Y-102900000D03*
X121300000Y-61000000D03*
X87800000Y-87200000D03*
D25*
X103600000Y-68000000D03*
D24*
X88800000Y-62800000D03*
X56900000Y-95500000D03*
X64000000Y-101000000D03*
X60900000Y-105300000D03*
X82000000Y-59000000D03*
X92800000Y-97200000D03*
X57400000Y-105800000D03*
X63500000Y-95300000D03*
X115700000Y-68200000D03*
X82600000Y-59900000D03*
X81700000Y-89300000D03*
D26*
X77500000Y-86300000D03*
D24*
X94500000Y-94800000D03*
X97500000Y-101800000D03*
X67600000Y-95100000D03*
X81400000Y-92900000D03*
X92800000Y-60800000D03*
X92800000Y-92800000D03*
X58800000Y-82000000D03*
X110700000Y-112100000D03*
X126800000Y-55600000D03*
X81400000Y-58100000D03*
X99100000Y-76700000D03*
X58800000Y-94200000D03*
X121750000Y-56650000D03*
X118400000Y-60400000D03*
X88900000Y-88300000D03*
X55600000Y-94800000D03*
X104200000Y-79400000D03*
X116200000Y-64300000D03*
X78500000Y-80500000D03*
X92800000Y-95000000D03*
D29*
X94562000Y-94000000D03*
D24*
X58800000Y-89800000D03*
X58800000Y-79800000D03*
X63500000Y-100500000D03*
X83500000Y-57000000D03*
X79300000Y-63100000D03*
X58800000Y-84200000D03*
X102600000Y-56400000D03*
D26*
X80650000Y-91750000D03*
D24*
X93300000Y-96900000D03*
X94500000Y-63100000D03*
D26*
X80600000Y-58800000D03*
D24*
X78600000Y-102900000D03*
X77800000Y-70800000D03*
X103900000Y-91900000D03*
X64500000Y-101500000D03*
X82600000Y-58100000D03*
X81600000Y-59100000D03*
X92500000Y-65300000D03*
X64500000Y-100500000D03*
D27*
X76400000Y-69500000D03*
D26*
X80600000Y-57800000D03*
D24*
X67000000Y-106700000D03*
X81400000Y-59900000D03*
X69100000Y-97600000D03*
X78400000Y-84100000D03*
X110100000Y-65500000D03*
X78000000Y-80000000D03*
X74400000Y-75000000D03*
X128199999Y-56680000D03*
X72600000Y-67700000D03*
D26*
%TO.N,HO_B*%
X83350000Y-93250000D03*
D24*
X84200000Y-92800000D03*
%TO.N,ILIM_A*%
X82800000Y-75000000D03*
X88900000Y-81100000D03*
D25*
%TO.N,ILIM_B*%
X96580000Y-102000000D03*
D26*
X82700000Y-90100000D03*
D24*
X81900000Y-95400000D03*
X95000000Y-100400000D03*
%TO.N,LED_K*%
X52100000Y-96100000D03*
X56400000Y-98400000D03*
D26*
%TO.N,LED_STAT*%
X62550000Y-100600000D03*
D24*
X61300000Y-99300000D03*
D26*
%TO.N,LOW_BATT*%
X64400000Y-99550000D03*
D24*
X65500000Y-99500000D03*
%TO.N,LO_A*%
X84200000Y-57800000D03*
D26*
X83350000Y-57750000D03*
D24*
%TO.N,MCU_3V3*%
X72600000Y-114500000D03*
X79600000Y-113400000D03*
%TO.N,PGOODA_RAW*%
X108500000Y-67500000D03*
X104300000Y-68500000D03*
%TO.N,PGOOD_A*%
X85000000Y-93800000D03*
X101000000Y-84100000D03*
X84100000Y-99300000D03*
X68600000Y-106800000D03*
X83100000Y-98300000D03*
X102800000Y-77700000D03*
X101000000Y-85500000D03*
X83400000Y-95400000D03*
D26*
X65400000Y-100173000D03*
D24*
X80600000Y-100200000D03*
X103600000Y-73000000D03*
X104800000Y-74200000D03*
%TO.N,PGOOD_B*%
X69900000Y-105100000D03*
X72400000Y-101100000D03*
D28*
%TO.N,SDA*%
X64250000Y-104050000D03*
D24*
X65599999Y-107000000D03*
%TO.N,SS_A*%
X80600000Y-61800000D03*
D26*
X80650000Y-60250000D03*
D24*
%TO.N,SS_B*%
X80600000Y-94800000D03*
D26*
X80650000Y-93250000D03*
D24*
%TO.N,SW_A*%
X83300000Y-62200000D03*
X96400000Y-63000000D03*
X84600000Y-74900000D03*
X84400000Y-70700000D03*
X99800000Y-59000000D03*
X91400000Y-79600000D03*
D26*
X83350000Y-60750000D03*
D30*
X97413000Y-56000000D03*
D24*
%TO.N,SW_B*%
X97400000Y-89900000D03*
X97500000Y-87200000D03*
D30*
X97413000Y-88000000D03*
D24*
X92000000Y-96900000D03*
X91800000Y-103700000D03*
X82400000Y-97400000D03*
X83800000Y-97400000D03*
%TO.N,SW_SENSE*%
X71500000Y-105000000D03*
X57300000Y-104300000D03*
D26*
X65450000Y-101400000D03*
D24*
%TO.N,UPDI*%
X68500000Y-102700000D03*
D26*
X63600000Y-99800000D03*
D24*
%TO.N,VBATT_F*%
X101300000Y-75500000D03*
X82600000Y-64200000D03*
D27*
X76200000Y-68000000D03*
D24*
X101100000Y-73300000D03*
X72900000Y-62000000D03*
X84400000Y-68900000D03*
X89300000Y-68900000D03*
%TO.N,VBATT_FD*%
X85800000Y-54700000D03*
X102500000Y-65500000D03*
X85100000Y-63100000D03*
X95900000Y-66400000D03*
X101100000Y-62000000D03*
X102500000Y-63400000D03*
%TO.N,VBATT_S*%
X75000000Y-64000000D03*
X60600000Y-80300000D03*
X51500000Y-97000000D03*
X70000000Y-68300000D03*
D30*
X60587000Y-81000000D03*
D24*
X52300000Y-87900000D03*
%TO.N,VBUS1*%
X96200000Y-110500000D03*
X98200000Y-108500000D03*
X106300000Y-90600000D03*
X119000000Y-82000000D03*
%TO.N,VBUS2*%
X124200000Y-102100000D03*
X118500000Y-106400000D03*
X125400000Y-97500000D03*
X120100000Y-104800000D03*
%TO.N,VSENSE*%
X59900000Y-97800000D03*
D26*
X62450000Y-101850000D03*
D28*
X55600000Y-96750000D03*
D24*
%TO.N,VSW*%
X90000000Y-96500000D03*
D30*
X60587000Y-91700000D03*
D24*
X90700000Y-91500000D03*
X95615000Y-87000000D03*
X90400000Y-81300000D03*
X95615000Y-55800000D03*
X89400000Y-82300000D03*
X95615000Y-86200000D03*
X59900000Y-91700000D03*
X95615000Y-87800000D03*
X89000000Y-66000000D03*
X90000000Y-56000000D03*
X90000000Y-86500000D03*
X89600000Y-79700000D03*
X71800000Y-95700000D03*
X87400000Y-66000000D03*
X90000000Y-61000000D03*
X95615000Y-55000000D03*
D26*
X82700000Y-93800000D03*
D24*
X86600000Y-85600000D03*
X95615000Y-54200000D03*
%TD*%
%TA.AperFunction,Conductor*%
%TO.N,VBATT_S*%
G36*
X62624178Y-58019962D02*
G01*
X62678716Y-58074500D01*
X62698678Y-58149000D01*
X62686128Y-58208853D01*
X62670843Y-58243698D01*
X62613865Y-58468699D01*
X62594700Y-58699998D01*
X62594700Y-58700001D01*
X62613865Y-58931300D01*
X62670843Y-59156301D01*
X62764073Y-59368843D01*
X62764076Y-59368849D01*
X62891021Y-59563153D01*
X63005405Y-59687407D01*
X63048218Y-59733915D01*
X63048220Y-59733917D01*
X63175685Y-59833126D01*
X63231374Y-59876470D01*
X63435497Y-59986936D01*
X63655019Y-60062298D01*
X63883951Y-60100500D01*
X63883953Y-60100500D01*
X64116047Y-60100500D01*
X64116049Y-60100500D01*
X64344981Y-60062298D01*
X64564503Y-59986936D01*
X64768626Y-59876470D01*
X64951784Y-59733913D01*
X65108979Y-59563153D01*
X65125263Y-59538227D01*
X65182721Y-59486778D01*
X65258207Y-59470950D01*
X65331495Y-59494986D01*
X65374736Y-59538227D01*
X65391021Y-59563153D01*
X65505405Y-59687407D01*
X65548218Y-59733915D01*
X65548220Y-59733917D01*
X65675685Y-59833126D01*
X65731374Y-59876470D01*
X65935497Y-59986936D01*
X66155019Y-60062298D01*
X66383951Y-60100500D01*
X66383953Y-60100500D01*
X66616047Y-60100500D01*
X66616049Y-60100500D01*
X66844981Y-60062298D01*
X67064503Y-59986936D01*
X67268626Y-59876470D01*
X67451784Y-59733913D01*
X67608979Y-59563153D01*
X67735924Y-59368849D01*
X67829157Y-59156300D01*
X67886134Y-58931305D01*
X67905300Y-58700000D01*
X67886134Y-58468695D01*
X67829157Y-58243700D01*
X67820073Y-58222990D01*
X67813872Y-58208853D01*
X67802226Y-58132609D01*
X67830263Y-58060757D01*
X67890469Y-58012550D01*
X67950322Y-58000000D01*
X79851000Y-58000000D01*
X79925500Y-58019962D01*
X79980038Y-58074500D01*
X80000000Y-58149000D01*
X80000000Y-61747076D01*
X79998722Y-61766548D01*
X79998265Y-61770015D01*
X79968738Y-61841267D01*
X79907541Y-61888210D01*
X79869991Y-61898268D01*
X79743242Y-61914954D01*
X79597159Y-61975463D01*
X79471718Y-62071717D01*
X79471717Y-62071718D01*
X79375463Y-62197159D01*
X79314954Y-62343241D01*
X79309901Y-62381626D01*
X79280385Y-62452883D01*
X79219194Y-62499835D01*
X79181626Y-62509901D01*
X79143241Y-62514954D01*
X78997159Y-62575463D01*
X78871718Y-62671717D01*
X78871717Y-62671718D01*
X78775463Y-62797159D01*
X78714954Y-62943242D01*
X78694318Y-63099997D01*
X78694318Y-63100002D01*
X78714954Y-63256757D01*
X78775463Y-63402840D01*
X78831183Y-63475455D01*
X78871718Y-63528282D01*
X78997159Y-63624536D01*
X79143238Y-63685044D01*
X79143241Y-63685044D01*
X79143243Y-63685045D01*
X79143240Y-63685045D01*
X79299997Y-63705682D01*
X79300000Y-63705682D01*
X79300003Y-63705682D01*
X79456757Y-63685045D01*
X79456758Y-63685044D01*
X79456762Y-63685044D01*
X79602841Y-63624536D01*
X79728282Y-63528282D01*
X79732789Y-63522407D01*
X79793978Y-63475455D01*
X79870446Y-63465386D01*
X79941704Y-63494901D01*
X79988657Y-63556090D01*
X80000000Y-63613112D01*
X80000000Y-69545500D01*
X79980038Y-69620000D01*
X79925500Y-69674538D01*
X79851000Y-69694500D01*
X78181793Y-69694500D01*
X78102740Y-69704907D01*
X78102730Y-69704909D01*
X78028231Y-69724870D01*
X78028222Y-69724873D01*
X77983915Y-69740485D01*
X77983913Y-69740486D01*
X77885605Y-69807826D01*
X77884177Y-69805741D01*
X77825145Y-69832877D01*
X77748349Y-69825734D01*
X77703133Y-69799153D01*
X77673029Y-69773361D01*
X77604386Y-69740490D01*
X77571770Y-69724871D01*
X77497276Y-69704910D01*
X77497256Y-69704906D01*
X77418208Y-69694500D01*
X77418201Y-69694500D01*
X76999123Y-69694500D01*
X76924623Y-69674538D01*
X76870085Y-69620000D01*
X76850123Y-69545500D01*
X76851640Y-69524294D01*
X76855133Y-69500001D01*
X76855133Y-69499996D01*
X76836697Y-69371776D01*
X76836697Y-69371774D01*
X76782882Y-69253937D01*
X76782881Y-69253936D01*
X76782881Y-69253935D01*
X76710146Y-69169994D01*
X76698049Y-69156033D01*
X76589069Y-69085996D01*
X76464772Y-69049500D01*
X76335228Y-69049500D01*
X76210931Y-69085996D01*
X76210928Y-69085997D01*
X76210927Y-69085998D01*
X76101955Y-69156030D01*
X76101952Y-69156031D01*
X76101951Y-69156033D01*
X76101949Y-69156034D01*
X76101948Y-69156036D01*
X76017118Y-69253935D01*
X75963302Y-69371776D01*
X75945735Y-69493959D01*
X75915374Y-69564860D01*
X75853630Y-69611081D01*
X75848358Y-69612835D01*
X75697159Y-69675463D01*
X75571718Y-69771717D01*
X75571717Y-69771718D01*
X75546969Y-69803970D01*
X75485778Y-69850921D01*
X75409310Y-69860987D01*
X75338053Y-69831470D01*
X75323402Y-69818621D01*
X75308723Y-69803942D01*
X75308722Y-69803941D01*
X75273029Y-69773361D01*
X75204386Y-69740490D01*
X75171770Y-69724871D01*
X75097276Y-69704910D01*
X75097256Y-69704906D01*
X75018208Y-69694500D01*
X75018201Y-69694500D01*
X74049978Y-69694500D01*
X73975478Y-69674538D01*
X73920940Y-69620000D01*
X73900978Y-69545500D01*
X73902252Y-69526054D01*
X73902678Y-69522813D01*
X73905682Y-69500000D01*
X73905682Y-69499997D01*
X73885045Y-69343242D01*
X73885044Y-69343240D01*
X73885044Y-69343238D01*
X73824536Y-69197159D01*
X73728282Y-69071718D01*
X73679014Y-69033913D01*
X73602840Y-68975463D01*
X73522944Y-68942369D01*
X73456762Y-68914956D01*
X73456760Y-68914955D01*
X73456756Y-68914954D01*
X73456759Y-68914954D01*
X73300003Y-68894318D01*
X73299997Y-68894318D01*
X73143242Y-68914954D01*
X72997159Y-68975463D01*
X72871718Y-69071717D01*
X72871717Y-69071718D01*
X72775463Y-69197159D01*
X72714954Y-69343242D01*
X72694318Y-69499997D01*
X72694318Y-69500000D01*
X72697321Y-69522813D01*
X72697748Y-69526054D01*
X72687679Y-69602522D01*
X72640726Y-69663711D01*
X72569468Y-69693226D01*
X72550022Y-69694500D01*
X66652365Y-69694500D01*
X66577865Y-69674538D01*
X66523327Y-69620000D01*
X66503365Y-69545500D01*
X66523327Y-69471000D01*
X66577865Y-69416462D01*
X66627837Y-69398532D01*
X66844981Y-69362298D01*
X67064503Y-69286936D01*
X67268626Y-69176470D01*
X67451784Y-69033913D01*
X67608979Y-68863153D01*
X67735924Y-68668849D01*
X67829157Y-68456300D01*
X67886134Y-68231305D01*
X67905300Y-68000000D01*
X67886134Y-67768695D01*
X67868738Y-67700002D01*
X71994318Y-67700002D01*
X72014954Y-67856757D01*
X72075463Y-68002840D01*
X72171673Y-68128223D01*
X72171718Y-68128282D01*
X72297159Y-68224536D01*
X72443238Y-68285044D01*
X72443241Y-68285044D01*
X72443243Y-68285045D01*
X72443240Y-68285045D01*
X72599997Y-68305682D01*
X72600000Y-68305682D01*
X72600003Y-68305682D01*
X72756757Y-68285045D01*
X72756758Y-68285044D01*
X72756762Y-68285044D01*
X72902841Y-68224536D01*
X72934814Y-68200002D01*
X73794318Y-68200002D01*
X73814954Y-68356757D01*
X73875463Y-68502840D01*
X73967423Y-68622684D01*
X73971718Y-68628282D01*
X74097159Y-68724536D01*
X74243238Y-68785044D01*
X74243241Y-68785044D01*
X74243243Y-68785045D01*
X74243240Y-68785045D01*
X74399997Y-68805682D01*
X74400000Y-68805682D01*
X74400003Y-68805682D01*
X74556757Y-68785045D01*
X74556758Y-68785044D01*
X74556762Y-68785044D01*
X74702841Y-68724536D01*
X74828282Y-68628282D01*
X74924536Y-68502841D01*
X74985044Y-68356762D01*
X74986729Y-68343969D01*
X75005682Y-68200002D01*
X75005682Y-68199997D01*
X74985045Y-68043242D01*
X74985044Y-68043240D01*
X74985044Y-68043238D01*
X74967135Y-68000003D01*
X75744867Y-68000003D01*
X75763302Y-68128223D01*
X75817118Y-68246064D01*
X75868777Y-68305682D01*
X75901951Y-68343967D01*
X76010931Y-68414004D01*
X76135228Y-68450500D01*
X76135231Y-68450500D01*
X76264769Y-68450500D01*
X76264772Y-68450500D01*
X76389069Y-68414004D01*
X76498049Y-68343967D01*
X76582882Y-68246063D01*
X76636697Y-68128226D01*
X76655133Y-68000000D01*
X76655133Y-67999998D01*
X76655133Y-67999996D01*
X76636697Y-67871776D01*
X76636697Y-67871774D01*
X76582882Y-67753937D01*
X76582881Y-67753936D01*
X76582881Y-67753935D01*
X76530774Y-67693800D01*
X76498049Y-67656033D01*
X76389069Y-67585996D01*
X76264772Y-67549500D01*
X76135228Y-67549500D01*
X76010931Y-67585996D01*
X76010928Y-67585997D01*
X76010927Y-67585998D01*
X75901955Y-67656030D01*
X75901952Y-67656031D01*
X75901951Y-67656033D01*
X75901949Y-67656034D01*
X75901948Y-67656036D01*
X75817118Y-67753935D01*
X75763302Y-67871776D01*
X75744867Y-67999996D01*
X75744867Y-68000003D01*
X74967135Y-68000003D01*
X74924536Y-67897159D01*
X74828282Y-67771718D01*
X74824343Y-67768695D01*
X74702840Y-67675463D01*
X74622944Y-67642369D01*
X74556762Y-67614956D01*
X74556760Y-67614955D01*
X74556756Y-67614954D01*
X74556759Y-67614954D01*
X74400003Y-67594318D01*
X74399997Y-67594318D01*
X74243242Y-67614954D01*
X74097159Y-67675463D01*
X73971718Y-67771717D01*
X73971717Y-67771718D01*
X73875463Y-67897159D01*
X73814954Y-68043242D01*
X73794318Y-68199997D01*
X73794318Y-68200002D01*
X72934814Y-68200002D01*
X73028282Y-68128282D01*
X73124536Y-68002841D01*
X73185044Y-67856762D01*
X73190665Y-67814070D01*
X73205682Y-67700002D01*
X73205682Y-67699997D01*
X73185045Y-67543242D01*
X73185044Y-67543240D01*
X73185044Y-67543238D01*
X73166815Y-67499231D01*
X73156749Y-67422765D01*
X73186264Y-67351508D01*
X73247454Y-67304555D01*
X73285019Y-67294489D01*
X73356762Y-67285044D01*
X73502841Y-67224536D01*
X73628282Y-67128282D01*
X73724536Y-67002841D01*
X73785044Y-66856762D01*
X73789420Y-66823529D01*
X73805682Y-66700002D01*
X73805682Y-66699997D01*
X73785045Y-66543242D01*
X73785044Y-66543240D01*
X73785044Y-66543238D01*
X73724536Y-66397159D01*
X73628282Y-66271718D01*
X73502841Y-66175464D01*
X73502840Y-66175463D01*
X73422815Y-66142316D01*
X73356762Y-66114956D01*
X73356760Y-66114955D01*
X73356756Y-66114954D01*
X73356759Y-66114954D01*
X73200003Y-66094318D01*
X73199997Y-66094318D01*
X73043242Y-66114954D01*
X72897159Y-66175463D01*
X72771718Y-66271717D01*
X72771717Y-66271718D01*
X72675463Y-66397159D01*
X72614954Y-66543242D01*
X72594318Y-66699997D01*
X72594318Y-66700002D01*
X72614954Y-66856755D01*
X72614955Y-66856757D01*
X72614956Y-66856762D01*
X72633184Y-66900768D01*
X72643250Y-66977236D01*
X72613734Y-67048492D01*
X72552544Y-67095445D01*
X72514974Y-67105511D01*
X72443241Y-67114954D01*
X72297159Y-67175463D01*
X72171718Y-67271717D01*
X72171717Y-67271718D01*
X72075463Y-67397159D01*
X72014954Y-67543242D01*
X71994318Y-67699997D01*
X71994318Y-67700002D01*
X67868738Y-67700002D01*
X67829157Y-67543700D01*
X67735924Y-67331151D01*
X67608979Y-67136847D01*
X67451784Y-66966087D01*
X67451783Y-66966086D01*
X67451781Y-66966084D01*
X67451779Y-66966082D01*
X67268630Y-66823533D01*
X67268624Y-66823529D01*
X67064503Y-66713064D01*
X66844984Y-66637703D01*
X66844983Y-66637702D01*
X66844981Y-66637702D01*
X66616049Y-66599500D01*
X66383951Y-66599500D01*
X66155019Y-66637702D01*
X66155017Y-66637702D01*
X66155015Y-66637703D01*
X65935496Y-66713064D01*
X65731375Y-66823529D01*
X65731369Y-66823533D01*
X65548220Y-66966082D01*
X65548218Y-66966084D01*
X65391023Y-67136843D01*
X65374737Y-67161772D01*
X65317277Y-67213222D01*
X65241790Y-67229049D01*
X65168503Y-67205012D01*
X65125263Y-67161772D01*
X65108979Y-67136847D01*
X65108977Y-67136845D01*
X65108976Y-67136843D01*
X64962047Y-66977236D01*
X64951784Y-66966087D01*
X64951783Y-66966086D01*
X64951781Y-66966084D01*
X64951779Y-66966082D01*
X64768630Y-66823533D01*
X64768624Y-66823529D01*
X64564503Y-66713064D01*
X64344984Y-66637703D01*
X64344983Y-66637702D01*
X64344981Y-66637702D01*
X64116049Y-66599500D01*
X63883951Y-66599500D01*
X63655019Y-66637702D01*
X63655017Y-66637702D01*
X63655015Y-66637703D01*
X63435496Y-66713064D01*
X63231375Y-66823529D01*
X63231369Y-66823533D01*
X63048220Y-66966082D01*
X63048218Y-66966084D01*
X62891023Y-67136844D01*
X62891021Y-67136846D01*
X62891021Y-67136847D01*
X62802906Y-67271718D01*
X62764075Y-67331153D01*
X62764073Y-67331156D01*
X62670843Y-67543698D01*
X62613865Y-67768699D01*
X62594700Y-67999998D01*
X62594700Y-68000001D01*
X62613865Y-68231300D01*
X62613865Y-68231303D01*
X62613866Y-68231305D01*
X62620546Y-68257682D01*
X62670843Y-68456301D01*
X62764073Y-68668843D01*
X62764076Y-68668849D01*
X62891021Y-68863153D01*
X62995833Y-68977009D01*
X63048218Y-69033915D01*
X63048220Y-69033917D01*
X63203221Y-69154558D01*
X63231374Y-69176470D01*
X63435497Y-69286936D01*
X63655019Y-69362298D01*
X63883951Y-69400500D01*
X63883953Y-69400500D01*
X64116047Y-69400500D01*
X64116049Y-69400500D01*
X64344981Y-69362298D01*
X64564503Y-69286936D01*
X64768626Y-69176470D01*
X64951784Y-69033913D01*
X65108979Y-68863153D01*
X65125263Y-68838227D01*
X65182721Y-68786778D01*
X65258207Y-68770950D01*
X65331495Y-68794986D01*
X65374736Y-68838227D01*
X65391021Y-68863153D01*
X65495833Y-68977009D01*
X65548218Y-69033915D01*
X65548220Y-69033917D01*
X65703221Y-69154558D01*
X65731374Y-69176470D01*
X65935497Y-69286936D01*
X66155019Y-69362298D01*
X66372161Y-69398532D01*
X66442358Y-69430485D01*
X66487175Y-69493255D01*
X66494603Y-69570025D01*
X66462650Y-69640223D01*
X66399880Y-69685040D01*
X66347635Y-69694500D01*
X66148992Y-69694500D01*
X66069944Y-69704906D01*
X66069924Y-69704910D01*
X65995432Y-69724870D01*
X65995412Y-69724876D01*
X65951106Y-69740490D01*
X65951099Y-69740493D01*
X65858476Y-69803943D01*
X65803942Y-69858477D01*
X65773361Y-69894172D01*
X65724871Y-69995430D01*
X65704910Y-70069924D01*
X65704906Y-70069944D01*
X65694500Y-70148992D01*
X65694500Y-83851000D01*
X65674538Y-83925500D01*
X65620000Y-83980038D01*
X65545500Y-84000000D01*
X62915718Y-84000000D01*
X62841218Y-83980038D01*
X62825016Y-83969212D01*
X62702841Y-83875464D01*
X62702840Y-83875463D01*
X62622944Y-83842369D01*
X62556762Y-83814956D01*
X62556760Y-83814955D01*
X62556756Y-83814954D01*
X62556759Y-83814954D01*
X62400003Y-83794318D01*
X62399997Y-83794318D01*
X62243242Y-83814954D01*
X62097159Y-83875463D01*
X62008949Y-83943149D01*
X61974985Y-83969210D01*
X61903730Y-83998725D01*
X61884282Y-84000000D01*
X59466693Y-84000000D01*
X59392193Y-83980038D01*
X59337655Y-83925500D01*
X59329035Y-83908021D01*
X59324536Y-83897159D01*
X59228282Y-83771718D01*
X59102841Y-83675464D01*
X59102840Y-83675463D01*
X59022944Y-83642369D01*
X58956762Y-83614956D01*
X58956760Y-83614955D01*
X58956756Y-83614954D01*
X58956759Y-83614954D01*
X58800003Y-83594318D01*
X58799997Y-83594318D01*
X58643242Y-83614954D01*
X58497159Y-83675463D01*
X58371718Y-83771717D01*
X58371717Y-83771718D01*
X58275464Y-83897158D01*
X58270965Y-83908021D01*
X58224011Y-83969210D01*
X58152754Y-83998725D01*
X58133307Y-84000000D01*
X53149000Y-84000000D01*
X53074500Y-83980038D01*
X53019962Y-83925500D01*
X53000000Y-83851000D01*
X53000000Y-82800002D01*
X61794318Y-82800002D01*
X61814954Y-82956757D01*
X61875463Y-83102840D01*
X61957994Y-83210396D01*
X61971718Y-83228282D01*
X62097159Y-83324536D01*
X62243238Y-83385044D01*
X62243241Y-83385044D01*
X62243243Y-83385045D01*
X62243240Y-83385045D01*
X62399997Y-83405682D01*
X62400000Y-83405682D01*
X62400003Y-83405682D01*
X62556757Y-83385045D01*
X62556758Y-83385044D01*
X62556762Y-83385044D01*
X62702841Y-83324536D01*
X62828282Y-83228282D01*
X62924536Y-83102841D01*
X62985044Y-82956762D01*
X63005682Y-82800000D01*
X62998088Y-82742316D01*
X62985045Y-82643242D01*
X62985044Y-82643240D01*
X62985044Y-82643238D01*
X62924536Y-82497159D01*
X62828282Y-82371718D01*
X62738520Y-82302841D01*
X62702840Y-82275463D01*
X62622944Y-82242369D01*
X62556762Y-82214956D01*
X62556760Y-82214955D01*
X62556756Y-82214954D01*
X62556759Y-82214954D01*
X62400003Y-82194318D01*
X62399997Y-82194318D01*
X62243242Y-82214954D01*
X62097159Y-82275463D01*
X61971718Y-82371717D01*
X61971717Y-82371718D01*
X61875463Y-82497159D01*
X61814954Y-82643242D01*
X61794318Y-82799997D01*
X61794318Y-82800002D01*
X53000000Y-82800002D01*
X53000000Y-82000002D01*
X58194318Y-82000002D01*
X58214954Y-82156757D01*
X58275463Y-82302840D01*
X58275464Y-82302841D01*
X58371718Y-82428282D01*
X58497159Y-82524536D01*
X58643238Y-82585044D01*
X58643241Y-82585044D01*
X58643243Y-82585045D01*
X58643240Y-82585045D01*
X58799997Y-82605682D01*
X58800000Y-82605682D01*
X58800003Y-82605682D01*
X58956757Y-82585045D01*
X58956758Y-82585044D01*
X58956762Y-82585044D01*
X59102841Y-82524536D01*
X59228282Y-82428282D01*
X59324536Y-82302841D01*
X59385044Y-82156762D01*
X59405682Y-82000000D01*
X59385044Y-81843238D01*
X59324536Y-81697159D01*
X59228282Y-81571718D01*
X59104855Y-81477009D01*
X59102840Y-81475463D01*
X59001876Y-81433643D01*
X58956762Y-81414956D01*
X58956760Y-81414955D01*
X58956756Y-81414954D01*
X58956759Y-81414954D01*
X58800003Y-81394318D01*
X58799997Y-81394318D01*
X58643242Y-81414954D01*
X58497159Y-81475463D01*
X58371718Y-81571717D01*
X58371717Y-81571718D01*
X58275463Y-81697159D01*
X58214954Y-81843242D01*
X58194318Y-81999997D01*
X58194318Y-82000002D01*
X53000000Y-82000002D01*
X53000000Y-79800002D01*
X58194318Y-79800002D01*
X58214954Y-79956757D01*
X58275463Y-80102840D01*
X58357994Y-80210396D01*
X58371718Y-80228282D01*
X58497159Y-80324536D01*
X58643238Y-80385044D01*
X58643241Y-80385044D01*
X58643243Y-80385045D01*
X58643240Y-80385045D01*
X58799997Y-80405682D01*
X58800000Y-80405682D01*
X58800003Y-80405682D01*
X58956757Y-80385045D01*
X58956758Y-80385044D01*
X58956762Y-80385044D01*
X59102841Y-80324536D01*
X59228282Y-80228282D01*
X59324536Y-80102841D01*
X59385044Y-79956762D01*
X59388803Y-79928214D01*
X59405682Y-79800002D01*
X59405682Y-79799997D01*
X59385045Y-79643242D01*
X59385044Y-79643240D01*
X59385044Y-79643238D01*
X59324536Y-79497159D01*
X59228282Y-79371718D01*
X59189965Y-79342316D01*
X59102840Y-79275463D01*
X59022944Y-79242369D01*
X58956762Y-79214956D01*
X58956760Y-79214955D01*
X58956756Y-79214954D01*
X58956759Y-79214954D01*
X58800003Y-79194318D01*
X58799997Y-79194318D01*
X58643242Y-79214954D01*
X58497159Y-79275463D01*
X58371718Y-79371717D01*
X58371717Y-79371718D01*
X58275463Y-79497159D01*
X58214954Y-79643242D01*
X58194318Y-79799997D01*
X58194318Y-79800002D01*
X53000000Y-79800002D01*
X53000000Y-73082860D01*
X54649500Y-73082860D01*
X54649501Y-73082873D01*
X54664651Y-73256049D01*
X54724680Y-73480079D01*
X54822696Y-73690276D01*
X54822703Y-73690289D01*
X54955728Y-73880267D01*
X55119732Y-74044271D01*
X55309710Y-74177296D01*
X55309713Y-74177298D01*
X55309718Y-74177301D01*
X55519921Y-74275320D01*
X55743950Y-74335349D01*
X55917129Y-74350500D01*
X58082870Y-74350499D01*
X58256050Y-74335349D01*
X58480079Y-74275320D01*
X58690282Y-74177301D01*
X58880269Y-74044270D01*
X59044270Y-73880269D01*
X59177301Y-73690282D01*
X59275320Y-73480079D01*
X59335349Y-73256050D01*
X59350500Y-73082871D01*
X59350499Y-70917130D01*
X59335349Y-70743950D01*
X59275320Y-70519921D01*
X59177301Y-70309718D01*
X59177298Y-70309713D01*
X59177296Y-70309710D01*
X59044271Y-70119732D01*
X58880267Y-69955728D01*
X58690289Y-69822703D01*
X58690276Y-69822696D01*
X58480079Y-69724680D01*
X58256049Y-69664650D01*
X58138984Y-69654409D01*
X58082871Y-69649500D01*
X58082866Y-69649500D01*
X55917139Y-69649500D01*
X55917126Y-69649501D01*
X55743950Y-69664651D01*
X55519920Y-69724680D01*
X55309723Y-69822696D01*
X55309710Y-69822703D01*
X55119732Y-69955728D01*
X54955728Y-70119732D01*
X54822703Y-70309710D01*
X54822696Y-70309723D01*
X54724680Y-70519920D01*
X54664650Y-70743950D01*
X54649500Y-70917128D01*
X54649500Y-73082860D01*
X53000000Y-73082860D01*
X53000000Y-64800000D01*
X54644457Y-64800000D01*
X54663438Y-65089602D01*
X54664609Y-65107460D01*
X54724720Y-65409659D01*
X54788499Y-65597546D01*
X54823761Y-65701424D01*
X54960037Y-65977768D01*
X55101580Y-66189602D01*
X55131222Y-66233964D01*
X55334380Y-66465620D01*
X55566036Y-66668778D01*
X55566042Y-66668782D01*
X55822231Y-66839962D01*
X55917698Y-66887040D01*
X56098573Y-66976238D01*
X56390341Y-67075280D01*
X56692540Y-67135391D01*
X57000000Y-67155543D01*
X57307460Y-67135391D01*
X57609659Y-67075280D01*
X57901427Y-66976238D01*
X58177772Y-66839960D01*
X58433964Y-66668778D01*
X58665620Y-66465620D01*
X58868778Y-66233964D01*
X59039960Y-65977772D01*
X59176238Y-65701427D01*
X59275280Y-65409659D01*
X59335391Y-65107460D01*
X59355543Y-64800000D01*
X59335880Y-64500001D01*
X62594700Y-64500001D01*
X62613865Y-64731300D01*
X62670843Y-64956301D01*
X62743960Y-65122990D01*
X62764076Y-65168849D01*
X62891021Y-65363153D01*
X63029786Y-65513892D01*
X63048218Y-65533915D01*
X63048220Y-65533917D01*
X63211424Y-65660942D01*
X63231374Y-65676470D01*
X63435497Y-65786936D01*
X63655019Y-65862298D01*
X63883951Y-65900500D01*
X63883953Y-65900500D01*
X64116047Y-65900500D01*
X64116049Y-65900500D01*
X64344981Y-65862298D01*
X64564503Y-65786936D01*
X64768626Y-65676470D01*
X64951784Y-65533913D01*
X65108979Y-65363153D01*
X65125263Y-65338227D01*
X65182721Y-65286778D01*
X65258207Y-65270950D01*
X65331495Y-65294986D01*
X65374736Y-65338227D01*
X65391021Y-65363153D01*
X65529786Y-65513892D01*
X65548218Y-65533915D01*
X65548220Y-65533917D01*
X65711424Y-65660942D01*
X65731374Y-65676470D01*
X65935497Y-65786936D01*
X66155019Y-65862298D01*
X66383951Y-65900500D01*
X66383953Y-65900500D01*
X66616047Y-65900500D01*
X66616049Y-65900500D01*
X66844981Y-65862298D01*
X67064503Y-65786936D01*
X67268626Y-65676470D01*
X67451784Y-65533913D01*
X67608979Y-65363153D01*
X67735924Y-65168849D01*
X67829157Y-64956300D01*
X67886134Y-64731305D01*
X67905300Y-64500000D01*
X67886134Y-64268695D01*
X67829157Y-64043700D01*
X67735924Y-63831151D01*
X67608979Y-63636847D01*
X67451784Y-63466087D01*
X67451783Y-63466086D01*
X67451781Y-63466084D01*
X67451779Y-63466082D01*
X67268630Y-63323533D01*
X67268624Y-63323529D01*
X67244356Y-63310396D01*
X67064503Y-63213064D01*
X66844981Y-63137702D01*
X66616049Y-63099500D01*
X66383951Y-63099500D01*
X66155019Y-63137702D01*
X66155017Y-63137702D01*
X66155015Y-63137703D01*
X65935496Y-63213064D01*
X65731375Y-63323529D01*
X65731369Y-63323533D01*
X65548220Y-63466082D01*
X65548218Y-63466084D01*
X65391023Y-63636843D01*
X65374737Y-63661772D01*
X65317277Y-63713222D01*
X65241790Y-63729049D01*
X65168503Y-63705012D01*
X65125263Y-63661772D01*
X65108976Y-63636843D01*
X64951781Y-63466084D01*
X64951779Y-63466082D01*
X64768630Y-63323533D01*
X64768624Y-63323529D01*
X64744356Y-63310396D01*
X64564503Y-63213064D01*
X64344981Y-63137702D01*
X64116049Y-63099500D01*
X63883951Y-63099500D01*
X63655019Y-63137702D01*
X63655017Y-63137702D01*
X63655015Y-63137703D01*
X63435496Y-63213064D01*
X63231375Y-63323529D01*
X63231369Y-63323533D01*
X63048220Y-63466082D01*
X63048218Y-63466084D01*
X62891023Y-63636844D01*
X62891021Y-63636846D01*
X62891021Y-63636847D01*
X62830783Y-63729049D01*
X62764075Y-63831153D01*
X62764073Y-63831156D01*
X62670843Y-64043698D01*
X62613865Y-64268699D01*
X62594700Y-64499998D01*
X62594700Y-64500001D01*
X59335880Y-64500001D01*
X59335391Y-64492540D01*
X59275280Y-64190341D01*
X59176238Y-63898573D01*
X59080784Y-63705012D01*
X59039962Y-63622232D01*
X58868782Y-63366042D01*
X58868779Y-63366038D01*
X58868778Y-63366036D01*
X58665620Y-63134380D01*
X58433964Y-62931222D01*
X58421644Y-62922990D01*
X58177768Y-62760037D01*
X57989347Y-62667119D01*
X57901427Y-62623762D01*
X57609659Y-62524720D01*
X57460141Y-62494979D01*
X57307461Y-62464609D01*
X57000000Y-62444457D01*
X56692538Y-62464609D01*
X56439438Y-62514954D01*
X56390341Y-62524720D01*
X56390335Y-62524721D01*
X56390335Y-62524722D01*
X56098575Y-62623761D01*
X55822232Y-62760037D01*
X55566042Y-62931217D01*
X55566038Y-62931220D01*
X55334380Y-63134380D01*
X55131220Y-63366038D01*
X55131217Y-63366042D01*
X54960037Y-63622232D01*
X54823761Y-63898575D01*
X54724722Y-64190335D01*
X54724719Y-64190346D01*
X54664609Y-64492538D01*
X54644457Y-64800000D01*
X53000000Y-64800000D01*
X53000000Y-61720189D01*
X63799499Y-61720189D01*
X63814904Y-61812503D01*
X63827537Y-61888210D01*
X63839067Y-61957300D01*
X63917118Y-62184657D01*
X63992817Y-62324536D01*
X64031528Y-62396067D01*
X64075750Y-62452883D01*
X64179170Y-62585759D01*
X64179172Y-62585761D01*
X64179174Y-62585763D01*
X64179175Y-62585764D01*
X64356031Y-62748571D01*
X64557272Y-62880049D01*
X64557277Y-62880051D01*
X64777406Y-62976609D01*
X64777407Y-62976609D01*
X64777409Y-62976610D01*
X65010437Y-63035620D01*
X65190010Y-63050500D01*
X65190014Y-63050500D01*
X65309986Y-63050500D01*
X65309990Y-63050500D01*
X65489563Y-63035620D01*
X65722591Y-62976610D01*
X65942728Y-62880049D01*
X66143969Y-62748571D01*
X66320825Y-62585764D01*
X66468472Y-62396067D01*
X66582882Y-62184656D01*
X66646273Y-62000002D01*
X72294318Y-62000002D01*
X72314954Y-62156757D01*
X72375463Y-62302840D01*
X72446999Y-62396067D01*
X72471718Y-62428282D01*
X72597159Y-62524536D01*
X72743238Y-62585044D01*
X72743241Y-62585044D01*
X72743243Y-62585045D01*
X72743240Y-62585045D01*
X72899997Y-62605682D01*
X72900000Y-62605682D01*
X72900003Y-62605682D01*
X73056757Y-62585045D01*
X73056758Y-62585044D01*
X73056762Y-62585044D01*
X73202841Y-62524536D01*
X73328282Y-62428282D01*
X73424536Y-62302841D01*
X73485044Y-62156762D01*
X73493051Y-62095948D01*
X73505682Y-62000002D01*
X73505682Y-61999997D01*
X73485045Y-61843242D01*
X73485044Y-61843240D01*
X73485044Y-61843238D01*
X73424536Y-61697159D01*
X73328282Y-61571718D01*
X73234810Y-61499994D01*
X73202840Y-61475463D01*
X73122944Y-61442369D01*
X73056762Y-61414956D01*
X73056760Y-61414955D01*
X73056756Y-61414954D01*
X73056759Y-61414954D01*
X72900003Y-61394318D01*
X72899997Y-61394318D01*
X72743242Y-61414954D01*
X72597159Y-61475463D01*
X72471718Y-61571717D01*
X72471717Y-61571718D01*
X72375463Y-61697159D01*
X72314954Y-61843242D01*
X72294318Y-61999997D01*
X72294318Y-62000002D01*
X66646273Y-62000002D01*
X66660934Y-61957297D01*
X66700500Y-61720192D01*
X66700500Y-61479808D01*
X66660934Y-61242703D01*
X66582882Y-61015344D01*
X66468472Y-60803933D01*
X66375015Y-60683859D01*
X66320829Y-60614240D01*
X66320827Y-60614238D01*
X66309590Y-60603894D01*
X66143969Y-60451429D01*
X66143968Y-60451428D01*
X66069006Y-60402453D01*
X65942728Y-60319951D01*
X65942723Y-60319949D01*
X65942722Y-60319948D01*
X65722593Y-60223390D01*
X65489564Y-60164380D01*
X65453648Y-60161404D01*
X65309990Y-60149500D01*
X65190010Y-60149500D01*
X65070294Y-60159420D01*
X65010435Y-60164380D01*
X64777406Y-60223390D01*
X64557277Y-60319948D01*
X64557273Y-60319950D01*
X64557272Y-60319951D01*
X64510042Y-60350807D01*
X64356031Y-60451428D01*
X64179172Y-60614238D01*
X64179170Y-60614240D01*
X64031531Y-60803929D01*
X64031527Y-60803934D01*
X63917118Y-61015342D01*
X63839067Y-61242699D01*
X63839066Y-61242703D01*
X63810323Y-61414954D01*
X63799500Y-61479810D01*
X63799500Y-61720189D01*
X63799499Y-61720189D01*
X53000000Y-61720189D01*
X53000000Y-58149000D01*
X53019962Y-58074500D01*
X53074500Y-58019962D01*
X53149000Y-58000000D01*
X62549678Y-58000000D01*
X62624178Y-58019962D01*
G37*
%TD.AperFunction*%
%TD*%
%TA.AperFunction,Conductor*%
%TO.N,VSW*%
G36*
X96925500Y-50520462D02*
G01*
X96980038Y-50575000D01*
X97000000Y-50649500D01*
X97000000Y-55624424D01*
X96980038Y-55698924D01*
X96969211Y-55715127D01*
X96953976Y-55734981D01*
X96953974Y-55734984D01*
X96901026Y-55862815D01*
X96901026Y-55862816D01*
X96882965Y-55999998D01*
X96882965Y-56000002D01*
X96901024Y-56137176D01*
X96901025Y-56137179D01*
X96901026Y-56137183D01*
X96953976Y-56265018D01*
X96969208Y-56284868D01*
X96998725Y-56356122D01*
X97000000Y-56375575D01*
X97000000Y-62401339D01*
X96980038Y-62475839D01*
X96925500Y-62530377D01*
X96851000Y-62550339D01*
X96776500Y-62530377D01*
X96760296Y-62519550D01*
X96702840Y-62475463D01*
X96622944Y-62442369D01*
X96556762Y-62414956D01*
X96556760Y-62414955D01*
X96556756Y-62414954D01*
X96556759Y-62414954D01*
X96400003Y-62394318D01*
X96399997Y-62394318D01*
X96243242Y-62414954D01*
X96097159Y-62475463D01*
X95971718Y-62571717D01*
X95971717Y-62571718D01*
X95875463Y-62697159D01*
X95814954Y-62843242D01*
X95794318Y-62999997D01*
X95794318Y-63000002D01*
X95814954Y-63156757D01*
X95875463Y-63302840D01*
X95961493Y-63414956D01*
X95971718Y-63428282D01*
X96097159Y-63524536D01*
X96243238Y-63585044D01*
X96243241Y-63585044D01*
X96243243Y-63585045D01*
X96243240Y-63585045D01*
X96399997Y-63605682D01*
X96400000Y-63605682D01*
X96400003Y-63605682D01*
X96556757Y-63585045D01*
X96556758Y-63585044D01*
X96556762Y-63585044D01*
X96702841Y-63524536D01*
X96760295Y-63480449D01*
X96831552Y-63450935D01*
X96908020Y-63461002D01*
X96969210Y-63507955D01*
X96998725Y-63579212D01*
X97000000Y-63598660D01*
X97000000Y-67614736D01*
X96980040Y-67689233D01*
X96975463Y-67697160D01*
X96914954Y-67843242D01*
X96894318Y-67999997D01*
X96894318Y-68000002D01*
X96914954Y-68156757D01*
X96975463Y-68302839D01*
X96980038Y-68310763D01*
X97000000Y-68385263D01*
X97000000Y-73147076D01*
X96998725Y-73166525D01*
X96994318Y-73199998D01*
X96994318Y-73199999D01*
X96998725Y-73233472D01*
X97000000Y-73252922D01*
X97000000Y-79333307D01*
X96980038Y-79407807D01*
X96925500Y-79462345D01*
X96908024Y-79470963D01*
X96897161Y-79475462D01*
X96897154Y-79475466D01*
X96771719Y-79571716D01*
X96771717Y-79571718D01*
X96675463Y-79697159D01*
X96614954Y-79843242D01*
X96594318Y-79999997D01*
X96594318Y-80000002D01*
X96614954Y-80156757D01*
X96675463Y-80302840D01*
X96760771Y-80414015D01*
X96771718Y-80428282D01*
X96897159Y-80524536D01*
X96908017Y-80529033D01*
X96969207Y-80575982D01*
X96998725Y-80647238D01*
X97000000Y-80666692D01*
X97000000Y-85851000D01*
X96980038Y-85925500D01*
X96925500Y-85980038D01*
X96851000Y-86000000D01*
X77863466Y-86000000D01*
X77788966Y-85980038D01*
X77758107Y-85956359D01*
X77753220Y-85951472D01*
X77633127Y-85890281D01*
X77500000Y-85869196D01*
X77366872Y-85890281D01*
X77246779Y-85951472D01*
X77241893Y-85956359D01*
X77175098Y-85994923D01*
X77136534Y-86000000D01*
X75985264Y-86000000D01*
X75910767Y-85980040D01*
X75902839Y-85975463D01*
X75864682Y-85959658D01*
X75756762Y-85914956D01*
X75756760Y-85914955D01*
X75756756Y-85914954D01*
X75756759Y-85914954D01*
X75600003Y-85894318D01*
X75599997Y-85894318D01*
X75443242Y-85914954D01*
X75297160Y-85975463D01*
X75289233Y-85980040D01*
X75214736Y-86000000D01*
X75015718Y-86000000D01*
X74941218Y-85980038D01*
X74925016Y-85969212D01*
X74802841Y-85875464D01*
X74802840Y-85875463D01*
X74722944Y-85842369D01*
X74656762Y-85814956D01*
X74656760Y-85814955D01*
X74656756Y-85814954D01*
X74656759Y-85814954D01*
X74500003Y-85794318D01*
X74499997Y-85794318D01*
X74343242Y-85814954D01*
X74197159Y-85875463D01*
X74108949Y-85943149D01*
X74074985Y-85969210D01*
X74003730Y-85998725D01*
X73984282Y-86000000D01*
X66149000Y-86000000D01*
X66074500Y-85980038D01*
X66019962Y-85925500D01*
X66000000Y-85851000D01*
X66000000Y-85000002D01*
X77494318Y-85000002D01*
X77514954Y-85156757D01*
X77575463Y-85302840D01*
X77575464Y-85302841D01*
X77671718Y-85428282D01*
X77797159Y-85524536D01*
X77943238Y-85585044D01*
X77943241Y-85585044D01*
X77943243Y-85585045D01*
X77943240Y-85585045D01*
X78099997Y-85605682D01*
X78100000Y-85605682D01*
X78100003Y-85605682D01*
X78256757Y-85585045D01*
X78256758Y-85585044D01*
X78256762Y-85585044D01*
X78402841Y-85524536D01*
X78528282Y-85428282D01*
X78624536Y-85302841D01*
X78685044Y-85156762D01*
X78705682Y-85000002D01*
X90894318Y-85000002D01*
X90914954Y-85156757D01*
X90975463Y-85302840D01*
X90975464Y-85302841D01*
X91071718Y-85428282D01*
X91197159Y-85524536D01*
X91343238Y-85585044D01*
X91343241Y-85585044D01*
X91343243Y-85585045D01*
X91343240Y-85585045D01*
X91499997Y-85605682D01*
X91500000Y-85605682D01*
X91500003Y-85605682D01*
X91656757Y-85585045D01*
X91656758Y-85585044D01*
X91656762Y-85585044D01*
X91802841Y-85524536D01*
X91928282Y-85428282D01*
X92024536Y-85302841D01*
X92085044Y-85156762D01*
X92105682Y-85000000D01*
X92085044Y-84843238D01*
X92024536Y-84697159D01*
X91928282Y-84571718D01*
X91872116Y-84528620D01*
X91802840Y-84475463D01*
X91701135Y-84433336D01*
X91656762Y-84414956D01*
X91656760Y-84414955D01*
X91656756Y-84414954D01*
X91656759Y-84414954D01*
X91500003Y-84394318D01*
X91499997Y-84394318D01*
X91343242Y-84414954D01*
X91197159Y-84475463D01*
X91071718Y-84571717D01*
X91071717Y-84571718D01*
X90975463Y-84697159D01*
X90914954Y-84843242D01*
X90894318Y-84999997D01*
X90894318Y-85000002D01*
X78705682Y-85000002D01*
X78705682Y-85000000D01*
X78703713Y-84985044D01*
X78685045Y-84843240D01*
X78664348Y-84793273D01*
X78654281Y-84716805D01*
X78683797Y-84645548D01*
X78711299Y-84618045D01*
X78828282Y-84528282D01*
X78924536Y-84402841D01*
X78985044Y-84256762D01*
X78986825Y-84243238D01*
X79005682Y-84100002D01*
X79005682Y-84099997D01*
X78985045Y-83943242D01*
X78985044Y-83943240D01*
X78985044Y-83943238D01*
X78924536Y-83797159D01*
X78828282Y-83671718D01*
X78715328Y-83585045D01*
X78702840Y-83575463D01*
X78622944Y-83542369D01*
X78556762Y-83514956D01*
X78556760Y-83514955D01*
X78556756Y-83514954D01*
X78556759Y-83514954D01*
X78400003Y-83494318D01*
X78399997Y-83494318D01*
X78243242Y-83514954D01*
X78097159Y-83575463D01*
X77971718Y-83671717D01*
X77971717Y-83671718D01*
X77875463Y-83797159D01*
X77814954Y-83943242D01*
X77794318Y-84099997D01*
X77794318Y-84100002D01*
X77814954Y-84256757D01*
X77835652Y-84306727D01*
X77845718Y-84383195D01*
X77816202Y-84454452D01*
X77788699Y-84481954D01*
X77671720Y-84571715D01*
X77671717Y-84571718D01*
X77575463Y-84697159D01*
X77514954Y-84843242D01*
X77494318Y-84999997D01*
X77494318Y-85000002D01*
X66000000Y-85000002D01*
X66000000Y-84000002D01*
X68194318Y-84000002D01*
X68214954Y-84156757D01*
X68275463Y-84302840D01*
X68361493Y-84414956D01*
X68371718Y-84428282D01*
X68497159Y-84524536D01*
X68643238Y-84585044D01*
X68643241Y-84585044D01*
X68643243Y-84585045D01*
X68643240Y-84585045D01*
X68799997Y-84605682D01*
X68800000Y-84605682D01*
X68800003Y-84605682D01*
X68956757Y-84585045D01*
X68956758Y-84585044D01*
X68956762Y-84585044D01*
X69092982Y-84528619D01*
X69169448Y-84518553D01*
X69207016Y-84528618D01*
X69343238Y-84585044D01*
X69343241Y-84585044D01*
X69343243Y-84585045D01*
X69343240Y-84585045D01*
X69499997Y-84605682D01*
X69500000Y-84605682D01*
X69500003Y-84605682D01*
X69656757Y-84585045D01*
X69656758Y-84585044D01*
X69656762Y-84585044D01*
X69802841Y-84524536D01*
X69928282Y-84428282D01*
X70024536Y-84302841D01*
X70085044Y-84156762D01*
X70092518Y-84099997D01*
X70105682Y-84000002D01*
X70105682Y-83999997D01*
X70085045Y-83843242D01*
X70085044Y-83843240D01*
X70085044Y-83843238D01*
X70024536Y-83697159D01*
X69928282Y-83571718D01*
X69802841Y-83475464D01*
X69802840Y-83475463D01*
X69722944Y-83442369D01*
X69656762Y-83414956D01*
X69656760Y-83414955D01*
X69656756Y-83414954D01*
X69656759Y-83414954D01*
X69500003Y-83394318D01*
X69499997Y-83394318D01*
X69343240Y-83414954D01*
X69207019Y-83471379D01*
X69130551Y-83481446D01*
X69092981Y-83471379D01*
X68956759Y-83414954D01*
X68800003Y-83394318D01*
X68799997Y-83394318D01*
X68643242Y-83414954D01*
X68497159Y-83475463D01*
X68371718Y-83571717D01*
X68371717Y-83571718D01*
X68275463Y-83697159D01*
X68214954Y-83843242D01*
X68194318Y-83999997D01*
X68194318Y-84000002D01*
X66000000Y-84000002D01*
X66000000Y-83000002D01*
X83494318Y-83000002D01*
X83514954Y-83156757D01*
X83575463Y-83302840D01*
X83661493Y-83414956D01*
X83671718Y-83428282D01*
X83797159Y-83524536D01*
X83943238Y-83585044D01*
X83943241Y-83585044D01*
X83943243Y-83585045D01*
X83943240Y-83585045D01*
X84099997Y-83605682D01*
X84100000Y-83605682D01*
X84100003Y-83605682D01*
X84256757Y-83585045D01*
X84256758Y-83585044D01*
X84256762Y-83585044D01*
X84402841Y-83524536D01*
X84528282Y-83428282D01*
X84624536Y-83302841D01*
X84685044Y-83156762D01*
X84705682Y-83000000D01*
X84685044Y-82843238D01*
X84624536Y-82697159D01*
X84528282Y-82571718D01*
X84402841Y-82475464D01*
X84402840Y-82475463D01*
X84322944Y-82442369D01*
X84256762Y-82414956D01*
X84256760Y-82414955D01*
X84256756Y-82414954D01*
X84256759Y-82414954D01*
X84100003Y-82394318D01*
X84099997Y-82394318D01*
X83943242Y-82414954D01*
X83797159Y-82475463D01*
X83671718Y-82571717D01*
X83671717Y-82571718D01*
X83575463Y-82697159D01*
X83514954Y-82843242D01*
X83494318Y-82999997D01*
X83494318Y-83000002D01*
X66000000Y-83000002D01*
X66000000Y-80900002D01*
X69894318Y-80900002D01*
X69914954Y-81056757D01*
X69975463Y-81202840D01*
X70050017Y-81300000D01*
X70071718Y-81328282D01*
X70197159Y-81424536D01*
X70343238Y-81485044D01*
X70343241Y-81485044D01*
X70343243Y-81485045D01*
X70343240Y-81485045D01*
X70499997Y-81505682D01*
X70500000Y-81505682D01*
X70500003Y-81505682D01*
X70543147Y-81500002D01*
X76994318Y-81500002D01*
X77014954Y-81656757D01*
X77075463Y-81802840D01*
X77168844Y-81924536D01*
X77171718Y-81928282D01*
X77297159Y-82024536D01*
X77443238Y-82085044D01*
X77443241Y-82085044D01*
X77443243Y-82085045D01*
X77443240Y-82085045D01*
X77599997Y-82105682D01*
X77600000Y-82105682D01*
X77600003Y-82105682D01*
X77756757Y-82085045D01*
X77756758Y-82085044D01*
X77756762Y-82085044D01*
X77902841Y-82024536D01*
X78028282Y-81928282D01*
X78124536Y-81802841D01*
X78185044Y-81656762D01*
X78205682Y-81500000D01*
X78205682Y-81499997D01*
X78185045Y-81343242D01*
X78185044Y-81343240D01*
X78185044Y-81343238D01*
X78160618Y-81284270D01*
X78150552Y-81207804D01*
X78180067Y-81136547D01*
X78241257Y-81089594D01*
X78317725Y-81079527D01*
X78336853Y-81083332D01*
X78343235Y-81085042D01*
X78343238Y-81085044D01*
X78343241Y-81085044D01*
X78343247Y-81085046D01*
X78499997Y-81105682D01*
X78500000Y-81105682D01*
X78500003Y-81105682D01*
X78656757Y-81085045D01*
X78656758Y-81085044D01*
X78656762Y-81085044D01*
X78802841Y-81024536D01*
X78928282Y-80928282D01*
X79024536Y-80802841D01*
X79085044Y-80656762D01*
X79092892Y-80597156D01*
X79105682Y-80500002D01*
X79105682Y-80499997D01*
X79085045Y-80343242D01*
X79085044Y-80343240D01*
X79085044Y-80343238D01*
X79024536Y-80197159D01*
X78928282Y-80071718D01*
X78834820Y-80000002D01*
X81714491Y-80000002D01*
X81734440Y-80151538D01*
X81792932Y-80292751D01*
X81792934Y-80292755D01*
X81885983Y-80414017D01*
X82007245Y-80507066D01*
X82088455Y-80540704D01*
X82148461Y-80565559D01*
X82201825Y-80572584D01*
X82273082Y-80602098D01*
X82320035Y-80663288D01*
X82330103Y-80739756D01*
X82300589Y-80811013D01*
X82239400Y-80857966D01*
X82197160Y-80875462D01*
X82071718Y-80971717D01*
X82071717Y-80971718D01*
X81975463Y-81097159D01*
X81914954Y-81243242D01*
X81894318Y-81399997D01*
X81894318Y-81400002D01*
X81914954Y-81556757D01*
X81975463Y-81702840D01*
X82052196Y-81802840D01*
X82071718Y-81828282D01*
X82197159Y-81924536D01*
X82343238Y-81985044D01*
X82343241Y-81985044D01*
X82343243Y-81985045D01*
X82343240Y-81985045D01*
X82499997Y-82005682D01*
X82500000Y-82005682D01*
X82500003Y-82005682D01*
X82656757Y-81985045D01*
X82656758Y-81985044D01*
X82656762Y-81985044D01*
X82802841Y-81924536D01*
X82928282Y-81828282D01*
X83024536Y-81702841D01*
X83085044Y-81556762D01*
X83088794Y-81528282D01*
X83105682Y-81400002D01*
X83494318Y-81400002D01*
X83514954Y-81556757D01*
X83575463Y-81702840D01*
X83652196Y-81802840D01*
X83671718Y-81828282D01*
X83797159Y-81924536D01*
X83943238Y-81985044D01*
X83943241Y-81985044D01*
X83943243Y-81985045D01*
X83943240Y-81985045D01*
X84099997Y-82005682D01*
X84100000Y-82005682D01*
X84100003Y-82005682D01*
X84256757Y-81985045D01*
X84256758Y-81985044D01*
X84256762Y-81985044D01*
X84402841Y-81924536D01*
X84528282Y-81828282D01*
X84624536Y-81702841D01*
X84685044Y-81556762D01*
X84688794Y-81528282D01*
X84705682Y-81400002D01*
X84705682Y-81399997D01*
X84685045Y-81243242D01*
X84685044Y-81243240D01*
X84685044Y-81243238D01*
X84625714Y-81100002D01*
X88294318Y-81100002D01*
X88314954Y-81256757D01*
X88375463Y-81402840D01*
X88450017Y-81500000D01*
X88471718Y-81528282D01*
X88597159Y-81624536D01*
X88743238Y-81685044D01*
X88743241Y-81685044D01*
X88743243Y-81685045D01*
X88743240Y-81685045D01*
X88899997Y-81705682D01*
X88900000Y-81705682D01*
X88900003Y-81705682D01*
X89056757Y-81685045D01*
X89056758Y-81685044D01*
X89056762Y-81685044D01*
X89202841Y-81624536D01*
X89328282Y-81528282D01*
X89424536Y-81402841D01*
X89467133Y-81300002D01*
X90924577Y-81300002D01*
X90944182Y-81448927D01*
X91001667Y-81587710D01*
X91093113Y-81706885D01*
X91093114Y-81706886D01*
X91212289Y-81798332D01*
X91351072Y-81855817D01*
X91499997Y-81875423D01*
X91500000Y-81875423D01*
X91500003Y-81875423D01*
X91648927Y-81855817D01*
X91648929Y-81855816D01*
X91648930Y-81855816D01*
X91776824Y-81802841D01*
X91787710Y-81798332D01*
X91787710Y-81798331D01*
X91787712Y-81798331D01*
X91906886Y-81706886D01*
X91998331Y-81587712D01*
X92055816Y-81448930D01*
X92055816Y-81448929D01*
X92055817Y-81448927D01*
X92075423Y-81300002D01*
X92075423Y-81299997D01*
X92055817Y-81151072D01*
X91998332Y-81012290D01*
X91906886Y-80893114D01*
X91906885Y-80893113D01*
X91787710Y-80801667D01*
X91648927Y-80744182D01*
X91500003Y-80724577D01*
X91499997Y-80724577D01*
X91351072Y-80744182D01*
X91212290Y-80801667D01*
X91093114Y-80893113D01*
X91093113Y-80893114D01*
X91001667Y-81012290D01*
X90944182Y-81151072D01*
X90924577Y-81299997D01*
X90924577Y-81300002D01*
X89467133Y-81300002D01*
X89485044Y-81256762D01*
X89486825Y-81243238D01*
X89505682Y-81100002D01*
X89505682Y-81099997D01*
X89485045Y-80943242D01*
X89485044Y-80943240D01*
X89485044Y-80943238D01*
X89424536Y-80797159D01*
X89328282Y-80671718D01*
X89308785Y-80656757D01*
X89202840Y-80575463D01*
X89090744Y-80529032D01*
X89056762Y-80514956D01*
X89056760Y-80514955D01*
X89056756Y-80514954D01*
X89056759Y-80514954D01*
X88900003Y-80494318D01*
X88899997Y-80494318D01*
X88743242Y-80514954D01*
X88597159Y-80575463D01*
X88471718Y-80671717D01*
X88471717Y-80671718D01*
X88375463Y-80797159D01*
X88314954Y-80943242D01*
X88294318Y-81099997D01*
X88294318Y-81100002D01*
X84625714Y-81100002D01*
X84624536Y-81097159D01*
X84528282Y-80971718D01*
X84491172Y-80943242D01*
X84402840Y-80875463D01*
X84322944Y-80842369D01*
X84256762Y-80814956D01*
X84256760Y-80814955D01*
X84256756Y-80814954D01*
X84256759Y-80814954D01*
X84100003Y-80794318D01*
X84099997Y-80794318D01*
X83943242Y-80814954D01*
X83797159Y-80875463D01*
X83671718Y-80971717D01*
X83671717Y-80971718D01*
X83575463Y-81097159D01*
X83514954Y-81243242D01*
X83494318Y-81399997D01*
X83494318Y-81400002D01*
X83105682Y-81400002D01*
X83105682Y-81399997D01*
X83085045Y-81243242D01*
X83085044Y-81243240D01*
X83085044Y-81243238D01*
X83024536Y-81097159D01*
X82928282Y-80971718D01*
X82891172Y-80943242D01*
X82802840Y-80875463D01*
X82656758Y-80814954D01*
X82595470Y-80806886D01*
X82524213Y-80777371D01*
X82477261Y-80716181D01*
X82467194Y-80639712D01*
X82496709Y-80568455D01*
X82557897Y-80521504D01*
X82592755Y-80507066D01*
X82709294Y-80417640D01*
X82780551Y-80388125D01*
X82857019Y-80398192D01*
X82890705Y-80417640D01*
X83007245Y-80507066D01*
X83088455Y-80540704D01*
X83148461Y-80565559D01*
X83299997Y-80585509D01*
X83300000Y-80585509D01*
X83300003Y-80585509D01*
X83451538Y-80565559D01*
X83451540Y-80565558D01*
X83451541Y-80565558D01*
X83592755Y-80507066D01*
X83714017Y-80414017D01*
X83807066Y-80292755D01*
X83865558Y-80151541D01*
X83865558Y-80151540D01*
X83865559Y-80151538D01*
X83885509Y-80000002D01*
X84934491Y-80000002D01*
X84954440Y-80151538D01*
X85012932Y-80292751D01*
X85012934Y-80292755D01*
X85105983Y-80414017D01*
X85227245Y-80507066D01*
X85308455Y-80540704D01*
X85368461Y-80565559D01*
X85519997Y-80585509D01*
X85520000Y-80585509D01*
X85520003Y-80585509D01*
X85671538Y-80565559D01*
X85671540Y-80565558D01*
X85671541Y-80565558D01*
X85812755Y-80507066D01*
X85934017Y-80414017D01*
X86027066Y-80292755D01*
X86085558Y-80151541D01*
X86085558Y-80151540D01*
X86085559Y-80151538D01*
X86105509Y-80000002D01*
X86105509Y-79999997D01*
X86085559Y-79848461D01*
X86027066Y-79707245D01*
X85986665Y-79654596D01*
X85944774Y-79600002D01*
X90794318Y-79600002D01*
X90814954Y-79756757D01*
X90875463Y-79902840D01*
X90950017Y-80000000D01*
X90971718Y-80028282D01*
X91097159Y-80124536D01*
X91243238Y-80185044D01*
X91243241Y-80185044D01*
X91243243Y-80185045D01*
X91243240Y-80185045D01*
X91399997Y-80205682D01*
X91400000Y-80205682D01*
X91400003Y-80205682D01*
X91556757Y-80185045D01*
X91556758Y-80185044D01*
X91556762Y-80185044D01*
X91702841Y-80124536D01*
X91828282Y-80028282D01*
X91849982Y-80000002D01*
X94794318Y-80000002D01*
X94814954Y-80156757D01*
X94875463Y-80302840D01*
X94960771Y-80414015D01*
X94971718Y-80428282D01*
X95097159Y-80524536D01*
X95243238Y-80585044D01*
X95243241Y-80585044D01*
X95243243Y-80585045D01*
X95243240Y-80585045D01*
X95399997Y-80605682D01*
X95400000Y-80605682D01*
X95400003Y-80605682D01*
X95556757Y-80585045D01*
X95556758Y-80585044D01*
X95556762Y-80585044D01*
X95702841Y-80524536D01*
X95828282Y-80428282D01*
X95924536Y-80302841D01*
X95985044Y-80156762D01*
X95985732Y-80151541D01*
X96005682Y-80000002D01*
X96005682Y-79999997D01*
X95985045Y-79843242D01*
X95985044Y-79843240D01*
X95985044Y-79843238D01*
X95924536Y-79697159D01*
X95828282Y-79571718D01*
X95828280Y-79571716D01*
X95702840Y-79475463D01*
X95603800Y-79434440D01*
X95556762Y-79414956D01*
X95556760Y-79414955D01*
X95556756Y-79414954D01*
X95556759Y-79414954D01*
X95400003Y-79394318D01*
X95399997Y-79394318D01*
X95243242Y-79414954D01*
X95097159Y-79475463D01*
X94971718Y-79571717D01*
X94971717Y-79571718D01*
X94875463Y-79697159D01*
X94814954Y-79843242D01*
X94794318Y-79999997D01*
X94794318Y-80000002D01*
X91849982Y-80000002D01*
X91924536Y-79902841D01*
X91985044Y-79756762D01*
X91992776Y-79698037D01*
X92005682Y-79600002D01*
X92005682Y-79599997D01*
X91985045Y-79443242D01*
X91985044Y-79443240D01*
X91985044Y-79443238D01*
X91924536Y-79297159D01*
X91828282Y-79171718D01*
X91702841Y-79075464D01*
X91702840Y-79075463D01*
X91622944Y-79042369D01*
X91556762Y-79014956D01*
X91556760Y-79014955D01*
X91556756Y-79014954D01*
X91556759Y-79014954D01*
X91400003Y-78994318D01*
X91399997Y-78994318D01*
X91243242Y-79014954D01*
X91097159Y-79075463D01*
X90971718Y-79171717D01*
X90971717Y-79171718D01*
X90875463Y-79297159D01*
X90814954Y-79443242D01*
X90794318Y-79599997D01*
X90794318Y-79600002D01*
X85944774Y-79600002D01*
X85934017Y-79585983D01*
X85812755Y-79492934D01*
X85812752Y-79492932D01*
X85812751Y-79492932D01*
X85671538Y-79434440D01*
X85520003Y-79414491D01*
X85519997Y-79414491D01*
X85368461Y-79434440D01*
X85227245Y-79492933D01*
X85105985Y-79585981D01*
X85105981Y-79585985D01*
X85012933Y-79707245D01*
X84954440Y-79848461D01*
X84934491Y-79999997D01*
X84934491Y-80000002D01*
X83885509Y-80000002D01*
X83885509Y-79999997D01*
X83865559Y-79848461D01*
X83807066Y-79707245D01*
X83766665Y-79654596D01*
X83714017Y-79585983D01*
X83592755Y-79492934D01*
X83592752Y-79492932D01*
X83592751Y-79492932D01*
X83451538Y-79434440D01*
X83300003Y-79414491D01*
X83299997Y-79414491D01*
X83148461Y-79434440D01*
X83007245Y-79492933D01*
X82890706Y-79582358D01*
X82819449Y-79611874D01*
X82742980Y-79601807D01*
X82709294Y-79582359D01*
X82709293Y-79582358D01*
X82592755Y-79492934D01*
X82592752Y-79492933D01*
X82592750Y-79492931D01*
X82451538Y-79434440D01*
X82300003Y-79414491D01*
X82299997Y-79414491D01*
X82148461Y-79434440D01*
X82007245Y-79492933D01*
X81885985Y-79585981D01*
X81885981Y-79585985D01*
X81792933Y-79707245D01*
X81734440Y-79848461D01*
X81714491Y-79999997D01*
X81714491Y-80000002D01*
X78834820Y-80000002D01*
X78802841Y-79975464D01*
X78802840Y-79975463D01*
X78663068Y-79917568D01*
X78601878Y-79870615D01*
X78582432Y-79836933D01*
X78531908Y-79714956D01*
X78524537Y-79697160D01*
X78428282Y-79571718D01*
X78428281Y-79571717D01*
X78302840Y-79475463D01*
X78203800Y-79434440D01*
X78156762Y-79414956D01*
X78156760Y-79414955D01*
X78156756Y-79414954D01*
X78156759Y-79414954D01*
X78000003Y-79394318D01*
X77999997Y-79394318D01*
X77843242Y-79414954D01*
X77697159Y-79475463D01*
X77571718Y-79571717D01*
X77571717Y-79571718D01*
X77475463Y-79697159D01*
X77414954Y-79843242D01*
X77394318Y-79999997D01*
X77394318Y-80000002D01*
X77414954Y-80156757D01*
X77475463Y-80302840D01*
X77571717Y-80428281D01*
X77571718Y-80428282D01*
X77697160Y-80524537D01*
X77736199Y-80540707D01*
X77836931Y-80582431D01*
X77898119Y-80629382D01*
X77917568Y-80663068D01*
X77939380Y-80715727D01*
X77949447Y-80792196D01*
X77919932Y-80863453D01*
X77858742Y-80910405D01*
X77782273Y-80920472D01*
X77763153Y-80916669D01*
X77756762Y-80914956D01*
X77756760Y-80914955D01*
X77756754Y-80914954D01*
X77600003Y-80894318D01*
X77599997Y-80894318D01*
X77443242Y-80914954D01*
X77297159Y-80975463D01*
X77171718Y-81071717D01*
X77171717Y-81071718D01*
X77075463Y-81197159D01*
X77014954Y-81343242D01*
X76994318Y-81499997D01*
X76994318Y-81500002D01*
X70543147Y-81500002D01*
X70656757Y-81485045D01*
X70656758Y-81485044D01*
X70656762Y-81485044D01*
X70802841Y-81424536D01*
X70928282Y-81328282D01*
X71024536Y-81202841D01*
X71085044Y-81056762D01*
X71096241Y-80971717D01*
X71105682Y-80900002D01*
X71105682Y-80899997D01*
X71085045Y-80743242D01*
X71085044Y-80743240D01*
X71085044Y-80743238D01*
X71024536Y-80597159D01*
X70981214Y-80540701D01*
X70951701Y-80469450D01*
X70961767Y-80392982D01*
X70981210Y-80359303D01*
X71024536Y-80302841D01*
X71085044Y-80156762D01*
X71085732Y-80151541D01*
X71105682Y-80000002D01*
X73994318Y-80000002D01*
X74014954Y-80156757D01*
X74075463Y-80302840D01*
X74160771Y-80414015D01*
X74171718Y-80428282D01*
X74297159Y-80524536D01*
X74443238Y-80585044D01*
X74443241Y-80585044D01*
X74443243Y-80585045D01*
X74443240Y-80585045D01*
X74599997Y-80605682D01*
X74600000Y-80605682D01*
X74600003Y-80605682D01*
X74756757Y-80585045D01*
X74756758Y-80585044D01*
X74756762Y-80585044D01*
X74902841Y-80524536D01*
X75028282Y-80428282D01*
X75124536Y-80302841D01*
X75185044Y-80156762D01*
X75185732Y-80151541D01*
X75205682Y-80000002D01*
X75205682Y-79999997D01*
X75185045Y-79843242D01*
X75185044Y-79843240D01*
X75185044Y-79843238D01*
X75124536Y-79697159D01*
X75028282Y-79571718D01*
X75028280Y-79571716D01*
X74902840Y-79475463D01*
X74803800Y-79434440D01*
X74756762Y-79414956D01*
X74756760Y-79414955D01*
X74756756Y-79414954D01*
X74756759Y-79414954D01*
X74600003Y-79394318D01*
X74599997Y-79394318D01*
X74443242Y-79414954D01*
X74297159Y-79475463D01*
X74171718Y-79571717D01*
X74171717Y-79571718D01*
X74075463Y-79697159D01*
X74014954Y-79843242D01*
X73994318Y-79999997D01*
X73994318Y-80000002D01*
X71105682Y-80000002D01*
X71105682Y-79999997D01*
X71085045Y-79843242D01*
X71085044Y-79843240D01*
X71085044Y-79843238D01*
X71024536Y-79697159D01*
X70928282Y-79571718D01*
X70928280Y-79571716D01*
X70802840Y-79475463D01*
X70703800Y-79434440D01*
X70656762Y-79414956D01*
X70656760Y-79414955D01*
X70656756Y-79414954D01*
X70656759Y-79414954D01*
X70500003Y-79394318D01*
X70499997Y-79394318D01*
X70343242Y-79414954D01*
X70197159Y-79475463D01*
X70071718Y-79571717D01*
X70071717Y-79571718D01*
X69975463Y-79697159D01*
X69914954Y-79843242D01*
X69894318Y-79999997D01*
X69894318Y-80000002D01*
X69914954Y-80156757D01*
X69975464Y-80302841D01*
X69975465Y-80302843D01*
X70018782Y-80359296D01*
X70048297Y-80430553D01*
X70038230Y-80507021D01*
X70018782Y-80540704D01*
X69975465Y-80597156D01*
X69975464Y-80597158D01*
X69914954Y-80743242D01*
X69894318Y-80899997D01*
X69894318Y-80900002D01*
X66000000Y-80900002D01*
X66000000Y-77600002D01*
X77094318Y-77600002D01*
X77114954Y-77756757D01*
X77175463Y-77902840D01*
X77175464Y-77902841D01*
X77271718Y-78028282D01*
X77397159Y-78124536D01*
X77543238Y-78185044D01*
X77543241Y-78185044D01*
X77543243Y-78185045D01*
X77543240Y-78185045D01*
X77699997Y-78205682D01*
X77700000Y-78205682D01*
X77700003Y-78205682D01*
X77856757Y-78185045D01*
X77856758Y-78185044D01*
X77856762Y-78185044D01*
X78002841Y-78124536D01*
X78128282Y-78028282D01*
X78224536Y-77902841D01*
X78267133Y-77800002D01*
X82694318Y-77800002D01*
X82714954Y-77956757D01*
X82775463Y-78102840D01*
X82775464Y-78102841D01*
X82871718Y-78228282D01*
X82997159Y-78324536D01*
X83143238Y-78385044D01*
X83143241Y-78385044D01*
X83143243Y-78385045D01*
X83143240Y-78385045D01*
X83299997Y-78405682D01*
X83300000Y-78405682D01*
X83300003Y-78405682D01*
X83456757Y-78385045D01*
X83456758Y-78385044D01*
X83456762Y-78385044D01*
X83602841Y-78324536D01*
X83728282Y-78228282D01*
X83824536Y-78102841D01*
X83885044Y-77956762D01*
X83905682Y-77800000D01*
X83885044Y-77643238D01*
X83824536Y-77497159D01*
X83728282Y-77371718D01*
X83602841Y-77275464D01*
X83602840Y-77275463D01*
X83522944Y-77242369D01*
X83456762Y-77214956D01*
X83456760Y-77214955D01*
X83456756Y-77214954D01*
X83456759Y-77214954D01*
X83300003Y-77194318D01*
X83299997Y-77194318D01*
X83143242Y-77214954D01*
X82997159Y-77275463D01*
X82871718Y-77371717D01*
X82871717Y-77371718D01*
X82775463Y-77497159D01*
X82714954Y-77643242D01*
X82694318Y-77799997D01*
X82694318Y-77800002D01*
X78267133Y-77800002D01*
X78285044Y-77756762D01*
X78305682Y-77600000D01*
X78285044Y-77443238D01*
X78224536Y-77297159D01*
X78128282Y-77171718D01*
X78128281Y-77171717D01*
X78002839Y-77075462D01*
X77911569Y-77037658D01*
X77850379Y-76990706D01*
X77820863Y-76919449D01*
X77830930Y-76842981D01*
X77877882Y-76781791D01*
X77911569Y-76762342D01*
X78002839Y-76724537D01*
X78002839Y-76724536D01*
X78002841Y-76724536D01*
X78128282Y-76628282D01*
X78224536Y-76502841D01*
X78285044Y-76356762D01*
X78305682Y-76200000D01*
X78285044Y-76043238D01*
X78224536Y-75897159D01*
X78128282Y-75771718D01*
X78002841Y-75675464D01*
X78002840Y-75675463D01*
X77922944Y-75642369D01*
X77856762Y-75614956D01*
X77856760Y-75614955D01*
X77856756Y-75614954D01*
X77856759Y-75614954D01*
X77700003Y-75594318D01*
X77699997Y-75594318D01*
X77543242Y-75614954D01*
X77397159Y-75675463D01*
X77271718Y-75771717D01*
X77271717Y-75771718D01*
X77175463Y-75897159D01*
X77114954Y-76043242D01*
X77094318Y-76199997D01*
X77094318Y-76200002D01*
X77114954Y-76356757D01*
X77175463Y-76502840D01*
X77271717Y-76628281D01*
X77271718Y-76628282D01*
X77397159Y-76724536D01*
X77488431Y-76762342D01*
X77549621Y-76809294D01*
X77579136Y-76880551D01*
X77569069Y-76957020D01*
X77522117Y-77018210D01*
X77488431Y-77037658D01*
X77397159Y-77075463D01*
X77271718Y-77171717D01*
X77271717Y-77171718D01*
X77175463Y-77297159D01*
X77114954Y-77443242D01*
X77094318Y-77599997D01*
X77094318Y-77600002D01*
X66000000Y-77600002D01*
X66000000Y-75000002D01*
X73794318Y-75000002D01*
X73814954Y-75156757D01*
X73875463Y-75302840D01*
X73968844Y-75424536D01*
X73971718Y-75428282D01*
X74097159Y-75524536D01*
X74243238Y-75585044D01*
X74243241Y-75585044D01*
X74243243Y-75585045D01*
X74243240Y-75585045D01*
X74399997Y-75605682D01*
X74400000Y-75605682D01*
X74400003Y-75605682D01*
X74556757Y-75585045D01*
X74556758Y-75585044D01*
X74556762Y-75585044D01*
X74702841Y-75524536D01*
X74828282Y-75428282D01*
X74924536Y-75302841D01*
X74985044Y-75156762D01*
X75005682Y-75000002D01*
X82194318Y-75000002D01*
X82214954Y-75156757D01*
X82275463Y-75302840D01*
X82368844Y-75424536D01*
X82371718Y-75428282D01*
X82497159Y-75524536D01*
X82643238Y-75585044D01*
X82643241Y-75585044D01*
X82643243Y-75585045D01*
X82643240Y-75585045D01*
X82799997Y-75605682D01*
X82800000Y-75605682D01*
X82800003Y-75605682D01*
X82956757Y-75585045D01*
X82956758Y-75585044D01*
X82956762Y-75585044D01*
X83102841Y-75524536D01*
X83228282Y-75428282D01*
X83324536Y-75302841D01*
X83385044Y-75156762D01*
X83405682Y-75000000D01*
X83405682Y-74999997D01*
X83392518Y-74900002D01*
X83994318Y-74900002D01*
X84014954Y-75056757D01*
X84075463Y-75202840D01*
X84152196Y-75302840D01*
X84171718Y-75328282D01*
X84297159Y-75424536D01*
X84443238Y-75485044D01*
X84443241Y-75485044D01*
X84443243Y-75485045D01*
X84443240Y-75485045D01*
X84599997Y-75505682D01*
X84600000Y-75505682D01*
X84600003Y-75505682D01*
X84756757Y-75485045D01*
X84756758Y-75485044D01*
X84756762Y-75485044D01*
X84902841Y-75424536D01*
X85028282Y-75328282D01*
X85124536Y-75202841D01*
X85185044Y-75056762D01*
X85192518Y-74999997D01*
X85205682Y-74900002D01*
X85205682Y-74899997D01*
X85185045Y-74743242D01*
X85185044Y-74743240D01*
X85185044Y-74743238D01*
X85124536Y-74597159D01*
X85028282Y-74471718D01*
X84902841Y-74375464D01*
X84902840Y-74375463D01*
X84805995Y-74335349D01*
X84756762Y-74314956D01*
X84756760Y-74314955D01*
X84756756Y-74314954D01*
X84756759Y-74314954D01*
X84600003Y-74294318D01*
X84599997Y-74294318D01*
X84443242Y-74314954D01*
X84297159Y-74375463D01*
X84171718Y-74471717D01*
X84171717Y-74471718D01*
X84075463Y-74597159D01*
X84014954Y-74743242D01*
X83994318Y-74899997D01*
X83994318Y-74900002D01*
X83392518Y-74900002D01*
X83385045Y-74843242D01*
X83385044Y-74843240D01*
X83385044Y-74843238D01*
X83324536Y-74697159D01*
X83228282Y-74571718D01*
X83102841Y-74475464D01*
X83102840Y-74475463D01*
X83022944Y-74442369D01*
X82956762Y-74414956D01*
X82956760Y-74414955D01*
X82956756Y-74414954D01*
X82956759Y-74414954D01*
X82800003Y-74394318D01*
X82799997Y-74394318D01*
X82643242Y-74414954D01*
X82497159Y-74475463D01*
X82371718Y-74571717D01*
X82371717Y-74571718D01*
X82275463Y-74697159D01*
X82214954Y-74843242D01*
X82194318Y-74999997D01*
X82194318Y-75000002D01*
X75005682Y-75000002D01*
X75005682Y-75000000D01*
X75005682Y-74999997D01*
X74985045Y-74843242D01*
X74985044Y-74843240D01*
X74985044Y-74843238D01*
X74924536Y-74697159D01*
X74828282Y-74571718D01*
X74702841Y-74475464D01*
X74702840Y-74475463D01*
X74622944Y-74442369D01*
X74556762Y-74414956D01*
X74556760Y-74414955D01*
X74556756Y-74414954D01*
X74556759Y-74414954D01*
X74400003Y-74394318D01*
X74399997Y-74394318D01*
X74243242Y-74414954D01*
X74097159Y-74475463D01*
X73971718Y-74571717D01*
X73971717Y-74571718D01*
X73875463Y-74697159D01*
X73814954Y-74843242D01*
X73794318Y-74999997D01*
X73794318Y-75000002D01*
X66000000Y-75000002D01*
X66000000Y-73000002D01*
X76394318Y-73000002D01*
X76414954Y-73156757D01*
X76475463Y-73302840D01*
X76475464Y-73302841D01*
X76571718Y-73428282D01*
X76697159Y-73524536D01*
X76843238Y-73585044D01*
X76843241Y-73585044D01*
X76843243Y-73585045D01*
X76843240Y-73585045D01*
X76999997Y-73605682D01*
X77000000Y-73605682D01*
X77000003Y-73605682D01*
X77156757Y-73585045D01*
X77156758Y-73585044D01*
X77156762Y-73585044D01*
X77302841Y-73524536D01*
X77428282Y-73428282D01*
X77524536Y-73302841D01*
X77567133Y-73200002D01*
X78494318Y-73200002D01*
X78514954Y-73356757D01*
X78575463Y-73502840D01*
X78575464Y-73502841D01*
X78671718Y-73628282D01*
X78797159Y-73724536D01*
X78943238Y-73785044D01*
X78943241Y-73785044D01*
X78943243Y-73785045D01*
X78943240Y-73785045D01*
X79099997Y-73805682D01*
X79100000Y-73805682D01*
X79100003Y-73805682D01*
X79256757Y-73785045D01*
X79256758Y-73785044D01*
X79256762Y-73785044D01*
X79402841Y-73724536D01*
X79528282Y-73628282D01*
X79624536Y-73502841D01*
X79685044Y-73356762D01*
X79701276Y-73233472D01*
X79705682Y-73200002D01*
X79705682Y-73199997D01*
X79685045Y-73043242D01*
X79685044Y-73043240D01*
X79685044Y-73043238D01*
X79624536Y-72897159D01*
X79528282Y-72771718D01*
X79402841Y-72675464D01*
X79402840Y-72675463D01*
X79322944Y-72642369D01*
X79256762Y-72614956D01*
X79256760Y-72614955D01*
X79256756Y-72614954D01*
X79256759Y-72614954D01*
X79100003Y-72594318D01*
X79099997Y-72594318D01*
X78943242Y-72614954D01*
X78797159Y-72675463D01*
X78671718Y-72771717D01*
X78671717Y-72771718D01*
X78575463Y-72897159D01*
X78514954Y-73043242D01*
X78494318Y-73199997D01*
X78494318Y-73200002D01*
X77567133Y-73200002D01*
X77585044Y-73156762D01*
X77586320Y-73147076D01*
X77605682Y-73000002D01*
X77605682Y-72999997D01*
X77585045Y-72843242D01*
X77585044Y-72843240D01*
X77585044Y-72843238D01*
X77524536Y-72697159D01*
X77428282Y-72571718D01*
X77338520Y-72502841D01*
X77302840Y-72475463D01*
X77222944Y-72442369D01*
X77156762Y-72414956D01*
X77156760Y-72414955D01*
X77156756Y-72414954D01*
X77156759Y-72414954D01*
X77000003Y-72394318D01*
X76999997Y-72394318D01*
X76843242Y-72414954D01*
X76697159Y-72475463D01*
X76571718Y-72571717D01*
X76571717Y-72571718D01*
X76475463Y-72697159D01*
X76414954Y-72843242D01*
X76394318Y-72999997D01*
X76394318Y-73000002D01*
X66000000Y-73000002D01*
X66000000Y-71900002D01*
X73094318Y-71900002D01*
X73114954Y-72056757D01*
X73175463Y-72202840D01*
X73175464Y-72202841D01*
X73271718Y-72328282D01*
X73397159Y-72424536D01*
X73543238Y-72485044D01*
X73543241Y-72485044D01*
X73543243Y-72485045D01*
X73543240Y-72485045D01*
X73699997Y-72505682D01*
X73700000Y-72505682D01*
X73700003Y-72505682D01*
X73856757Y-72485045D01*
X73856758Y-72485044D01*
X73856762Y-72485044D01*
X74002841Y-72424536D01*
X74128282Y-72328282D01*
X74224536Y-72202841D01*
X74225712Y-72200002D01*
X83494318Y-72200002D01*
X83514954Y-72356757D01*
X83575463Y-72502840D01*
X83661493Y-72614956D01*
X83671718Y-72628282D01*
X83797159Y-72724536D01*
X83943238Y-72785044D01*
X83943241Y-72785044D01*
X83943243Y-72785045D01*
X83943240Y-72785045D01*
X84099997Y-72805682D01*
X84100000Y-72805682D01*
X84100003Y-72805682D01*
X84256757Y-72785045D01*
X84256758Y-72785044D01*
X84256762Y-72785044D01*
X84402841Y-72724536D01*
X84528282Y-72628282D01*
X84624536Y-72502841D01*
X84685044Y-72356762D01*
X84688794Y-72328282D01*
X84705682Y-72200002D01*
X84705682Y-72199997D01*
X84685045Y-72043242D01*
X84685044Y-72043240D01*
X84685044Y-72043238D01*
X84624536Y-71897159D01*
X84528282Y-71771718D01*
X84491172Y-71743242D01*
X84402840Y-71675463D01*
X84322944Y-71642369D01*
X84256762Y-71614956D01*
X84256760Y-71614955D01*
X84256756Y-71614954D01*
X84256759Y-71614954D01*
X84100003Y-71594318D01*
X84099997Y-71594318D01*
X83943242Y-71614954D01*
X83797159Y-71675463D01*
X83671718Y-71771717D01*
X83671717Y-71771718D01*
X83575463Y-71897159D01*
X83514954Y-72043242D01*
X83494318Y-72199997D01*
X83494318Y-72200002D01*
X74225712Y-72200002D01*
X74285044Y-72056762D01*
X74286825Y-72043238D01*
X74305682Y-71900002D01*
X74305682Y-71899997D01*
X74285045Y-71743242D01*
X74285044Y-71743240D01*
X74285044Y-71743238D01*
X74224536Y-71597159D01*
X74128282Y-71471718D01*
X74015328Y-71385045D01*
X74002840Y-71375463D01*
X73922944Y-71342369D01*
X73856762Y-71314956D01*
X73856760Y-71314955D01*
X73856756Y-71314954D01*
X73856759Y-71314954D01*
X73700003Y-71294318D01*
X73699997Y-71294318D01*
X73543242Y-71314954D01*
X73397159Y-71375463D01*
X73271718Y-71471717D01*
X73271717Y-71471718D01*
X73175463Y-71597159D01*
X73114954Y-71743242D01*
X73094318Y-71899997D01*
X73094318Y-71900002D01*
X66000000Y-71900002D01*
X66000000Y-70149000D01*
X66019962Y-70074500D01*
X66074500Y-70019962D01*
X66149000Y-70000000D01*
X72914736Y-70000000D01*
X72989233Y-70019960D01*
X72997155Y-70024533D01*
X72997159Y-70024536D01*
X73143238Y-70085044D01*
X73143241Y-70085044D01*
X73143243Y-70085045D01*
X73143240Y-70085045D01*
X73299997Y-70105682D01*
X73300000Y-70105682D01*
X73300003Y-70105682D01*
X73456757Y-70085045D01*
X73456758Y-70085044D01*
X73456762Y-70085044D01*
X73602841Y-70024536D01*
X73602847Y-70024531D01*
X73610767Y-70019960D01*
X73685264Y-70000000D01*
X75018201Y-70000000D01*
X75092701Y-70019962D01*
X75147239Y-70074500D01*
X75167201Y-70149000D01*
X75147239Y-70223500D01*
X75103306Y-70267433D01*
X75104907Y-70269519D01*
X74971718Y-70371717D01*
X74971717Y-70371718D01*
X74875463Y-70497159D01*
X74814954Y-70643242D01*
X74794318Y-70799997D01*
X74794318Y-70800002D01*
X74814954Y-70956757D01*
X74875463Y-71102840D01*
X74968844Y-71224536D01*
X74971718Y-71228282D01*
X75097159Y-71324536D01*
X75243238Y-71385044D01*
X75243241Y-71385044D01*
X75243243Y-71385045D01*
X75243240Y-71385045D01*
X75399997Y-71405682D01*
X75400000Y-71405682D01*
X75400003Y-71405682D01*
X75556757Y-71385045D01*
X75556758Y-71385044D01*
X75556762Y-71385044D01*
X75702841Y-71324536D01*
X75828282Y-71228282D01*
X75924536Y-71102841D01*
X75985044Y-70956762D01*
X75990097Y-70918374D01*
X76019610Y-70847120D01*
X76080798Y-70800166D01*
X76118370Y-70790098D01*
X76156762Y-70785044D01*
X76302841Y-70724536D01*
X76428282Y-70628282D01*
X76524536Y-70502841D01*
X76585044Y-70356762D01*
X76586825Y-70343238D01*
X76605682Y-70200002D01*
X76601528Y-70168446D01*
X76611597Y-70091978D01*
X76658550Y-70030789D01*
X76729808Y-70001274D01*
X76749254Y-70000000D01*
X77418201Y-70000000D01*
X77492701Y-70019962D01*
X77547239Y-70074500D01*
X77567201Y-70149000D01*
X77547239Y-70223500D01*
X77503306Y-70267433D01*
X77504907Y-70269519D01*
X77371718Y-70371717D01*
X77371717Y-70371718D01*
X77275463Y-70497159D01*
X77214954Y-70643242D01*
X77194318Y-70799997D01*
X77194318Y-70800002D01*
X77214954Y-70956757D01*
X77275463Y-71102840D01*
X77368844Y-71224536D01*
X77371718Y-71228282D01*
X77497159Y-71324536D01*
X77643238Y-71385044D01*
X77643241Y-71385044D01*
X77643243Y-71385045D01*
X77643240Y-71385045D01*
X77799997Y-71405682D01*
X77800000Y-71405682D01*
X77800003Y-71405682D01*
X77956757Y-71385045D01*
X77956758Y-71385044D01*
X77956762Y-71385044D01*
X78102841Y-71324536D01*
X78228282Y-71228282D01*
X78324536Y-71102841D01*
X78385044Y-70956762D01*
X78388794Y-70928282D01*
X78405682Y-70800002D01*
X78405682Y-70799997D01*
X78385045Y-70643242D01*
X78385044Y-70643240D01*
X78385044Y-70643238D01*
X78324536Y-70497159D01*
X78228282Y-70371718D01*
X78208784Y-70356757D01*
X78095093Y-70269519D01*
X78096693Y-70267433D01*
X78052759Y-70223496D01*
X78032799Y-70148995D01*
X78052764Y-70074496D01*
X78107303Y-70019960D01*
X78181799Y-70000000D01*
X83886888Y-70000000D01*
X83961388Y-70019962D01*
X84015926Y-70074500D01*
X84035888Y-70149000D01*
X84015926Y-70223500D01*
X83977592Y-70267210D01*
X83976078Y-70268372D01*
X83971717Y-70271718D01*
X83875463Y-70397159D01*
X83814954Y-70543242D01*
X83794318Y-70699997D01*
X83794318Y-70700002D01*
X83814954Y-70856757D01*
X83875463Y-71002840D01*
X83952196Y-71102840D01*
X83971718Y-71128282D01*
X84097159Y-71224536D01*
X84243238Y-71285044D01*
X84243241Y-71285044D01*
X84243243Y-71285045D01*
X84243240Y-71285045D01*
X84399997Y-71305682D01*
X84400000Y-71305682D01*
X84400003Y-71305682D01*
X84556757Y-71285045D01*
X84556758Y-71285044D01*
X84556762Y-71285044D01*
X84702841Y-71224536D01*
X84828282Y-71128282D01*
X84924536Y-71002841D01*
X84985044Y-70856762D01*
X84986314Y-70847120D01*
X85005682Y-70700002D01*
X85005682Y-70699997D01*
X84985045Y-70543242D01*
X84985044Y-70543240D01*
X84985044Y-70543238D01*
X84967135Y-70500002D01*
X95394318Y-70500002D01*
X95414954Y-70656757D01*
X95475463Y-70802840D01*
X95475464Y-70802841D01*
X95571718Y-70928282D01*
X95697159Y-71024536D01*
X95843238Y-71085044D01*
X95843241Y-71085044D01*
X95843243Y-71085045D01*
X95843240Y-71085045D01*
X95999997Y-71105682D01*
X96000000Y-71105682D01*
X96000003Y-71105682D01*
X96156757Y-71085045D01*
X96156758Y-71085044D01*
X96156762Y-71085044D01*
X96302841Y-71024536D01*
X96428282Y-70928282D01*
X96524536Y-70802841D01*
X96585044Y-70656762D01*
X96586825Y-70643238D01*
X96605682Y-70500002D01*
X96605682Y-70499997D01*
X96585045Y-70343242D01*
X96585044Y-70343240D01*
X96585044Y-70343238D01*
X96524536Y-70197159D01*
X96428282Y-70071718D01*
X96399630Y-70049732D01*
X96302840Y-69975463D01*
X96190836Y-69929070D01*
X96156762Y-69914956D01*
X96156760Y-69914955D01*
X96156756Y-69914954D01*
X96156759Y-69914954D01*
X96000003Y-69894318D01*
X95999997Y-69894318D01*
X95843242Y-69914954D01*
X95697159Y-69975463D01*
X95571718Y-70071717D01*
X95571717Y-70071718D01*
X95475463Y-70197159D01*
X95414954Y-70343242D01*
X95394318Y-70499997D01*
X95394318Y-70500002D01*
X84967135Y-70500002D01*
X84924536Y-70397159D01*
X84828282Y-70271718D01*
X84825417Y-70269519D01*
X84702840Y-70175463D01*
X84618283Y-70140439D01*
X84556762Y-70114956D01*
X84556760Y-70114955D01*
X84556756Y-70114954D01*
X84556759Y-70114954D01*
X84400003Y-70094318D01*
X84399997Y-70094318D01*
X84243242Y-70114954D01*
X84206018Y-70130373D01*
X84129550Y-70140439D01*
X84058293Y-70110923D01*
X84011341Y-70049732D01*
X84000000Y-69992714D01*
X84000000Y-69607285D01*
X84019962Y-69532785D01*
X84074500Y-69478247D01*
X84149000Y-69458285D01*
X84206015Y-69469625D01*
X84243238Y-69485044D01*
X84243241Y-69485044D01*
X84243243Y-69485045D01*
X84399997Y-69505682D01*
X84400000Y-69505682D01*
X84400003Y-69505682D01*
X84556757Y-69485045D01*
X84556758Y-69485044D01*
X84556762Y-69485044D01*
X84702841Y-69424536D01*
X84828282Y-69328282D01*
X84924536Y-69202841D01*
X84985044Y-69056762D01*
X85005682Y-68900002D01*
X88694318Y-68900002D01*
X88714954Y-69056757D01*
X88775463Y-69202840D01*
X88775464Y-69202841D01*
X88871718Y-69328282D01*
X88997159Y-69424536D01*
X89143238Y-69485044D01*
X89143241Y-69485044D01*
X89143243Y-69485045D01*
X89143240Y-69485045D01*
X89299997Y-69505682D01*
X89300000Y-69505682D01*
X89300003Y-69505682D01*
X89456757Y-69485045D01*
X89456758Y-69485044D01*
X89456762Y-69485044D01*
X89602841Y-69424536D01*
X89728282Y-69328282D01*
X89824536Y-69202841D01*
X89885044Y-69056762D01*
X89905682Y-68900000D01*
X89885044Y-68743238D01*
X89824536Y-68597159D01*
X89728282Y-68471718D01*
X89653068Y-68414004D01*
X89602840Y-68375463D01*
X89518283Y-68340439D01*
X89456762Y-68314956D01*
X89456760Y-68314955D01*
X89456756Y-68314954D01*
X89456759Y-68314954D01*
X89300003Y-68294318D01*
X89299997Y-68294318D01*
X89143242Y-68314954D01*
X88997159Y-68375463D01*
X88871718Y-68471717D01*
X88871717Y-68471718D01*
X88775463Y-68597159D01*
X88714954Y-68743242D01*
X88694318Y-68899997D01*
X88694318Y-68900002D01*
X85005682Y-68900002D01*
X85005682Y-68900000D01*
X84985044Y-68743238D01*
X84924536Y-68597159D01*
X84828282Y-68471718D01*
X84753068Y-68414004D01*
X84702840Y-68375463D01*
X84618283Y-68340439D01*
X84556762Y-68314956D01*
X84556760Y-68314955D01*
X84556756Y-68314954D01*
X84556759Y-68314954D01*
X84400003Y-68294318D01*
X84399997Y-68294318D01*
X84243242Y-68314954D01*
X84206018Y-68330373D01*
X84129550Y-68340439D01*
X84058293Y-68310923D01*
X84011341Y-68249732D01*
X84000000Y-68192714D01*
X84000000Y-68000002D01*
X93894318Y-68000002D01*
X93914954Y-68156757D01*
X93975463Y-68302840D01*
X94031189Y-68375463D01*
X94071718Y-68428282D01*
X94197159Y-68524536D01*
X94343238Y-68585044D01*
X94343241Y-68585044D01*
X94343243Y-68585045D01*
X94343240Y-68585045D01*
X94499997Y-68605682D01*
X94500000Y-68605682D01*
X94500003Y-68605682D01*
X94656757Y-68585045D01*
X94656758Y-68585044D01*
X94656762Y-68585044D01*
X94802841Y-68524536D01*
X94928282Y-68428282D01*
X95024536Y-68302841D01*
X95085044Y-68156762D01*
X95086825Y-68143238D01*
X95105682Y-68000002D01*
X95105682Y-67999997D01*
X95085045Y-67843242D01*
X95085044Y-67843240D01*
X95085044Y-67843238D01*
X95024536Y-67697159D01*
X94928282Y-67571718D01*
X94871673Y-67528280D01*
X94802840Y-67475463D01*
X94722944Y-67442369D01*
X94656762Y-67414956D01*
X94656760Y-67414955D01*
X94656756Y-67414954D01*
X94656759Y-67414954D01*
X94500003Y-67394318D01*
X94499997Y-67394318D01*
X94343242Y-67414954D01*
X94197159Y-67475463D01*
X94071718Y-67571717D01*
X94071717Y-67571718D01*
X93975463Y-67697159D01*
X93914954Y-67843242D01*
X93894318Y-67999997D01*
X93894318Y-68000002D01*
X84000000Y-68000002D01*
X84000000Y-67100001D01*
X88294318Y-67100001D01*
X88314954Y-67256756D01*
X88375463Y-67402839D01*
X88375464Y-67402840D01*
X88471718Y-67528281D01*
X88597159Y-67624535D01*
X88743238Y-67685043D01*
X88743241Y-67685043D01*
X88743243Y-67685044D01*
X88743240Y-67685044D01*
X88899997Y-67705681D01*
X88900000Y-67705681D01*
X88900003Y-67705681D01*
X89056757Y-67685044D01*
X89056758Y-67685043D01*
X89056762Y-67685043D01*
X89202841Y-67624535D01*
X89328282Y-67528281D01*
X89424536Y-67402840D01*
X89485044Y-67256761D01*
X89489287Y-67224536D01*
X89505682Y-67100001D01*
X90094318Y-67100001D01*
X90114954Y-67256756D01*
X90175463Y-67402839D01*
X90175464Y-67402840D01*
X90271718Y-67528281D01*
X90397159Y-67624535D01*
X90543238Y-67685043D01*
X90543241Y-67685043D01*
X90543243Y-67685044D01*
X90543240Y-67685044D01*
X90699997Y-67705681D01*
X90700000Y-67705681D01*
X90700003Y-67705681D01*
X90856757Y-67685044D01*
X90856758Y-67685043D01*
X90856762Y-67685043D01*
X91002841Y-67624535D01*
X91128282Y-67528281D01*
X91224536Y-67402840D01*
X91285044Y-67256761D01*
X91289287Y-67224536D01*
X91305682Y-67100001D01*
X91305682Y-67099996D01*
X91285045Y-66943241D01*
X91285044Y-66943239D01*
X91285044Y-66943237D01*
X91224536Y-66797158D01*
X91128282Y-66671717D01*
X91002841Y-66575463D01*
X91002840Y-66575462D01*
X90922944Y-66542368D01*
X90856762Y-66514955D01*
X90856760Y-66514954D01*
X90856756Y-66514953D01*
X90856759Y-66514953D01*
X90700003Y-66494317D01*
X90699997Y-66494317D01*
X90543242Y-66514953D01*
X90397159Y-66575462D01*
X90271718Y-66671716D01*
X90271717Y-66671717D01*
X90175463Y-66797158D01*
X90114954Y-66943241D01*
X90094318Y-67099996D01*
X90094318Y-67100001D01*
X89505682Y-67100001D01*
X89505682Y-67099996D01*
X89485045Y-66943241D01*
X89485044Y-66943239D01*
X89485044Y-66943237D01*
X89424536Y-66797158D01*
X89328282Y-66671717D01*
X89202841Y-66575463D01*
X89202840Y-66575462D01*
X89122944Y-66542368D01*
X89056762Y-66514955D01*
X89056760Y-66514954D01*
X89056756Y-66514953D01*
X89056759Y-66514953D01*
X88900003Y-66494317D01*
X88899997Y-66494317D01*
X88743242Y-66514953D01*
X88597159Y-66575462D01*
X88471718Y-66671716D01*
X88471717Y-66671717D01*
X88375463Y-66797158D01*
X88314954Y-66943241D01*
X88294318Y-67099996D01*
X88294318Y-67100001D01*
X84000000Y-67100001D01*
X84000000Y-66400002D01*
X95294318Y-66400002D01*
X95314954Y-66556757D01*
X95375463Y-66702840D01*
X95468072Y-66823530D01*
X95471718Y-66828282D01*
X95597159Y-66924536D01*
X95743238Y-66985044D01*
X95743241Y-66985044D01*
X95743243Y-66985045D01*
X95743240Y-66985045D01*
X95899997Y-67005682D01*
X95900000Y-67005682D01*
X95900003Y-67005682D01*
X96056757Y-66985045D01*
X96056758Y-66985044D01*
X96056762Y-66985044D01*
X96202841Y-66924536D01*
X96328282Y-66828282D01*
X96424536Y-66702841D01*
X96485044Y-66556762D01*
X96486825Y-66543238D01*
X96505682Y-66400002D01*
X96505682Y-66399997D01*
X96485045Y-66243242D01*
X96485044Y-66243240D01*
X96485044Y-66243238D01*
X96424536Y-66097159D01*
X96328282Y-65971718D01*
X96215328Y-65885045D01*
X96202840Y-65875463D01*
X96122944Y-65842369D01*
X96056762Y-65814956D01*
X96056760Y-65814955D01*
X96056756Y-65814954D01*
X96056759Y-65814954D01*
X95900003Y-65794318D01*
X95899997Y-65794318D01*
X95743242Y-65814954D01*
X95597159Y-65875463D01*
X95471718Y-65971717D01*
X95471717Y-65971718D01*
X95375463Y-66097159D01*
X95314954Y-66243242D01*
X95294318Y-66399997D01*
X95294318Y-66400002D01*
X84000000Y-66400002D01*
X84000000Y-65300002D01*
X91894318Y-65300002D01*
X91914954Y-65456757D01*
X91975463Y-65602840D01*
X92068844Y-65724536D01*
X92071718Y-65728282D01*
X92197159Y-65824536D01*
X92343238Y-65885044D01*
X92343241Y-65885044D01*
X92343243Y-65885045D01*
X92343240Y-65885045D01*
X92499997Y-65905682D01*
X92500000Y-65905682D01*
X92500003Y-65905682D01*
X92656757Y-65885045D01*
X92656758Y-65885044D01*
X92656762Y-65885044D01*
X92802841Y-65824536D01*
X92802843Y-65824533D01*
X92802846Y-65824533D01*
X92811303Y-65819651D01*
X92812182Y-65821173D01*
X92872642Y-65796118D01*
X92956762Y-65785044D01*
X93102841Y-65724536D01*
X93228282Y-65628282D01*
X93324536Y-65502841D01*
X93385044Y-65356762D01*
X93392518Y-65299997D01*
X93405682Y-65200002D01*
X93405682Y-65199997D01*
X93385045Y-65043242D01*
X93385044Y-65043240D01*
X93385044Y-65043238D01*
X93324536Y-64897159D01*
X93228282Y-64771718D01*
X93102841Y-64675464D01*
X93102840Y-64675463D01*
X93022944Y-64642369D01*
X92956762Y-64614956D01*
X92956760Y-64614955D01*
X92956756Y-64614954D01*
X92956759Y-64614954D01*
X92800003Y-64594318D01*
X92799997Y-64594318D01*
X92643242Y-64614954D01*
X92497158Y-64675464D01*
X92488701Y-64680347D01*
X92487825Y-64678830D01*
X92427328Y-64703884D01*
X92343242Y-64714954D01*
X92197159Y-64775463D01*
X92071718Y-64871717D01*
X92071717Y-64871718D01*
X91975463Y-64997159D01*
X91914954Y-65143242D01*
X91894318Y-65299997D01*
X91894318Y-65300002D01*
X84000000Y-65300002D01*
X84000000Y-63100002D01*
X84494318Y-63100002D01*
X84514954Y-63256757D01*
X84575463Y-63402840D01*
X84668844Y-63524536D01*
X84671718Y-63528282D01*
X84797159Y-63624536D01*
X84943238Y-63685044D01*
X84943241Y-63685044D01*
X84943243Y-63685045D01*
X84943240Y-63685045D01*
X85099997Y-63705682D01*
X85100000Y-63705682D01*
X85100003Y-63705682D01*
X85256757Y-63685045D01*
X85256758Y-63685044D01*
X85256762Y-63685044D01*
X85402841Y-63624536D01*
X85528282Y-63528282D01*
X85624536Y-63402841D01*
X85685044Y-63256762D01*
X85688794Y-63228282D01*
X85705682Y-63100002D01*
X85705682Y-63099997D01*
X85685045Y-62943242D01*
X85685044Y-62943240D01*
X85685044Y-62943238D01*
X85625714Y-62800002D01*
X88194318Y-62800002D01*
X88214954Y-62956757D01*
X88275463Y-63102840D01*
X88302214Y-63137702D01*
X88371718Y-63228282D01*
X88497159Y-63324536D01*
X88643238Y-63385044D01*
X88643241Y-63385044D01*
X88643243Y-63385045D01*
X88643240Y-63385045D01*
X88799997Y-63405682D01*
X88800000Y-63405682D01*
X88800003Y-63405682D01*
X88956757Y-63385045D01*
X88956758Y-63385044D01*
X88956762Y-63385044D01*
X89102841Y-63324536D01*
X89228282Y-63228282D01*
X89324536Y-63102841D01*
X89367133Y-63000002D01*
X92194318Y-63000002D01*
X92214954Y-63156757D01*
X92275463Y-63302840D01*
X92361493Y-63414956D01*
X92371718Y-63428282D01*
X92497159Y-63524536D01*
X92643238Y-63585044D01*
X92643241Y-63585044D01*
X92643243Y-63585045D01*
X92643240Y-63585045D01*
X92799997Y-63605682D01*
X92800000Y-63605682D01*
X92800003Y-63605682D01*
X92956757Y-63585045D01*
X92956758Y-63585044D01*
X92956762Y-63585044D01*
X93102841Y-63524536D01*
X93228282Y-63428282D01*
X93324536Y-63302841D01*
X93385044Y-63156762D01*
X93387554Y-63137702D01*
X93392517Y-63100002D01*
X93894318Y-63100002D01*
X93914954Y-63256757D01*
X93975463Y-63402840D01*
X94068844Y-63524536D01*
X94071718Y-63528282D01*
X94197159Y-63624536D01*
X94343238Y-63685044D01*
X94343241Y-63685044D01*
X94343243Y-63685045D01*
X94343240Y-63685045D01*
X94499997Y-63705682D01*
X94500000Y-63705682D01*
X94500003Y-63705682D01*
X94656757Y-63685045D01*
X94656758Y-63685044D01*
X94656762Y-63685044D01*
X94802841Y-63624536D01*
X94928282Y-63528282D01*
X95024536Y-63402841D01*
X95085044Y-63256762D01*
X95088794Y-63228282D01*
X95105682Y-63100002D01*
X95105682Y-63099997D01*
X95085045Y-62943242D01*
X95085044Y-62943240D01*
X95085044Y-62943238D01*
X95024536Y-62797159D01*
X94928282Y-62671718D01*
X94891172Y-62643242D01*
X94802840Y-62575463D01*
X94722944Y-62542369D01*
X94656762Y-62514956D01*
X94656760Y-62514955D01*
X94656756Y-62514954D01*
X94656759Y-62514954D01*
X94500003Y-62494318D01*
X94499997Y-62494318D01*
X94343242Y-62514954D01*
X94197159Y-62575463D01*
X94071718Y-62671717D01*
X94071717Y-62671718D01*
X93975463Y-62797159D01*
X93914954Y-62943242D01*
X93894318Y-63099997D01*
X93894318Y-63100002D01*
X93392517Y-63100002D01*
X93405682Y-63000002D01*
X93405682Y-62999997D01*
X93385045Y-62843242D01*
X93385044Y-62843240D01*
X93385044Y-62843238D01*
X93324536Y-62697159D01*
X93228282Y-62571718D01*
X93200421Y-62550339D01*
X93102840Y-62475463D01*
X93022944Y-62442369D01*
X92956762Y-62414956D01*
X92956760Y-62414955D01*
X92956756Y-62414954D01*
X92956759Y-62414954D01*
X92800003Y-62394318D01*
X92799997Y-62394318D01*
X92643242Y-62414954D01*
X92497159Y-62475463D01*
X92371718Y-62571717D01*
X92371717Y-62571718D01*
X92275463Y-62697159D01*
X92214954Y-62843242D01*
X92194318Y-62999997D01*
X92194318Y-63000002D01*
X89367133Y-63000002D01*
X89385044Y-62956762D01*
X89386825Y-62943238D01*
X89405682Y-62800002D01*
X89405682Y-62799997D01*
X89385045Y-62643242D01*
X89385044Y-62643240D01*
X89385044Y-62643238D01*
X89324536Y-62497159D01*
X89228282Y-62371718D01*
X89138520Y-62302841D01*
X89102840Y-62275463D01*
X89022944Y-62242369D01*
X88956762Y-62214956D01*
X88956760Y-62214955D01*
X88956756Y-62214954D01*
X88956759Y-62214954D01*
X88800003Y-62194318D01*
X88799997Y-62194318D01*
X88643242Y-62214954D01*
X88497159Y-62275463D01*
X88371718Y-62371717D01*
X88371717Y-62371718D01*
X88275463Y-62497159D01*
X88214954Y-62643242D01*
X88194318Y-62799997D01*
X88194318Y-62800002D01*
X85625714Y-62800002D01*
X85624536Y-62797159D01*
X85528282Y-62671718D01*
X85491172Y-62643242D01*
X85402840Y-62575463D01*
X85322944Y-62542369D01*
X85256762Y-62514956D01*
X85256760Y-62514955D01*
X85256756Y-62514954D01*
X85256759Y-62514954D01*
X85100003Y-62494318D01*
X85099997Y-62494318D01*
X84943242Y-62514954D01*
X84797159Y-62575463D01*
X84671718Y-62671717D01*
X84671717Y-62671718D01*
X84575463Y-62797159D01*
X84514954Y-62943242D01*
X84494318Y-63099997D01*
X84494318Y-63100002D01*
X84000000Y-63100002D01*
X84000000Y-62249516D01*
X84019962Y-62175016D01*
X84074500Y-62120478D01*
X84129551Y-62101791D01*
X84188406Y-62094043D01*
X84256757Y-62085045D01*
X84256758Y-62085044D01*
X84256762Y-62085044D01*
X84402841Y-62024536D01*
X84528282Y-61928282D01*
X84624536Y-61802841D01*
X84685044Y-61656762D01*
X84686825Y-61643238D01*
X84705682Y-61500002D01*
X84705682Y-61499997D01*
X84685045Y-61343243D01*
X84685044Y-61343238D01*
X84678403Y-61327206D01*
X84668334Y-61250738D01*
X84697849Y-61179480D01*
X84759038Y-61132527D01*
X84835506Y-61122458D01*
X84906764Y-61151973D01*
X84934270Y-61179479D01*
X84961492Y-61214956D01*
X84971718Y-61228282D01*
X85097159Y-61324536D01*
X85243238Y-61385044D01*
X85243241Y-61385044D01*
X85243243Y-61385045D01*
X85243240Y-61385045D01*
X85399997Y-61405682D01*
X85400000Y-61405682D01*
X85400003Y-61405682D01*
X85556757Y-61385045D01*
X85556758Y-61385044D01*
X85556762Y-61385044D01*
X85702841Y-61324536D01*
X85828282Y-61228282D01*
X85924536Y-61102841D01*
X85985044Y-60956762D01*
X85994739Y-60883126D01*
X86005682Y-60800002D01*
X92194318Y-60800002D01*
X92214954Y-60956757D01*
X92275463Y-61102840D01*
X92361493Y-61214956D01*
X92371718Y-61228282D01*
X92497159Y-61324536D01*
X92643238Y-61385044D01*
X92643241Y-61385044D01*
X92643243Y-61385045D01*
X92643240Y-61385045D01*
X92799997Y-61405682D01*
X92800000Y-61405682D01*
X92800003Y-61405682D01*
X92956757Y-61385045D01*
X92956758Y-61385044D01*
X92956762Y-61385044D01*
X93102841Y-61324536D01*
X93228282Y-61228282D01*
X93324536Y-61102841D01*
X93385044Y-60956762D01*
X93394739Y-60883126D01*
X93405682Y-60800002D01*
X93405682Y-60799997D01*
X93385045Y-60643242D01*
X93385044Y-60643240D01*
X93385044Y-60643238D01*
X93324536Y-60497159D01*
X93228282Y-60371718D01*
X93187313Y-60340281D01*
X93102840Y-60275463D01*
X92977123Y-60223390D01*
X92956762Y-60214956D01*
X92956760Y-60214955D01*
X92956756Y-60214954D01*
X92956759Y-60214954D01*
X92800003Y-60194318D01*
X92799997Y-60194318D01*
X92643242Y-60214954D01*
X92497159Y-60275463D01*
X92371718Y-60371717D01*
X92371717Y-60371718D01*
X92275463Y-60497159D01*
X92214954Y-60643242D01*
X92194318Y-60799997D01*
X92194318Y-60800002D01*
X86005682Y-60800002D01*
X86005682Y-60799997D01*
X85985045Y-60643242D01*
X85985044Y-60643240D01*
X85985044Y-60643238D01*
X85924536Y-60497159D01*
X85828282Y-60371718D01*
X85787313Y-60340281D01*
X85702840Y-60275463D01*
X85577123Y-60223390D01*
X85556762Y-60214956D01*
X85556760Y-60214955D01*
X85556756Y-60214954D01*
X85556759Y-60214954D01*
X85400003Y-60194318D01*
X85399997Y-60194318D01*
X85243242Y-60214954D01*
X85097159Y-60275463D01*
X84985002Y-60361524D01*
X84913744Y-60391039D01*
X84837276Y-60380972D01*
X84776087Y-60334019D01*
X84728282Y-60271718D01*
X84728281Y-60271717D01*
X84602840Y-60175463D01*
X84522944Y-60142369D01*
X84456762Y-60114956D01*
X84456760Y-60114955D01*
X84456756Y-60114954D01*
X84456759Y-60114954D01*
X84300003Y-60094318D01*
X84299997Y-60094318D01*
X84168448Y-60111636D01*
X84091979Y-60101569D01*
X84030790Y-60054616D01*
X84001275Y-59983359D01*
X84000000Y-59963911D01*
X84000000Y-59400002D01*
X87394318Y-59400002D01*
X87414954Y-59556757D01*
X87475463Y-59702840D01*
X87506462Y-59743238D01*
X87571718Y-59828282D01*
X87697159Y-59924536D01*
X87843238Y-59985044D01*
X87843241Y-59985044D01*
X87843243Y-59985045D01*
X87843240Y-59985045D01*
X87999997Y-60005682D01*
X88000000Y-60005682D01*
X88000003Y-60005682D01*
X88156757Y-59985045D01*
X88156758Y-59985044D01*
X88156762Y-59985044D01*
X88302841Y-59924536D01*
X88428282Y-59828282D01*
X88524536Y-59702841D01*
X88585044Y-59556762D01*
X88595160Y-59479928D01*
X88605682Y-59400002D01*
X88605682Y-59399997D01*
X88585045Y-59243242D01*
X88585044Y-59243240D01*
X88585044Y-59243238D01*
X88524536Y-59097159D01*
X88522555Y-59094578D01*
X88521310Y-59091572D01*
X88519654Y-59088703D01*
X88520031Y-59088484D01*
X88493041Y-59023322D01*
X88503110Y-58946854D01*
X88550063Y-58885664D01*
X88621320Y-58856149D01*
X88697785Y-58866216D01*
X88743238Y-58885044D01*
X88743241Y-58885044D01*
X88743243Y-58885045D01*
X88743240Y-58885045D01*
X88899997Y-58905682D01*
X88900000Y-58905682D01*
X88900003Y-58905682D01*
X89056757Y-58885045D01*
X89056758Y-58885044D01*
X89056762Y-58885044D01*
X89202841Y-58824536D01*
X89328282Y-58728282D01*
X89424536Y-58602841D01*
X89485044Y-58456762D01*
X89485741Y-58451472D01*
X89505682Y-58300002D01*
X89505682Y-58299997D01*
X89485045Y-58143242D01*
X89485044Y-58143240D01*
X89485044Y-58143238D01*
X89424536Y-57997159D01*
X89328282Y-57871718D01*
X89202841Y-57775464D01*
X89202840Y-57775463D01*
X89122944Y-57742369D01*
X89056762Y-57714956D01*
X89056760Y-57714955D01*
X89056756Y-57714954D01*
X89056759Y-57714954D01*
X88900003Y-57694318D01*
X88899997Y-57694318D01*
X88743242Y-57714954D01*
X88597159Y-57775463D01*
X88471718Y-57871717D01*
X88471717Y-57871718D01*
X88375463Y-57997159D01*
X88314954Y-58143242D01*
X88294318Y-58299997D01*
X88294318Y-58300002D01*
X88314954Y-58456757D01*
X88375464Y-58602841D01*
X88375464Y-58602842D01*
X88377444Y-58605422D01*
X88378687Y-58608424D01*
X88380346Y-58611297D01*
X88379967Y-58611515D01*
X88406958Y-58676679D01*
X88396889Y-58753147D01*
X88349934Y-58814336D01*
X88278677Y-58843850D01*
X88202213Y-58833782D01*
X88156759Y-58814954D01*
X88000003Y-58794318D01*
X87999997Y-58794318D01*
X87843242Y-58814954D01*
X87697159Y-58875463D01*
X87571718Y-58971717D01*
X87571717Y-58971718D01*
X87475463Y-59097159D01*
X87414954Y-59243242D01*
X87394318Y-59399997D01*
X87394318Y-59400002D01*
X84000000Y-59400002D01*
X84000000Y-58549253D01*
X84019962Y-58474753D01*
X84074500Y-58420215D01*
X84149000Y-58400253D01*
X84168444Y-58401527D01*
X84200000Y-58405682D01*
X84200003Y-58405682D01*
X84356757Y-58385045D01*
X84356758Y-58385044D01*
X84356762Y-58385044D01*
X84502841Y-58324536D01*
X84628282Y-58228282D01*
X84724536Y-58102841D01*
X84785044Y-57956762D01*
X84786825Y-57943238D01*
X84805682Y-57800002D01*
X84805682Y-57799997D01*
X84785045Y-57643242D01*
X84785044Y-57643240D01*
X84785044Y-57643238D01*
X84724536Y-57497159D01*
X84628282Y-57371718D01*
X84624996Y-57369196D01*
X84502840Y-57275463D01*
X84356758Y-57214954D01*
X84229867Y-57198249D01*
X84158610Y-57168733D01*
X84111658Y-57107544D01*
X84101591Y-57031075D01*
X84105682Y-57000001D01*
X84105682Y-56999997D01*
X84085045Y-56843242D01*
X84085044Y-56843240D01*
X84085044Y-56843238D01*
X84024536Y-56697159D01*
X84024533Y-56697155D01*
X84019960Y-56689233D01*
X84000000Y-56614736D01*
X84000000Y-54700002D01*
X85194318Y-54700002D01*
X85214954Y-54856757D01*
X85275463Y-55002840D01*
X85350017Y-55100000D01*
X85371718Y-55128282D01*
X85497159Y-55224536D01*
X85643238Y-55285044D01*
X85643241Y-55285044D01*
X85643243Y-55285045D01*
X85643240Y-55285045D01*
X85799997Y-55305682D01*
X85800000Y-55305682D01*
X85800003Y-55305682D01*
X85956757Y-55285045D01*
X85956758Y-55285044D01*
X85956762Y-55285044D01*
X86102841Y-55224536D01*
X86228282Y-55128282D01*
X86249982Y-55100002D01*
X87494318Y-55100002D01*
X87514954Y-55256757D01*
X87575463Y-55402840D01*
X87640829Y-55488026D01*
X87671718Y-55528282D01*
X87797159Y-55624536D01*
X87943238Y-55685044D01*
X87943241Y-55685044D01*
X87943243Y-55685045D01*
X87943240Y-55685045D01*
X88099997Y-55705682D01*
X88100000Y-55705682D01*
X88100003Y-55705682D01*
X88256757Y-55685045D01*
X88256758Y-55685044D01*
X88256762Y-55685044D01*
X88402841Y-55624536D01*
X88528282Y-55528282D01*
X88624536Y-55402841D01*
X88685044Y-55256762D01*
X88705682Y-55100000D01*
X88705682Y-55099997D01*
X88685045Y-54943242D01*
X88685044Y-54943240D01*
X88685044Y-54943238D01*
X88624536Y-54797159D01*
X88528282Y-54671718D01*
X88402841Y-54575464D01*
X88402840Y-54575463D01*
X88294759Y-54530695D01*
X88256762Y-54514956D01*
X88256760Y-54514955D01*
X88256756Y-54514954D01*
X88256759Y-54514954D01*
X88100003Y-54494318D01*
X88099997Y-54494318D01*
X87943242Y-54514954D01*
X87797159Y-54575463D01*
X87671718Y-54671717D01*
X87671717Y-54671718D01*
X87575463Y-54797159D01*
X87514954Y-54943242D01*
X87494318Y-55099997D01*
X87494318Y-55100002D01*
X86249982Y-55100002D01*
X86324536Y-55002841D01*
X86385044Y-54856762D01*
X86405682Y-54700000D01*
X86401959Y-54671718D01*
X86385045Y-54543242D01*
X86385044Y-54543240D01*
X86385044Y-54543238D01*
X86324536Y-54397159D01*
X86228282Y-54271718D01*
X86102841Y-54175464D01*
X86102840Y-54175463D01*
X86022944Y-54142369D01*
X85956762Y-54114956D01*
X85956760Y-54114955D01*
X85956756Y-54114954D01*
X85956759Y-54114954D01*
X85800003Y-54094318D01*
X85799997Y-54094318D01*
X85643242Y-54114954D01*
X85497159Y-54175463D01*
X85371718Y-54271717D01*
X85371717Y-54271718D01*
X85275463Y-54397159D01*
X85214954Y-54543242D01*
X85194318Y-54699997D01*
X85194318Y-54700002D01*
X84000000Y-54700002D01*
X84000000Y-50649500D01*
X84019962Y-50575000D01*
X84074500Y-50520462D01*
X84149000Y-50500500D01*
X96851000Y-50500500D01*
X96925500Y-50520462D01*
G37*
%TD.AperFunction*%
%TD*%
%TA.AperFunction,Conductor*%
%TO.N,5V_B*%
G36*
X100989233Y-76019960D02*
G01*
X100997155Y-76024533D01*
X100997159Y-76024536D01*
X101143238Y-76085044D01*
X101143241Y-76085044D01*
X101143243Y-76085045D01*
X101143240Y-76085045D01*
X101299997Y-76105682D01*
X101300000Y-76105682D01*
X101300003Y-76105682D01*
X101456757Y-76085045D01*
X101456758Y-76085044D01*
X101456762Y-76085044D01*
X101602841Y-76024536D01*
X101602847Y-76024531D01*
X101610767Y-76019960D01*
X101685264Y-76000000D01*
X137851000Y-76000000D01*
X137925500Y-76019962D01*
X137980038Y-76074500D01*
X138000000Y-76149000D01*
X138000000Y-113851000D01*
X137980038Y-113925500D01*
X137925500Y-113980038D01*
X137851000Y-114000000D01*
X105530369Y-114000000D01*
X105455869Y-113980038D01*
X105401331Y-113925500D01*
X105381369Y-113851000D01*
X105401331Y-113776500D01*
X105403326Y-113773147D01*
X105430466Y-113728859D01*
X105526873Y-113496111D01*
X105585683Y-113251148D01*
X105605449Y-113000000D01*
X105585683Y-112748852D01*
X105526873Y-112503889D01*
X105485017Y-112402840D01*
X105430467Y-112271143D01*
X105430466Y-112271141D01*
X105298836Y-112056341D01*
X105135224Y-111864776D01*
X104943659Y-111701164D01*
X104728859Y-111569534D01*
X104728856Y-111569533D01*
X104728855Y-111569532D01*
X104728856Y-111569532D01*
X104560995Y-111500002D01*
X109494318Y-111500002D01*
X109514954Y-111656757D01*
X109575463Y-111802840D01*
X109622991Y-111864779D01*
X109671718Y-111928282D01*
X109797159Y-112024536D01*
X109943238Y-112085044D01*
X109981624Y-112090097D01*
X110052878Y-112119610D01*
X110099833Y-112180799D01*
X110109901Y-112218373D01*
X110114954Y-112256757D01*
X110175463Y-112402840D01*
X110253001Y-112503889D01*
X110271718Y-112528282D01*
X110397159Y-112624536D01*
X110543238Y-112685044D01*
X110543241Y-112685044D01*
X110543243Y-112685045D01*
X110543240Y-112685045D01*
X110699997Y-112705682D01*
X110700000Y-112705682D01*
X110700003Y-112705682D01*
X110856757Y-112685045D01*
X110856758Y-112685044D01*
X110856762Y-112685044D01*
X111002841Y-112624536D01*
X111128282Y-112528282D01*
X111224536Y-112402841D01*
X111285044Y-112256762D01*
X111288797Y-112228259D01*
X111305682Y-112100002D01*
X111305682Y-112099997D01*
X111285045Y-111943242D01*
X111285044Y-111943240D01*
X111285044Y-111943238D01*
X111224536Y-111797159D01*
X111128282Y-111671718D01*
X111108785Y-111656757D01*
X111060887Y-111620004D01*
X111844571Y-111620004D01*
X111864243Y-111832305D01*
X111864243Y-111832307D01*
X111864244Y-111832310D01*
X111883441Y-111899782D01*
X111922593Y-112037385D01*
X111922594Y-112037387D01*
X112017636Y-112228259D01*
X112146127Y-112398406D01*
X112146128Y-112398407D01*
X112261836Y-112503889D01*
X112303697Y-112542051D01*
X112303698Y-112542052D01*
X112484977Y-112654296D01*
X112484983Y-112654299D01*
X112564346Y-112685044D01*
X112683802Y-112731321D01*
X112893390Y-112770500D01*
X112893393Y-112770500D01*
X113106607Y-112770500D01*
X113106610Y-112770500D01*
X113316198Y-112731321D01*
X113515019Y-112654298D01*
X113696302Y-112542052D01*
X113853872Y-112398407D01*
X113982366Y-112228255D01*
X114077405Y-112037389D01*
X114135756Y-111832310D01*
X114152173Y-111655136D01*
X114155429Y-111620004D01*
X114155429Y-111619995D01*
X114142492Y-111480385D01*
X114135756Y-111407690D01*
X114077405Y-111202611D01*
X113982366Y-111011745D01*
X113982364Y-111011743D01*
X113982363Y-111011740D01*
X113853872Y-110841593D01*
X113696302Y-110697948D01*
X113696301Y-110697947D01*
X113515022Y-110585703D01*
X113515016Y-110585700D01*
X113316204Y-110508681D01*
X113316200Y-110508680D01*
X113316198Y-110508679D01*
X113250846Y-110496462D01*
X113181284Y-110463151D01*
X113137696Y-110399521D01*
X113131763Y-110322621D01*
X113165075Y-110253058D01*
X113228705Y-110209470D01*
X113250843Y-110203537D01*
X113316198Y-110191321D01*
X113515019Y-110114298D01*
X113590159Y-110067773D01*
X133145788Y-110067773D01*
X133175412Y-110337005D01*
X133175414Y-110337019D01*
X133240428Y-110585700D01*
X133243928Y-110599088D01*
X133297722Y-110725675D01*
X133349870Y-110848390D01*
X133349875Y-110848399D01*
X133490981Y-111079610D01*
X133490984Y-111079614D01*
X133664247Y-111287812D01*
X133664259Y-111287824D01*
X133865990Y-111468575D01*
X133865999Y-111468583D01*
X133936089Y-111514954D01*
X134091910Y-111618044D01*
X134337176Y-111733020D01*
X134596569Y-111811060D01*
X134864561Y-111850500D01*
X134864568Y-111850500D01*
X135067622Y-111850500D01*
X135067631Y-111850500D01*
X135270156Y-111835677D01*
X135534553Y-111776780D01*
X135787558Y-111680014D01*
X136023777Y-111547441D01*
X136238177Y-111381888D01*
X136426186Y-111186881D01*
X136583799Y-110966579D01*
X136707656Y-110725675D01*
X136795118Y-110469305D01*
X136843112Y-110209470D01*
X136844318Y-110202939D01*
X136844318Y-110202938D01*
X136844319Y-110202933D01*
X136854212Y-109932235D01*
X136824586Y-109662982D01*
X136756072Y-109400912D01*
X136650130Y-109151610D01*
X136650124Y-109151600D01*
X136509018Y-108920389D01*
X136509015Y-108920385D01*
X136335752Y-108712187D01*
X136335740Y-108712175D01*
X136134009Y-108531424D01*
X136134000Y-108531416D01*
X135908090Y-108381956D01*
X135662825Y-108266980D01*
X135517369Y-108223219D01*
X135403431Y-108188940D01*
X135403427Y-108188939D01*
X135403426Y-108188939D01*
X135135446Y-108149501D01*
X135135445Y-108149500D01*
X135135439Y-108149500D01*
X134932369Y-108149500D01*
X134729844Y-108164323D01*
X134729836Y-108164324D01*
X134465449Y-108223219D01*
X134465439Y-108223222D01*
X134212440Y-108319986D01*
X134212438Y-108319987D01*
X133976224Y-108452558D01*
X133976217Y-108452562D01*
X133761830Y-108618105D01*
X133761826Y-108618108D01*
X133573810Y-108813123D01*
X133416201Y-109033419D01*
X133292344Y-109274324D01*
X133292344Y-109274325D01*
X133204886Y-109530680D01*
X133204880Y-109530703D01*
X133155681Y-109797060D01*
X133145788Y-110067773D01*
X113590159Y-110067773D01*
X113696302Y-110002052D01*
X113853872Y-109858407D01*
X113982366Y-109688255D01*
X114077405Y-109497389D01*
X114135756Y-109292310D01*
X114146685Y-109174360D01*
X114155429Y-109080004D01*
X114155429Y-109079995D01*
X114135756Y-108867694D01*
X114135756Y-108867690D01*
X114077405Y-108662611D01*
X113982366Y-108471745D01*
X113982364Y-108471743D01*
X113982363Y-108471740D01*
X113853872Y-108301593D01*
X113696302Y-108157948D01*
X113696301Y-108157947D01*
X113515022Y-108045703D01*
X113515016Y-108045700D01*
X113316204Y-107968681D01*
X113316200Y-107968680D01*
X113316198Y-107968679D01*
X113250846Y-107956462D01*
X113181284Y-107923151D01*
X113137696Y-107859521D01*
X113131763Y-107782621D01*
X113165075Y-107713058D01*
X113228705Y-107669470D01*
X113250843Y-107663537D01*
X113316198Y-107651321D01*
X113515019Y-107574298D01*
X113696302Y-107462052D01*
X113853872Y-107318407D01*
X113982366Y-107148255D01*
X114077405Y-106957389D01*
X114135756Y-106752310D01*
X114152865Y-106567668D01*
X114155429Y-106540004D01*
X114155429Y-106539995D01*
X114144499Y-106422050D01*
X114135756Y-106327690D01*
X114077405Y-106122611D01*
X114016354Y-106000002D01*
X115494318Y-106000002D01*
X115514954Y-106156757D01*
X115575463Y-106302840D01*
X115650017Y-106400000D01*
X115671718Y-106428282D01*
X115797159Y-106524536D01*
X115943238Y-106585044D01*
X115943241Y-106585044D01*
X115943243Y-106585045D01*
X115943240Y-106585045D01*
X116099997Y-106605682D01*
X116100000Y-106605682D01*
X116100003Y-106605682D01*
X116256757Y-106585045D01*
X116256758Y-106585044D01*
X116256762Y-106585044D01*
X116402841Y-106524536D01*
X116528282Y-106428282D01*
X116549982Y-106400002D01*
X117894318Y-106400002D01*
X117914954Y-106556757D01*
X117975463Y-106702840D01*
X118052196Y-106802840D01*
X118071718Y-106828282D01*
X118197159Y-106924536D01*
X118343238Y-106985044D01*
X118343241Y-106985044D01*
X118343243Y-106985045D01*
X118343240Y-106985045D01*
X118499997Y-107005682D01*
X118500000Y-107005682D01*
X118500003Y-107005682D01*
X118656757Y-106985045D01*
X118656758Y-106985044D01*
X118656762Y-106985044D01*
X118802841Y-106924536D01*
X118928282Y-106828282D01*
X119024536Y-106702841D01*
X119085044Y-106556762D01*
X119087251Y-106540004D01*
X119105682Y-106400002D01*
X119105682Y-106399997D01*
X119085045Y-106243242D01*
X119085044Y-106243240D01*
X119085044Y-106243238D01*
X119024536Y-106097159D01*
X118928282Y-105971718D01*
X118824642Y-105892192D01*
X118802840Y-105875463D01*
X118690744Y-105829032D01*
X118656762Y-105814956D01*
X118656760Y-105814955D01*
X118656756Y-105814954D01*
X118656759Y-105814954D01*
X118500003Y-105794318D01*
X118499997Y-105794318D01*
X118343242Y-105814954D01*
X118197159Y-105875463D01*
X118071718Y-105971717D01*
X118071717Y-105971718D01*
X117975463Y-106097159D01*
X117914954Y-106243242D01*
X117894318Y-106399997D01*
X117894318Y-106400002D01*
X116549982Y-106400002D01*
X116624536Y-106302841D01*
X116685044Y-106156762D01*
X116694098Y-106087994D01*
X116705682Y-106000002D01*
X116705682Y-105999997D01*
X116685045Y-105843242D01*
X116685044Y-105843240D01*
X116685044Y-105843238D01*
X116649048Y-105756335D01*
X127045710Y-105756335D01*
X127075923Y-105979378D01*
X127075928Y-105979398D01*
X127145480Y-106193458D01*
X127145481Y-106193462D01*
X127252146Y-106391678D01*
X127252148Y-106391681D01*
X127321208Y-106478279D01*
X127392490Y-106567664D01*
X127392493Y-106567668D01*
X127561996Y-106715759D01*
X127562000Y-106715762D01*
X127562004Y-106715765D01*
X127658620Y-106773490D01*
X127707745Y-106802841D01*
X127755236Y-106831215D01*
X127965976Y-106910307D01*
X127965980Y-106910307D01*
X127965984Y-106910309D01*
X128187447Y-106950499D01*
X128187453Y-106950500D01*
X128187457Y-106950500D01*
X129956155Y-106950500D01*
X130124188Y-106935377D01*
X130124194Y-106935375D01*
X130124196Y-106935375D01*
X130172598Y-106922016D01*
X130341170Y-106875493D01*
X130341172Y-106875492D01*
X130341173Y-106875492D01*
X130406954Y-106843813D01*
X130543973Y-106777829D01*
X130726078Y-106645522D01*
X130800518Y-106567664D01*
X130881625Y-106482833D01*
X130881627Y-106482829D01*
X130881632Y-106482825D01*
X131005635Y-106294968D01*
X131049023Y-106193458D01*
X131094101Y-106087994D01*
X131094101Y-106087991D01*
X131094103Y-106087988D01*
X131144191Y-105868537D01*
X131154290Y-105643670D01*
X131154289Y-105643668D01*
X131154290Y-105643665D01*
X131154289Y-105643664D01*
X131150805Y-105617947D01*
X131124075Y-105420613D01*
X131084886Y-105300002D01*
X131054519Y-105206541D01*
X131054518Y-105206537D01*
X130947853Y-105008321D01*
X130947852Y-105008319D01*
X130807508Y-104832334D01*
X130807506Y-104832331D01*
X130638003Y-104684240D01*
X130637997Y-104684236D01*
X130637996Y-104684235D01*
X130569385Y-104643242D01*
X130444770Y-104568788D01*
X130444755Y-104568781D01*
X130234021Y-104489692D01*
X130234015Y-104489690D01*
X130012552Y-104449500D01*
X130012547Y-104449500D01*
X128243845Y-104449500D01*
X128243841Y-104449500D01*
X128109418Y-104461598D01*
X128075812Y-104464623D01*
X128075811Y-104464623D01*
X128075803Y-104464624D01*
X127858828Y-104524507D01*
X127858826Y-104524507D01*
X127656030Y-104622169D01*
X127656026Y-104622171D01*
X127473921Y-104754479D01*
X127473915Y-104754483D01*
X127318374Y-104917166D01*
X127318368Y-104917174D01*
X127194365Y-105105030D01*
X127194361Y-105105038D01*
X127105898Y-105312005D01*
X127055809Y-105531460D01*
X127055808Y-105531468D01*
X127045710Y-105756330D01*
X127045710Y-105756335D01*
X116649048Y-105756335D01*
X116624536Y-105697159D01*
X116528282Y-105571718D01*
X116442250Y-105505703D01*
X116402840Y-105475463D01*
X116270438Y-105420621D01*
X116256762Y-105414956D01*
X116256760Y-105414955D01*
X116256756Y-105414954D01*
X116256759Y-105414954D01*
X116100003Y-105394318D01*
X116099997Y-105394318D01*
X115943242Y-105414954D01*
X115797159Y-105475463D01*
X115671718Y-105571717D01*
X115671717Y-105571718D01*
X115575463Y-105697159D01*
X115514954Y-105843242D01*
X115494318Y-105999997D01*
X115494318Y-106000002D01*
X114016354Y-106000002D01*
X113982366Y-105931745D01*
X113982364Y-105931743D01*
X113982363Y-105931740D01*
X113853872Y-105761593D01*
X113696302Y-105617948D01*
X113696301Y-105617947D01*
X113515022Y-105505703D01*
X113515016Y-105505700D01*
X113341388Y-105438437D01*
X113279130Y-105392911D01*
X113247976Y-105322355D01*
X113256275Y-105245674D01*
X113301801Y-105183416D01*
X113372357Y-105152262D01*
X113395209Y-105150499D01*
X113894864Y-105150499D01*
X113894867Y-105150499D01*
X113909940Y-105148750D01*
X113919991Y-105147585D01*
X114022765Y-105102206D01*
X114102206Y-105022765D01*
X114147585Y-104919991D01*
X114150500Y-104894865D01*
X114150500Y-104600002D01*
X117694318Y-104600002D01*
X117714954Y-104756757D01*
X117775463Y-104902840D01*
X117867485Y-105022765D01*
X117871718Y-105028282D01*
X117997159Y-105124536D01*
X118143238Y-105185044D01*
X118143241Y-105185044D01*
X118143243Y-105185045D01*
X118143240Y-105185045D01*
X118299997Y-105205682D01*
X118300000Y-105205682D01*
X118300003Y-105205682D01*
X118456757Y-105185045D01*
X118456758Y-105185044D01*
X118456762Y-105185044D01*
X118602841Y-105124536D01*
X118728282Y-105028282D01*
X118824536Y-104902841D01*
X118867133Y-104800002D01*
X119494318Y-104800002D01*
X119514954Y-104956757D01*
X119575463Y-105102840D01*
X119655036Y-105206541D01*
X119671718Y-105228282D01*
X119797159Y-105324536D01*
X119943238Y-105385044D01*
X119943241Y-105385044D01*
X119943243Y-105385045D01*
X119943240Y-105385045D01*
X120099997Y-105405682D01*
X120100000Y-105405682D01*
X120100003Y-105405682D01*
X120256757Y-105385045D01*
X120256758Y-105385044D01*
X120256762Y-105385044D01*
X120402841Y-105324536D01*
X120528282Y-105228282D01*
X120624536Y-105102841D01*
X120685044Y-104956762D01*
X120689886Y-104919989D01*
X120705682Y-104800002D01*
X120705682Y-104799997D01*
X120685045Y-104643242D01*
X120685044Y-104643240D01*
X120685044Y-104643238D01*
X120624536Y-104497159D01*
X120528282Y-104371718D01*
X120415328Y-104285045D01*
X120402840Y-104275463D01*
X120322944Y-104242369D01*
X120256762Y-104214956D01*
X120256760Y-104214955D01*
X120256756Y-104214954D01*
X120256759Y-104214954D01*
X120100003Y-104194318D01*
X120099997Y-104194318D01*
X119943242Y-104214954D01*
X119797159Y-104275463D01*
X119671718Y-104371717D01*
X119671717Y-104371718D01*
X119575463Y-104497159D01*
X119514954Y-104643242D01*
X119494318Y-104799997D01*
X119494318Y-104800002D01*
X118867133Y-104800002D01*
X118885044Y-104756762D01*
X118894593Y-104684235D01*
X118905682Y-104600002D01*
X118905682Y-104599997D01*
X118885045Y-104443242D01*
X118885044Y-104443240D01*
X118885044Y-104443238D01*
X118824536Y-104297159D01*
X118728282Y-104171718D01*
X118666795Y-104124537D01*
X118602840Y-104075463D01*
X118492335Y-104029691D01*
X118456762Y-104014956D01*
X118456760Y-104014955D01*
X118456756Y-104014954D01*
X118456759Y-104014954D01*
X118300003Y-103994318D01*
X118299997Y-103994318D01*
X118143242Y-104014954D01*
X117997160Y-104075463D01*
X117909951Y-104142380D01*
X117838694Y-104171894D01*
X117826643Y-104170307D01*
X117818410Y-104232850D01*
X117798963Y-104266534D01*
X117775463Y-104297159D01*
X117714954Y-104443242D01*
X117694318Y-104599997D01*
X117694318Y-104600002D01*
X114150500Y-104600002D01*
X114150499Y-103700002D01*
X115494318Y-103700002D01*
X115514954Y-103856757D01*
X115575463Y-104002840D01*
X115668844Y-104124536D01*
X115671718Y-104128282D01*
X115797159Y-104224536D01*
X115943238Y-104285044D01*
X115943241Y-104285044D01*
X115943243Y-104285045D01*
X115943240Y-104285045D01*
X116099997Y-104305682D01*
X116100000Y-104305682D01*
X116100003Y-104305682D01*
X116256757Y-104285045D01*
X116256758Y-104285044D01*
X116256762Y-104285044D01*
X116402841Y-104224536D01*
X116528282Y-104128282D01*
X116576088Y-104065978D01*
X116637276Y-104019028D01*
X116713744Y-104008959D01*
X116784999Y-104038473D01*
X116897159Y-104124536D01*
X117043238Y-104185044D01*
X117043241Y-104185044D01*
X117043243Y-104185045D01*
X117043240Y-104185045D01*
X117199997Y-104205682D01*
X117200000Y-104205682D01*
X117200003Y-104205682D01*
X117356757Y-104185045D01*
X117356758Y-104185044D01*
X117356762Y-104185044D01*
X117502841Y-104124536D01*
X117590050Y-104057618D01*
X117661303Y-104028105D01*
X117673355Y-104029691D01*
X117681590Y-103967148D01*
X117701036Y-103933465D01*
X117724536Y-103902841D01*
X117785044Y-103756762D01*
X117792518Y-103699997D01*
X117805682Y-103600002D01*
X117805682Y-103599997D01*
X117785045Y-103443242D01*
X117785044Y-103443240D01*
X117785044Y-103443238D01*
X117724536Y-103297159D01*
X117628282Y-103171718D01*
X117538520Y-103102841D01*
X117502840Y-103075463D01*
X117422944Y-103042369D01*
X117356762Y-103014956D01*
X117356760Y-103014955D01*
X117356756Y-103014954D01*
X117356759Y-103014954D01*
X117200003Y-102994318D01*
X117199997Y-102994318D01*
X117043242Y-103014954D01*
X116897159Y-103075463D01*
X116771718Y-103171717D01*
X116771715Y-103171720D01*
X116723911Y-103234020D01*
X116662721Y-103280972D01*
X116586253Y-103291039D01*
X116514997Y-103261524D01*
X116402840Y-103175463D01*
X116322944Y-103142369D01*
X116256762Y-103114956D01*
X116256760Y-103114955D01*
X116256756Y-103114954D01*
X116256759Y-103114954D01*
X116100003Y-103094318D01*
X116099997Y-103094318D01*
X115943242Y-103114954D01*
X115797159Y-103175463D01*
X115671718Y-103271717D01*
X115671717Y-103271718D01*
X115575463Y-103397159D01*
X115514954Y-103543242D01*
X115494318Y-103699997D01*
X115494318Y-103700002D01*
X114150499Y-103700002D01*
X114150499Y-103554681D01*
X114170461Y-103480182D01*
X114224999Y-103425644D01*
X114290468Y-103408101D01*
X114290318Y-103406957D01*
X114299012Y-103405812D01*
X114299499Y-103405682D01*
X114300003Y-103405682D01*
X114456757Y-103385045D01*
X114456758Y-103385044D01*
X114456762Y-103385044D01*
X114602841Y-103324536D01*
X114728282Y-103228282D01*
X114824536Y-103102841D01*
X114885044Y-102956762D01*
X114885045Y-102956757D01*
X114906957Y-102790318D01*
X114909722Y-102790682D01*
X114925644Y-102731260D01*
X114980182Y-102676722D01*
X114997660Y-102668103D01*
X115102841Y-102624536D01*
X115228282Y-102528282D01*
X115324536Y-102402841D01*
X115385044Y-102256762D01*
X115390120Y-102218210D01*
X115405682Y-102100002D01*
X123594318Y-102100002D01*
X123614954Y-102256757D01*
X123675463Y-102402840D01*
X123768844Y-102524536D01*
X123771718Y-102528282D01*
X123897159Y-102624536D01*
X124043238Y-102685044D01*
X124043241Y-102685044D01*
X124043243Y-102685045D01*
X124043240Y-102685045D01*
X124199997Y-102705682D01*
X124200000Y-102705682D01*
X124200003Y-102705682D01*
X124356757Y-102685045D01*
X124356758Y-102685044D01*
X124356762Y-102685044D01*
X124502841Y-102624536D01*
X124628282Y-102528282D01*
X124724536Y-102402841D01*
X124767134Y-102300001D01*
X128294435Y-102300001D01*
X128314631Y-102479252D01*
X128314631Y-102479254D01*
X128314632Y-102479255D01*
X128374211Y-102649522D01*
X128470184Y-102802262D01*
X128597738Y-102929816D01*
X128750478Y-103025789D01*
X128920745Y-103085368D01*
X129055046Y-103100500D01*
X129055047Y-103100500D01*
X129144953Y-103100500D01*
X129144954Y-103100500D01*
X129279255Y-103085368D01*
X129449522Y-103025789D01*
X129602262Y-102929816D01*
X129729816Y-102802262D01*
X129825789Y-102649522D01*
X129885368Y-102479255D01*
X129905565Y-102300000D01*
X129902800Y-102275464D01*
X129889426Y-102156762D01*
X129885368Y-102120745D01*
X129825789Y-101950478D01*
X129729816Y-101797738D01*
X129602262Y-101670184D01*
X129449522Y-101574211D01*
X129279255Y-101514632D01*
X129279254Y-101514631D01*
X129279253Y-101514631D01*
X129162006Y-101501421D01*
X129144954Y-101499500D01*
X129055046Y-101499500D01*
X129039915Y-101501204D01*
X128920746Y-101514631D01*
X128750477Y-101574211D01*
X128597738Y-101670184D01*
X128470184Y-101797738D01*
X128374211Y-101950477D01*
X128314631Y-102120747D01*
X128294435Y-102299998D01*
X128294435Y-102300001D01*
X124767134Y-102300001D01*
X124785044Y-102256762D01*
X124790120Y-102218210D01*
X124805682Y-102100002D01*
X124805682Y-102099997D01*
X124785045Y-101943242D01*
X124785044Y-101943240D01*
X124785044Y-101943238D01*
X124724536Y-101797159D01*
X124628282Y-101671718D01*
X124538520Y-101602841D01*
X124502840Y-101575463D01*
X124397661Y-101531897D01*
X124356762Y-101514956D01*
X124356760Y-101514955D01*
X124356756Y-101514954D01*
X124356759Y-101514954D01*
X124200003Y-101494318D01*
X124199997Y-101494318D01*
X124043242Y-101514954D01*
X123897159Y-101575463D01*
X123771718Y-101671717D01*
X123771717Y-101671718D01*
X123675463Y-101797159D01*
X123614954Y-101943242D01*
X123594318Y-102099997D01*
X123594318Y-102100002D01*
X115405682Y-102100002D01*
X115405682Y-102099997D01*
X115385045Y-101943242D01*
X115385044Y-101943240D01*
X115385044Y-101943238D01*
X115324536Y-101797159D01*
X115228282Y-101671718D01*
X115138520Y-101602841D01*
X115102840Y-101575463D01*
X114997662Y-101531897D01*
X114936472Y-101484944D01*
X114906957Y-101413687D01*
X114906433Y-101405709D01*
X114905681Y-101400002D01*
X114905682Y-101400000D01*
X114892517Y-101300002D01*
X120594318Y-101300002D01*
X120614954Y-101456757D01*
X120675463Y-101602840D01*
X120752196Y-101702840D01*
X120771718Y-101728282D01*
X120897159Y-101824536D01*
X121043238Y-101885044D01*
X121043241Y-101885044D01*
X121043243Y-101885045D01*
X121043240Y-101885045D01*
X121199997Y-101905682D01*
X121200000Y-101905682D01*
X121200003Y-101905682D01*
X121356757Y-101885045D01*
X121356758Y-101885044D01*
X121356762Y-101885044D01*
X121502841Y-101824536D01*
X121628282Y-101728282D01*
X121724536Y-101602841D01*
X121785044Y-101456762D01*
X121791766Y-101405709D01*
X121805682Y-101300002D01*
X121805682Y-101299997D01*
X121785045Y-101143242D01*
X121785044Y-101143240D01*
X121785044Y-101143238D01*
X121724536Y-100997159D01*
X121628282Y-100871718D01*
X121502841Y-100775464D01*
X121502840Y-100775463D01*
X121422944Y-100742369D01*
X121356762Y-100714956D01*
X121356760Y-100714955D01*
X121356756Y-100714954D01*
X121356759Y-100714954D01*
X121200003Y-100694318D01*
X121199997Y-100694318D01*
X121043242Y-100714954D01*
X120897159Y-100775463D01*
X120771718Y-100871717D01*
X120771717Y-100871718D01*
X120675463Y-100997159D01*
X120614954Y-101143242D01*
X120594318Y-101299997D01*
X120594318Y-101300002D01*
X114892517Y-101300002D01*
X114892517Y-101300000D01*
X114885045Y-101243242D01*
X114885044Y-101243240D01*
X114885044Y-101243238D01*
X114824536Y-101097159D01*
X114728282Y-100971718D01*
X114602841Y-100875464D01*
X114602840Y-100875463D01*
X114522944Y-100842369D01*
X114456762Y-100814956D01*
X114456760Y-100814955D01*
X114456756Y-100814954D01*
X114456759Y-100814954D01*
X114300003Y-100794318D01*
X114299997Y-100794318D01*
X114143242Y-100814954D01*
X113997159Y-100875463D01*
X113871718Y-100971717D01*
X113871717Y-100971718D01*
X113775463Y-101097159D01*
X113714954Y-101243242D01*
X113694318Y-101399997D01*
X113694318Y-101400002D01*
X113714954Y-101556757D01*
X113775463Y-101702840D01*
X113868844Y-101824536D01*
X113871718Y-101828282D01*
X113997159Y-101924536D01*
X114059788Y-101950478D01*
X114088431Y-101962342D01*
X114149621Y-102009294D01*
X114179136Y-102080551D01*
X114169069Y-102157020D01*
X114122117Y-102218210D01*
X114088431Y-102237658D01*
X113997159Y-102275463D01*
X113871718Y-102371717D01*
X113871717Y-102371718D01*
X113775463Y-102497159D01*
X113714954Y-102643241D01*
X113704856Y-102719949D01*
X113675340Y-102791206D01*
X113614151Y-102838158D01*
X113557131Y-102849500D01*
X112105133Y-102849500D01*
X112080010Y-102852414D01*
X112080007Y-102852415D01*
X111977235Y-102897793D01*
X111897793Y-102977235D01*
X111852416Y-103080005D01*
X111852415Y-103080008D01*
X111852415Y-103080009D01*
X111849500Y-103105135D01*
X111849500Y-103105139D01*
X111849500Y-103105140D01*
X111849500Y-104894866D01*
X111852414Y-104919989D01*
X111852415Y-104919992D01*
X111897793Y-105022764D01*
X111897794Y-105022765D01*
X111977235Y-105102206D01*
X112080009Y-105147585D01*
X112105135Y-105150500D01*
X112604787Y-105150499D01*
X112679285Y-105170461D01*
X112733823Y-105224999D01*
X112753785Y-105299499D01*
X112733823Y-105373999D01*
X112679285Y-105428537D01*
X112658610Y-105438437D01*
X112484983Y-105505700D01*
X112484977Y-105505703D01*
X112303698Y-105617947D01*
X112303697Y-105617948D01*
X112146127Y-105761593D01*
X112017636Y-105931740D01*
X111922594Y-106122612D01*
X111922593Y-106122614D01*
X111864243Y-106327694D01*
X111844571Y-106539995D01*
X111844571Y-106540004D01*
X111864243Y-106752305D01*
X111922593Y-106957385D01*
X111922594Y-106957387D01*
X112017636Y-107148259D01*
X112146127Y-107318406D01*
X112303697Y-107462051D01*
X112303698Y-107462052D01*
X112484977Y-107574296D01*
X112484983Y-107574299D01*
X112572189Y-107608082D01*
X112683802Y-107651321D01*
X112749152Y-107663537D01*
X112818716Y-107696849D01*
X112862303Y-107760480D01*
X112868236Y-107837379D01*
X112834924Y-107906943D01*
X112771293Y-107950530D01*
X112749153Y-107956462D01*
X112683802Y-107968679D01*
X112683795Y-107968681D01*
X112484983Y-108045700D01*
X112484977Y-108045703D01*
X112303698Y-108157947D01*
X112303697Y-108157948D01*
X112146127Y-108301593D01*
X112017636Y-108471740D01*
X111922594Y-108662612D01*
X111922593Y-108662614D01*
X111864243Y-108867694D01*
X111844571Y-109079995D01*
X111844571Y-109080004D01*
X111864243Y-109292305D01*
X111922593Y-109497385D01*
X111922594Y-109497387D01*
X112017636Y-109688259D01*
X112146127Y-109858406D01*
X112303697Y-110002051D01*
X112303698Y-110002052D01*
X112484977Y-110114296D01*
X112484983Y-110114299D01*
X112572189Y-110148082D01*
X112683802Y-110191321D01*
X112749152Y-110203537D01*
X112818716Y-110236849D01*
X112862303Y-110300480D01*
X112868236Y-110377379D01*
X112834924Y-110446943D01*
X112771293Y-110490530D01*
X112749153Y-110496462D01*
X112683802Y-110508679D01*
X112683795Y-110508681D01*
X112484983Y-110585700D01*
X112484977Y-110585703D01*
X112303698Y-110697947D01*
X112303697Y-110697948D01*
X112146127Y-110841593D01*
X112017636Y-111011740D01*
X111922594Y-111202612D01*
X111922593Y-111202614D01*
X111864243Y-111407694D01*
X111844571Y-111619995D01*
X111844571Y-111620004D01*
X111060887Y-111620004D01*
X111002840Y-111575463D01*
X110922944Y-111542369D01*
X110856762Y-111514956D01*
X110856760Y-111514955D01*
X110856756Y-111514954D01*
X110856759Y-111514954D01*
X110818373Y-111509901D01*
X110747116Y-111480385D01*
X110700164Y-111419195D01*
X110690097Y-111381627D01*
X110685044Y-111343238D01*
X110624536Y-111197159D01*
X110528282Y-111071718D01*
X110450124Y-111011745D01*
X110402840Y-110975463D01*
X110322944Y-110942369D01*
X110256762Y-110914956D01*
X110256760Y-110914955D01*
X110256756Y-110914954D01*
X110256759Y-110914954D01*
X110100003Y-110894318D01*
X110099997Y-110894318D01*
X109943242Y-110914954D01*
X109797159Y-110975463D01*
X109671718Y-111071717D01*
X109671717Y-111071718D01*
X109575463Y-111197159D01*
X109514954Y-111343242D01*
X109494318Y-111499997D01*
X109494318Y-111500002D01*
X104560995Y-111500002D01*
X104496113Y-111473127D01*
X104496099Y-111473123D01*
X104251158Y-111414319D01*
X104251151Y-111414317D01*
X104000000Y-111394551D01*
X103748848Y-111414317D01*
X103748841Y-111414319D01*
X103503900Y-111473123D01*
X103503886Y-111473127D01*
X103271143Y-111569532D01*
X103056340Y-111701164D01*
X102864779Y-111864773D01*
X102864773Y-111864779D01*
X102701164Y-112056340D01*
X102569532Y-112271143D01*
X102473127Y-112503886D01*
X102473123Y-112503900D01*
X102414319Y-112748841D01*
X102414317Y-112748848D01*
X102394551Y-113000000D01*
X102414317Y-113251151D01*
X102414319Y-113251158D01*
X102473123Y-113496099D01*
X102473127Y-113496113D01*
X102569532Y-113728856D01*
X102596674Y-113773147D01*
X102618580Y-113847099D01*
X102600575Y-113922096D01*
X102547484Y-113978043D01*
X102473532Y-113999949D01*
X102469631Y-114000000D01*
X100749500Y-114000000D01*
X100675000Y-113980038D01*
X100620462Y-113925500D01*
X100600500Y-113851000D01*
X100600499Y-111655133D01*
X100597585Y-111630010D01*
X100597584Y-111630007D01*
X100592301Y-111618043D01*
X100552206Y-111527235D01*
X100472765Y-111447794D01*
X100472764Y-111447793D01*
X100369994Y-111402416D01*
X100369991Y-111402415D01*
X100344865Y-111399500D01*
X100344859Y-111399500D01*
X100149000Y-111399500D01*
X100074500Y-111379538D01*
X100019962Y-111325000D01*
X100000000Y-111250500D01*
X100000000Y-106500002D01*
X106594318Y-106500002D01*
X106614954Y-106656757D01*
X106675463Y-106802840D01*
X106768844Y-106924536D01*
X106771718Y-106928282D01*
X106897159Y-107024536D01*
X107043238Y-107085044D01*
X107043241Y-107085044D01*
X107043243Y-107085045D01*
X107043240Y-107085045D01*
X107199997Y-107105682D01*
X107200000Y-107105682D01*
X107200003Y-107105682D01*
X107356757Y-107085045D01*
X107356758Y-107085044D01*
X107356762Y-107085044D01*
X107502841Y-107024536D01*
X107628282Y-106928282D01*
X107724536Y-106802841D01*
X107785044Y-106656762D01*
X107796774Y-106567668D01*
X107805682Y-106500002D01*
X107805682Y-106499997D01*
X107785045Y-106343242D01*
X107785044Y-106343240D01*
X107785044Y-106343238D01*
X107724536Y-106197159D01*
X107628282Y-106071718D01*
X107502841Y-105975464D01*
X107502840Y-105975463D01*
X107397282Y-105931740D01*
X107356762Y-105914956D01*
X107356760Y-105914955D01*
X107356756Y-105914954D01*
X107356759Y-105914954D01*
X107200003Y-105894318D01*
X107199997Y-105894318D01*
X107043242Y-105914954D01*
X106897159Y-105975463D01*
X106771718Y-106071717D01*
X106771717Y-106071718D01*
X106675463Y-106197159D01*
X106614954Y-106343242D01*
X106594318Y-106499997D01*
X106594318Y-106500002D01*
X100000000Y-106500002D01*
X100000000Y-105966692D01*
X100019962Y-105892192D01*
X100074500Y-105837654D01*
X100091976Y-105829036D01*
X100102841Y-105824536D01*
X100228282Y-105728282D01*
X100324536Y-105602841D01*
X100385044Y-105456762D01*
X100388742Y-105428679D01*
X100405682Y-105300002D01*
X100405682Y-105299997D01*
X100385045Y-105143242D01*
X100385044Y-105143240D01*
X100385044Y-105143238D01*
X100324536Y-104997159D01*
X100228282Y-104871718D01*
X100228280Y-104871716D01*
X100102845Y-104775466D01*
X100102838Y-104775462D01*
X100091976Y-104770963D01*
X100030787Y-104724009D01*
X100001274Y-104652750D01*
X100000000Y-104633307D01*
X100000000Y-103800002D01*
X103894318Y-103800002D01*
X103914954Y-103956757D01*
X103975463Y-104102840D01*
X104068844Y-104224536D01*
X104071718Y-104228282D01*
X104197159Y-104324536D01*
X104343238Y-104385044D01*
X104343241Y-104385044D01*
X104343243Y-104385045D01*
X104343240Y-104385045D01*
X104499997Y-104405682D01*
X104500000Y-104405682D01*
X104500003Y-104405682D01*
X104656757Y-104385045D01*
X104656758Y-104385044D01*
X104656762Y-104385044D01*
X104802841Y-104324536D01*
X104928282Y-104228282D01*
X105024536Y-104102841D01*
X105085044Y-103956762D01*
X105088112Y-103933462D01*
X105105682Y-103800002D01*
X105105682Y-103799997D01*
X105085045Y-103643242D01*
X105085044Y-103643240D01*
X105085044Y-103643238D01*
X105024536Y-103497159D01*
X104928282Y-103371718D01*
X104802841Y-103275464D01*
X104802840Y-103275463D01*
X104702786Y-103234020D01*
X104656762Y-103214956D01*
X104656760Y-103214955D01*
X104656756Y-103214954D01*
X104656759Y-103214954D01*
X104500003Y-103194318D01*
X104499997Y-103194318D01*
X104343242Y-103214954D01*
X104197159Y-103275463D01*
X104071718Y-103371717D01*
X104071717Y-103371718D01*
X103975463Y-103497159D01*
X103914954Y-103643242D01*
X103894318Y-103799997D01*
X103894318Y-103800002D01*
X100000000Y-103800002D01*
X100000000Y-101700002D01*
X105294318Y-101700002D01*
X105314954Y-101856757D01*
X105375463Y-102002840D01*
X105465935Y-102120745D01*
X105471718Y-102128282D01*
X105597159Y-102224536D01*
X105743238Y-102285044D01*
X105743241Y-102285044D01*
X105743243Y-102285045D01*
X105743240Y-102285045D01*
X105899997Y-102305682D01*
X105900000Y-102305682D01*
X105900003Y-102305682D01*
X106056757Y-102285045D01*
X106056758Y-102285044D01*
X106056762Y-102285044D01*
X106202841Y-102224536D01*
X106328282Y-102128282D01*
X106351170Y-102098452D01*
X106412358Y-102051501D01*
X106488826Y-102041432D01*
X106560084Y-102070947D01*
X106607037Y-102132136D01*
X106613301Y-102150588D01*
X106614954Y-102156756D01*
X106614955Y-102156760D01*
X106614956Y-102156762D01*
X106639061Y-102214956D01*
X106675463Y-102302840D01*
X106752196Y-102402840D01*
X106771718Y-102428282D01*
X106897159Y-102524536D01*
X107043238Y-102585044D01*
X107043241Y-102585044D01*
X107043243Y-102585045D01*
X107043240Y-102585045D01*
X107199997Y-102605682D01*
X107200000Y-102605682D01*
X107200003Y-102605682D01*
X107356757Y-102585045D01*
X107356758Y-102585044D01*
X107356762Y-102585044D01*
X107502841Y-102524536D01*
X107628282Y-102428282D01*
X107724536Y-102302841D01*
X107785044Y-102156762D01*
X107788794Y-102128282D01*
X107805682Y-102000002D01*
X107805682Y-101999997D01*
X107785045Y-101843242D01*
X107785044Y-101843240D01*
X107785044Y-101843238D01*
X107724536Y-101697159D01*
X107628282Y-101571718D01*
X107608784Y-101556757D01*
X107565980Y-101523912D01*
X107519027Y-101462722D01*
X107508960Y-101386254D01*
X107538473Y-101314999D01*
X107624536Y-101202841D01*
X107685044Y-101056762D01*
X107696241Y-100971717D01*
X107705682Y-100900002D01*
X107705682Y-100899997D01*
X107685045Y-100743242D01*
X107685044Y-100743240D01*
X107685044Y-100743238D01*
X107624536Y-100597159D01*
X107528282Y-100471718D01*
X107402841Y-100375464D01*
X107402840Y-100375463D01*
X107322944Y-100342369D01*
X107256762Y-100314956D01*
X107256760Y-100314955D01*
X107256756Y-100314954D01*
X107256759Y-100314954D01*
X107090318Y-100293043D01*
X107090588Y-100290987D01*
X107028520Y-100274356D01*
X106973982Y-100219818D01*
X106954020Y-100145318D01*
X106973982Y-100070818D01*
X106984810Y-100054613D01*
X107024536Y-100002841D01*
X107085044Y-99856762D01*
X107105682Y-99700000D01*
X107105682Y-99699997D01*
X107085045Y-99543242D01*
X107085044Y-99543240D01*
X107085044Y-99543238D01*
X107024536Y-99397159D01*
X106928282Y-99271718D01*
X106856863Y-99216916D01*
X106802840Y-99175463D01*
X106722944Y-99142369D01*
X106656762Y-99114956D01*
X106656760Y-99114955D01*
X106656756Y-99114954D01*
X106656759Y-99114954D01*
X106500003Y-99094318D01*
X106499997Y-99094318D01*
X106343242Y-99114954D01*
X106197159Y-99175463D01*
X106071718Y-99271717D01*
X106071717Y-99271718D01*
X105975463Y-99397159D01*
X105914954Y-99543242D01*
X105894318Y-99699997D01*
X105894318Y-99700002D01*
X105914954Y-99856757D01*
X105975463Y-100002840D01*
X105975464Y-100002841D01*
X106071718Y-100128282D01*
X106197159Y-100224536D01*
X106343238Y-100285044D01*
X106343241Y-100285044D01*
X106343243Y-100285045D01*
X106343240Y-100285045D01*
X106509682Y-100306957D01*
X106509411Y-100309012D01*
X106571480Y-100325644D01*
X106626018Y-100380182D01*
X106645980Y-100454682D01*
X106626018Y-100529182D01*
X106615190Y-100545387D01*
X106575463Y-100597159D01*
X106514954Y-100743242D01*
X106494318Y-100899997D01*
X106494318Y-100900002D01*
X106514954Y-101056759D01*
X106519655Y-101068107D01*
X106529721Y-101144575D01*
X106500204Y-101215832D01*
X106439013Y-101262783D01*
X106362545Y-101272849D01*
X106291291Y-101243334D01*
X106202840Y-101175463D01*
X106122944Y-101142369D01*
X106056762Y-101114956D01*
X106056760Y-101114955D01*
X106056756Y-101114954D01*
X106056759Y-101114954D01*
X105900003Y-101094318D01*
X105899997Y-101094318D01*
X105743242Y-101114954D01*
X105597159Y-101175463D01*
X105471718Y-101271717D01*
X105471717Y-101271718D01*
X105375463Y-101397159D01*
X105314954Y-101543242D01*
X105294318Y-101699997D01*
X105294318Y-101700002D01*
X100000000Y-101700002D01*
X100000000Y-99000002D01*
X115094318Y-99000002D01*
X115114954Y-99156757D01*
X115175463Y-99302840D01*
X115247837Y-99397159D01*
X115271718Y-99428282D01*
X115397159Y-99524536D01*
X115543238Y-99585044D01*
X115543241Y-99585044D01*
X115543243Y-99585045D01*
X115543240Y-99585045D01*
X115699997Y-99605682D01*
X115700000Y-99605682D01*
X115700003Y-99605682D01*
X115856757Y-99585045D01*
X115856758Y-99585044D01*
X115856762Y-99585044D01*
X116002841Y-99524536D01*
X116128282Y-99428282D01*
X116224536Y-99302841D01*
X116226723Y-99297559D01*
X116273671Y-99236371D01*
X116344927Y-99206853D01*
X116421396Y-99216916D01*
X116482588Y-99263866D01*
X116512106Y-99335122D01*
X116512107Y-99335128D01*
X116514954Y-99356757D01*
X116575463Y-99502840D01*
X116606465Y-99543242D01*
X116671718Y-99628282D01*
X116797159Y-99724536D01*
X116943238Y-99785044D01*
X116943241Y-99785044D01*
X116943243Y-99785045D01*
X116943240Y-99785045D01*
X117099997Y-99805682D01*
X117100000Y-99805682D01*
X117100003Y-99805682D01*
X117256757Y-99785045D01*
X117256758Y-99785044D01*
X117256762Y-99785044D01*
X117402841Y-99724536D01*
X117528282Y-99628282D01*
X117624536Y-99502841D01*
X117685044Y-99356762D01*
X117696241Y-99271717D01*
X117705682Y-99200002D01*
X117705682Y-99199997D01*
X117685045Y-99043242D01*
X117685044Y-99043240D01*
X117685044Y-99043238D01*
X117624536Y-98897159D01*
X117528282Y-98771718D01*
X117402841Y-98675464D01*
X117402840Y-98675463D01*
X117322944Y-98642369D01*
X117256762Y-98614956D01*
X117256760Y-98614955D01*
X117256756Y-98614954D01*
X117256759Y-98614954D01*
X117100003Y-98594318D01*
X117099997Y-98594318D01*
X116943242Y-98614954D01*
X116797159Y-98675463D01*
X116671718Y-98771717D01*
X116671717Y-98771718D01*
X116575462Y-98897160D01*
X116573273Y-98902447D01*
X116526318Y-98963635D01*
X116455059Y-98993148D01*
X116378592Y-98983078D01*
X116317404Y-98936123D01*
X116287891Y-98864867D01*
X116285044Y-98843242D01*
X116285044Y-98843238D01*
X116224536Y-98697159D01*
X116128282Y-98571718D01*
X116002841Y-98475464D01*
X116002840Y-98475463D01*
X115922944Y-98442369D01*
X115856762Y-98414956D01*
X115856760Y-98414955D01*
X115856756Y-98414954D01*
X115856759Y-98414954D01*
X115700003Y-98394318D01*
X115699997Y-98394318D01*
X115543242Y-98414954D01*
X115397159Y-98475463D01*
X115271718Y-98571717D01*
X115271717Y-98571718D01*
X115175463Y-98697159D01*
X115114954Y-98843242D01*
X115094318Y-98999997D01*
X115094318Y-99000002D01*
X100000000Y-99000002D01*
X100000000Y-97600002D01*
X113294318Y-97600002D01*
X113314954Y-97756757D01*
X113375463Y-97902840D01*
X113468844Y-98024536D01*
X113471718Y-98028282D01*
X113597159Y-98124536D01*
X113743238Y-98185044D01*
X113743241Y-98185044D01*
X113743243Y-98185045D01*
X113743240Y-98185045D01*
X113899997Y-98205682D01*
X113900000Y-98205682D01*
X113900003Y-98205682D01*
X114056757Y-98185045D01*
X114056758Y-98185044D01*
X114056762Y-98185044D01*
X114202841Y-98124536D01*
X114328282Y-98028282D01*
X114424536Y-97902841D01*
X114485044Y-97756762D01*
X114505682Y-97600000D01*
X114505682Y-97599997D01*
X114485045Y-97443242D01*
X114485044Y-97443240D01*
X114485044Y-97443238D01*
X114424536Y-97297159D01*
X114328282Y-97171718D01*
X114308785Y-97156757D01*
X114202840Y-97075463D01*
X114122944Y-97042369D01*
X114056762Y-97014956D01*
X114056760Y-97014955D01*
X114056756Y-97014954D01*
X114056759Y-97014954D01*
X113943180Y-97000002D01*
X115494318Y-97000002D01*
X115514954Y-97156757D01*
X115575463Y-97302840D01*
X115606465Y-97343242D01*
X115671718Y-97428282D01*
X115797159Y-97524536D01*
X115943238Y-97585044D01*
X115943241Y-97585044D01*
X115943243Y-97585045D01*
X115943240Y-97585045D01*
X116099997Y-97605682D01*
X116100000Y-97605682D01*
X116100003Y-97605682D01*
X116256757Y-97585045D01*
X116256758Y-97585044D01*
X116256762Y-97585044D01*
X116402841Y-97524536D01*
X116434814Y-97500002D01*
X124794318Y-97500002D01*
X124814954Y-97656757D01*
X124875463Y-97802840D01*
X124952196Y-97902840D01*
X124971718Y-97928282D01*
X125097159Y-98024536D01*
X125243238Y-98085044D01*
X125243241Y-98085044D01*
X125243243Y-98085045D01*
X125243240Y-98085045D01*
X125399997Y-98105682D01*
X125400000Y-98105682D01*
X125400003Y-98105682D01*
X125556757Y-98085045D01*
X125556758Y-98085044D01*
X125556762Y-98085044D01*
X125702841Y-98024536D01*
X125828282Y-97928282D01*
X125924536Y-97802841D01*
X125967134Y-97700001D01*
X128294435Y-97700001D01*
X128314631Y-97879252D01*
X128314631Y-97879254D01*
X128314632Y-97879255D01*
X128374211Y-98049522D01*
X128470184Y-98202262D01*
X128597738Y-98329816D01*
X128750478Y-98425789D01*
X128920745Y-98485368D01*
X129055046Y-98500500D01*
X129055047Y-98500500D01*
X129144953Y-98500500D01*
X129144954Y-98500500D01*
X129279255Y-98485368D01*
X129449522Y-98425789D01*
X129602262Y-98329816D01*
X129729816Y-98202262D01*
X129825789Y-98049522D01*
X129885368Y-97879255D01*
X129905565Y-97700000D01*
X129885368Y-97520745D01*
X129825789Y-97350478D01*
X129729816Y-97197738D01*
X129602262Y-97070184D01*
X129449522Y-96974211D01*
X129279255Y-96914632D01*
X129279254Y-96914631D01*
X129279253Y-96914631D01*
X129162006Y-96901421D01*
X129144954Y-96899500D01*
X129055046Y-96899500D01*
X129039915Y-96901204D01*
X128920746Y-96914631D01*
X128750477Y-96974211D01*
X128597738Y-97070184D01*
X128470184Y-97197738D01*
X128374211Y-97350477D01*
X128314631Y-97520747D01*
X128294435Y-97699998D01*
X128294435Y-97700001D01*
X125967134Y-97700001D01*
X125985044Y-97656762D01*
X125992518Y-97599997D01*
X126005682Y-97500002D01*
X126005682Y-97499997D01*
X125985045Y-97343242D01*
X125985044Y-97343240D01*
X125985044Y-97343238D01*
X125924536Y-97197159D01*
X125828282Y-97071718D01*
X125702841Y-96975464D01*
X125702840Y-96975463D01*
X125622944Y-96942369D01*
X125556762Y-96914956D01*
X125556760Y-96914955D01*
X125556756Y-96914954D01*
X125556759Y-96914954D01*
X125400003Y-96894318D01*
X125399997Y-96894318D01*
X125243242Y-96914954D01*
X125097159Y-96975463D01*
X124971718Y-97071717D01*
X124971717Y-97071718D01*
X124875463Y-97197159D01*
X124814954Y-97343242D01*
X124794318Y-97499997D01*
X124794318Y-97500002D01*
X116434814Y-97500002D01*
X116528282Y-97428282D01*
X116624536Y-97302841D01*
X116685044Y-97156762D01*
X116696241Y-97071717D01*
X116705682Y-97000002D01*
X116705682Y-96999997D01*
X116685045Y-96843242D01*
X116685044Y-96843240D01*
X116685044Y-96843238D01*
X116624536Y-96697159D01*
X116528282Y-96571718D01*
X116402841Y-96475464D01*
X116402840Y-96475463D01*
X116322944Y-96442369D01*
X116256762Y-96414956D01*
X116256760Y-96414955D01*
X116256756Y-96414954D01*
X116256759Y-96414954D01*
X116100003Y-96394318D01*
X116099997Y-96394318D01*
X115943242Y-96414954D01*
X115797159Y-96475463D01*
X115671718Y-96571717D01*
X115671717Y-96571718D01*
X115575463Y-96697159D01*
X115514954Y-96843242D01*
X115494318Y-96999997D01*
X115494318Y-97000002D01*
X113943180Y-97000002D01*
X113900003Y-96994318D01*
X113899997Y-96994318D01*
X113743242Y-97014954D01*
X113597159Y-97075463D01*
X113471718Y-97171717D01*
X113471717Y-97171718D01*
X113375463Y-97297159D01*
X113314954Y-97443242D01*
X113294318Y-97599997D01*
X113294318Y-97600002D01*
X100000000Y-97600002D01*
X100000000Y-94100002D01*
X118694318Y-94100002D01*
X118714954Y-94256757D01*
X118775463Y-94402840D01*
X118825876Y-94468539D01*
X118871718Y-94528282D01*
X118997159Y-94624536D01*
X119143238Y-94685044D01*
X119143241Y-94685044D01*
X119143243Y-94685045D01*
X119143240Y-94685045D01*
X119299997Y-94705682D01*
X119300000Y-94705682D01*
X119300003Y-94705682D01*
X119456757Y-94685045D01*
X119456758Y-94685044D01*
X119456762Y-94685044D01*
X119602841Y-94624536D01*
X119728282Y-94528282D01*
X119824536Y-94402841D01*
X119843799Y-94356335D01*
X127045710Y-94356335D01*
X127075923Y-94579378D01*
X127075928Y-94579398D01*
X127145480Y-94793458D01*
X127145481Y-94793462D01*
X127252146Y-94991678D01*
X127392490Y-95167664D01*
X127392493Y-95167668D01*
X127561996Y-95315759D01*
X127562000Y-95315762D01*
X127562004Y-95315765D01*
X127755236Y-95431215D01*
X127965976Y-95510307D01*
X127965980Y-95510307D01*
X127965984Y-95510309D01*
X128187447Y-95550499D01*
X128187453Y-95550500D01*
X128187457Y-95550500D01*
X129956155Y-95550500D01*
X130124188Y-95535377D01*
X130124194Y-95535375D01*
X130124196Y-95535375D01*
X130172598Y-95522016D01*
X130341170Y-95475493D01*
X130341172Y-95475492D01*
X130341173Y-95475492D01*
X130406954Y-95443813D01*
X130543973Y-95377829D01*
X130726078Y-95245522D01*
X130800518Y-95167664D01*
X130881625Y-95082833D01*
X130881627Y-95082829D01*
X130881632Y-95082825D01*
X131005635Y-94894968D01*
X131049023Y-94793458D01*
X131094101Y-94687994D01*
X131094101Y-94687991D01*
X131094103Y-94687988D01*
X131144191Y-94468537D01*
X131154290Y-94243670D01*
X131154289Y-94243668D01*
X131154290Y-94243665D01*
X131154289Y-94243664D01*
X131139090Y-94131463D01*
X131124075Y-94020613D01*
X131054519Y-93806541D01*
X131054518Y-93806537D01*
X130947853Y-93608321D01*
X130947852Y-93608319D01*
X130807508Y-93432334D01*
X130807506Y-93432331D01*
X130638003Y-93284240D01*
X130637997Y-93284236D01*
X130637996Y-93284235D01*
X130534118Y-93222171D01*
X130444770Y-93168788D01*
X130444755Y-93168781D01*
X130234021Y-93089692D01*
X130234015Y-93089690D01*
X130012552Y-93049500D01*
X130012547Y-93049500D01*
X128243845Y-93049500D01*
X128243841Y-93049500D01*
X128109418Y-93061598D01*
X128075812Y-93064623D01*
X128075811Y-93064623D01*
X128075803Y-93064624D01*
X127858828Y-93124507D01*
X127858826Y-93124507D01*
X127656030Y-93222169D01*
X127656026Y-93222171D01*
X127473921Y-93354479D01*
X127473915Y-93354483D01*
X127318374Y-93517166D01*
X127318368Y-93517174D01*
X127194365Y-93705030D01*
X127194361Y-93705038D01*
X127105898Y-93912005D01*
X127055809Y-94131460D01*
X127055808Y-94131468D01*
X127045710Y-94356330D01*
X127045710Y-94356335D01*
X119843799Y-94356335D01*
X119885044Y-94256762D01*
X119886769Y-94243665D01*
X119905682Y-94100002D01*
X119905682Y-94099997D01*
X119885045Y-93943242D01*
X119885044Y-93943240D01*
X119885044Y-93943238D01*
X119824536Y-93797159D01*
X119728282Y-93671718D01*
X119602841Y-93575464D01*
X119602840Y-93575463D01*
X119522944Y-93542369D01*
X119456762Y-93514956D01*
X119456760Y-93514955D01*
X119456756Y-93514954D01*
X119456759Y-93514954D01*
X119300003Y-93494318D01*
X119299997Y-93494318D01*
X119143242Y-93514954D01*
X118997159Y-93575463D01*
X118871718Y-93671717D01*
X118871717Y-93671718D01*
X118775463Y-93797159D01*
X118714954Y-93943242D01*
X118694318Y-94099997D01*
X118694318Y-94100002D01*
X100000000Y-94100002D01*
X100000000Y-91900002D01*
X103294318Y-91900002D01*
X103314954Y-92056757D01*
X103375463Y-92202840D01*
X103375464Y-92202841D01*
X103471718Y-92328282D01*
X103597159Y-92424536D01*
X103743238Y-92485044D01*
X103743241Y-92485044D01*
X103743243Y-92485045D01*
X103743240Y-92485045D01*
X103899997Y-92505682D01*
X103900000Y-92505682D01*
X103900003Y-92505682D01*
X104056757Y-92485045D01*
X104056758Y-92485044D01*
X104056762Y-92485044D01*
X104202841Y-92424536D01*
X104328282Y-92328282D01*
X104424536Y-92202841D01*
X104425712Y-92200002D01*
X118694318Y-92200002D01*
X118714954Y-92356757D01*
X118775463Y-92502840D01*
X118775464Y-92502841D01*
X118871718Y-92628282D01*
X118997159Y-92724536D01*
X119143238Y-92785044D01*
X119143241Y-92785044D01*
X119143243Y-92785045D01*
X119143240Y-92785045D01*
X119299997Y-92805682D01*
X119300000Y-92805682D01*
X119300003Y-92805682D01*
X119456757Y-92785045D01*
X119456758Y-92785044D01*
X119456762Y-92785044D01*
X119602841Y-92724536D01*
X119728282Y-92628282D01*
X119824536Y-92502841D01*
X119885044Y-92356762D01*
X119888794Y-92328282D01*
X119905682Y-92200002D01*
X119905682Y-92199997D01*
X119885045Y-92043242D01*
X119885044Y-92043240D01*
X119885044Y-92043238D01*
X119824536Y-91897159D01*
X119728282Y-91771718D01*
X119691172Y-91743242D01*
X119602840Y-91675463D01*
X119522944Y-91642369D01*
X119456762Y-91614956D01*
X119456760Y-91614955D01*
X119456756Y-91614954D01*
X119456759Y-91614954D01*
X119300003Y-91594318D01*
X119299997Y-91594318D01*
X119143242Y-91614954D01*
X118997159Y-91675463D01*
X118871718Y-91771717D01*
X118871717Y-91771718D01*
X118775463Y-91897159D01*
X118714954Y-92043242D01*
X118694318Y-92199997D01*
X118694318Y-92200002D01*
X104425712Y-92200002D01*
X104485044Y-92056762D01*
X104486825Y-92043238D01*
X104505682Y-91900002D01*
X104505682Y-91899997D01*
X104485045Y-91743242D01*
X104485044Y-91743240D01*
X104485044Y-91743238D01*
X104424536Y-91597159D01*
X104328282Y-91471718D01*
X104223976Y-91391681D01*
X104202840Y-91375463D01*
X104122944Y-91342369D01*
X104056762Y-91314956D01*
X104056760Y-91314955D01*
X104056756Y-91314954D01*
X104056759Y-91314954D01*
X103900003Y-91294318D01*
X103899997Y-91294318D01*
X103743242Y-91314954D01*
X103597159Y-91375463D01*
X103471718Y-91471717D01*
X103471717Y-91471718D01*
X103375463Y-91597159D01*
X103314954Y-91743242D01*
X103294318Y-91899997D01*
X103294318Y-91900002D01*
X100000000Y-91900002D01*
X100000000Y-90600002D01*
X105694318Y-90600002D01*
X105714954Y-90756757D01*
X105775463Y-90902840D01*
X105834200Y-90979387D01*
X105871718Y-91028282D01*
X105997159Y-91124536D01*
X106143238Y-91185044D01*
X106143241Y-91185044D01*
X106143243Y-91185045D01*
X106143240Y-91185045D01*
X106299997Y-91205682D01*
X106300000Y-91205682D01*
X106300003Y-91205682D01*
X106456757Y-91185045D01*
X106456758Y-91185044D01*
X106456762Y-91185044D01*
X106602841Y-91124536D01*
X106728282Y-91028282D01*
X106824536Y-90902841D01*
X106885044Y-90756762D01*
X106885101Y-90756335D01*
X127045710Y-90756335D01*
X127075923Y-90979378D01*
X127075928Y-90979398D01*
X127145480Y-91193458D01*
X127145481Y-91193462D01*
X127252146Y-91391678D01*
X127392490Y-91567664D01*
X127392493Y-91567668D01*
X127561996Y-91715759D01*
X127562000Y-91715762D01*
X127562004Y-91715765D01*
X127755236Y-91831215D01*
X127965976Y-91910307D01*
X127965980Y-91910307D01*
X127965984Y-91910309D01*
X128187447Y-91950499D01*
X128187453Y-91950500D01*
X128187457Y-91950500D01*
X129956155Y-91950500D01*
X130124188Y-91935377D01*
X130124194Y-91935375D01*
X130124196Y-91935375D01*
X130172598Y-91922016D01*
X130341170Y-91875493D01*
X130341172Y-91875492D01*
X130341173Y-91875492D01*
X130406954Y-91843813D01*
X130543973Y-91777829D01*
X130726078Y-91645522D01*
X130800518Y-91567664D01*
X130881625Y-91482833D01*
X130881627Y-91482829D01*
X130881632Y-91482825D01*
X131005635Y-91294968D01*
X131078482Y-91124536D01*
X131094101Y-91087994D01*
X131094101Y-91087991D01*
X131094103Y-91087988D01*
X131144191Y-90868537D01*
X131154290Y-90643670D01*
X131154289Y-90643668D01*
X131154290Y-90643665D01*
X131154289Y-90643664D01*
X131148374Y-90600000D01*
X131124075Y-90420613D01*
X131088786Y-90312005D01*
X131054519Y-90206541D01*
X131054518Y-90206537D01*
X130962966Y-90036405D01*
X130947852Y-90008319D01*
X130807508Y-89832334D01*
X130807506Y-89832331D01*
X130638003Y-89684240D01*
X130637997Y-89684236D01*
X130637996Y-89684235D01*
X130534118Y-89622171D01*
X130444770Y-89568788D01*
X130444755Y-89568781D01*
X130234021Y-89489692D01*
X130234015Y-89489690D01*
X130012552Y-89449500D01*
X130012547Y-89449500D01*
X128243845Y-89449500D01*
X128243841Y-89449500D01*
X128109418Y-89461598D01*
X128075812Y-89464623D01*
X128075811Y-89464623D01*
X128075803Y-89464624D01*
X127858828Y-89524507D01*
X127858826Y-89524507D01*
X127656030Y-89622169D01*
X127656026Y-89622171D01*
X127473921Y-89754479D01*
X127473915Y-89754483D01*
X127318374Y-89917166D01*
X127318368Y-89917174D01*
X127194365Y-90105030D01*
X127194361Y-90105038D01*
X127105898Y-90312005D01*
X127055809Y-90531460D01*
X127055808Y-90531468D01*
X127045710Y-90756330D01*
X127045710Y-90756335D01*
X106885101Y-90756335D01*
X106905682Y-90600002D01*
X106905682Y-90599997D01*
X106885045Y-90443242D01*
X106885044Y-90443240D01*
X106885044Y-90443238D01*
X106824536Y-90297159D01*
X106728282Y-90171718D01*
X106708785Y-90156757D01*
X106602840Y-90075463D01*
X106522944Y-90042369D01*
X106456762Y-90014956D01*
X106456760Y-90014955D01*
X106456756Y-90014954D01*
X106456759Y-90014954D01*
X106343180Y-90000002D01*
X115194318Y-90000002D01*
X115214954Y-90156757D01*
X115275463Y-90302840D01*
X115365840Y-90420621D01*
X115371718Y-90428282D01*
X115497159Y-90524536D01*
X115643238Y-90585044D01*
X115643241Y-90585044D01*
X115643243Y-90585045D01*
X115643240Y-90585045D01*
X115799997Y-90605682D01*
X115800000Y-90605682D01*
X115800003Y-90605682D01*
X115956757Y-90585045D01*
X115956758Y-90585044D01*
X115956762Y-90585044D01*
X116102841Y-90524536D01*
X116228282Y-90428282D01*
X116324536Y-90302841D01*
X116385044Y-90156762D01*
X116391855Y-90105032D01*
X116405682Y-90000002D01*
X116405682Y-89999997D01*
X116385045Y-89843242D01*
X116385044Y-89843240D01*
X116385044Y-89843238D01*
X116324536Y-89697159D01*
X116228282Y-89571718D01*
X116224455Y-89568781D01*
X116102840Y-89475463D01*
X116022944Y-89442369D01*
X115956762Y-89414956D01*
X115956760Y-89414955D01*
X115956756Y-89414954D01*
X115956759Y-89414954D01*
X115800003Y-89394318D01*
X115799997Y-89394318D01*
X115643242Y-89414954D01*
X115497159Y-89475463D01*
X115371718Y-89571717D01*
X115371717Y-89571718D01*
X115275463Y-89697159D01*
X115214954Y-89843242D01*
X115194318Y-89999997D01*
X115194318Y-90000002D01*
X106343180Y-90000002D01*
X106300003Y-89994318D01*
X106299997Y-89994318D01*
X106143242Y-90014954D01*
X105997159Y-90075463D01*
X105871718Y-90171717D01*
X105871717Y-90171718D01*
X105775463Y-90297159D01*
X105714954Y-90443242D01*
X105694318Y-90599997D01*
X105694318Y-90600002D01*
X100000000Y-90600002D01*
X100000000Y-88000002D01*
X100994318Y-88000002D01*
X101014954Y-88156757D01*
X101075463Y-88302840D01*
X101075464Y-88302841D01*
X101171718Y-88428282D01*
X101297159Y-88524536D01*
X101443238Y-88585044D01*
X101443241Y-88585044D01*
X101443243Y-88585045D01*
X101443240Y-88585045D01*
X101599997Y-88605682D01*
X101600000Y-88605682D01*
X101600003Y-88605682D01*
X101756757Y-88585045D01*
X101756758Y-88585044D01*
X101756762Y-88585044D01*
X101902841Y-88524536D01*
X102028282Y-88428282D01*
X102124536Y-88302841D01*
X102185044Y-88156762D01*
X102205682Y-88000000D01*
X102205682Y-87999997D01*
X102185045Y-87843242D01*
X102185044Y-87843240D01*
X102185044Y-87843238D01*
X102124536Y-87697159D01*
X102049985Y-87600002D01*
X108094318Y-87600002D01*
X108114954Y-87756757D01*
X108175463Y-87902840D01*
X108250017Y-88000000D01*
X108271718Y-88028282D01*
X108397159Y-88124536D01*
X108543238Y-88185044D01*
X108543241Y-88185044D01*
X108543243Y-88185045D01*
X108543240Y-88185045D01*
X108699997Y-88205682D01*
X108700000Y-88205682D01*
X108700003Y-88205682D01*
X108856757Y-88185045D01*
X108856758Y-88185044D01*
X108856762Y-88185044D01*
X109002841Y-88124536D01*
X109128282Y-88028282D01*
X109224536Y-87902841D01*
X109285044Y-87756762D01*
X109299163Y-87649522D01*
X109305682Y-87600002D01*
X109305682Y-87599997D01*
X109285045Y-87443242D01*
X109285044Y-87443240D01*
X109285044Y-87443238D01*
X109224536Y-87297159D01*
X109128282Y-87171718D01*
X109038520Y-87102841D01*
X109002840Y-87075463D01*
X108922944Y-87042369D01*
X108856762Y-87014956D01*
X108856760Y-87014955D01*
X108856756Y-87014954D01*
X108856759Y-87014954D01*
X108700003Y-86994318D01*
X108699997Y-86994318D01*
X108543242Y-87014954D01*
X108397159Y-87075463D01*
X108271718Y-87171717D01*
X108271717Y-87171718D01*
X108175463Y-87297159D01*
X108114954Y-87443242D01*
X108094318Y-87599997D01*
X108094318Y-87600002D01*
X102049985Y-87600002D01*
X102028282Y-87571718D01*
X101902841Y-87475464D01*
X101902840Y-87475463D01*
X101822944Y-87442369D01*
X101756762Y-87414956D01*
X101756760Y-87414955D01*
X101756756Y-87414954D01*
X101756759Y-87414954D01*
X101600003Y-87394318D01*
X101599997Y-87394318D01*
X101443242Y-87414954D01*
X101297159Y-87475463D01*
X101171718Y-87571717D01*
X101171717Y-87571718D01*
X101075463Y-87697159D01*
X101014954Y-87843242D01*
X100994318Y-87999997D01*
X100994318Y-88000002D01*
X100000000Y-88000002D01*
X100000000Y-86400002D01*
X111494318Y-86400002D01*
X111514954Y-86556757D01*
X111575463Y-86702840D01*
X111650017Y-86800000D01*
X111671718Y-86828282D01*
X111797159Y-86924536D01*
X111943238Y-86985044D01*
X111943241Y-86985044D01*
X111943243Y-86985045D01*
X111943240Y-86985045D01*
X112099997Y-87005682D01*
X112100000Y-87005682D01*
X112100003Y-87005682D01*
X112256757Y-86985045D01*
X112256758Y-86985044D01*
X112256762Y-86985044D01*
X112402841Y-86924536D01*
X112528282Y-86828282D01*
X112549982Y-86800002D01*
X115894318Y-86800002D01*
X115914954Y-86956757D01*
X115975463Y-87102840D01*
X115989204Y-87120747D01*
X116071718Y-87228282D01*
X116197159Y-87324536D01*
X116343238Y-87385044D01*
X116343241Y-87385044D01*
X116343243Y-87385045D01*
X116343240Y-87385045D01*
X116499997Y-87405682D01*
X116500000Y-87405682D01*
X116500003Y-87405682D01*
X116656757Y-87385045D01*
X116656758Y-87385044D01*
X116656762Y-87385044D01*
X116802841Y-87324536D01*
X116834816Y-87300001D01*
X128294435Y-87300001D01*
X128314631Y-87479252D01*
X128314631Y-87479254D01*
X128314632Y-87479255D01*
X128374211Y-87649522D01*
X128470184Y-87802262D01*
X128597738Y-87929816D01*
X128750478Y-88025789D01*
X128920745Y-88085368D01*
X129055046Y-88100500D01*
X129055047Y-88100500D01*
X129144953Y-88100500D01*
X129144954Y-88100500D01*
X129279255Y-88085368D01*
X129449522Y-88025789D01*
X129602262Y-87929816D01*
X129729816Y-87802262D01*
X129825789Y-87649522D01*
X129885368Y-87479255D01*
X129900515Y-87344813D01*
X129905565Y-87300001D01*
X129905565Y-87299998D01*
X129885368Y-87120747D01*
X129885368Y-87120745D01*
X129825789Y-86950478D01*
X129729816Y-86797738D01*
X129602262Y-86670184D01*
X129449522Y-86574211D01*
X129279255Y-86514632D01*
X129279254Y-86514631D01*
X129279253Y-86514631D01*
X129162006Y-86501421D01*
X129144954Y-86499500D01*
X129055046Y-86499500D01*
X129039915Y-86501204D01*
X128920746Y-86514631D01*
X128750477Y-86574211D01*
X128597738Y-86670184D01*
X128470184Y-86797738D01*
X128374211Y-86950477D01*
X128314631Y-87120747D01*
X128294435Y-87299998D01*
X128294435Y-87300001D01*
X116834816Y-87300001D01*
X116928282Y-87228282D01*
X117024536Y-87102841D01*
X117085044Y-86956762D01*
X117085872Y-86950478D01*
X117105682Y-86800002D01*
X117105682Y-86799997D01*
X117085045Y-86643242D01*
X117085044Y-86643240D01*
X117085044Y-86643238D01*
X117024536Y-86497159D01*
X116928282Y-86371718D01*
X116802841Y-86275464D01*
X116802840Y-86275463D01*
X116722944Y-86242369D01*
X116656762Y-86214956D01*
X116656760Y-86214955D01*
X116656756Y-86214954D01*
X116656759Y-86214954D01*
X116500003Y-86194318D01*
X116499997Y-86194318D01*
X116343242Y-86214954D01*
X116197159Y-86275463D01*
X116071718Y-86371717D01*
X116071717Y-86371718D01*
X115975463Y-86497159D01*
X115914954Y-86643242D01*
X115894318Y-86799997D01*
X115894318Y-86800002D01*
X112549982Y-86800002D01*
X112624536Y-86702841D01*
X112685044Y-86556762D01*
X112690591Y-86514632D01*
X112705682Y-86400002D01*
X112705682Y-86399997D01*
X112685045Y-86243242D01*
X112685044Y-86243240D01*
X112685044Y-86243238D01*
X112624536Y-86097159D01*
X112528282Y-85971718D01*
X112402841Y-85875464D01*
X112402840Y-85875463D01*
X112322944Y-85842369D01*
X112256762Y-85814956D01*
X112256760Y-85814955D01*
X112256756Y-85814954D01*
X112256759Y-85814954D01*
X112100003Y-85794318D01*
X112099997Y-85794318D01*
X111943242Y-85814954D01*
X111797159Y-85875463D01*
X111671718Y-85971717D01*
X111671717Y-85971718D01*
X111575463Y-86097159D01*
X111514954Y-86243242D01*
X111494318Y-86399997D01*
X111494318Y-86400002D01*
X100000000Y-86400002D01*
X100000000Y-85500002D01*
X100394318Y-85500002D01*
X100414954Y-85656757D01*
X100475463Y-85802840D01*
X100531189Y-85875463D01*
X100571718Y-85928282D01*
X100697159Y-86024536D01*
X100843238Y-86085044D01*
X100843241Y-86085044D01*
X100843243Y-86085045D01*
X100843240Y-86085045D01*
X100999997Y-86105682D01*
X101000000Y-86105682D01*
X101000003Y-86105682D01*
X101156757Y-86085045D01*
X101156758Y-86085044D01*
X101156762Y-86085044D01*
X101302841Y-86024536D01*
X101428282Y-85928282D01*
X101524536Y-85802841D01*
X101585044Y-85656762D01*
X101605682Y-85500000D01*
X101605682Y-85499997D01*
X101585045Y-85343242D01*
X101585044Y-85343240D01*
X101585044Y-85343238D01*
X101524536Y-85197159D01*
X101428282Y-85071718D01*
X101334820Y-85000002D01*
X103294318Y-85000002D01*
X103314954Y-85156757D01*
X103375463Y-85302840D01*
X103406465Y-85343242D01*
X103471718Y-85428282D01*
X103597159Y-85524536D01*
X103743238Y-85585044D01*
X103743241Y-85585044D01*
X103743243Y-85585045D01*
X103743240Y-85585045D01*
X103899997Y-85605682D01*
X103900000Y-85605682D01*
X103900003Y-85605682D01*
X104056757Y-85585045D01*
X104056758Y-85585044D01*
X104056762Y-85585044D01*
X104202841Y-85524536D01*
X104328282Y-85428282D01*
X104424536Y-85302841D01*
X104485044Y-85156762D01*
X104496241Y-85071717D01*
X104505682Y-85000002D01*
X105494318Y-85000002D01*
X105514954Y-85156757D01*
X105575463Y-85302840D01*
X105606465Y-85343242D01*
X105671718Y-85428282D01*
X105797159Y-85524536D01*
X105943238Y-85585044D01*
X105943241Y-85585044D01*
X105943243Y-85585045D01*
X105943240Y-85585045D01*
X106099997Y-85605682D01*
X106100000Y-85605682D01*
X106100003Y-85605682D01*
X106256757Y-85585045D01*
X106256758Y-85585044D01*
X106256762Y-85585044D01*
X106402841Y-85524536D01*
X106528282Y-85428282D01*
X106624536Y-85302841D01*
X106685044Y-85156762D01*
X106696241Y-85071717D01*
X106705682Y-85000002D01*
X106705682Y-84999997D01*
X106685045Y-84843242D01*
X106685044Y-84843240D01*
X106685044Y-84843238D01*
X106624536Y-84697159D01*
X106528282Y-84571718D01*
X106402841Y-84475464D01*
X106402840Y-84475463D01*
X106322944Y-84442369D01*
X106256762Y-84414956D01*
X106256760Y-84414955D01*
X106256756Y-84414954D01*
X106256759Y-84414954D01*
X106100003Y-84394318D01*
X106099997Y-84394318D01*
X105943242Y-84414954D01*
X105797159Y-84475463D01*
X105671718Y-84571717D01*
X105671717Y-84571718D01*
X105575463Y-84697159D01*
X105514954Y-84843242D01*
X105494318Y-84999997D01*
X105494318Y-85000002D01*
X104505682Y-85000002D01*
X104505682Y-84999997D01*
X104485045Y-84843242D01*
X104485044Y-84843240D01*
X104485044Y-84843238D01*
X104424536Y-84697159D01*
X104328282Y-84571718D01*
X104202841Y-84475464D01*
X104202840Y-84475463D01*
X104122944Y-84442369D01*
X104056762Y-84414956D01*
X104056760Y-84414955D01*
X104056756Y-84414954D01*
X104056759Y-84414954D01*
X103900003Y-84394318D01*
X103899997Y-84394318D01*
X103743242Y-84414954D01*
X103597159Y-84475463D01*
X103471718Y-84571717D01*
X103471717Y-84571718D01*
X103375463Y-84697159D01*
X103314954Y-84843242D01*
X103294318Y-84999997D01*
X103294318Y-85000002D01*
X101334820Y-85000002D01*
X101302839Y-84975462D01*
X101211569Y-84937658D01*
X101150379Y-84890706D01*
X101120863Y-84819449D01*
X101130930Y-84742981D01*
X101177882Y-84681791D01*
X101211569Y-84662342D01*
X101302839Y-84624537D01*
X101302839Y-84624536D01*
X101302841Y-84624536D01*
X101428282Y-84528282D01*
X101524536Y-84402841D01*
X101585044Y-84256762D01*
X101588794Y-84228282D01*
X101605682Y-84100002D01*
X101605682Y-84099997D01*
X101585045Y-83943242D01*
X101585044Y-83943240D01*
X101585044Y-83943238D01*
X101525714Y-83800002D01*
X108294318Y-83800002D01*
X108314954Y-83956757D01*
X108375463Y-84102840D01*
X108375464Y-84102841D01*
X108471718Y-84228282D01*
X108597159Y-84324536D01*
X108743238Y-84385044D01*
X108743241Y-84385044D01*
X108743243Y-84385045D01*
X108743240Y-84385045D01*
X108899997Y-84405682D01*
X108900000Y-84405682D01*
X108900003Y-84405682D01*
X109056757Y-84385045D01*
X109056758Y-84385044D01*
X109056762Y-84385044D01*
X109202841Y-84324536D01*
X109328282Y-84228282D01*
X109424536Y-84102841D01*
X109485044Y-83956762D01*
X109486825Y-83943238D01*
X109505682Y-83800002D01*
X109505682Y-83799997D01*
X109485045Y-83643242D01*
X109485044Y-83643240D01*
X109485044Y-83643238D01*
X109424536Y-83497159D01*
X109328282Y-83371718D01*
X109202841Y-83275464D01*
X109202840Y-83275463D01*
X109122944Y-83242369D01*
X109056762Y-83214956D01*
X109056760Y-83214955D01*
X109056756Y-83214954D01*
X109056759Y-83214954D01*
X108900003Y-83194318D01*
X108899997Y-83194318D01*
X108743242Y-83214954D01*
X108597159Y-83275463D01*
X108471718Y-83371717D01*
X108471717Y-83371718D01*
X108375463Y-83497159D01*
X108314954Y-83643242D01*
X108294318Y-83799997D01*
X108294318Y-83800002D01*
X101525714Y-83800002D01*
X101524536Y-83797159D01*
X101428282Y-83671718D01*
X101391172Y-83643242D01*
X101302840Y-83575463D01*
X101222944Y-83542369D01*
X101156762Y-83514956D01*
X101156760Y-83514955D01*
X101156756Y-83514954D01*
X101156759Y-83514954D01*
X101000003Y-83494318D01*
X100999997Y-83494318D01*
X100843242Y-83514954D01*
X100697159Y-83575463D01*
X100571718Y-83671717D01*
X100571717Y-83671718D01*
X100475463Y-83797159D01*
X100414954Y-83943242D01*
X100394318Y-84099997D01*
X100394318Y-84100002D01*
X100414954Y-84256757D01*
X100475463Y-84402840D01*
X100571717Y-84528281D01*
X100571718Y-84528282D01*
X100697159Y-84624536D01*
X100788431Y-84662342D01*
X100849621Y-84709294D01*
X100879136Y-84780551D01*
X100869069Y-84857020D01*
X100822117Y-84918210D01*
X100788431Y-84937658D01*
X100697159Y-84975463D01*
X100571718Y-85071717D01*
X100571717Y-85071718D01*
X100475463Y-85197159D01*
X100414954Y-85343242D01*
X100394318Y-85499997D01*
X100394318Y-85500002D01*
X100000000Y-85500002D01*
X100000000Y-82300002D01*
X113694318Y-82300002D01*
X113714954Y-82456757D01*
X113775463Y-82602840D01*
X113850017Y-82700000D01*
X113871718Y-82728282D01*
X113997159Y-82824536D01*
X114143238Y-82885044D01*
X114143241Y-82885044D01*
X114143243Y-82885045D01*
X114143240Y-82885045D01*
X114299997Y-82905682D01*
X114300000Y-82905682D01*
X114300003Y-82905682D01*
X114456757Y-82885045D01*
X114456758Y-82885044D01*
X114456762Y-82885044D01*
X114602841Y-82824536D01*
X114728282Y-82728282D01*
X114749983Y-82700001D01*
X128294435Y-82700001D01*
X128314631Y-82879252D01*
X128314631Y-82879254D01*
X128314632Y-82879255D01*
X128374211Y-83049522D01*
X128470184Y-83202262D01*
X128597738Y-83329816D01*
X128750478Y-83425789D01*
X128920745Y-83485368D01*
X129055046Y-83500500D01*
X129055047Y-83500500D01*
X129144953Y-83500500D01*
X129144954Y-83500500D01*
X129279255Y-83485368D01*
X129449522Y-83425789D01*
X129602262Y-83329816D01*
X129729816Y-83202262D01*
X129825789Y-83049522D01*
X129885368Y-82879255D01*
X129905565Y-82700000D01*
X129885368Y-82520745D01*
X129825789Y-82350478D01*
X129729816Y-82197738D01*
X129602262Y-82070184D01*
X129449522Y-81974211D01*
X129279255Y-81914632D01*
X129279254Y-81914631D01*
X129279253Y-81914631D01*
X129162006Y-81901421D01*
X129144954Y-81899500D01*
X129055046Y-81899500D01*
X129039915Y-81901204D01*
X128920746Y-81914631D01*
X128750477Y-81974211D01*
X128597738Y-82070184D01*
X128470184Y-82197738D01*
X128374211Y-82350477D01*
X128314631Y-82520747D01*
X128294435Y-82699998D01*
X128294435Y-82700001D01*
X114749983Y-82700001D01*
X114824536Y-82602841D01*
X114885044Y-82456762D01*
X114888794Y-82428282D01*
X114905682Y-82300002D01*
X114905682Y-82299997D01*
X114885045Y-82143242D01*
X114885044Y-82143240D01*
X114885044Y-82143238D01*
X114825714Y-82000002D01*
X118394318Y-82000002D01*
X118414954Y-82156757D01*
X118475463Y-82302840D01*
X118475464Y-82302841D01*
X118571718Y-82428282D01*
X118697159Y-82524536D01*
X118843238Y-82585044D01*
X118843241Y-82585044D01*
X118843243Y-82585045D01*
X118843240Y-82585045D01*
X118999997Y-82605682D01*
X119000000Y-82605682D01*
X119000003Y-82605682D01*
X119156757Y-82585045D01*
X119156758Y-82585044D01*
X119156762Y-82585044D01*
X119302841Y-82524536D01*
X119428282Y-82428282D01*
X119524536Y-82302841D01*
X119585044Y-82156762D01*
X119586825Y-82143238D01*
X119605682Y-82000002D01*
X119605682Y-81999997D01*
X119585045Y-81843242D01*
X119585044Y-81843240D01*
X119585044Y-81843238D01*
X119524536Y-81697159D01*
X119428282Y-81571718D01*
X119302841Y-81475464D01*
X119302840Y-81475463D01*
X119222944Y-81442369D01*
X119156762Y-81414956D01*
X119156760Y-81414955D01*
X119156756Y-81414954D01*
X119156759Y-81414954D01*
X119000003Y-81394318D01*
X118999997Y-81394318D01*
X118843242Y-81414954D01*
X118697159Y-81475463D01*
X118571718Y-81571717D01*
X118571717Y-81571718D01*
X118475463Y-81697159D01*
X118414954Y-81843242D01*
X118394318Y-81999997D01*
X118394318Y-82000002D01*
X114825714Y-82000002D01*
X114824536Y-81997159D01*
X114728282Y-81871718D01*
X114691172Y-81843242D01*
X114602840Y-81775463D01*
X114522944Y-81742369D01*
X114456762Y-81714956D01*
X114456760Y-81714955D01*
X114456756Y-81714954D01*
X114456759Y-81714954D01*
X114300003Y-81694318D01*
X114299997Y-81694318D01*
X114143242Y-81714954D01*
X113997159Y-81775463D01*
X113871718Y-81871717D01*
X113871717Y-81871718D01*
X113775463Y-81997159D01*
X113714954Y-82143242D01*
X113694318Y-82299997D01*
X113694318Y-82300002D01*
X100000000Y-82300002D01*
X100000000Y-80600002D01*
X112194318Y-80600002D01*
X112214954Y-80756757D01*
X112275463Y-80902840D01*
X112275464Y-80902841D01*
X112371718Y-81028282D01*
X112497159Y-81124536D01*
X112643238Y-81185044D01*
X112643241Y-81185044D01*
X112643243Y-81185045D01*
X112643240Y-81185045D01*
X112799997Y-81205682D01*
X112800000Y-81205682D01*
X112800003Y-81205682D01*
X112956757Y-81185045D01*
X112956758Y-81185044D01*
X112956762Y-81185044D01*
X113102841Y-81124536D01*
X113228282Y-81028282D01*
X113324536Y-80902841D01*
X113385044Y-80756762D01*
X113405682Y-80600000D01*
X113405682Y-80599997D01*
X113385045Y-80443242D01*
X113385044Y-80443240D01*
X113385044Y-80443238D01*
X113324536Y-80297159D01*
X113228282Y-80171718D01*
X113223002Y-80167666D01*
X113102840Y-80075463D01*
X113022944Y-80042369D01*
X112956762Y-80014956D01*
X112956760Y-80014955D01*
X112956756Y-80014954D01*
X112956759Y-80014954D01*
X112800003Y-79994318D01*
X112799997Y-79994318D01*
X112643242Y-80014954D01*
X112497159Y-80075463D01*
X112371718Y-80171717D01*
X112371717Y-80171718D01*
X112275463Y-80297159D01*
X112214954Y-80443242D01*
X112194318Y-80599997D01*
X112194318Y-80600002D01*
X100000000Y-80600002D01*
X100000000Y-79400002D01*
X103594318Y-79400002D01*
X103614954Y-79556757D01*
X103675463Y-79702840D01*
X103744997Y-79793458D01*
X103771718Y-79828282D01*
X103897159Y-79924536D01*
X104043238Y-79985044D01*
X104043241Y-79985044D01*
X104043243Y-79985045D01*
X104043240Y-79985045D01*
X104199997Y-80005682D01*
X104200000Y-80005682D01*
X104200003Y-80005682D01*
X104356757Y-79985045D01*
X104356758Y-79985044D01*
X104356762Y-79985044D01*
X104502841Y-79924536D01*
X104628282Y-79828282D01*
X104724536Y-79702841D01*
X104785044Y-79556762D01*
X104805682Y-79400000D01*
X104805682Y-79399997D01*
X104799934Y-79356335D01*
X127045710Y-79356335D01*
X127075923Y-79579378D01*
X127075928Y-79579398D01*
X127145480Y-79793458D01*
X127145481Y-79793462D01*
X127248576Y-79985044D01*
X127252148Y-79991681D01*
X127318962Y-80075463D01*
X127392490Y-80167664D01*
X127392493Y-80167668D01*
X127561996Y-80315759D01*
X127562000Y-80315762D01*
X127562004Y-80315765D01*
X127755236Y-80431215D01*
X127965976Y-80510307D01*
X127965980Y-80510307D01*
X127965984Y-80510309D01*
X128187447Y-80550499D01*
X128187453Y-80550500D01*
X128187457Y-80550500D01*
X129956155Y-80550500D01*
X130124188Y-80535377D01*
X130124194Y-80535375D01*
X130124196Y-80535375D01*
X130172598Y-80522016D01*
X130341170Y-80475493D01*
X130341172Y-80475492D01*
X130341173Y-80475492D01*
X130408149Y-80443238D01*
X130543973Y-80377829D01*
X130726078Y-80245522D01*
X130800518Y-80167664D01*
X130881625Y-80082833D01*
X130881627Y-80082829D01*
X130881632Y-80082825D01*
X131005635Y-79894968D01*
X131049023Y-79793458D01*
X131094101Y-79687994D01*
X131094101Y-79687991D01*
X131094103Y-79687988D01*
X131144191Y-79468537D01*
X131154290Y-79243670D01*
X131154289Y-79243668D01*
X131154290Y-79243665D01*
X131154289Y-79243664D01*
X131139090Y-79131463D01*
X131124075Y-79020613D01*
X131057253Y-78814956D01*
X131054519Y-78806541D01*
X131054518Y-78806537D01*
X130947853Y-78608321D01*
X130947852Y-78608319D01*
X130807508Y-78432334D01*
X130807506Y-78432331D01*
X130638003Y-78284240D01*
X130637997Y-78284236D01*
X130637996Y-78284235D01*
X130637988Y-78284230D01*
X130444770Y-78168788D01*
X130444755Y-78168781D01*
X130234021Y-78089692D01*
X130234015Y-78089690D01*
X130012552Y-78049500D01*
X130012547Y-78049500D01*
X128243845Y-78049500D01*
X128243841Y-78049500D01*
X128109418Y-78061598D01*
X128075812Y-78064623D01*
X128075811Y-78064623D01*
X128075803Y-78064624D01*
X127858828Y-78124507D01*
X127858826Y-78124507D01*
X127656030Y-78222169D01*
X127656026Y-78222171D01*
X127473921Y-78354479D01*
X127473915Y-78354483D01*
X127318374Y-78517166D01*
X127318368Y-78517174D01*
X127194365Y-78705030D01*
X127194361Y-78705038D01*
X127105898Y-78912005D01*
X127055809Y-79131460D01*
X127055808Y-79131468D01*
X127045710Y-79356330D01*
X127045710Y-79356335D01*
X104799934Y-79356335D01*
X104785045Y-79243242D01*
X104785044Y-79243240D01*
X104785044Y-79243238D01*
X104724536Y-79097159D01*
X104628282Y-78971718D01*
X104550472Y-78912012D01*
X104502840Y-78875463D01*
X104422944Y-78842369D01*
X104356762Y-78814956D01*
X104356760Y-78814955D01*
X104356756Y-78814954D01*
X104356759Y-78814954D01*
X104200003Y-78794318D01*
X104199997Y-78794318D01*
X104043242Y-78814954D01*
X103897159Y-78875463D01*
X103771718Y-78971717D01*
X103771717Y-78971718D01*
X103675463Y-79097159D01*
X103614954Y-79243242D01*
X103594318Y-79399997D01*
X103594318Y-79400002D01*
X100000000Y-79400002D01*
X100000000Y-77700002D01*
X102194318Y-77700002D01*
X102214954Y-77856757D01*
X102275463Y-78002840D01*
X102342108Y-78089693D01*
X102371718Y-78128282D01*
X102497159Y-78224536D01*
X102643238Y-78285044D01*
X102643241Y-78285044D01*
X102643243Y-78285045D01*
X102643240Y-78285045D01*
X102799997Y-78305682D01*
X102800000Y-78305682D01*
X102800003Y-78305682D01*
X102956757Y-78285045D01*
X102956758Y-78285044D01*
X102956762Y-78285044D01*
X103102841Y-78224536D01*
X103228282Y-78128282D01*
X103324536Y-78002841D01*
X103385044Y-77856762D01*
X103405682Y-77700000D01*
X103385044Y-77543238D01*
X103324536Y-77397159D01*
X103228282Y-77271718D01*
X103102841Y-77175464D01*
X103102840Y-77175463D01*
X103022944Y-77142369D01*
X102956762Y-77114956D01*
X102956760Y-77114955D01*
X102956756Y-77114954D01*
X102956759Y-77114954D01*
X102800003Y-77094318D01*
X102799997Y-77094318D01*
X102643242Y-77114954D01*
X102497159Y-77175463D01*
X102371718Y-77271717D01*
X102371717Y-77271718D01*
X102275463Y-77397159D01*
X102214954Y-77543242D01*
X102194318Y-77699997D01*
X102194318Y-77700002D01*
X100000000Y-77700002D01*
X100000000Y-76149000D01*
X100019962Y-76074500D01*
X100074500Y-76019962D01*
X100149000Y-76000000D01*
X100914736Y-76000000D01*
X100989233Y-76019960D01*
G37*
%TD.AperFunction*%
%TD*%
%TA.AperFunction,Conductor*%
%TO.N,5V_A*%
G36*
X120381694Y-50520462D02*
G01*
X120436232Y-50575000D01*
X120456194Y-50649500D01*
X120436232Y-50724000D01*
X120381694Y-50778538D01*
X120356407Y-50790137D01*
X120345608Y-50793916D01*
X120330477Y-50799211D01*
X120177738Y-50895184D01*
X120050184Y-51022738D01*
X119954211Y-51175477D01*
X119894631Y-51345746D01*
X119879500Y-51480047D01*
X119879500Y-52369952D01*
X119894631Y-52504253D01*
X119894632Y-52504255D01*
X119954211Y-52674522D01*
X120050184Y-52827262D01*
X120177738Y-52954816D01*
X120330478Y-53050789D01*
X120500745Y-53110368D01*
X120590372Y-53120466D01*
X120679999Y-53130565D01*
X120680000Y-53130565D01*
X120680001Y-53130565D01*
X120724813Y-53125515D01*
X120859255Y-53110368D01*
X121029522Y-53050789D01*
X121182262Y-52954816D01*
X121309816Y-52827262D01*
X121405789Y-52674522D01*
X121465368Y-52504255D01*
X121480500Y-52369954D01*
X121480500Y-51480046D01*
X121465368Y-51345745D01*
X121405789Y-51175478D01*
X121309816Y-51022738D01*
X121182262Y-50895184D01*
X121029522Y-50799211D01*
X121003594Y-50790138D01*
X120939869Y-50746692D01*
X120906404Y-50677202D01*
X120912167Y-50600289D01*
X120955614Y-50536563D01*
X121025104Y-50503098D01*
X121052806Y-50500500D01*
X128947194Y-50500500D01*
X129021694Y-50520462D01*
X129076232Y-50575000D01*
X129096194Y-50649500D01*
X129076232Y-50724000D01*
X129021694Y-50778538D01*
X128996407Y-50790137D01*
X128985608Y-50793916D01*
X128970477Y-50799211D01*
X128817738Y-50895184D01*
X128690184Y-51022738D01*
X128594211Y-51175477D01*
X128534631Y-51345746D01*
X128519500Y-51480047D01*
X128519500Y-52369952D01*
X128534631Y-52504253D01*
X128534632Y-52504255D01*
X128594211Y-52674522D01*
X128690184Y-52827262D01*
X128817738Y-52954816D01*
X128970478Y-53050789D01*
X129140745Y-53110368D01*
X129230372Y-53120466D01*
X129319999Y-53130565D01*
X129320000Y-53130565D01*
X129320001Y-53130565D01*
X129364813Y-53125515D01*
X129499255Y-53110368D01*
X129669522Y-53050789D01*
X129822262Y-52954816D01*
X129949816Y-52827262D01*
X130045789Y-52674522D01*
X130105368Y-52504255D01*
X130120500Y-52369954D01*
X130120500Y-51480046D01*
X130105368Y-51345745D01*
X130045789Y-51175478D01*
X129949816Y-51022738D01*
X129822262Y-50895184D01*
X129669522Y-50799211D01*
X129643594Y-50790138D01*
X129579869Y-50746692D01*
X129546404Y-50677202D01*
X129552167Y-50600289D01*
X129595614Y-50536563D01*
X129665104Y-50503098D01*
X129692806Y-50500500D01*
X132851000Y-50500500D01*
X132925500Y-50520462D01*
X132980038Y-50575000D01*
X133000000Y-50649500D01*
X133000000Y-65851000D01*
X132980038Y-65925500D01*
X132925500Y-65980038D01*
X132851000Y-66000000D01*
X129881148Y-66000000D01*
X129806648Y-65980038D01*
X129760675Y-65935091D01*
X129759017Y-65936263D01*
X129666007Y-65804499D01*
X129594312Y-65702931D01*
X129436368Y-65533813D01*
X129402848Y-65497922D01*
X129402836Y-65497911D01*
X129185249Y-65320891D01*
X129185246Y-65320889D01*
X128945568Y-65175138D01*
X128945565Y-65175136D01*
X128945564Y-65175136D01*
X128863997Y-65139707D01*
X128688275Y-65063380D01*
X128418161Y-64987697D01*
X128418160Y-64987696D01*
X128418159Y-64987696D01*
X128184540Y-64955586D01*
X128140258Y-64949500D01*
X127859742Y-64949500D01*
X127815459Y-64955586D01*
X127581841Y-64987696D01*
X127446782Y-65025538D01*
X127311725Y-65063380D01*
X127292529Y-65071718D01*
X127054436Y-65175136D01*
X127054435Y-65175136D01*
X126814753Y-65320889D01*
X126814750Y-65320891D01*
X126597163Y-65497911D01*
X126597151Y-65497922D01*
X126405687Y-65702932D01*
X126240983Y-65936263D01*
X126239234Y-65935028D01*
X126190421Y-65981686D01*
X126118852Y-66000000D01*
X110765864Y-66000000D01*
X110691364Y-65980038D01*
X110636826Y-65925500D01*
X110616864Y-65851000D01*
X110628206Y-65793980D01*
X110629133Y-65791742D01*
X110685044Y-65656762D01*
X110705682Y-65500000D01*
X110705682Y-65499997D01*
X110685045Y-65343242D01*
X110685044Y-65343240D01*
X110685044Y-65343238D01*
X110624536Y-65197159D01*
X110528282Y-65071718D01*
X110418784Y-64987697D01*
X110402840Y-64975463D01*
X110322944Y-64942369D01*
X110256762Y-64914956D01*
X110256760Y-64914955D01*
X110256756Y-64914954D01*
X110256759Y-64914954D01*
X110100003Y-64894318D01*
X110099997Y-64894318D01*
X109943242Y-64914954D01*
X109797159Y-64975463D01*
X109671718Y-65071717D01*
X109671717Y-65071718D01*
X109575463Y-65197159D01*
X109514954Y-65343242D01*
X109494318Y-65499997D01*
X109494318Y-65500002D01*
X109516230Y-65666445D01*
X109512551Y-65666929D01*
X109512500Y-65724981D01*
X109473877Y-65791742D01*
X109459318Y-65804499D01*
X109371717Y-65871718D01*
X109344852Y-65906730D01*
X109318014Y-65941705D01*
X109256827Y-65988658D01*
X109199806Y-66000000D01*
X108149000Y-66000000D01*
X108074500Y-65980038D01*
X108019962Y-65925500D01*
X108000000Y-65851000D01*
X108000000Y-64300002D01*
X115594318Y-64300002D01*
X115614954Y-64456757D01*
X115675463Y-64602840D01*
X115675464Y-64602841D01*
X115771718Y-64728282D01*
X115897159Y-64824536D01*
X116043238Y-64885044D01*
X116043241Y-64885044D01*
X116043243Y-64885045D01*
X116043240Y-64885045D01*
X116199997Y-64905682D01*
X116200000Y-64905682D01*
X116200003Y-64905682D01*
X116356757Y-64885045D01*
X116356758Y-64885044D01*
X116356762Y-64885044D01*
X116502841Y-64824536D01*
X116628282Y-64728282D01*
X116724536Y-64602841D01*
X116785044Y-64456762D01*
X116805682Y-64300000D01*
X116785044Y-64143238D01*
X116724536Y-63997159D01*
X116628282Y-63871718D01*
X116502841Y-63775464D01*
X116502840Y-63775463D01*
X116422944Y-63742369D01*
X116356762Y-63714956D01*
X116356760Y-63714955D01*
X116356756Y-63714954D01*
X116356759Y-63714954D01*
X116200003Y-63694318D01*
X116199997Y-63694318D01*
X116043242Y-63714954D01*
X115897159Y-63775463D01*
X115771718Y-63871717D01*
X115771717Y-63871718D01*
X115675463Y-63997159D01*
X115614954Y-64143242D01*
X115594318Y-64299997D01*
X115594318Y-64300002D01*
X108000000Y-64300002D01*
X108000000Y-63400002D01*
X122494318Y-63400002D01*
X122514954Y-63556757D01*
X122575463Y-63702840D01*
X122631189Y-63775463D01*
X122671718Y-63828282D01*
X122797159Y-63924536D01*
X122943238Y-63985044D01*
X122943241Y-63985044D01*
X122943243Y-63985045D01*
X122943240Y-63985045D01*
X123099997Y-64005682D01*
X123100000Y-64005682D01*
X123100003Y-64005682D01*
X123256757Y-63985045D01*
X123256758Y-63985044D01*
X123256762Y-63985044D01*
X123402841Y-63924536D01*
X123528282Y-63828282D01*
X123624536Y-63702841D01*
X123685044Y-63556762D01*
X123705682Y-63400000D01*
X123685044Y-63243238D01*
X123624536Y-63097159D01*
X123528282Y-62971718D01*
X123402841Y-62875464D01*
X123402840Y-62875463D01*
X123322944Y-62842369D01*
X123256762Y-62814956D01*
X123256760Y-62814955D01*
X123256756Y-62814954D01*
X123256759Y-62814954D01*
X123100003Y-62794318D01*
X123099997Y-62794318D01*
X122943242Y-62814954D01*
X122797159Y-62875463D01*
X122671718Y-62971717D01*
X122671717Y-62971718D01*
X122575463Y-63097159D01*
X122514954Y-63243242D01*
X122494318Y-63399997D01*
X122494318Y-63400002D01*
X108000000Y-63400002D01*
X108000000Y-60400002D01*
X117794318Y-60400002D01*
X117814954Y-60556757D01*
X117875463Y-60702840D01*
X117875464Y-60702841D01*
X117971718Y-60828282D01*
X118097159Y-60924536D01*
X118243238Y-60985044D01*
X118243241Y-60985044D01*
X118243243Y-60985045D01*
X118243240Y-60985045D01*
X118399997Y-61005682D01*
X118400000Y-61005682D01*
X118400003Y-61005682D01*
X118443147Y-61000002D01*
X120694318Y-61000002D01*
X120714954Y-61156757D01*
X120775463Y-61302840D01*
X120775464Y-61302841D01*
X120871718Y-61428282D01*
X120997159Y-61524536D01*
X121143238Y-61585044D01*
X121143241Y-61585044D01*
X121143243Y-61585045D01*
X121143240Y-61585045D01*
X121299997Y-61605682D01*
X121300000Y-61605682D01*
X121300003Y-61605682D01*
X121456757Y-61585045D01*
X121456758Y-61585044D01*
X121456762Y-61585044D01*
X121602841Y-61524536D01*
X121728282Y-61428282D01*
X121824536Y-61302841D01*
X121885044Y-61156762D01*
X121905682Y-61000000D01*
X121905682Y-60999997D01*
X121885045Y-60843242D01*
X121885044Y-60843240D01*
X121885044Y-60843238D01*
X121824536Y-60697159D01*
X121728282Y-60571718D01*
X121708785Y-60556757D01*
X121602840Y-60475463D01*
X121522944Y-60442369D01*
X121456762Y-60414956D01*
X121456760Y-60414955D01*
X121456756Y-60414954D01*
X121456759Y-60414954D01*
X121300003Y-60394318D01*
X121299997Y-60394318D01*
X121143242Y-60414954D01*
X120997159Y-60475463D01*
X120871718Y-60571717D01*
X120871717Y-60571718D01*
X120775463Y-60697159D01*
X120714954Y-60843242D01*
X120694318Y-60999997D01*
X120694318Y-61000002D01*
X118443147Y-61000002D01*
X118556757Y-60985045D01*
X118556758Y-60985044D01*
X118556762Y-60985044D01*
X118702841Y-60924536D01*
X118828282Y-60828282D01*
X118924536Y-60702841D01*
X118985044Y-60556762D01*
X119003714Y-60414954D01*
X119005682Y-60400002D01*
X119005682Y-60399997D01*
X118985045Y-60243242D01*
X118985044Y-60243240D01*
X118985044Y-60243238D01*
X118924536Y-60097159D01*
X118828282Y-59971718D01*
X118828281Y-59971717D01*
X118702839Y-59875462D01*
X118611569Y-59837658D01*
X118550379Y-59790706D01*
X118520863Y-59719449D01*
X118530930Y-59642981D01*
X118577882Y-59581791D01*
X118611569Y-59562342D01*
X118702839Y-59524537D01*
X118702839Y-59524536D01*
X118702841Y-59524536D01*
X118828282Y-59428282D01*
X118924536Y-59302841D01*
X118985044Y-59156762D01*
X119005682Y-59000000D01*
X118985044Y-58843238D01*
X118924536Y-58697159D01*
X118828282Y-58571718D01*
X118715328Y-58485045D01*
X118702840Y-58475463D01*
X118622944Y-58442369D01*
X118556762Y-58414956D01*
X118556760Y-58414955D01*
X118556756Y-58414954D01*
X118556759Y-58414954D01*
X118400003Y-58394318D01*
X118399997Y-58394318D01*
X118243242Y-58414954D01*
X118097159Y-58475463D01*
X117971718Y-58571717D01*
X117971717Y-58571718D01*
X117875463Y-58697159D01*
X117814954Y-58843242D01*
X117794318Y-58999997D01*
X117794318Y-59000002D01*
X117814954Y-59156757D01*
X117875463Y-59302840D01*
X117971717Y-59428281D01*
X117971718Y-59428282D01*
X118097159Y-59524536D01*
X118188431Y-59562342D01*
X118249621Y-59609294D01*
X118279136Y-59680551D01*
X118269069Y-59757020D01*
X118222117Y-59818210D01*
X118188431Y-59837658D01*
X118097159Y-59875463D01*
X117971718Y-59971717D01*
X117971717Y-59971718D01*
X117875463Y-60097159D01*
X117814954Y-60243242D01*
X117794318Y-60399997D01*
X117794318Y-60400002D01*
X108000000Y-60400002D01*
X108000000Y-56699952D01*
X119879500Y-56699952D01*
X119894631Y-56834253D01*
X119895507Y-56836757D01*
X119954211Y-57004522D01*
X120050184Y-57157262D01*
X120177738Y-57284816D01*
X120330478Y-57380789D01*
X120500745Y-57440368D01*
X120590372Y-57450466D01*
X120679999Y-57460565D01*
X120680000Y-57460565D01*
X120680001Y-57460565D01*
X120724813Y-57455515D01*
X120859255Y-57440368D01*
X121029522Y-57380789D01*
X121182262Y-57284816D01*
X121268291Y-57198787D01*
X121335085Y-57160222D01*
X121412213Y-57160222D01*
X121438078Y-57170937D01*
X121438136Y-57170799D01*
X121503026Y-57197677D01*
X121541140Y-57213464D01*
X121602330Y-57260416D01*
X121631846Y-57331673D01*
X121621779Y-57408141D01*
X121578439Y-57464627D01*
X121578624Y-57464812D01*
X121577219Y-57466216D01*
X121574833Y-57469327D01*
X121571720Y-57471715D01*
X121571717Y-57471718D01*
X121475463Y-57597159D01*
X121414954Y-57743242D01*
X121394318Y-57899997D01*
X121394318Y-57900002D01*
X121414954Y-58056757D01*
X121475463Y-58202840D01*
X121475464Y-58202841D01*
X121571718Y-58328282D01*
X121697159Y-58424536D01*
X121843238Y-58485044D01*
X121843241Y-58485044D01*
X121843243Y-58485045D01*
X121843240Y-58485045D01*
X121999997Y-58505682D01*
X122000000Y-58505682D01*
X122000003Y-58505682D01*
X122156757Y-58485045D01*
X122156758Y-58485044D01*
X122156762Y-58485044D01*
X122302841Y-58424536D01*
X122428282Y-58328282D01*
X122524536Y-58202841D01*
X122585044Y-58056762D01*
X122605682Y-57900000D01*
X122585044Y-57743238D01*
X122567135Y-57700002D01*
X125594318Y-57700002D01*
X125614954Y-57856757D01*
X125675463Y-58002840D01*
X125675464Y-58002841D01*
X125771718Y-58128282D01*
X125897159Y-58224536D01*
X126043238Y-58285044D01*
X126043241Y-58285044D01*
X126043243Y-58285045D01*
X126043240Y-58285045D01*
X126199997Y-58305682D01*
X126200000Y-58305682D01*
X126200003Y-58305682D01*
X126356757Y-58285045D01*
X126356758Y-58285044D01*
X126356762Y-58285044D01*
X126502841Y-58224536D01*
X126628282Y-58128282D01*
X126724536Y-58002841D01*
X126785044Y-57856762D01*
X126805682Y-57700000D01*
X126785044Y-57543238D01*
X126724536Y-57397159D01*
X126628282Y-57271718D01*
X126628280Y-57271716D01*
X126576608Y-57232067D01*
X126529655Y-57170877D01*
X126519588Y-57094409D01*
X126549103Y-57023152D01*
X126554687Y-57016305D01*
X126632882Y-56926063D01*
X126686697Y-56808226D01*
X126702264Y-56699954D01*
X126705133Y-56680003D01*
X126705133Y-56679996D01*
X126686697Y-56551776D01*
X126686697Y-56551774D01*
X126632882Y-56433937D01*
X126630839Y-56430759D01*
X126629458Y-56426442D01*
X126628455Y-56424244D01*
X126628717Y-56424123D01*
X126607352Y-56357294D01*
X126623744Y-56281928D01*
X126675623Y-56224855D01*
X126749088Y-56201368D01*
X126775632Y-56202474D01*
X126799999Y-56205682D01*
X126800000Y-56205682D01*
X126800003Y-56205682D01*
X126956757Y-56185045D01*
X126956758Y-56185044D01*
X126956762Y-56185044D01*
X127102841Y-56124536D01*
X127228282Y-56028282D01*
X127240627Y-56012193D01*
X127301813Y-55965240D01*
X127378281Y-55955170D01*
X127449539Y-55984683D01*
X127477045Y-56012188D01*
X127479549Y-56015451D01*
X127496271Y-56028282D01*
X127599765Y-56107697D01*
X127599766Y-56107697D01*
X127599767Y-56107698D01*
X127634703Y-56122169D01*
X127695892Y-56169120D01*
X127725409Y-56240376D01*
X127715343Y-56316845D01*
X127695895Y-56350531D01*
X127675462Y-56377159D01*
X127614953Y-56523242D01*
X127594317Y-56679997D01*
X127594317Y-56680002D01*
X127614953Y-56836757D01*
X127675462Y-56982840D01*
X127770627Y-57106861D01*
X127771717Y-57108282D01*
X127897158Y-57204536D01*
X128043237Y-57265044D01*
X128043240Y-57265044D01*
X128043242Y-57265045D01*
X128043239Y-57265045D01*
X128199996Y-57285682D01*
X128199999Y-57285682D01*
X128200002Y-57285682D01*
X128356756Y-57265045D01*
X128356757Y-57265044D01*
X128356761Y-57265044D01*
X128502840Y-57204536D01*
X128531926Y-57182217D01*
X128603182Y-57152702D01*
X128679650Y-57162769D01*
X128727990Y-57195068D01*
X128817738Y-57284816D01*
X128970478Y-57380789D01*
X129140745Y-57440368D01*
X129230372Y-57450466D01*
X129319999Y-57460565D01*
X129320000Y-57460565D01*
X129320001Y-57460565D01*
X129364813Y-57455515D01*
X129499255Y-57440368D01*
X129669522Y-57380789D01*
X129822262Y-57284816D01*
X129949816Y-57157262D01*
X130045789Y-57004522D01*
X130105368Y-56834255D01*
X130120500Y-56699954D01*
X130120500Y-55510046D01*
X130105368Y-55375745D01*
X130045789Y-55205478D01*
X129949816Y-55052738D01*
X129822262Y-54925184D01*
X129669522Y-54829211D01*
X129499255Y-54769632D01*
X129499254Y-54769631D01*
X129499253Y-54769631D01*
X129320001Y-54749435D01*
X129319999Y-54749435D01*
X129140747Y-54769631D01*
X128970477Y-54829211D01*
X128817738Y-54925184D01*
X128690184Y-55052738D01*
X128594209Y-55205479D01*
X128590581Y-55213015D01*
X128588260Y-55211897D01*
X128552409Y-55264463D01*
X128482913Y-55297917D01*
X128406002Y-55292141D01*
X128342283Y-55248683D01*
X128337027Y-55242216D01*
X128300451Y-55194549D01*
X128180233Y-55102302D01*
X128180232Y-55102301D01*
X128180232Y-55102300D01*
X128040233Y-55044311D01*
X127927725Y-55029500D01*
X127927720Y-55029500D01*
X127852280Y-55029500D01*
X127852274Y-55029500D01*
X127739766Y-55044311D01*
X127599767Y-55102300D01*
X127599767Y-55102301D01*
X127479551Y-55194547D01*
X127472644Y-55201455D01*
X127471330Y-55200141D01*
X127419685Y-55239765D01*
X127343216Y-55249827D01*
X127271961Y-55220306D01*
X127244465Y-55192808D01*
X127228282Y-55171718D01*
X127228281Y-55171717D01*
X127102840Y-55075463D01*
X126991874Y-55029500D01*
X126956762Y-55014956D01*
X126956760Y-55014955D01*
X126956756Y-55014954D01*
X126956759Y-55014954D01*
X126800003Y-54994318D01*
X126799997Y-54994318D01*
X126643242Y-55014954D01*
X126497159Y-55075463D01*
X126371718Y-55171717D01*
X126371717Y-55171718D01*
X126275463Y-55297159D01*
X126214954Y-55443242D01*
X126194318Y-55599997D01*
X126194318Y-55600002D01*
X126214954Y-55756757D01*
X126275463Y-55902840D01*
X126342186Y-55989795D01*
X126371701Y-56061052D01*
X126361634Y-56137520D01*
X126314681Y-56198710D01*
X126243424Y-56228225D01*
X126223976Y-56229500D01*
X126185228Y-56229500D01*
X126060931Y-56265996D01*
X126060928Y-56265997D01*
X126060927Y-56265998D01*
X125951955Y-56336030D01*
X125951952Y-56336031D01*
X125951951Y-56336033D01*
X125951949Y-56336034D01*
X125951948Y-56336036D01*
X125867118Y-56433935D01*
X125813302Y-56551776D01*
X125794867Y-56679996D01*
X125794867Y-56680003D01*
X125813302Y-56808223D01*
X125813302Y-56808224D01*
X125813303Y-56808226D01*
X125825189Y-56834253D01*
X125867118Y-56926064D01*
X125905357Y-56970194D01*
X125939058Y-57039570D01*
X125933555Y-57116502D01*
X125890324Y-57180375D01*
X125883456Y-57185977D01*
X125771720Y-57271715D01*
X125771717Y-57271718D01*
X125675463Y-57397159D01*
X125614954Y-57543242D01*
X125594318Y-57699997D01*
X125594318Y-57700002D01*
X122567135Y-57700002D01*
X122524536Y-57597159D01*
X122428282Y-57471718D01*
X122309780Y-57380788D01*
X122302840Y-57375463D01*
X122208858Y-57336535D01*
X122147668Y-57289583D01*
X122118153Y-57218325D01*
X122128220Y-57141857D01*
X122171561Y-57085373D01*
X122171376Y-57085188D01*
X122172781Y-57083782D01*
X122175169Y-57080670D01*
X122178282Y-57078282D01*
X122274536Y-56952841D01*
X122335044Y-56806762D01*
X122338992Y-56776780D01*
X122351732Y-56680003D01*
X122794867Y-56680003D01*
X122813302Y-56808223D01*
X122813302Y-56808224D01*
X122813303Y-56808226D01*
X122825189Y-56834253D01*
X122867118Y-56926064D01*
X122905357Y-56970194D01*
X122951951Y-57023967D01*
X123060931Y-57094004D01*
X123185228Y-57130500D01*
X123185231Y-57130500D01*
X123314769Y-57130500D01*
X123314772Y-57130500D01*
X123439069Y-57094004D01*
X123548049Y-57023967D01*
X123632882Y-56926063D01*
X123686697Y-56808226D01*
X123702264Y-56699954D01*
X123705133Y-56680003D01*
X123705133Y-56679996D01*
X123686697Y-56551776D01*
X123686697Y-56551774D01*
X123632882Y-56433937D01*
X123632881Y-56433936D01*
X123632881Y-56433935D01*
X123557690Y-56347160D01*
X123548049Y-56336033D01*
X123439069Y-56265996D01*
X123314772Y-56229500D01*
X123185228Y-56229500D01*
X123060931Y-56265996D01*
X123060928Y-56265997D01*
X123060927Y-56265998D01*
X122951955Y-56336030D01*
X122951952Y-56336031D01*
X122951951Y-56336033D01*
X122951949Y-56336034D01*
X122951948Y-56336036D01*
X122867118Y-56433935D01*
X122813302Y-56551776D01*
X122794867Y-56679996D01*
X122794867Y-56680003D01*
X122351732Y-56680003D01*
X122355682Y-56650002D01*
X122355682Y-56649997D01*
X122335045Y-56493242D01*
X122335044Y-56493240D01*
X122335044Y-56493238D01*
X122274536Y-56347159D01*
X122274533Y-56347155D01*
X122272176Y-56343072D01*
X122270953Y-56338509D01*
X122270799Y-56338137D01*
X122270848Y-56338116D01*
X122252212Y-56268573D01*
X122272172Y-56194072D01*
X122326709Y-56139533D01*
X122344193Y-56130911D01*
X122400232Y-56107699D01*
X122400232Y-56107698D01*
X122400233Y-56107698D01*
X122520451Y-56015451D01*
X122612698Y-55895233D01*
X122612698Y-55895232D01*
X122612699Y-55895232D01*
X122670688Y-55755233D01*
X122690466Y-55605002D01*
X122690466Y-55604997D01*
X122670688Y-55454766D01*
X122612699Y-55314767D01*
X122540215Y-55220306D01*
X122520451Y-55194549D01*
X122400233Y-55102302D01*
X122400232Y-55102301D01*
X122400232Y-55102300D01*
X122260233Y-55044311D01*
X122147725Y-55029500D01*
X122147720Y-55029500D01*
X122072280Y-55029500D01*
X122072274Y-55029500D01*
X121959766Y-55044311D01*
X121819767Y-55102300D01*
X121819767Y-55102301D01*
X121699551Y-55194547D01*
X121699546Y-55194552D01*
X121662971Y-55242217D01*
X121601781Y-55289169D01*
X121525312Y-55299235D01*
X121454056Y-55269718D01*
X121410242Y-55212618D01*
X121409419Y-55213015D01*
X121407518Y-55209067D01*
X121407104Y-55208528D01*
X121406514Y-55206984D01*
X121405790Y-55205479D01*
X121340959Y-55102302D01*
X121309816Y-55052738D01*
X121182262Y-54925184D01*
X121029522Y-54829211D01*
X120859255Y-54769632D01*
X120859254Y-54769631D01*
X120859253Y-54769631D01*
X120680001Y-54749435D01*
X120679999Y-54749435D01*
X120500747Y-54769631D01*
X120330477Y-54829211D01*
X120177738Y-54925184D01*
X120050184Y-55052738D01*
X119954211Y-55205477D01*
X119894631Y-55375746D01*
X119879500Y-55510047D01*
X119879500Y-56699952D01*
X108000000Y-56699952D01*
X108000000Y-50649500D01*
X108019962Y-50575000D01*
X108074500Y-50520462D01*
X108149000Y-50500500D01*
X120307194Y-50500500D01*
X120381694Y-50520462D01*
G37*
%TD.AperFunction*%
%TD*%
M02*
