%TF.GenerationSoftware,KiCad,Pcbnew,7.0.11+dfsg-1build4*%
%TF.CreationDate,2026-07-13T23:39:32-07:00*%
%TF.ProjectId,power_board_v1,706f7765-725f-4626-9f61-72645f76312e,rev?*%
%TF.SameCoordinates,Original*%
%TF.FileFunction,Paste,Top*%
%TF.FilePolarity,Positive*%
%FSLAX46Y46*%
G04 Gerber Fmt 4.6, Leading zero omitted, Abs format (unit mm)*
G04 Created by KiCad (PCBNEW 7.0.11+dfsg-1build4) date 2026-07-13 23:39:32*
%MOMM*%
%LPD*%
G01*
G04 APERTURE LIST*
G04 Aperture macros list*
%AMRoundRect*
0 Rectangle with rounded corners*
0 $1 Rounding radius*
0 $2 $3 $4 $5 $6 $7 $8 $9 X,Y pos of 4 corners*
0 Add a 4 corners polygon primitive as box body*
4,1,4,$2,$3,$4,$5,$6,$7,$8,$9,$2,$3,0*
0 Add four circle primitives for the rounded corners*
1,1,$1+$1,$2,$3*
1,1,$1+$1,$4,$5*
1,1,$1+$1,$6,$7*
1,1,$1+$1,$8,$9*
0 Add four rect primitives between the rounded corners*
20,1,$1+$1,$2,$3,$4,$5,0*
20,1,$1+$1,$4,$5,$6,$7,0*
20,1,$1+$1,$6,$7,$8,$9,0*
20,1,$1+$1,$8,$9,$2,$3,0*%
G04 Aperture macros list end*
%ADD10RoundRect,0.135000X0.185000X-0.135000X0.185000X0.135000X-0.185000X0.135000X-0.185000X-0.135000X0*%
%ADD11RoundRect,0.250000X-0.325000X-1.100000X0.325000X-1.100000X0.325000X1.100000X-0.325000X1.100000X0*%
%ADD12RoundRect,0.140000X0.140000X0.170000X-0.140000X0.170000X-0.140000X-0.170000X0.140000X-0.170000X0*%
%ADD13RoundRect,0.135000X0.135000X0.185000X-0.135000X0.185000X-0.135000X-0.185000X0.135000X-0.185000X0*%
%ADD14RoundRect,0.167500X-0.167500X-0.167500X0.167500X-0.167500X0.167500X0.167500X-0.167500X0.167500X0*%
%ADD15RoundRect,0.050000X-0.375000X-0.050000X0.375000X-0.050000X0.375000X0.050000X-0.375000X0.050000X0*%
%ADD16RoundRect,0.050000X-0.050000X-0.375000X0.050000X-0.375000X0.050000X0.375000X-0.050000X0.375000X0*%
%ADD17RoundRect,0.050000X-0.260000X-0.075000X0.260000X-0.075000X0.260000X0.075000X-0.260000X0.075000X0*%
%ADD18R,1.170000X2.250000*%
%ADD19RoundRect,0.135000X-0.185000X0.135000X-0.185000X-0.135000X0.185000X-0.135000X0.185000X0.135000X0*%
%ADD20RoundRect,0.150000X-0.512500X-0.150000X0.512500X-0.150000X0.512500X0.150000X-0.512500X0.150000X0*%
%ADD21RoundRect,0.140000X-0.140000X-0.170000X0.140000X-0.170000X0.140000X0.170000X-0.140000X0.170000X0*%
%ADD22R,0.570000X0.738000*%
%ADD23RoundRect,0.125000X-0.190000X-0.125000X0.190000X-0.125000X0.190000X0.125000X-0.190000X0.125000X0*%
%ADD24RoundRect,0.140000X0.170000X-0.140000X0.170000X0.140000X-0.170000X0.140000X-0.170000X-0.140000X0*%
%ADD25RoundRect,0.243750X-0.243750X-0.456250X0.243750X-0.456250X0.243750X0.456250X-0.243750X0.456250X0*%
%ADD26RoundRect,0.250000X-0.650000X0.325000X-0.650000X-0.325000X0.650000X-0.325000X0.650000X0.325000X0*%
%ADD27RoundRect,0.225000X0.250000X-0.225000X0.250000X0.225000X-0.250000X0.225000X-0.250000X-0.225000X0*%
%ADD28RoundRect,0.250000X0.550000X-1.500000X0.550000X1.500000X-0.550000X1.500000X-0.550000X-1.500000X0*%
%ADD29RoundRect,0.250000X-0.362500X-1.425000X0.362500X-1.425000X0.362500X1.425000X-0.362500X1.425000X0*%
%ADD30RoundRect,0.135000X-0.135000X-0.185000X0.135000X-0.185000X0.135000X0.185000X-0.135000X0.185000X0*%
%ADD31RoundRect,0.125000X0.190000X0.125000X-0.190000X0.125000X-0.190000X-0.125000X0.190000X-0.125000X0*%
%ADD32RoundRect,0.250000X0.900000X-1.000000X0.900000X1.000000X-0.900000X1.000000X-0.900000X-1.000000X0*%
%ADD33RoundRect,0.250000X-0.415000X-0.715000X0.415000X-0.715000X0.415000X0.715000X-0.415000X0.715000X0*%
%ADD34RoundRect,0.087500X-0.337500X-0.087500X0.337500X-0.087500X0.337500X0.087500X-0.337500X0.087500X0*%
%ADD35RoundRect,0.250000X1.100000X-0.325000X1.100000X0.325000X-1.100000X0.325000X-1.100000X-0.325000X0*%
%ADD36RoundRect,0.140000X-0.170000X0.140000X-0.170000X-0.140000X0.170000X-0.140000X0.170000X0.140000X0*%
%ADD37RoundRect,0.225000X0.225000X0.250000X-0.225000X0.250000X-0.225000X-0.250000X0.225000X-0.250000X0*%
%ADD38R,4.100000X4.100000*%
%ADD39RoundRect,0.250000X0.325000X0.650000X-0.325000X0.650000X-0.325000X-0.650000X0.325000X-0.650000X0*%
%ADD40RoundRect,0.075000X-0.650000X-0.075000X0.650000X-0.075000X0.650000X0.075000X-0.650000X0.075000X0*%
%ADD41RoundRect,0.170000X-0.170000X-0.210000X0.170000X-0.210000X0.170000X0.210000X-0.170000X0.210000X0*%
%ADD42RoundRect,0.100000X-0.625000X-0.100000X0.625000X-0.100000X0.625000X0.100000X-0.625000X0.100000X0*%
%ADD43RoundRect,0.250000X0.415000X0.715000X-0.415000X0.715000X-0.415000X-0.715000X0.415000X-0.715000X0*%
%ADD44RoundRect,0.087500X0.337500X0.087500X-0.337500X0.087500X-0.337500X-0.087500X0.337500X-0.087500X0*%
%ADD45R,2.350000X3.500000*%
%ADD46R,2.500000X1.100000*%
%ADD47RoundRect,0.062500X-0.062500X-0.237500X0.062500X-0.237500X0.062500X0.237500X-0.062500X0.237500X0*%
%ADD48RoundRect,0.062500X-0.237500X-0.062500X0.237500X-0.062500X0.237500X0.062500X-0.237500X0.062500X0*%
%ADD49R,1.530000X2.430000*%
%ADD50RoundRect,0.150000X-0.150000X-0.700000X0.150000X-0.700000X0.150000X0.700000X-0.150000X0.700000X0*%
%ADD51RoundRect,0.250000X-0.250000X-1.150000X0.250000X-1.150000X0.250000X1.150000X-0.250000X1.150000X0*%
%ADD52RoundRect,0.150000X-0.150000X0.512500X-0.150000X-0.512500X0.150000X-0.512500X0.150000X0.512500X0*%
%ADD53RoundRect,0.225000X-0.225000X-0.250000X0.225000X-0.250000X0.225000X0.250000X-0.225000X0.250000X0*%
%ADD54RoundRect,0.150000X0.150000X0.425000X-0.150000X0.425000X-0.150000X-0.425000X0.150000X-0.425000X0*%
%ADD55RoundRect,0.075000X0.075000X0.500000X-0.075000X0.500000X-0.075000X-0.500000X0.075000X-0.500000X0*%
%ADD56O,1.000000X2.100000*%
%ADD57O,1.000000X1.800000*%
%ADD58RoundRect,0.250000X-0.250000X-1.100000X0.250000X-1.100000X0.250000X1.100000X-0.250000X1.100000X0*%
%ADD59RoundRect,0.150000X0.150000X-0.512500X0.150000X0.512500X-0.150000X0.512500X-0.150000X-0.512500X0*%
%ADD60RoundRect,0.250000X-1.000000X-0.900000X1.000000X-0.900000X1.000000X0.900000X-1.000000X0.900000X0*%
%ADD61RoundRect,0.250000X-0.312500X-1.450000X0.312500X-1.450000X0.312500X1.450000X-0.312500X1.450000X0*%
%ADD62RoundRect,0.250000X0.650000X-0.325000X0.650000X0.325000X-0.650000X0.325000X-0.650000X-0.325000X0*%
%ADD63RoundRect,0.250000X-0.900000X1.000000X-0.900000X-1.000000X0.900000X-1.000000X0.900000X1.000000X0*%
%ADD64RoundRect,0.250000X-1.500000X-1.000000X1.500000X-1.000000X1.500000X1.000000X-1.500000X1.000000X0*%
%ADD65RoundRect,0.225000X0.225000X0.375000X-0.225000X0.375000X-0.225000X-0.375000X0.225000X-0.375000X0*%
G04 APERTURE END LIST*
D10*
%TO.C,R4*%
X74518000Y-86489000D03*
X74518000Y-85469000D03*
%TD*%
D11*
%TO.C,CB63*%
X116525000Y-96000000D03*
X119475000Y-96000000D03*
%TD*%
D12*
%TO.C,CB9*%
X77943000Y-93964000D03*
X76983000Y-93964000D03*
%TD*%
%TO.C,C13*%
X126553951Y-80415185D03*
X125593951Y-80415185D03*
%TD*%
D13*
%TO.C,RA4*%
X83003000Y-67401000D03*
X81983000Y-67401000D03*
%TD*%
D14*
%TO.C,U3*%
X63590000Y-100590000D03*
X63590000Y-101410000D03*
X64410000Y-100590000D03*
X64410000Y-101410000D03*
D15*
X62550000Y-100200000D03*
X62550000Y-100600000D03*
X62550000Y-101000000D03*
X62550000Y-101400000D03*
X62550000Y-101800000D03*
D16*
X63200000Y-102450000D03*
X63600000Y-102450000D03*
X64000000Y-102450000D03*
X64400000Y-102450000D03*
X64800000Y-102450000D03*
D15*
X65450000Y-101800000D03*
X65450000Y-101400000D03*
X65450000Y-101000000D03*
X65450000Y-100600000D03*
X65450000Y-100200000D03*
D16*
X64800000Y-99550000D03*
X64400000Y-99550000D03*
X64000000Y-99550000D03*
X63600000Y-99550000D03*
X63200000Y-99550000D03*
%TD*%
D13*
%TO.C,R16*%
X129596000Y-85938000D03*
X128576000Y-85938000D03*
%TD*%
D17*
%TO.C,U4*%
X52610000Y-88750000D03*
X52610000Y-89250000D03*
X52610000Y-89750000D03*
X52610000Y-90250000D03*
X52610000Y-90750000D03*
X52610000Y-91250000D03*
X55390000Y-91250000D03*
X55390000Y-90750000D03*
X55390000Y-90250000D03*
X55390000Y-89750000D03*
X55390000Y-89250000D03*
X55390000Y-88750000D03*
D18*
X54000000Y-90000000D03*
%TD*%
D19*
%TO.C,RA5*%
X84538000Y-65930000D03*
X84538000Y-66950000D03*
%TD*%
D11*
%TO.C,CA63*%
X114525000Y-63000000D03*
X117475000Y-63000000D03*
%TD*%
D19*
%TO.C,R34*%
X73516000Y-98996000D03*
X73516000Y-100016000D03*
%TD*%
D11*
%TO.C,CA64*%
X114525000Y-68000000D03*
X117475000Y-68000000D03*
%TD*%
D20*
%TO.C,D3*%
X129068499Y-102295000D03*
X129068499Y-103245000D03*
X129068499Y-104195000D03*
X131343499Y-104195000D03*
X131343499Y-103245000D03*
X131343499Y-102295000D03*
%TD*%
D21*
%TO.C,CB4*%
X82995000Y-88453000D03*
X83955000Y-88453000D03*
%TD*%
D22*
%TO.C,QB2*%
X95910000Y-94390000D03*
X95910000Y-95610000D03*
X96860000Y-94390000D03*
X96860000Y-95610000D03*
D23*
X97440000Y-94027500D03*
X97440000Y-94670000D03*
X97440000Y-95330000D03*
X97440000Y-95972500D03*
X94560000Y-94030000D03*
X94560000Y-94670000D03*
X94560000Y-95330000D03*
X94560000Y-95970000D03*
%TD*%
D13*
%TO.C,R25*%
X61961000Y-104976000D03*
X60941000Y-104976000D03*
%TD*%
D22*
%TO.C,Q2*%
X61910000Y-81390000D03*
X61910000Y-82610000D03*
X62860000Y-81390000D03*
X62860000Y-82610000D03*
D23*
X63440000Y-81027500D03*
X63440000Y-81670000D03*
X63440000Y-82330000D03*
X63440000Y-82972500D03*
X60560000Y-81030000D03*
X60560000Y-81670000D03*
X60560000Y-82330000D03*
X60560000Y-82970000D03*
%TD*%
D24*
%TO.C,C17*%
X57000000Y-90480000D03*
X57000000Y-89520000D03*
%TD*%
D25*
%TO.C,D4*%
X69785500Y-104486000D03*
X71660500Y-104486000D03*
%TD*%
D19*
%TO.C,R19*%
X68506000Y-84968000D03*
X68506000Y-85988000D03*
%TD*%
D11*
%TO.C,CA61*%
X114525000Y-53000000D03*
X117475000Y-53000000D03*
%TD*%
D26*
%TO.C,CA111*%
X131900000Y-55205000D03*
X131900000Y-58155000D03*
%TD*%
D27*
%TO.C,CB2*%
X130389000Y-98729000D03*
X130389000Y-97179000D03*
%TD*%
D28*
%TO.C,CB7*%
X104000000Y-105100000D03*
X104000000Y-99500000D03*
%TD*%
D10*
%TO.C,R23*%
X123616000Y-62441000D03*
X123616000Y-61421000D03*
%TD*%
D19*
%TO.C,R31*%
X77524000Y-85469000D03*
X77524000Y-86489000D03*
%TD*%
D21*
%TO.C,C3*%
X56160000Y-92915063D03*
X57120000Y-92915063D03*
%TD*%
D29*
%TO.C,R20*%
X71037500Y-62000000D03*
X76962500Y-62000000D03*
%TD*%
D30*
%TO.C,R30*%
X124568000Y-90447000D03*
X125588000Y-90447000D03*
%TD*%
D22*
%TO.C,QA1*%
X96090000Y-55610000D03*
X96090000Y-54390000D03*
X95140000Y-55610000D03*
X95140000Y-54390000D03*
D31*
X94560000Y-55972500D03*
X94560000Y-55330000D03*
X94560000Y-54670000D03*
X94560000Y-54027500D03*
X97440000Y-55970000D03*
X97440000Y-55330000D03*
X97440000Y-54670000D03*
X97440000Y-54030000D03*
%TD*%
D32*
%TO.C,D7*%
X130907000Y-78886000D03*
X130907000Y-74586000D03*
%TD*%
D22*
%TO.C,Q3*%
X61910000Y-91390000D03*
X61910000Y-92610000D03*
X62860000Y-91390000D03*
X62860000Y-92610000D03*
D23*
X63440000Y-91027500D03*
X63440000Y-91670000D03*
X63440000Y-92330000D03*
X63440000Y-92972500D03*
X60560000Y-91030000D03*
X60560000Y-91670000D03*
X60560000Y-92330000D03*
X60560000Y-92970000D03*
%TD*%
D33*
%TO.C,U8*%
X123161000Y-97684000D03*
D34*
X121711000Y-96709000D03*
X121711000Y-97359000D03*
X121711000Y-98009000D03*
X121711000Y-98659000D03*
X124611000Y-98659000D03*
X124611000Y-98009000D03*
X124611000Y-97359000D03*
X124611000Y-96709000D03*
%TD*%
D13*
%TO.C,R24*%
X123584000Y-59886000D03*
X122564000Y-59886000D03*
%TD*%
D33*
%TO.C,U7*%
X128170999Y-83155000D03*
D34*
X126720999Y-82180000D03*
X126720999Y-82830000D03*
X126720999Y-83480000D03*
X126720999Y-84130000D03*
X129620999Y-84130000D03*
X129620999Y-83480000D03*
X129620999Y-82830000D03*
X129620999Y-82180000D03*
%TD*%
D35*
%TO.C,CA52*%
X90000000Y-60975000D03*
X90000000Y-58025000D03*
%TD*%
D36*
%TO.C,CA3*%
X87033000Y-60469000D03*
X87033000Y-61429000D03*
%TD*%
D30*
%TO.C,R29*%
X66953000Y-104976000D03*
X67973000Y-104976000D03*
%TD*%
D37*
%TO.C,C7*%
X76625000Y-77025000D03*
X75075000Y-77025000D03*
%TD*%
D30*
%TO.C,R5*%
X71963000Y-85938000D03*
X72983000Y-85938000D03*
%TD*%
D12*
%TO.C,C14*%
X122191000Y-94859000D03*
X121231000Y-94859000D03*
%TD*%
D11*
%TO.C,CA62*%
X114525000Y-58000000D03*
X117475000Y-58000000D03*
%TD*%
D30*
%TO.C,R10*%
X64949000Y-81930000D03*
X65969000Y-81930000D03*
%TD*%
D35*
%TO.C,CB53*%
X90000000Y-96475000D03*
X90000000Y-93525000D03*
%TD*%
D38*
%TO.C,LB1*%
X101250000Y-92000000D03*
X110750000Y-92000000D03*
%TD*%
D39*
%TO.C,CA112*%
X122412000Y-81250000D03*
X119462000Y-81250000D03*
%TD*%
D40*
%TO.C,U5*%
X71800000Y-68000000D03*
X71800000Y-68500000D03*
X71800000Y-69000000D03*
X71800000Y-69500000D03*
X71800000Y-70000000D03*
X76200000Y-70000000D03*
X76200000Y-69500000D03*
X76200000Y-69000000D03*
X76200000Y-68500000D03*
X76200000Y-68000000D03*
%TD*%
D10*
%TO.C,R36*%
X127123000Y-62441000D03*
X127123000Y-61421000D03*
%TD*%
D12*
%TO.C,CA10*%
X80949000Y-70918000D03*
X79989000Y-70918000D03*
%TD*%
D39*
%TO.C,CB112*%
X139947000Y-95779000D03*
X136997000Y-95779000D03*
%TD*%
D41*
%TO.C,U6*%
X77580000Y-79530000D03*
X77580000Y-80470000D03*
X78420000Y-79530000D03*
X78420000Y-80470000D03*
D42*
X75850000Y-79025000D03*
X75850000Y-79675000D03*
X75850000Y-80325000D03*
X75850000Y-80975000D03*
X80150000Y-80975000D03*
X80150000Y-80325000D03*
X80150000Y-79675000D03*
X80150000Y-79025000D03*
%TD*%
D43*
%TO.C,U10*%
X130286000Y-63576000D03*
D44*
X131736000Y-64551000D03*
X131736000Y-63901000D03*
X131736000Y-63251000D03*
X131736000Y-62601000D03*
X128836000Y-62601000D03*
X128836000Y-63251000D03*
X128836000Y-63901000D03*
X128836000Y-64551000D03*
%TD*%
D22*
%TO.C,QB1*%
X96090000Y-87610000D03*
X96090000Y-86390000D03*
X95140000Y-87610000D03*
X95140000Y-86390000D03*
D31*
X94560000Y-87972500D03*
X94560000Y-87330000D03*
X94560000Y-86670000D03*
X94560000Y-86027500D03*
X97440000Y-87970000D03*
X97440000Y-87330000D03*
X97440000Y-86670000D03*
X97440000Y-86030000D03*
%TD*%
D30*
%TO.C,RB1*%
X81482000Y-99966000D03*
X82502000Y-99966000D03*
%TD*%
%TO.C,RA3*%
X79478000Y-64896000D03*
X80498000Y-64896000D03*
%TD*%
D45*
%TO.C,L4*%
X108975000Y-80000000D03*
X115025000Y-80000000D03*
%TD*%
D13*
%TO.C,RB4*%
X76991000Y-96960000D03*
X75971000Y-96960000D03*
%TD*%
D10*
%TO.C,RA6*%
X80029000Y-69455000D03*
X80029000Y-68435000D03*
%TD*%
D24*
%TO.C,C1*%
X58977000Y-87982000D03*
X58977000Y-87022000D03*
%TD*%
D46*
%TO.C,J5*%
X136350000Y-101500000D03*
X136350000Y-104000000D03*
X136350000Y-106000000D03*
X136350000Y-108500000D03*
%TD*%
D47*
%TO.C,U2*%
X81250000Y-93850000D03*
D48*
X80650000Y-93750000D03*
X80650000Y-93250000D03*
X80650000Y-92750000D03*
X80650000Y-92250000D03*
X80650000Y-91750000D03*
X80650000Y-91250000D03*
X80650000Y-90750000D03*
X80650000Y-90250000D03*
D47*
X81250000Y-90150000D03*
X82750000Y-90150000D03*
D48*
X83350000Y-90250000D03*
X83350000Y-90750000D03*
X83350000Y-91250000D03*
X83350000Y-91750000D03*
X83350000Y-92250000D03*
X83350000Y-92750000D03*
X83350000Y-93250000D03*
X83350000Y-93750000D03*
D47*
X82750000Y-93850000D03*
D49*
X82000000Y-92000000D03*
%TD*%
D11*
%TO.C,CB62*%
X116525000Y-91000000D03*
X119475000Y-91000000D03*
%TD*%
D10*
%TO.C,R28*%
X59488000Y-102521000D03*
X59488000Y-101501000D03*
%TD*%
D35*
%TO.C,CB51*%
X90000000Y-86475000D03*
X90000000Y-83525000D03*
%TD*%
D12*
%TO.C,C10*%
X74912233Y-71767766D03*
X73952233Y-71767766D03*
%TD*%
D50*
%TO.C,J11*%
X78750000Y-112950000D03*
X80000000Y-112950000D03*
X81250000Y-112950000D03*
D51*
X76900000Y-109600000D03*
X83100000Y-109600000D03*
%TD*%
D22*
%TO.C,QA2*%
X95910000Y-62390000D03*
X95910000Y-63610000D03*
X96860000Y-62390000D03*
X96860000Y-63610000D03*
D23*
X97440000Y-62027500D03*
X97440000Y-62670000D03*
X97440000Y-63330000D03*
X97440000Y-63972500D03*
X94560000Y-62030000D03*
X94560000Y-62670000D03*
X94560000Y-63330000D03*
X94560000Y-63970000D03*
%TD*%
D28*
%TO.C,CA7*%
X122000000Y-74800000D03*
X122000000Y-69200000D03*
%TD*%
D50*
%TO.C,J2*%
X53875000Y-104950000D03*
X55125000Y-104950000D03*
D51*
X52025000Y-101600000D03*
X56975000Y-101600000D03*
%TD*%
D52*
%TO.C,U9*%
X71688000Y-77709500D03*
X70738000Y-77709500D03*
X69788000Y-77709500D03*
X69788000Y-79984500D03*
X71688000Y-79984500D03*
%TD*%
D19*
%TO.C,RB2*%
X87043000Y-91481000D03*
X87043000Y-92501000D03*
%TD*%
D24*
%TO.C,CB10*%
X75510000Y-90487000D03*
X75510000Y-89527000D03*
%TD*%
D13*
%TO.C,R32*%
X99035000Y-100968000D03*
X98015000Y-100968000D03*
%TD*%
D36*
%TO.C,CA8*%
X86031000Y-66481000D03*
X86031000Y-67441000D03*
%TD*%
D13*
%TO.C,R2*%
X61961000Y-94956000D03*
X60941000Y-94956000D03*
%TD*%
D36*
%TO.C,CB1*%
X86031000Y-95038000D03*
X86031000Y-95998000D03*
%TD*%
D12*
%TO.C,CB8*%
X81951000Y-98473000D03*
X80991000Y-98473000D03*
%TD*%
D53*
%TO.C,C5*%
X65225000Y-97535898D03*
X66775000Y-97535898D03*
%TD*%
D54*
%TO.C,J3*%
X128200000Y-56680000D03*
X127400000Y-56680000D03*
D55*
X126250000Y-56680000D03*
X125250000Y-56680000D03*
X124750000Y-56680000D03*
X123750000Y-56680000D03*
D54*
X122600000Y-56680000D03*
X121800000Y-56680000D03*
X121800000Y-56680000D03*
X122600000Y-56680000D03*
D55*
X123250000Y-56680000D03*
X124250000Y-56680000D03*
X125750000Y-56680000D03*
X126750000Y-56680000D03*
D54*
X127400000Y-56680000D03*
X128200000Y-56680000D03*
D56*
X129320000Y-56105000D03*
D57*
X129320000Y-51925000D03*
D56*
X120680000Y-56105000D03*
D57*
X120680000Y-51925000D03*
%TD*%
D30*
%TO.C,R33*%
X74468000Y-94455000D03*
X75488000Y-94455000D03*
%TD*%
D13*
%TO.C,R26*%
X60458000Y-106479000D03*
X59438000Y-106479000D03*
%TD*%
D53*
%TO.C,C9*%
X72163000Y-82149563D03*
X73713000Y-82149563D03*
%TD*%
D19*
%TO.C,RB6*%
X78025000Y-90980000D03*
X78025000Y-92000000D03*
%TD*%
D10*
%TO.C,RA1*%
X78526000Y-58934000D03*
X78526000Y-57914000D03*
%TD*%
D47*
%TO.C,U1*%
X81250000Y-60850000D03*
D48*
X80650000Y-60750000D03*
X80650000Y-60250000D03*
X80650000Y-59750000D03*
X80650000Y-59250000D03*
X80650000Y-58750000D03*
X80650000Y-58250000D03*
X80650000Y-57750000D03*
X80650000Y-57250000D03*
D47*
X81250000Y-57150000D03*
X82750000Y-57150000D03*
D48*
X83350000Y-57250000D03*
X83350000Y-57750000D03*
X83350000Y-58250000D03*
X83350000Y-58750000D03*
X83350000Y-59250000D03*
X83350000Y-59750000D03*
X83350000Y-60250000D03*
X83350000Y-60750000D03*
D47*
X82750000Y-60850000D03*
D49*
X82000000Y-59000000D03*
%TD*%
D35*
%TO.C,CB52*%
X90000000Y-91475000D03*
X90000000Y-88525000D03*
%TD*%
D10*
%TO.C,R21*%
X76522000Y-73964000D03*
X76522000Y-72944000D03*
%TD*%
D19*
%TO.C,R17*%
X124117000Y-102002000D03*
X124117000Y-103022000D03*
%TD*%
D35*
%TO.C,CA51*%
X90000000Y-55975000D03*
X90000000Y-53025000D03*
%TD*%
D10*
%TO.C,RB3*%
X78526000Y-99515000D03*
X78526000Y-98495000D03*
%TD*%
D50*
%TO.C,J7*%
X63625000Y-109650000D03*
X64875000Y-109650000D03*
X66125000Y-109650000D03*
X67375000Y-109650000D03*
X68625000Y-109650000D03*
X69875000Y-109650000D03*
X71125000Y-109650000D03*
X72375000Y-109650000D03*
D58*
X61775000Y-112850000D03*
X74225000Y-112850000D03*
%TD*%
D11*
%TO.C,CB64*%
X116525000Y-101000000D03*
X119475000Y-101000000D03*
%TD*%
D36*
%TO.C,C6*%
X82023000Y-80509000D03*
X82023000Y-81469000D03*
%TD*%
%TO.C,CA9*%
X82023000Y-64476999D03*
X82023000Y-65436999D03*
%TD*%
D21*
%TO.C,C15*%
X51612361Y-87318148D03*
X52572361Y-87318148D03*
%TD*%
D50*
%TO.C,J8*%
X87375000Y-112950000D03*
X88625000Y-112950000D03*
D51*
X85525000Y-109600000D03*
X90475000Y-109600000D03*
%TD*%
D19*
%TO.C,R1*%
X58486000Y-92483000D03*
X58486000Y-93503000D03*
%TD*%
D21*
%TO.C,CA1*%
X81492000Y-62902000D03*
X82452000Y-62902000D03*
%TD*%
D59*
%TO.C,D2*%
X130549000Y-92008500D03*
X131499000Y-92008500D03*
X132449000Y-92008500D03*
X132449000Y-89733500D03*
X131499000Y-89733500D03*
X130549000Y-89733500D03*
%TD*%
D19*
%TO.C,R3*%
X58486000Y-95489000D03*
X58486000Y-96509000D03*
%TD*%
D46*
%TO.C,J4*%
X136350000Y-81500000D03*
X136350000Y-84000000D03*
X136350000Y-86000000D03*
X136350000Y-88500000D03*
%TD*%
D60*
%TO.C,D1*%
X105850000Y-73405000D03*
X110150000Y-73405000D03*
%TD*%
D10*
%TO.C,R11*%
X66501999Y-86990000D03*
X66501999Y-85970000D03*
%TD*%
D13*
%TO.C,R22*%
X69476000Y-98964000D03*
X68456000Y-98964000D03*
%TD*%
D11*
%TO.C,CB61*%
X116525000Y-86000000D03*
X119475000Y-86000000D03*
%TD*%
D19*
%TO.C,R35*%
X132633999Y-59918000D03*
X132633999Y-60938000D03*
%TD*%
%TO.C,RA2*%
X85039000Y-61421000D03*
X85039000Y-62441000D03*
%TD*%
D21*
%TO.C,C2*%
X61770000Y-97968911D03*
X62730000Y-97968911D03*
%TD*%
D61*
%TO.C,F2*%
X87862500Y-106000000D03*
X92137500Y-106000000D03*
%TD*%
D13*
%TO.C,RB5*%
X83003000Y-95958000D03*
X81983000Y-95958000D03*
%TD*%
D36*
%TO.C,CB3*%
X85530000Y-92032000D03*
X85530000Y-92992000D03*
%TD*%
D53*
%TO.C,C16*%
X52835000Y-92982050D03*
X54385000Y-92982050D03*
%TD*%
D38*
%TO.C,LA1*%
X101250000Y-59000000D03*
X110750000Y-59000000D03*
%TD*%
D24*
%TO.C,CA4*%
X85530000Y-58924000D03*
X85530000Y-57964000D03*
%TD*%
D12*
%TO.C,C8*%
X68030000Y-101400000D03*
X67070000Y-101400000D03*
%TD*%
D37*
%TO.C,CA2*%
X80812000Y-105217000D03*
X79262000Y-105217000D03*
%TD*%
D62*
%TO.C,CB111*%
X71190000Y-94601000D03*
X71190000Y-91651000D03*
%TD*%
D63*
%TO.C,D6*%
X103352000Y-79606000D03*
X103352000Y-83906000D03*
%TD*%
D64*
%TO.C,CE1*%
X88750000Y-74000000D03*
X95250000Y-74000000D03*
%TD*%
D12*
%TO.C,C4*%
X63030000Y-106800000D03*
X62070000Y-106800000D03*
%TD*%
D35*
%TO.C,CA53*%
X90000000Y-65975000D03*
X90000000Y-63025000D03*
%TD*%
D65*
%TO.C,D5*%
X83559000Y-75238000D03*
X80259000Y-75238000D03*
%TD*%
D46*
%TO.C,J13*%
X136350000Y-54500000D03*
X136350000Y-57000000D03*
X136350000Y-59000000D03*
X136350000Y-61500000D03*
%TD*%
D10*
%TO.C,R18*%
X67504000Y-95507000D03*
X67504000Y-94487000D03*
%TD*%
%TO.C,R27*%
X64498000Y-105527000D03*
X64498000Y-104507000D03*
%TD*%
M02*
