%TF.GenerationSoftware,KiCad,Pcbnew,7.0.11+dfsg-1build4*%
%TF.CreationDate,2026-07-13T20:16:47-07:00*%
%TF.ProjectId,power_board_v1,706f7765-725f-4626-9f61-72645f76312e,rev?*%
%TF.SameCoordinates,Original*%
%TF.FileFunction,Other,User*%
%FSLAX46Y46*%
G04 Gerber Fmt 4.6, Leading zero omitted, Abs format (unit mm)*
G04 Created by KiCad (PCBNEW 7.0.11+dfsg-1build4) date 2026-07-13 20:16:47*
%MOMM*%
%LPD*%
G01*
G04 APERTURE LIST*
%ADD10C,0.050000*%
G04 APERTURE END LIST*
D10*
%TO.C,CB52*%
X88400000Y-92300000D02*
X88400000Y-87700000D01*
X91600000Y-92300000D02*
X88400000Y-92300000D01*
X88400000Y-87700000D02*
X91600000Y-87700000D01*
X91600000Y-87700000D02*
X91600000Y-92300000D01*
%TO.C,CA10*%
X85090000Y-79540000D02*
X86910000Y-79540000D01*
X85090000Y-80460000D02*
X85090000Y-79540000D01*
X86910000Y-79540000D02*
X86910000Y-80460000D01*
X86910000Y-80460000D02*
X85090000Y-80460000D01*
%TO.C,RB4*%
X90070000Y-97530000D02*
X91930000Y-97530000D01*
X90070000Y-98470000D02*
X90070000Y-97530000D01*
X91930000Y-97530000D02*
X91930000Y-98470000D01*
X91930000Y-98470000D02*
X90070000Y-98470000D01*
%TO.C,D4*%
X51120000Y-94050000D02*
X54480000Y-94050000D01*
X51120000Y-95950000D02*
X51120000Y-94050000D01*
X54480000Y-94050000D02*
X54480000Y-95950000D01*
X54480000Y-95950000D02*
X51120000Y-95950000D01*
%TO.C,J8*%
X84520000Y-107700000D02*
X84520000Y-114300000D01*
X84520000Y-114300000D02*
X91480000Y-114300000D01*
X91480000Y-107700000D02*
X84520000Y-107700000D01*
X91480000Y-114300000D02*
X91480000Y-107700000D01*
%TO.C,R10*%
X51070000Y-96530000D02*
X52930000Y-96530000D01*
X51070000Y-97470000D02*
X51070000Y-96530000D01*
X52930000Y-96530000D02*
X52930000Y-97470000D01*
X52930000Y-97470000D02*
X51070000Y-97470000D01*
%TO.C,U2*%
X80050000Y-89500000D02*
X83950000Y-89500000D01*
X80050000Y-94500000D02*
X80050000Y-89500000D01*
X83950000Y-89500000D02*
X83950000Y-94500000D01*
X83950000Y-94500000D02*
X80050000Y-94500000D01*
%TO.C,CA52*%
X88400000Y-61800000D02*
X88400000Y-57200000D01*
X91600000Y-61800000D02*
X88400000Y-61800000D01*
X88400000Y-57200000D02*
X91600000Y-57200000D01*
X91600000Y-57200000D02*
X91600000Y-61800000D01*
%TO.C,R11*%
X55070000Y-96530000D02*
X56930000Y-96530000D01*
X55070000Y-97470000D02*
X55070000Y-96530000D01*
X56930000Y-96530000D02*
X56930000Y-97470000D01*
X56930000Y-97470000D02*
X55070000Y-97470000D01*
%TO.C,R31*%
X111090000Y-67530000D02*
X112950000Y-67530000D01*
X111090000Y-68470000D02*
X111090000Y-67530000D01*
X112950000Y-67530000D02*
X112950000Y-68470000D01*
X112950000Y-68470000D02*
X111090000Y-68470000D01*
%TO.C,R21*%
X107070000Y-67530000D02*
X108930000Y-67530000D01*
X107070000Y-68470000D02*
X107070000Y-67530000D01*
X108930000Y-67530000D02*
X108930000Y-68470000D01*
X108930000Y-68470000D02*
X107070000Y-68470000D01*
%TO.C,D2*%
X92230000Y-108875000D02*
X92230000Y-112275000D01*
X92230000Y-112275000D02*
X96330000Y-112275000D01*
X96330000Y-108875000D02*
X92230000Y-108875000D01*
X96330000Y-112275000D02*
X96330000Y-108875000D01*
%TO.C,C14*%
X102090000Y-67540000D02*
X103910000Y-67540000D01*
X102090000Y-68460000D02*
X102090000Y-67540000D01*
X103910000Y-67540000D02*
X103910000Y-68460000D01*
X103910000Y-68460000D02*
X102090000Y-68460000D01*
%TO.C,D6*%
X99500000Y-86450000D02*
X106800000Y-86450000D01*
X99500000Y-90950000D02*
X99500000Y-86450000D01*
X106800000Y-86450000D02*
X106800000Y-90950000D01*
X106800000Y-90950000D02*
X99500000Y-90950000D01*
%TO.C,J6*%
X96000000Y-107290000D02*
X96000000Y-118100000D01*
X96000000Y-118100000D02*
X107000000Y-118100000D01*
X107000000Y-107290000D02*
X96000000Y-107290000D01*
X107000000Y-118100000D02*
X107000000Y-107290000D01*
%TO.C,Q2*%
X60000000Y-80100000D02*
X60000000Y-83900000D01*
X60000000Y-80100000D02*
X64000000Y-80100000D01*
X60000000Y-83900000D02*
X64000000Y-83900000D01*
X64000000Y-80100000D02*
X64000000Y-83900000D01*
%TO.C,R4*%
X90070000Y-80820000D02*
X91930000Y-80820000D01*
X90070000Y-81760000D02*
X90070000Y-80820000D01*
X91930000Y-80820000D02*
X91930000Y-81760000D01*
X91930000Y-81760000D02*
X90070000Y-81760000D01*
%TO.C,H1*%
X58450000Y-55000000D02*
G75*
G03*
X51550000Y-55000000I-3450000J0D01*
G01*
X51550000Y-55000000D02*
G75*
G03*
X58450000Y-55000000I3450000J0D01*
G01*
%TO.C,R22*%
X71070000Y-100530000D02*
X72930000Y-100530000D01*
X71070000Y-101470000D02*
X71070000Y-100530000D01*
X72930000Y-100530000D02*
X72930000Y-101470000D01*
X72930000Y-101470000D02*
X71070000Y-101470000D01*
%TO.C,C8*%
X67090000Y-104540000D02*
X68910000Y-104540000D01*
X67090000Y-105460000D02*
X67090000Y-104540000D01*
X68910000Y-104540000D02*
X68910000Y-105460000D01*
X68910000Y-105460000D02*
X67090000Y-105460000D01*
%TO.C,U6*%
X74880000Y-78250000D02*
X74880000Y-81750000D01*
X74880000Y-81750000D02*
X81120000Y-81750000D01*
X81120000Y-78250000D02*
X74880000Y-78250000D01*
X81120000Y-81750000D02*
X81120000Y-78250000D01*
%TO.C,QA2*%
X94000000Y-61100000D02*
X94000000Y-64900000D01*
X94000000Y-61100000D02*
X98000000Y-61100000D01*
X94000000Y-64900000D02*
X98000000Y-64900000D01*
X98000000Y-61100000D02*
X98000000Y-64900000D01*
%TO.C,U5*%
X70820000Y-67250000D02*
X70820000Y-70750000D01*
X70820000Y-70750000D02*
X77180000Y-70750000D01*
X77180000Y-67250000D02*
X70820000Y-67250000D01*
X77180000Y-70750000D02*
X77180000Y-67250000D01*
%TO.C,CA53*%
X88400000Y-66800000D02*
X88400000Y-62200000D01*
X91600000Y-66800000D02*
X88400000Y-66800000D01*
X88400000Y-62200000D02*
X91600000Y-62200000D01*
X91600000Y-62200000D02*
X91600000Y-66800000D01*
%TO.C,RB1*%
X75070000Y-97530000D02*
X76930000Y-97530000D01*
X75070000Y-98470000D02*
X75070000Y-97530000D01*
X76930000Y-97530000D02*
X76930000Y-98470000D01*
X76930000Y-98470000D02*
X75070000Y-98470000D01*
%TO.C,U7*%
X102950000Y-82300000D02*
X102950000Y-85700000D01*
X102950000Y-85700000D02*
X107050000Y-85700000D01*
X107050000Y-82300000D02*
X102950000Y-82300000D01*
X107050000Y-85700000D02*
X107050000Y-82300000D01*
%TO.C,J5*%
X124600000Y-95450000D02*
X126850000Y-95450000D01*
X124600000Y-104550000D02*
X124600000Y-95450000D01*
X124600000Y-104550000D02*
X126850000Y-104550000D01*
X126850000Y-92850000D02*
X126850000Y-95450000D01*
X126850000Y-92850000D02*
X131350000Y-92850000D01*
X126850000Y-104550000D02*
X126850000Y-107150000D01*
X126850000Y-107150000D02*
X131350000Y-107150000D01*
X131350000Y-93480000D02*
X131350000Y-92850000D01*
X131350000Y-93480000D02*
X147400000Y-93480000D01*
X131350000Y-106520000D02*
X147400000Y-106520000D01*
X131350000Y-107150000D02*
X131350000Y-106520000D01*
X147400000Y-106520000D02*
X147400000Y-93480000D01*
%TO.C,F2*%
X87050000Y-104050000D02*
X92950000Y-104050000D01*
X87050000Y-107950000D02*
X87050000Y-104050000D01*
X92950000Y-104050000D02*
X92950000Y-107950000D01*
X92950000Y-107950000D02*
X87050000Y-107950000D01*
%TO.C,CB9*%
X80090000Y-105540000D02*
X81910000Y-105540000D01*
X80090000Y-106460000D02*
X80090000Y-105540000D01*
X81910000Y-105540000D02*
X81910000Y-106460000D01*
X81910000Y-106460000D02*
X80090000Y-106460000D01*
%TO.C,U8*%
X117950000Y-108300000D02*
X117950000Y-111700000D01*
X117950000Y-111700000D02*
X122050000Y-111700000D01*
X122050000Y-108300000D02*
X117950000Y-108300000D01*
X122050000Y-111700000D02*
X122050000Y-108300000D01*
%TO.C,J11*%
X75900000Y-107700000D02*
X75900000Y-114300000D01*
X75900000Y-114300000D02*
X84100000Y-114300000D01*
X84100000Y-107700000D02*
X75900000Y-107700000D01*
X84100000Y-114300000D02*
X84100000Y-107700000D01*
%TO.C,Q3*%
X60000000Y-90100000D02*
X60000000Y-93900000D01*
X60000000Y-90100000D02*
X64000000Y-90100000D01*
X60000000Y-93900000D02*
X64000000Y-93900000D01*
X64000000Y-90100000D02*
X64000000Y-93900000D01*
%TO.C,J3*%
X130320000Y-57760000D02*
X119680000Y-57760000D01*
X119680000Y-57760000D02*
X119680000Y-48820000D01*
X119680000Y-48820000D02*
X130320000Y-48820000D01*
X130320000Y-48820000D02*
X130320000Y-57760000D01*
%TO.C,J4*%
X124600000Y-80450000D02*
X126850000Y-80450000D01*
X124600000Y-89550000D02*
X124600000Y-80450000D01*
X124600000Y-89550000D02*
X126850000Y-89550000D01*
X126850000Y-77850000D02*
X126850000Y-80450000D01*
X126850000Y-77850000D02*
X131350000Y-77850000D01*
X126850000Y-89550000D02*
X126850000Y-92150000D01*
X126850000Y-92150000D02*
X131350000Y-92150000D01*
X131350000Y-78480000D02*
X131350000Y-77850000D01*
X131350000Y-78480000D02*
X147400000Y-78480000D01*
X131350000Y-91520000D02*
X147400000Y-91520000D01*
X131350000Y-92150000D02*
X131350000Y-91520000D01*
X147400000Y-91520000D02*
X147400000Y-78480000D01*
%TO.C,D7*%
X100350000Y-77750000D02*
X107650000Y-77750000D01*
X100350000Y-82250000D02*
X100350000Y-77750000D01*
X107650000Y-77750000D02*
X107650000Y-82250000D01*
X107650000Y-82250000D02*
X100350000Y-82250000D01*
%TO.C,C6*%
X102090000Y-65045000D02*
X103910000Y-65045000D01*
X102090000Y-65965000D02*
X102090000Y-65045000D01*
X103910000Y-65045000D02*
X103910000Y-65965000D01*
X103910000Y-65965000D02*
X102090000Y-65965000D01*
%TO.C,R34*%
X107070000Y-71530000D02*
X108930000Y-71530000D01*
X107070000Y-72470000D02*
X107070000Y-71530000D01*
X108930000Y-71530000D02*
X108930000Y-72470000D01*
X108930000Y-72470000D02*
X107070000Y-72470000D01*
%TO.C,CA64*%
X113700000Y-66400000D02*
X118300000Y-66400000D01*
X113700000Y-69600000D02*
X113700000Y-66400000D01*
X118300000Y-66400000D02*
X118300000Y-69600000D01*
X118300000Y-69600000D02*
X113700000Y-69600000D01*
%TO.C,RB6*%
X75070000Y-101530000D02*
X76930000Y-101530000D01*
X75070000Y-102470000D02*
X75070000Y-101530000D01*
X76930000Y-101530000D02*
X76930000Y-102470000D01*
X76930000Y-102470000D02*
X75070000Y-102470000D01*
%TO.C,H2*%
X138450000Y-55000000D02*
G75*
G03*
X131550000Y-55000000I-3450000J0D01*
G01*
X131550000Y-55000000D02*
G75*
G03*
X138450000Y-55000000I3450000J0D01*
G01*
%TO.C,R28*%
X52070000Y-98010000D02*
X53930000Y-98010000D01*
X52070000Y-98950000D02*
X52070000Y-98010000D01*
X53930000Y-98010000D02*
X53930000Y-98950000D01*
X53930000Y-98950000D02*
X52070000Y-98950000D01*
%TO.C,R17*%
X75970000Y-109530000D02*
X77830000Y-109530000D01*
X75970000Y-110470000D02*
X75970000Y-109530000D01*
X77830000Y-109530000D02*
X77830000Y-110470000D01*
X77830000Y-110470000D02*
X75970000Y-110470000D01*
%TO.C,CA7*%
X120950000Y-76800000D02*
X123050000Y-76800000D01*
X123050000Y-76800000D02*
X123050000Y-75550000D01*
X119600000Y-75550000D02*
X120950000Y-75550000D01*
X119600000Y-75550000D02*
X118450000Y-74400000D01*
X120950000Y-75550000D02*
X120950000Y-76800000D01*
X123050000Y-75550000D02*
X124400000Y-75550000D01*
X124400000Y-75550000D02*
X125550000Y-74400000D01*
X118450000Y-74400000D02*
X118450000Y-68450000D01*
X125550000Y-74400000D02*
X125550000Y-68450000D01*
X118450000Y-68450000D02*
X120950000Y-68450000D01*
X120950000Y-68450000D02*
X120950000Y-67200000D01*
X123050000Y-68450000D02*
X125550000Y-68450000D01*
X120950000Y-67200000D02*
X123050000Y-67200000D01*
X123050000Y-67200000D02*
X123050000Y-68450000D01*
%TO.C,RA2*%
X80070000Y-71530000D02*
X81930000Y-71530000D01*
X80070000Y-72470000D02*
X80070000Y-71530000D01*
X81930000Y-71530000D02*
X81930000Y-72470000D01*
X81930000Y-72470000D02*
X80070000Y-72470000D01*
%TO.C,R16*%
X100070000Y-81530000D02*
X101930000Y-81530000D01*
X100070000Y-82470000D02*
X100070000Y-81530000D01*
X101930000Y-81530000D02*
X101930000Y-82470000D01*
X101930000Y-82470000D02*
X100070000Y-82470000D01*
%TO.C,CB51*%
X88400000Y-87300000D02*
X88400000Y-82700000D01*
X91600000Y-87300000D02*
X88400000Y-87300000D01*
X88400000Y-82700000D02*
X91600000Y-82700000D01*
X91600000Y-82700000D02*
X91600000Y-87300000D01*
%TO.C,U4*%
X52050000Y-88250000D02*
X55950000Y-88250000D01*
X52050000Y-91750000D02*
X52050000Y-88250000D01*
X55950000Y-88250000D02*
X55950000Y-91750000D01*
X55950000Y-91750000D02*
X52050000Y-91750000D01*
%TO.C,R18*%
X63070000Y-103880000D02*
X64930000Y-103880000D01*
X63070000Y-104820000D02*
X63070000Y-103880000D01*
X64930000Y-103880000D02*
X64930000Y-104820000D01*
X64930000Y-104820000D02*
X63070000Y-104820000D01*
%TO.C,R24*%
X98000000Y-77210000D02*
X99860000Y-77210000D01*
X98000000Y-78150000D02*
X98000000Y-77210000D01*
X99860000Y-77210000D02*
X99860000Y-78150000D01*
X99860000Y-78150000D02*
X98000000Y-78150000D01*
%TO.C,CA8*%
X72310000Y-79540000D02*
X74130000Y-79540000D01*
X72310000Y-80460000D02*
X72310000Y-79540000D01*
X74130000Y-79540000D02*
X74130000Y-80460000D01*
X74130000Y-80460000D02*
X72310000Y-80460000D01*
%TO.C,H4*%
X138450000Y-110000000D02*
G75*
G03*
X131550000Y-110000000I-3450000J0D01*
G01*
X131550000Y-110000000D02*
G75*
G03*
X138450000Y-110000000I3450000J0D01*
G01*
%TO.C,CB7*%
X102950000Y-107100000D02*
X105050000Y-107100000D01*
X105050000Y-107100000D02*
X105050000Y-105850000D01*
X101600000Y-105850000D02*
X102950000Y-105850000D01*
X101600000Y-105850000D02*
X100450000Y-104700000D01*
X102950000Y-105850000D02*
X102950000Y-107100000D01*
X105050000Y-105850000D02*
X106400000Y-105850000D01*
X106400000Y-105850000D02*
X107550000Y-104700000D01*
X100450000Y-104700000D02*
X100450000Y-98750000D01*
X107550000Y-104700000D02*
X107550000Y-98750000D01*
X100450000Y-98750000D02*
X102950000Y-98750000D01*
X102950000Y-98750000D02*
X102950000Y-97500000D01*
X105050000Y-98750000D02*
X107550000Y-98750000D01*
X102950000Y-97500000D02*
X105050000Y-97500000D01*
X105050000Y-97500000D02*
X105050000Y-98750000D01*
%TO.C,R27*%
X71070000Y-96530000D02*
X72930000Y-96530000D01*
X71070000Y-97470000D02*
X71070000Y-96530000D01*
X72930000Y-96530000D02*
X72930000Y-97470000D01*
X72930000Y-97470000D02*
X71070000Y-97470000D01*
%TO.C,C9*%
X106520000Y-65045000D02*
X109480000Y-65045000D01*
X106520000Y-66505000D02*
X106520000Y-65045000D01*
X109480000Y-65045000D02*
X109480000Y-66505000D01*
X109480000Y-66505000D02*
X106520000Y-66505000D01*
%TO.C,CA62*%
X113700000Y-56400000D02*
X118300000Y-56400000D01*
X113700000Y-59600000D02*
X113700000Y-56400000D01*
X118300000Y-56400000D02*
X118300000Y-59600000D01*
X118300000Y-59600000D02*
X113700000Y-59600000D01*
%TO.C,CB4*%
X96150000Y-101540000D02*
X97970000Y-101540000D01*
X96150000Y-102460000D02*
X96150000Y-101540000D01*
X97970000Y-101540000D02*
X97970000Y-102460000D01*
X97970000Y-102460000D02*
X96150000Y-102460000D01*
%TO.C,R2*%
X55070000Y-105235000D02*
X56930000Y-105235000D01*
X55070000Y-106175000D02*
X55070000Y-105235000D01*
X56930000Y-105235000D02*
X56930000Y-106175000D01*
X56930000Y-106175000D02*
X55070000Y-106175000D01*
%TO.C,C5*%
X95240000Y-65650000D02*
X98200000Y-65650000D01*
X95240000Y-67110000D02*
X95240000Y-65650000D01*
X98200000Y-65650000D02*
X98200000Y-67110000D01*
X98200000Y-67110000D02*
X95240000Y-67110000D01*
%TO.C,R32*%
X98000000Y-71530000D02*
X99860000Y-71530000D01*
X98000000Y-72470000D02*
X98000000Y-71530000D01*
X99860000Y-71530000D02*
X99860000Y-72470000D01*
X99860000Y-72470000D02*
X98000000Y-72470000D01*
%TO.C,QB2*%
X94000000Y-93100000D02*
X94000000Y-96900000D01*
X94000000Y-93100000D02*
X98000000Y-93100000D01*
X94000000Y-96900000D02*
X98000000Y-96900000D01*
X98000000Y-93100000D02*
X98000000Y-96900000D01*
%TO.C,CE1*%
X86750000Y-72500000D02*
X86750000Y-75500000D01*
X86750000Y-75500000D02*
X87600000Y-75500000D01*
X87600000Y-70750000D02*
X87600000Y-72500000D01*
X87600000Y-70750000D02*
X88750000Y-69600000D01*
X87600000Y-72500000D02*
X86750000Y-72500000D01*
X87600000Y-75500000D02*
X87600000Y-77250000D01*
X87600000Y-77250000D02*
X88750000Y-78400000D01*
X88750000Y-69600000D02*
X96400000Y-69600000D01*
X88750000Y-78400000D02*
X96400000Y-78400000D01*
X96400000Y-69600000D02*
X96400000Y-72500000D01*
X96400000Y-72500000D02*
X97250000Y-72500000D01*
X96400000Y-75500000D02*
X96400000Y-78400000D01*
X97250000Y-72500000D02*
X97250000Y-75500000D01*
X97250000Y-75500000D02*
X96400000Y-75500000D01*
%TO.C,C15*%
X66090000Y-74540000D02*
X67910000Y-74540000D01*
X66090000Y-75460000D02*
X66090000Y-74540000D01*
X67910000Y-74540000D02*
X67910000Y-75460000D01*
X67910000Y-75460000D02*
X66090000Y-75460000D01*
%TO.C,R1*%
X52070000Y-105235000D02*
X53930000Y-105235000D01*
X52070000Y-106175000D02*
X52070000Y-105235000D01*
X53930000Y-105235000D02*
X53930000Y-106175000D01*
X53930000Y-106175000D02*
X52070000Y-106175000D01*
%TO.C,C16*%
X68520000Y-91270000D02*
X71480000Y-91270000D01*
X68520000Y-92730000D02*
X68520000Y-91270000D01*
X71480000Y-91270000D02*
X71480000Y-92730000D01*
X71480000Y-92730000D02*
X68520000Y-92730000D01*
%TO.C,CB63*%
X115700000Y-94400000D02*
X120300000Y-94400000D01*
X115700000Y-97600000D02*
X115700000Y-94400000D01*
X120300000Y-94400000D02*
X120300000Y-97600000D01*
X120300000Y-97600000D02*
X115700000Y-97600000D01*
%TO.C,CB111*%
X116700000Y-77850000D02*
X121300000Y-77850000D01*
X116700000Y-80150000D02*
X116700000Y-77850000D01*
X121300000Y-77850000D02*
X121300000Y-80150000D01*
X121300000Y-80150000D02*
X116700000Y-80150000D01*
%TO.C,R23*%
X112070000Y-71530000D02*
X113930000Y-71530000D01*
X112070000Y-72470000D02*
X112070000Y-71530000D01*
X113930000Y-71530000D02*
X113930000Y-72470000D01*
X113930000Y-72470000D02*
X112070000Y-72470000D01*
%TO.C,R33*%
X102070000Y-71530000D02*
X103930000Y-71530000D01*
X102070000Y-72470000D02*
X102070000Y-71530000D01*
X103930000Y-71530000D02*
X103930000Y-72470000D01*
X103930000Y-72470000D02*
X102070000Y-72470000D01*
%TO.C,RA5*%
X98000000Y-73220000D02*
X99860000Y-73220000D01*
X98000000Y-74160000D02*
X98000000Y-73220000D01*
X99860000Y-73220000D02*
X99860000Y-74160000D01*
X99860000Y-74160000D02*
X98000000Y-74160000D01*
%TO.C,CA51*%
X88400000Y-56800000D02*
X88400000Y-52200000D01*
X91600000Y-56800000D02*
X88400000Y-56800000D01*
X88400000Y-52200000D02*
X91600000Y-52200000D01*
X91600000Y-52200000D02*
X91600000Y-56800000D01*
%TO.C,CA4*%
X98000000Y-75540000D02*
X99820000Y-75540000D01*
X98000000Y-76460000D02*
X98000000Y-75540000D01*
X99820000Y-75540000D02*
X99820000Y-76460000D01*
X99820000Y-76460000D02*
X98000000Y-76460000D01*
%TO.C,CB53*%
X88400000Y-97300000D02*
X88400000Y-92700000D01*
X91600000Y-97300000D02*
X88400000Y-97300000D01*
X88400000Y-92700000D02*
X91600000Y-92700000D01*
X91600000Y-92700000D02*
X91600000Y-97300000D01*
%TO.C,CB61*%
X115700000Y-84400000D02*
X120300000Y-84400000D01*
X115700000Y-87600000D02*
X115700000Y-84400000D01*
X120300000Y-84400000D02*
X120300000Y-87600000D01*
X120300000Y-87600000D02*
X115700000Y-87600000D01*
%TO.C,D5*%
X81650000Y-62850000D02*
X81650000Y-65150000D01*
X81650000Y-62850000D02*
X86350000Y-62850000D01*
X86350000Y-62850000D02*
X86350000Y-65150000D01*
X86350000Y-65150000D02*
X81650000Y-65150000D01*
%TO.C,U3*%
X61870000Y-98870000D02*
X61870000Y-103130000D01*
X61870000Y-103130000D02*
X66130000Y-103130000D01*
X66130000Y-98870000D02*
X61870000Y-98870000D01*
X66130000Y-103130000D02*
X66130000Y-98870000D01*
%TO.C,R25*%
X63070000Y-96530000D02*
X64930000Y-96530000D01*
X63070000Y-97470000D02*
X63070000Y-96530000D01*
X64930000Y-96530000D02*
X64930000Y-97470000D01*
X64930000Y-97470000D02*
X63070000Y-97470000D01*
%TO.C,CB3*%
X90090000Y-103550000D02*
X91910000Y-103550000D01*
X90090000Y-104470000D02*
X90090000Y-103550000D01*
X91910000Y-103550000D02*
X91910000Y-104470000D01*
X91910000Y-104470000D02*
X90090000Y-104470000D01*
%TO.C,CB62*%
X115700000Y-89400000D02*
X120300000Y-89400000D01*
X115700000Y-92600000D02*
X115700000Y-89400000D01*
X120300000Y-89400000D02*
X120300000Y-92600000D01*
X120300000Y-92600000D02*
X115700000Y-92600000D01*
%TO.C,J7*%
X60780000Y-108300000D02*
X60780000Y-114700000D01*
X60780000Y-114700000D02*
X75220000Y-114700000D01*
X75220000Y-108300000D02*
X60780000Y-108300000D01*
X75220000Y-114700000D02*
X75220000Y-108300000D01*
%TO.C,R26*%
X67070000Y-96530000D02*
X68930000Y-96530000D01*
X67070000Y-97470000D02*
X67070000Y-96530000D01*
X68930000Y-96530000D02*
X68930000Y-97470000D01*
X68930000Y-97470000D02*
X67070000Y-97470000D01*
%TO.C,CA9*%
X81870000Y-79540000D02*
X83690000Y-79540000D01*
X81870000Y-80460000D02*
X81870000Y-79540000D01*
X83690000Y-79540000D02*
X83690000Y-80460000D01*
X83690000Y-80460000D02*
X81870000Y-80460000D01*
%TO.C,R29*%
X55070000Y-98010000D02*
X56930000Y-98010000D01*
X55070000Y-98950000D02*
X55070000Y-98010000D01*
X56930000Y-98010000D02*
X56930000Y-98950000D01*
X56930000Y-98950000D02*
X55070000Y-98950000D01*
%TO.C,U1*%
X80050000Y-56500000D02*
X83950000Y-56500000D01*
X80050000Y-61500000D02*
X80050000Y-56500000D01*
X83950000Y-56500000D02*
X83950000Y-61500000D01*
X83950000Y-61500000D02*
X80050000Y-61500000D01*
%TO.C,CB1*%
X80090000Y-101540000D02*
X81910000Y-101540000D01*
X80090000Y-102460000D02*
X80090000Y-101540000D01*
X81910000Y-101540000D02*
X81910000Y-102460000D01*
X81910000Y-102460000D02*
X80090000Y-102460000D01*
%TO.C,RB2*%
X80070000Y-97530000D02*
X81930000Y-97530000D01*
X80070000Y-98470000D02*
X80070000Y-97530000D01*
X81930000Y-97530000D02*
X81930000Y-98470000D01*
X81930000Y-98470000D02*
X80070000Y-98470000D01*
%TO.C,C2*%
X69090000Y-83540000D02*
X70910000Y-83540000D01*
X69090000Y-84460000D02*
X69090000Y-83540000D01*
X70910000Y-83540000D02*
X70910000Y-84460000D01*
X70910000Y-84460000D02*
X69090000Y-84460000D01*
%TO.C,CA2*%
X82755000Y-75270000D02*
X85715000Y-75270000D01*
X82755000Y-76730000D02*
X82755000Y-75270000D01*
X85715000Y-75270000D02*
X85715000Y-76730000D01*
X85715000Y-76730000D02*
X82755000Y-76730000D01*
%TO.C,C17*%
X71090000Y-104540000D02*
X72910000Y-104540000D01*
X71090000Y-105460000D02*
X71090000Y-104540000D01*
X72910000Y-104540000D02*
X72910000Y-105460000D01*
X72910000Y-105460000D02*
X71090000Y-105460000D01*
%TO.C,CA111*%
X118700000Y-59850000D02*
X123300000Y-59850000D01*
X118700000Y-62150000D02*
X118700000Y-59850000D01*
X123300000Y-59850000D02*
X123300000Y-62150000D01*
X123300000Y-62150000D02*
X118700000Y-62150000D01*
%TO.C,CA63*%
X113700000Y-61400000D02*
X118300000Y-61400000D01*
X113700000Y-64600000D02*
X113700000Y-61400000D01*
X118300000Y-61400000D02*
X118300000Y-64600000D01*
X118300000Y-64600000D02*
X113700000Y-64600000D01*
%TO.C,D1*%
X100350000Y-73750000D02*
X107650000Y-73750000D01*
X100350000Y-78250000D02*
X100350000Y-73750000D01*
X107650000Y-73750000D02*
X107650000Y-78250000D01*
X107650000Y-78250000D02*
X100350000Y-78250000D01*
%TO.C,RA4*%
X90070000Y-67910000D02*
X91930000Y-67910000D01*
X90070000Y-68850000D02*
X90070000Y-67910000D01*
X91930000Y-67910000D02*
X91930000Y-68850000D01*
X91930000Y-68850000D02*
X90070000Y-68850000D01*
%TO.C,CA1*%
X80090000Y-75540000D02*
X81910000Y-75540000D01*
X80090000Y-76460000D02*
X80090000Y-75540000D01*
X81910000Y-75540000D02*
X81910000Y-76460000D01*
X81910000Y-76460000D02*
X80090000Y-76460000D01*
%TO.C,RB5*%
X95070000Y-97530000D02*
X96930000Y-97530000D01*
X95070000Y-98470000D02*
X95070000Y-97530000D01*
X96930000Y-97530000D02*
X96930000Y-98470000D01*
X96930000Y-98470000D02*
X95070000Y-98470000D01*
%TO.C,CB64*%
X115700000Y-99400000D02*
X120300000Y-99400000D01*
X115700000Y-102600000D02*
X115700000Y-99400000D01*
X120300000Y-99400000D02*
X120300000Y-102600000D01*
X120300000Y-102600000D02*
X115700000Y-102600000D01*
%TO.C,C3*%
X69090000Y-87540000D02*
X70910000Y-87540000D01*
X69090000Y-88460000D02*
X69090000Y-87540000D01*
X70910000Y-87540000D02*
X70910000Y-88460000D01*
X70910000Y-88460000D02*
X69090000Y-88460000D01*
%TO.C,CB8*%
X75090000Y-105540000D02*
X76910000Y-105540000D01*
X75090000Y-106460000D02*
X75090000Y-105540000D01*
X76910000Y-105540000D02*
X76910000Y-106460000D01*
X76910000Y-106460000D02*
X75090000Y-106460000D01*
%TO.C,CB2*%
X83340000Y-103550000D02*
X86300000Y-103550000D01*
X83340000Y-105010000D02*
X83340000Y-103550000D01*
X86300000Y-103550000D02*
X86300000Y-105010000D01*
X86300000Y-105010000D02*
X83340000Y-105010000D01*
%TO.C,C7*%
X62520000Y-104270000D02*
X65480000Y-104270000D01*
X62520000Y-105730000D02*
X62520000Y-104270000D01*
X65480000Y-104270000D02*
X65480000Y-105730000D01*
X65480000Y-105730000D02*
X62520000Y-105730000D01*
%TO.C,J12*%
X141600000Y-62350000D02*
X125750000Y-62350000D01*
X141600000Y-62350000D02*
X141600000Y-76650000D01*
X125750000Y-62350000D02*
X125750000Y-76650000D01*
X141600000Y-76650000D02*
X125750000Y-76650000D01*
%TO.C,J9*%
X111200000Y-102200000D02*
X111200000Y-113400000D01*
X111200000Y-113400000D02*
X114800000Y-113400000D01*
X114800000Y-102200000D02*
X111200000Y-102200000D01*
X114800000Y-113400000D02*
X114800000Y-102200000D01*
%TO.C,CB112*%
X116700000Y-81850000D02*
X121300000Y-81850000D01*
X116700000Y-84150000D02*
X116700000Y-81850000D01*
X121300000Y-81850000D02*
X121300000Y-84150000D01*
X121300000Y-84150000D02*
X116700000Y-84150000D01*
%TO.C,CB10*%
X85090000Y-105540000D02*
X86910000Y-105540000D01*
X85090000Y-106460000D02*
X85090000Y-105540000D01*
X86910000Y-105540000D02*
X86910000Y-106460000D01*
X86910000Y-106460000D02*
X85090000Y-106460000D01*
%TO.C,J2*%
X51020000Y-99700000D02*
X51020000Y-106300000D01*
X51020000Y-106300000D02*
X57980000Y-106300000D01*
X57980000Y-99700000D02*
X51020000Y-99700000D01*
X57980000Y-106300000D02*
X57980000Y-99700000D01*
%TO.C,RA3*%
X83855000Y-71530000D02*
X85715000Y-71530000D01*
X83855000Y-72470000D02*
X83855000Y-71530000D01*
X85715000Y-71530000D02*
X85715000Y-72470000D01*
X85715000Y-72470000D02*
X83855000Y-72470000D01*
%TO.C,C1*%
X69090000Y-79540000D02*
X70910000Y-79540000D01*
X69090000Y-80460000D02*
X69090000Y-79540000D01*
X70910000Y-79540000D02*
X70910000Y-80460000D01*
X70910000Y-80460000D02*
X69090000Y-80460000D01*
%TO.C,RA6*%
X75070000Y-75530000D02*
X76930000Y-75530000D01*
X75070000Y-76470000D02*
X75070000Y-75530000D01*
X76930000Y-75530000D02*
X76930000Y-76470000D01*
X76930000Y-76470000D02*
X75070000Y-76470000D01*
%TO.C,R3*%
X59070000Y-104530000D02*
X60930000Y-104530000D01*
X59070000Y-105470000D02*
X59070000Y-104530000D01*
X60930000Y-104530000D02*
X60930000Y-105470000D01*
X60930000Y-105470000D02*
X59070000Y-105470000D01*
%TO.C,CA112*%
X118700000Y-63850000D02*
X123300000Y-63850000D01*
X118700000Y-66150000D02*
X118700000Y-63850000D01*
X123300000Y-63850000D02*
X123300000Y-66150000D01*
X123300000Y-66150000D02*
X118700000Y-66150000D01*
%TO.C,LA1*%
X98950000Y-53750000D02*
X98950000Y-64250000D01*
X98950000Y-64250000D02*
X113050000Y-64250000D01*
X113050000Y-53750000D02*
X98950000Y-53750000D01*
X113050000Y-64250000D02*
X113050000Y-53750000D01*
%TO.C,CA3*%
X90090000Y-79150000D02*
X91910000Y-79150000D01*
X90090000Y-80070000D02*
X90090000Y-79150000D01*
X91910000Y-79150000D02*
X91910000Y-80070000D01*
X91910000Y-80070000D02*
X90090000Y-80070000D01*
%TO.C,LB1*%
X98950000Y-86750000D02*
X98950000Y-97250000D01*
X98950000Y-97250000D02*
X113050000Y-97250000D01*
X113050000Y-86750000D02*
X98950000Y-86750000D01*
X113050000Y-97250000D02*
X113050000Y-86750000D01*
%TO.C,R19*%
X67070000Y-100530000D02*
X68930000Y-100530000D01*
X67070000Y-101470000D02*
X67070000Y-100530000D01*
X68930000Y-100530000D02*
X68930000Y-101470000D01*
X68930000Y-101470000D02*
X67070000Y-101470000D01*
%TO.C,R20*%
X70180000Y-60080000D02*
X77820000Y-60080000D01*
X70180000Y-63920000D02*
X70180000Y-60080000D01*
X77820000Y-60080000D02*
X77820000Y-63920000D01*
X77820000Y-63920000D02*
X70180000Y-63920000D01*
%TO.C,J1*%
X40150000Y-76650000D02*
X59550000Y-76650000D01*
X40150000Y-76650000D02*
X40150000Y-60150000D01*
X40150000Y-60150000D02*
X59550000Y-60150000D01*
X59550000Y-60150000D02*
X59550000Y-76650000D01*
%TO.C,R5*%
X95070000Y-79530000D02*
X96930000Y-79530000D01*
X95070000Y-80470000D02*
X95070000Y-79530000D01*
X96930000Y-79530000D02*
X96930000Y-80470000D01*
X96930000Y-80470000D02*
X95070000Y-80470000D01*
%TO.C,L4*%
X107550000Y-76450000D02*
X107550000Y-83550000D01*
X107550000Y-83550000D02*
X116450000Y-83550000D01*
X116450000Y-76450000D02*
X107550000Y-76450000D01*
X116450000Y-83550000D02*
X116450000Y-76450000D01*
%TO.C,C13*%
X97090000Y-67540000D02*
X98910000Y-67540000D01*
X97090000Y-68460000D02*
X97090000Y-67540000D01*
X98910000Y-67540000D02*
X98910000Y-68460000D01*
X98910000Y-68460000D02*
X97090000Y-68460000D01*
%TO.C,J10*%
X84200000Y-102800000D02*
X95400000Y-102800000D01*
X95400000Y-102800000D02*
X95400000Y-99200000D01*
X84200000Y-99200000D02*
X84200000Y-102800000D01*
X95400000Y-99200000D02*
X84200000Y-99200000D01*
%TO.C,QA1*%
X98000000Y-56900000D02*
X98000000Y-53100000D01*
X98000000Y-56900000D02*
X94000000Y-56900000D01*
X98000000Y-53100000D02*
X94000000Y-53100000D01*
X94000000Y-56900000D02*
X94000000Y-53100000D01*
%TO.C,H3*%
X58450000Y-110000000D02*
G75*
G03*
X51550000Y-110000000I-3450000J0D01*
G01*
X51550000Y-110000000D02*
G75*
G03*
X58450000Y-110000000I3450000J0D01*
G01*
%TO.C,C4*%
X59090000Y-96540000D02*
X60910000Y-96540000D01*
X59090000Y-97460000D02*
X59090000Y-96540000D01*
X60910000Y-96540000D02*
X60910000Y-97460000D01*
X60910000Y-97460000D02*
X59090000Y-97460000D01*
%TO.C,CA61*%
X113700000Y-51400000D02*
X118300000Y-51400000D01*
X113700000Y-54600000D02*
X113700000Y-51400000D01*
X118300000Y-51400000D02*
X118300000Y-54600000D01*
X118300000Y-54600000D02*
X113700000Y-54600000D01*
%TO.C,U9*%
X75950000Y-84300000D02*
X75950000Y-87700000D01*
X75950000Y-87700000D02*
X80050000Y-87700000D01*
X80050000Y-84300000D02*
X75950000Y-84300000D01*
X80050000Y-87700000D02*
X80050000Y-84300000D01*
%TO.C,F1*%
X61750000Y-72100000D02*
X61750000Y-51100000D01*
X68750000Y-72100000D02*
X61750000Y-72100000D01*
X61750000Y-51100000D02*
X68750000Y-51100000D01*
X68750000Y-51100000D02*
X68750000Y-72100000D01*
%TO.C,QB1*%
X98000000Y-88900000D02*
X98000000Y-85100000D01*
X98000000Y-88900000D02*
X94000000Y-88900000D01*
X98000000Y-85100000D02*
X94000000Y-85100000D01*
X94000000Y-88900000D02*
X94000000Y-85100000D01*
%TO.C,D3*%
X93950000Y-103140000D02*
X93950000Y-106540000D01*
X93950000Y-106540000D02*
X98050000Y-106540000D01*
X98050000Y-103140000D02*
X93950000Y-103140000D01*
X98050000Y-106540000D02*
X98050000Y-103140000D01*
%TO.C,C10*%
X111130000Y-65045000D02*
X112950000Y-65045000D01*
X111130000Y-65965000D02*
X111130000Y-65045000D01*
X112950000Y-65045000D02*
X112950000Y-65965000D01*
X112950000Y-65965000D02*
X111130000Y-65965000D01*
%TO.C,RA1*%
X75070000Y-71530000D02*
X76930000Y-71530000D01*
X75070000Y-72470000D02*
X75070000Y-71530000D01*
X76930000Y-71530000D02*
X76930000Y-72470000D01*
X76930000Y-72470000D02*
X75070000Y-72470000D01*
%TO.C,R30*%
X59070000Y-100530000D02*
X60930000Y-100530000D01*
X59070000Y-101470000D02*
X59070000Y-100530000D01*
X60930000Y-100530000D02*
X60930000Y-101470000D01*
X60930000Y-101470000D02*
X59070000Y-101470000D01*
%TO.C,RB3*%
X85070000Y-97530000D02*
X86930000Y-97530000D01*
X85070000Y-98470000D02*
X85070000Y-97530000D01*
X86930000Y-97530000D02*
X86930000Y-98470000D01*
X86930000Y-98470000D02*
X85070000Y-98470000D01*
%TD*%
M02*
