M48
; DRILL file {KiCad 7.0.11+dfsg-1build4} date Mon Jul 13 23:39:32 2026
; FORMAT={-:-/ absolute / metric / decimal}
; #@! TF.CreationDate,2026-07-13T23:39:32-07:00
; #@! TF.GenerationSoftware,Kicad,Pcbnew,7.0.11+dfsg-1build4
; #@! TF.FileFunction,Plated,1,4,PTH
FMAT,2
METRIC
; #@! TA.AperFunction,Plated,PTH,ViaDrill
T1C0.150
; #@! TA.AperFunction,Plated,PTH,ViaDrill
T2C0.200
; #@! TA.AperFunction,Plated,PTH,ViaDrill
T3C0.290
; #@! TA.AperFunction,Plated,PTH,ViaDrill
T4C0.300
; #@! TA.AperFunction,Plated,PTH,ComponentDrill
T5C0.600
; #@! TA.AperFunction,Plated,PTH,ComponentDrill
T6C0.900
; #@! TA.AperFunction,Plated,PTH,ComponentDrill
T7C1.000
; #@! TA.AperFunction,Plated,PTH,ComponentDrill
T8C1.300
; #@! TA.AperFunction,Plated,PTH,ComponentDrill
T9C1.400
; #@! TA.AperFunction,Plated,PTH,ComponentDrill
T10C2.700
%
G90
G05
T1
X52.61Y-90.25
X52.61Y-90.75
X55.39Y-89.25
X55.39Y-90.25
X55.39Y-91.25
X62.45Y-101.0
X62.6Y-101.4
X63.15Y-99.5
X64.0Y-102.45
X65.3Y-100.6
X65.45Y-101.0
X80.6Y-58.7
X80.6Y-91.7
X80.65Y-57.75
X80.65Y-59.25
X80.65Y-60.25
X80.65Y-90.75
X80.65Y-92.25
X80.65Y-92.75
X80.65Y-93.75
X81.2Y-94.1
X82.7Y-90.1
X83.2Y-60.85
X83.3Y-60.3
X83.35Y-57.25
X83.35Y-59.75
X83.35Y-92.75
X83.35Y-93.75
X83.45Y-90.15
X97.338Y-55.2
X123.25Y-56.68
X126.25Y-56.68
T2
X59.6Y-94.6
X60.587Y-81.7
X60.6Y-106.4
X60.9Y-95.7
X60.9Y-105.1
X61.9Y-103.9
X63.0Y-102.6
X63.0Y-106.0
X63.4Y-103.8
X63.7Y-104.9
X64.3Y-104.8
X64.9Y-105.2
X65.0Y-99.6
X65.4Y-102.4
X65.8Y-85.1
X65.8Y-86.5
X66.0Y-91.1
X66.6Y-96.0
X66.7Y-103.6
X66.8Y-102.8
X67.3Y-93.7
X67.4Y-103.6
X67.5Y-94.8
X67.9Y-101.3
X68.2Y-100.3
X68.3Y-89.6
X68.3Y-102.7
X68.3Y-103.8
X68.6Y-94.3
X68.6Y-98.1
X68.8Y-85.0
X69.4Y-103.3
X69.5Y-98.7
X69.6Y-100.3
X70.5Y-100.5
X70.9Y-103.4
X71.1Y-85.0
X71.8Y-106.0
X72.9Y-72.8
X73.0Y-106.0
X73.9Y-72.8
X80.0Y-63.2
X80.7Y-62.5
X81.0Y-77.5
X82.0Y-77.5
X82.5Y-64.7
X83.5Y-64.9
X84.3Y-89.3
X85.3Y-89.7
X97.413Y-56.0
X121.75Y-96.75
X124.9Y-93.9
X125.6Y-93.2
X131.736Y-64.551
T3
X58.35Y-92.35
X59.488Y-101.501
X59.488Y-102.521
X60.947Y-94.956
X80.498Y-64.896
X83.003Y-95.958
X127.123Y-61.421
T4
X51.6Y-87.3
X52.9Y-86.0
X53.5Y-83.8
X53.8Y-94.5
X55.2Y-95.9
X55.7Y-93.9
X56.3Y-88.3
X57.0Y-89.6
X57.0Y-91.8
X57.6Y-93.9
X58.2Y-105.5
X58.6Y-94.7
X59.4Y-93.0
X59.6Y-106.0
X60.4Y-81.0
X60.5Y-91.1
X61.4Y-69.2
X62.2Y-77.1
X62.4Y-88.5
X62.55Y-97.8
X62.7Y-93.6
X62.7Y-96.1
X63.4Y-89.5
X64.7Y-106.5
X66.2Y-74.1
X66.5Y-86.1
X67.1Y-74.8
X67.8Y-105.1
X68.5Y-91.6
X69.3Y-92.8
X69.7Y-105.1
X69.7Y-106.5
X70.4Y-70.5
X70.4Y-72.3
X70.4Y-91.8
X70.7Y-75.9
X70.7Y-77.2
X71.2Y-95.3
X71.6Y-78.0
X71.6Y-102.0
X71.6Y-104.0
X72.3Y-107.6
X72.4Y-109.9
X72.6Y-100.3
X72.7Y-64.1
X72.7Y-65.7
X72.7Y-91.1
X73.5Y-99.9
X73.7Y-82.1
X74.0Y-71.7
X74.5Y-67.5
X75.0Y-106.2
X75.1Y-91.0
X75.4Y-72.6
X75.5Y-85.4
X75.6Y-106.8
X75.7Y-68.7
X75.9Y-63.1
X75.9Y-78.1
X76.0Y-95.9
X76.3Y-89.8
X76.5Y-74.0
X76.6Y-71.7
X76.7Y-100.3
X76.9Y-91.6
X77.0Y-94.9
X77.1Y-101.7
X77.3Y-79.5
X77.5Y-91.0
X78.3Y-63.9
X78.5Y-84.9
X78.5Y-99.5
X78.6Y-69.7
X78.9Y-82.5
X79.4Y-76.8
X79.4Y-78.2
X79.6Y-93.0
X79.6Y-98.5
X79.7Y-105.1
X79.8Y-58.2
X79.8Y-92.2
X80.1Y-68.3
X80.1Y-81.1
X80.4Y-64.1
X80.4Y-73.3
X80.4Y-96.3
X80.5Y-61.4
X80.6Y-95.5
X80.7Y-104.1
X80.7Y-108.3
X80.8Y-71.5
X80.8Y-72.6
X81.0Y-98.5
X81.1Y-102.1
X81.5Y-91.5
X81.9Y-61.5
X82.0Y-80.6
X82.2Y-71.5
X82.3Y-63.4
X82.3Y-66.1
X82.4Y-60.0
X83.1Y-67.4
X83.4Y-100.3
X83.6Y-73.3
X83.7Y-64.0
X84.1Y-61.8
X84.2Y-92.5
X84.5Y-94.3
X84.6Y-91.3
X84.7Y-56.6
X84.9Y-88.4
X85.1Y-61.4
X85.5Y-59.8
X85.7Y-84.6
X85.9Y-82.4
X85.9Y-104.9
X86.0Y-89.3
X86.7Y-98.2
X86.8Y-63.0
X86.9Y-81.4
X87.0Y-58.5
X87.0Y-59.5
X87.0Y-93.9
X87.0Y-96.4
X87.2Y-61.4
X88.8Y-95.3
X88.9Y-74.1
X90.0Y-56.0
X90.0Y-60.8
X90.0Y-66.0
X90.0Y-86.5
X90.0Y-91.5
X90.0Y-96.5
X90.6Y-83.2
X90.6Y-106.9
X91.1Y-74.5
X91.4Y-94.1
X92.4Y-93.1
X93.0Y-102.9
X93.7Y-105.1
X94.6Y-88.8
X95.0Y-100.5
X95.6Y-55.0
X95.6Y-87.0
X95.8Y-99.1
X96.1Y-62.4
X96.1Y-84.5
X96.4Y-95.0
X98.2Y-60.2
X98.8Y-94.4
X99.0Y-101.0
X99.5Y-98.5
X101.3Y-100.3
X101.3Y-106.5
X102.6Y-99.2
X105.4Y-99.2
X110.1Y-81.1
X110.1Y-83.3
X111.1Y-104.0
X114.0Y-99.9
X115.0Y-101.5
X116.4Y-60.1
X116.5Y-88.3
X116.5Y-91.4
X116.5Y-93.7
X116.5Y-96.6
X116.9Y-103.4
X117.9Y-81.1
X118.0Y-62.3
X118.4Y-99.4
X118.5Y-88.7
X118.5Y-90.1
X118.5Y-93.3
X118.6Y-60.1
X119.0Y-66.9
X119.8Y-60.5
X119.8Y-98.0
X120.2Y-68.1
X120.2Y-70.3
X120.2Y-79.0
X120.4Y-101.3
X121.3Y-67.6
X121.4Y-102.3
X121.75Y-56.65
X122.2Y-81.0
X122.2Y-94.9
X122.3Y-96.4
X123.2Y-57.8
X123.6Y-59.9
X123.6Y-62.4
X123.6Y-63.1
X123.9Y-99.7
X123.9Y-101.1
X124.3Y-103.0
X124.9Y-97.9
X125.3Y-57.8
X125.8Y-103.5
X126.2Y-57.7
X126.3Y-98.3
X126.6Y-80.4
X126.7Y-83.4
X127.4Y-57.5
X127.7Y-102.1
X128.0Y-61.1
X128.2Y-56.68
X128.7Y-102.3
X129.7Y-54.5
X129.7Y-100.1
X129.9Y-79.9
X130.3Y-85.2
X131.15Y-102.1
X131.2Y-64.9
X131.2Y-104.3
X131.3Y-86.2
X131.3Y-103.2
X131.5Y-92.4
X131.5Y-94.0
X131.8Y-97.6
X132.6Y-59.9
X132.7Y-90.0
X132.7Y-91.5
X132.9Y-106.0
X133.1Y-63.0
X133.7Y-97.6
X134.1Y-95.2
X134.1Y-103.2
X135.4Y-87.3
X135.6Y-103.1
X135.7Y-62.0
T7
X51.5Y-79.225
X51.5Y-81.765
X86.0Y-101.0
X88.54Y-101.0
X91.08Y-101.0
X93.62Y-101.0
X113.0Y-104.0
X113.0Y-106.54
X113.0Y-109.08
X113.0Y-111.62
X138.0Y-70.0
X140.54Y-70.0
X143.08Y-70.0
X145.62Y-70.0
T8
X99.0Y-113.0
X104.0Y-113.0
T9
X64.0Y-55.2
X64.0Y-58.7
X64.0Y-64.5
X64.0Y-68.0
X66.5Y-55.2
X66.5Y-58.7
X66.5Y-64.5
X66.5Y-68.0
T10
X57.0Y-64.8
X57.0Y-72.0
T5
G00X50.45Y-61.65
M15
G01X51.55Y-61.65
M16
G05
G00X50.45Y-75.15
M15
G01X51.55Y-75.15
M16
G05
G00X120.68Y-52.325
M15
G01X120.68Y-51.525
M16
G05
G00X120.68Y-56.655
M15
G01X120.68Y-55.555
M16
G05
G00X129.32Y-52.325
M15
G01X129.32Y-51.525
M16
G05
G00X129.32Y-56.655
M15
G01X129.32Y-55.555
M16
G05
T6
G00X138.3Y-52.3
M15
G01X139.9Y-52.3
M16
G05
G00X138.3Y-63.7
M15
G01X139.9Y-63.7
M16
G05
G00X138.3Y-79.3
M15
G01X139.9Y-79.3
M16
G05
G00X138.3Y-90.7
M15
G01X139.9Y-90.7
M16
G05
G00X138.3Y-99.3
M15
G01X139.9Y-99.3
M16
G05
G00X138.3Y-110.7
M15
G01X139.9Y-110.7
M16
G05
M30
